<?xml version="1.0" encoding="utf-8"?>
<!-- Generator: Adobe Illustrator 15.1.0, SVG Export Plug-In . SVG Version: 6.00 Build 0)  -->
<!DOCTYPE svg PUBLIC "-//W3C//DTD SVG 1.1//EN" "http://www.w3.org/Graphics/SVG/1.1/DTD/svg11.dtd">
<svg version="1.1" id="Layer_1" xmlns="http://www.w3.org/2000/svg" xmlns:xlink="http://www.w3.org/1999/xlink" x="0px" y="0px"
	 width="1539.154px" height="909.091px" viewBox="-336.714 134.333 1539.154 909.091"
	 enable-background="new -336.714 134.333 1539.154 909.091" xml:space="preserve">
<g>
	<g>
		<path fill="#444444" d="M989.478,397.563c0.314,4.075,2.805,6.063,6.404,4.663c6.596-2.563,9.32,2.002,12.227,6
			c2.574,3.543,5.396,4.277,9.537,1.693c1.213-0.756,2.371-2.203,3.996-1.25c0.549,0.322,0.857,1.408,0.896,2.164
			c0.076,1.512-0.863,2.559-2.266,2.904c-1.494,0.368-1.676,1.373-1.672,2.743c1.295-3.016,3.814-3.506,6.229-2.434
			c3,1.336,0.768,3.832,0.324,5.633c-0.457,1.863-1.785,3.506-2.713,5.256c-1.406,2.656-2.984,5.228,0.807,7.472
			c1.408,0.832,1.035,2.692,0.936,4.188c-0.57,8.369,6.168,14.486,14.129,14.068c3.766-0.199,7.275,0.66,10.996,3.119
			c2.311,1.525,8.352,5.936,12.283-0.104c0.152-0.236,0.65-0.499,0.857-0.417c5.324,2.116,9.348-2.311,14.145-2.783
			c3.48-0.344,6.262,0.162,5.066,4.75c-0.514,1.975,0.279,3.445,1.139,5.139c1.258,2.473,3.621,4.182,4.137,7.26
			c0.355,2.131,2.91,2.676,4.941,2.422c3.301-0.416,6.52,1,9.863,0.029c2.252-0.654,4.023,1.063,4.811,2.82
			c2.146,4.791,5.732,6.377,10.695,5.943c1.4-0.123,3.365-0.324,3.813,1.51c0.381,1.563-0.928,3.148-2.16,3.646
			c-7.012,2.824-13.766,7.881-21.91,3.42c-2.402-1.316-2.939-0.166-2.924,1.982c0.041,4.711,4.383,7.6,10.404,6.369
			c4.264-0.869,8.268-2.395,12.375,0.674c1.43,1.066,2.217-0.33,2.451-1.938c0.563-3.828,3.502-3.365,5.617-2.229
			c3.877,2.078,8.346,4.18,6.266,10.299c6.758-2.541,7.514-2.01,9.527,4.088c0.928,2.805,2.564,5.625,6.59,3.68
			c1.33-0.643,2.822-1,4.279-1.316c1.998-0.436,3.318-0.217,3.801,2.441c0.926,5.113,1.154,5.072,4.727,7.4
			c-1.037,2.115-2.672,1.371-4.275,0.938c-7.068-1.904-13.959-2.504-20.559,1.844c-1.529,1.008-3.543,1.813-5.684,1.375
			c-3.869-0.793-7.221,0.463-10.256,2.801c-0.395,0.303-0.76,0.688-1.203,0.875c-3.021,1.264-9.664,0.672-2.783,6.574
			c1.566,1.346-0.348,4.744-1.385,6.93c-0.643,1.355-1.168,2.652-1.586,4.096c-0.84,2.889,0.332,4.076,2.836,3.102
			c3.66-1.43,6.473-1.316,10.396,0.332c3.957,1.658,8.996-0.816,13.518-1.748c0.635-0.129,1.27-0.879,1.799-0.781
			c5.438,1.004,9.955-0.078,12.91-5.213c0.129-0.227,1.197-0.273,1.316-0.084c2.314,3.678,8.959,2.916,9.053,8.963
			c0.023,1.406,1.146,2.729,2.551,3.531c0.717,0.41,1.863,0.875,1.953,1.447c1.098,7.045,4.707,5.893,9.094,3.02
			c1.129-0.74,2.766-0.807,3.576,0.563c1.027,1.73-0.35,2.75-1.639,3.596c-0.689,0.451-1.537,1.18-2.205,1.076
			c-5.289-0.816-9.424,1.709-13.473,4.469c-3.012,2.053-5.977-1.943-9.086,0.121c-1.602,1.064-4.066,1.213-4.027,3.742
			c0.033,2.137-0.271,4.225,2.291,5.93c2.244,1.494,2.883,4.748,6.215,5.848c1.979,0.654,1.273,3.227-0.873,4.125
			c-1.316,0.555-2.852,0.59-4.691,0.938c3.283,1.465,3.213,3.34,0.869,5.16c-2.055,1.602-4.313,3.674-6.775,0.572
			c-0.627-0.787-0.346-2.621-2.189-1.559c-0.539,0.311-1.264,0.75-1.383,1.252c-0.285,1.215,0.814,1.66,1.658,2.148
			c3.898,2.248,2.039,3.682-0.752,4.783c-1.217,0.48-3.143,0.535-2.729,2.162c0.473,1.879,2.521,1.396,3.857,0.945
			c2.867-0.969,5.578-0.492,8.314,0.334c1.102,0.332,2.346,0.6,2.596,1.992c0.248,1.391-0.846,2.094-1.729,2.809
			c-1.512,1.223-3.748,1.486-4.65,3.521l0.066-0.07c-0.992,0.121-2.281-0.115-2.928,0.422c-6.109,5.066-14.656,7.084-18.688,14.729
			c-3.148,5.971-9.951,5.326-14.809,8.215c-1.354,0.805-1.973-1.178-2.037-2.607c-0.215-4.461-2.896-5.305-6.527-4.115
			c-3.582,1.172-7.18,2.502-9.234,6.146c1.51,1.91,4.896-0.686,5.475,2.328c0.453,2.361-1.49,3.91-2.902,5.533
			c-1.742,2.004-0.33,2.979,1.346,2.691c2.797-0.479,6.139-0.021,7.922-3.199c0.756-1.342,1.996-1.717,3.43-1.334
			c1.82,0.486,1.549,1.984,1.322,3.27c-0.598,3.416,1.189,4.021,4.041,3.746c4.146-0.406,8.297-0.568,12.297,0.98
			c3.395,1.318,4.469-0.129,3.385-3.215c-1.008-2.865,0.348-3.188,2.58-3.086c1.996,0.094,3.994,0.182,5.99,0.209
			c2.328,0.033,3.012,0.789,1.797,3.049c-0.447,0.83-1.936,2.021-0.564,3.021c1.443,1.057,3.105,0.287,3.902-1.023
			c1.479-2.428,3.818-2.27,6.072-2.646c1.055-0.18,2.006-0.361,2.482,0.848c0.463,1.168-0.191,1.873-1.154,2.385
			c-2.646,1.412-3.523,3.246-2.928,6.484c0.678,3.664-2.049,6.516-5.367,6.41c-5.797-0.189-9.537,4.393-14.746,5.236
			c-0.402,0.066-0.896,0.955-0.959,1.504c-0.131,1.234,0.736,1.664,1.854,1.846c1.387,0.225,3.502-0.521,3.848,1.387
			c0.385,2.129-2.084,2.199-3.318,3.145c-2.773,2.123-3.104,5.313-0.23,6.328c5.275,1.863,4.988,4.105,0.896,7.043
			c3.939,2.186,6.592,8.025,5.688,11.982c-1.58,6.912-6.793,5.604-12.137,4.475c4.877,5.92,4.256,7.855-2.789,10.139
			c-1.287,0.418-2.504,0.541-3.248,1.908c-1.854,3.406-4.641,3.988-8.043,2.424c-1.102-0.508-2.604-0.947-3.188,0.17
			c-1.053,1.996,1.213,1.789,2.139,2.457c0.133,0.096,0.395,0.109,0.438,0.221c1.279,3.578,2.223,7.6,1.256,10.984
			c-1.002,3.508-4.74,1.844-7.313,1.006c-4.072-1.326-15.217,1.279-18.141,4.811c-1.393,1.682-2.797,2.748-4.928,2.928
			c-1.334,0.111-2.822,0.145-3.01,1.936c-0.168,1.625,0.992,2.328,2.313,2.83c0.947,0.361,3.229,0.51,2.023,1.795
			c-4.145,4.43,0.838,3.938,2.822,4.963c-5.074,6.389-9.631,1.592-14.33,0.182c0.131-0.432,0.133-0.781,0.309-0.941
			c1.451-1.35,4.813-1.443,3.813-4.389c-0.936-2.748-3.832-1.441-5.729-1.338c-5.26,0.287-10.18,3.205-15.826,2.148
			c2.564,3.539,6.451,3.873,9.699,2.926c2.631-0.768,3.82,0.285,5.146,1.568c1.783,1.729-0.439,2.521-1.246,3.545
			c-1.111,1.4-1,2.818-0.141,4.16c0.77,1.201,1.938,1.826,3.438,1.213c2.836-1.166,3.623,0.83,3.98,2.848
			c0.426,2.396-1.482,2.287-3.172,2.711c-4.881,1.225-9.625,3.023-14.807,2.504c-1.355-0.137-1.969,1.092-2.703,1.955
			c-0.889,1.049-1.938,2.363-3.227,1.135c-1.289-1.232-0.51-2.736,0.615-3.93c1.266-1.346,3.807-2.391,1.621-4.771
			c-1.297-1.412-2.543-3.549-4.863-2.924c-2.572,0.693-1.127,3.055-1.313,4.668c-0.381,3.32-0.377,6.439,2.246,9.285
			c1.584,1.717,1.613,4.201-1.857,4.506c-1.744,0.154-2.096,1.248-2.213,2.736c-0.143,1.822,0.73,2.904,2.34,3.332
			c2.068,0.549,4.092,1.256,6.352,1.01c1.318-0.145,2.746,0.537,2.781,2.201s-1.355,2.402-2.688,2.377
			c-4.23-0.082-7.564,2.096-11.164,3.803c-2.113,1.002-4.891,2.824-5.725-2.082c-0.479-2.805-3.529-4.117-6.564-3.355
			c-4.248,1.068-7.582,0.666-9.01-4.195c-0.543-1.844-1.938-2.555-3.828-2.529c-4.326,0.053-8.65,0.061-12.979,0.059
			c-1.736-0.002-3.258,0.404-4.381,1.854c-0.971,1.25-2.463,2.107-3.842,2.051c-5.092-0.211-9.244,1.314-12.979,4.908
			c-1.58,1.521-4.764,1.902-4.24,4.764c0.594,3.264,2.275,6.549,5.525,7.752c5.705,2.109,10.801,5.752,17.021,6.58
			c3.246,0.434,3.854,2.141,1.404,4.566c-0.23,0.23-0.43,0.518-0.582,0.809c-3.34,6.338-3.867,6.381-8.688,0.535
			c-0.775-0.939-1.66-1.773-2.854-1.854c-5.625-0.383-11.014-2.529-16.75-2.113c-2.295,0.166-3.432,0.738-3.834,3.412
			c-0.77,5.104-5.783,7.549-10.549,5.631c-0.08,6.734-0.117,6.471-6.748,7.434c-4.5,0.654-8.6,3.203-13.473,2.635
			c-1.885-0.221-3.453-0.229-3.623-2.307c-0.213-2.588-3.359-4.957-0.729-7.713c0.604-0.633,2.168-0.672,1.008-1.988
			c-0.705-0.801-1.752-0.773-2.756-0.27c-2.068,1.047-4.162,2.041-6.238,3.072c-1.131,0.561-2.395,1.818-0.881,2.486
			c4.4,1.941,1.857,4.754,1.045,7.039c-1.15,3.236-0.66,4.596,3.018,4.783c1.846,0.096,4.955,0.072,4.529,3.146
			c-0.719,5.182-4.826,8.945-7.994,8.018c-1.547-0.455-1.523-1.686-1.32-2.809c0.814-4.52-1.836-4.898-5.002-3.961
			c-2.76,0.818-4.26,0.469-5.295-2.479c-0.764-2.166-2.889-3.072-4.801-1.256c-2.758,2.619-4.479,2.055-5.984-1.156
			c-1.367-2.912-2.215-1.461-3.041,0.424c-2.266,5.164-1.803,6.875,3.186,9.748c3.145,1.814,2.951,3.256,0.891,6.215
			c-3.506,5.023-7.971,4.43-12.807,3.689c-3.637-0.557-7.271-1.117-10.928-1.496c-3.539-0.367-3.367,3.029-4.777,4.832
			c1.379,1.648,4.504,0.873,4.385,4.529c-0.117,3.65-1.195,4.959-4.514,6.625c-3.426,1.721-6.867,3.02-10.451,4.17
			c-2.439,0.779-4.207,0.336-3.648-2.596c0.6-3.162-1.203-2.881-3.152-2.684c-5.945,0.602-9.492,4.188-10.973,11.33
			c-0.611,2.953-0.432,6.412-5.207,4.916c-0.881-0.277-1.719,0.537-1.887,1.309c-0.631,2.904-2.814,3.771-5.24,4.705
			c-1.246,0.48-2.975,1.689-2.088,3.412c0.77,1.496,2.381,0.398,3.617,0.164c0.48-0.092,0.961-0.285,1.398-0.508
			c5.666-2.863,6.959-2.533,10.6,2.754c0.279,0.408,0.814,1.148,0.75,1.211c-2.826,2.609-0.762,7.801-5.256,9.607
			c-4.088,1.645-9.057,2.891-6.064,9.395c0.811,1.76-1.131,2.074-2.41,2.316c-5.984,1.137-11.637,2.225-15.482-4.832
			c-1.922-3.523-6.936-3.209-10.475-3.57c-5.699-0.58-7.67-6.107-12.338-7.688c2.102-4.918-4.123-4.871-5.109-8.418
			c-0.732-2.637-4.938-3.379-7.98-4.111c-0.465-0.113-1.621,0.67-1.594,0.76c1.193,3.686-1.68,6.559-1.9,9.855
			c-0.145,2.176,1.557,3.732,4.047,3.217c3.781-0.785,5.516,0.252,4.313,4.326c-0.332,1.121-0.854,2.4,0.537,3.08
			c1.496,0.73,1.961-0.695,2.602-1.605c1.959-2.777,4.754-1.775,7.291-1.479c1.209,0.145,2.07,1.199,1.775,2.574
			c-0.338,1.584-1.564,2.605-2.959,3.123c-1.439,0.535-2.932-0.063-4.395-0.438c-1.164-0.301-3.783-0.686-3.242,0.438
			c2.41,4.996-9.49,3.521-3.969,9.389c1.057,1.123,1.258,3.01-0.256,3.316c-4.836,0.992-7.236,6.5-12.527,6.453
			c-0.803-0.008-1.688,0.666-2.395,0.482c-2.416-0.625-6.314-0.422-6.123-3.57c0.17-2.848,3.81-2.625,6.208-2.326
			c1.793,0.227,3.045,0.781,3.355-1.803c0.219-1.838,2.023-3.553-0.76-5.068c-4.055-2.211-8.066-3.803-9.794-9.426
			c-1.166-3.795-7.217-1.826-11.024-2.234c-2.469-0.266-4.336,2.23-5.11,4.791c-0.602,1.994-0.709,3.922,1.506,5.232
			c1.834,1.084,3.397,0.982,4.963-0.465c1.148-1.064,2.348-2.957,4.071-1.164c1.068,1.111,2.16,2.705,1.32,4.494
			c-0.912,1.939-2.729,1.455-4.368,1.365c-1.488-0.08-3.012-0.301-4.465-0.088c-1.319,0.191-2.375,0.896-2.446,2.639
			c-0.066,1.59,2.901,3.416,0.764,4.244c-3.512,1.357-6.371,4.375-10.328,4.416c-3.119,0.033-4.668-3.711-3.24-7.76
			c1.355-3.854,1.328-7.451-1.299-10.793c-0.619-0.787-1.135-1.645-2.283-1.738c-5.166-0.426-12.311,5.818-12.188,11.154
			c0.064,2.906-1.117,2.885-3.246,2.697c-2.141-0.189-4.312-0.119-6.464-0.006c-2.047,0.107-3.662,1.203-3.746,3.297
			c-0.084,2.123,1.791,1.947,3.301,2.016c3.107,0.145,3.566,1.932,3.48,4.742c-0.152,5.064-1.199,8.77-7.359,9.014
			c-2.242,0.088-3.619-1.217-6.402-2.318c0.57,2.328,1.131,3.918,1.316,5.551c0.195,1.719-0.332,3.309-2.033,4.197
			c-2.277,1.189-2.188-0.877-2.945-2.031c-1.395-2.121-3.627-2.953-6.059-2.744c-2.914,0.248-1.33,2.912-2.037,4.375
			c-0.937,1.945-1.56,4.566-4.416,3.564c-2.311-0.813-5.465-1.729-3.813-5.523c0.752-1.725-0.014-3.148-1.262-3.887
			c-1.76-1.039-3.904-1.219-5.623,0.238c-2.918,2.479-5.805,2.449-9.596,1.771c-5.533-0.988-10.365,2.855-15.465,4.656
			c-3.03,1.066-5.844,3.016-7.864,5.809c-1.525,2.109-3.66,2.986-6.299,3.5c-2.787,0.543-6.068,0.521-7.945,3.516
			c-0.869,1.391-2.248,1.098-3.566,0.492c-2.05-0.939-4.308-1.1-6.369-0.551c-2.994,0.797-5.479,1.229-6.941-2.363
			c-0.48-1.184-1.826-1.561-2.986-0.863c-0.816,0.49-1.811,1.275-2,2.1c-0.369,1.58,1.236,1.766,2.262,2.025
			c2.751,0.697,5.859,1.967,5.111,4.971c-0.883,3.547-2.824,7.225-7.244,8.066c-3.166,0.604-6.355,1.105-9.568,1.662
			c0.805,2.545,4.367-0.92,4.068,2.391c-0.195,2.158-2.371,1.902-4.027,1.949c-2.701,0.074-4.309,1.904-5.371,3.957
			c-1.807,3.498-4.705,3.855-8.033,3.461c-1.145-0.137-2.445-0.176-2.967-1.467c-0.697-1.729,0.863-1.652,1.791-2.24
			c1.842-1.168,0.965-2.152-0.508-2.818c-4.082-1.848-8.802-1.678-12.755-3.992c-0.229-0.133-1.035,0.203-1.158,0.494
			c-3.24,7.676-9.91,6.916-16.308,6.539c-3.154-0.186-5.99-0.672-8.902,1.662c-2.395,1.92-6.289-2.143-6.221-6.678
			c0.033-2.133,1.162-4.646-1.809-5.361c-3.065-0.738-6.231-0.951-8.757,1.863c-2.305,2.568-3.246,6.104-6.299,8.186
			c-1.789,1.221-3.008,2.361-5.145,0.529c-2.153-1.842-4.653-1.094-7.022-0.023c-4.769,2.152-11.271,0.084-13.742-4.355
			c-1.294-2.326,0.741-2.898,2.1-3.652c1.787-0.994,3.006-2.01,0.525-3.439c-1.841-1.063-1.439-2.861-1.818-4.391
			c-0.586-2.371-1.607-5.148-3.887-5.318c-2.814-0.213-5.404,1.947-6.531,4.609c-0.867,2.047-1.459,3.967-3.563,5.107
			c-0.924,0.502-1.381,1.479-0.612,2.547c0.539,0.748,1.309,1.037,2.186,0.771c0.793-0.236,1.523-0.729,2.326-0.885
			c1.813-0.354,3.957-0.77,4.856,1.291c0.867,1.984-1.036,2.842-2.438,3.73c-5.027,3.188-10.039,6.402-15.08,9.57
			c-0.543,0.342-1.227,0.588-1.861,0.635c-10.682,0.76-21.198,3.396-31.959,3.029c-2.938-0.1-5.094,0.76-7.278,2.465
			c-4.906,3.832-10.986,3.096-14.642-1.879c-1.098-1.492-2.268-1.689-3.825-1.604c-1.369,0.078-1.593,0.947-1.58,2.033
			c0.022,1.938,1.375,2.51,2.952,2.736c2.462,0.357,4.091,1.949,5.755,3.588c0.928,0.914,2.512,1.564,1.694,3.143
			c-0.91,1.76-3.186,2.139-4.36,1.283c-3.438-2.508-7.888-0.963-11.287-3.311c-1.438-0.994-2.613,0.17-4.019,0.762
			c-3.852,1.617-7.471,4.23-12.317,1.719c-2.066-1.072-5.136,0.395-7.669-1.813c-2.836-2.471-3.666-4.73-1.191-7.561
			c2.021-2.316,2.061-4.455,0.209-6.686c-1.342-1.613-1.217-3.488-0.938-5.234c0.596-3.725-1.582-6.326-3.318-9.102
			c-0.908-1.447-2.33-2.068-3.729-0.578c-2.151,2.303-4.021,1.607-6.024-0.193c-0.572-0.518-1.474-0.883-2.242-0.922
			c-1.57-0.078-3.418-1.277-4.664,0.391c-0.785,1.049,0.174,2.236,0.812,3.17c1.112,1.633,2.592,2.637,4.676,1.85
			c0.93-0.354,1.815-0.826,2.692-1.309c1.375-0.752,2.479-0.24,2.646,1.102c0.301,2.406-0.916,4.549-2.234,6.404
			c-1.197,1.688-3.069,1.641-4.972,0.855c-6.129-2.533-11.206,1.4-16.54,3.096c-1.904,0.604-3.178,3.121-5.793,3.197
			c-1.179,0.033-2.124,0.934-2.198,2.334c-0.074,1.395,0.855,2.166,1.914,2.664c1.802,0.85,3.707,1.477,5.525,2.291
			c1.284,0.574,3.219,0.83,2.565,2.957c-0.574,1.877-1.901,3.555-4.012,2.912c-5.313-1.611-9.101-2.604-4.578,4.994
			c1.47,2.473-1.793,6.682-4.867,7.463c-7.551,1.926-15.278,1.729-22.964,2.053c-0.498,0.02-1.088-0.23-1.483-0.037
			c-7.958,3.832-15.532,1.723-23.188-1.158c-1.748-0.658-3.185-1.166-4.526-2.617c-2.437-2.633-5.609-3.457-9.074-1.936
			c-5.357,2.354-6.104,1.877-5.561-3.789c0.156-1.623,0.46-3.23,0.783-5.445c-1.62,1.105-2.807,1.877-3.954,2.703
			c-1.484,1.072-3.178,1.408-4.681,0.461c-1.895-1.191-0.354-2.582,0.146-3.896c0.229-0.6,0.554-1.564,0.275-1.891
			c-4.339-5.088-2.101-11.6-3.833-17.229c-0.561-1.816-1.474-3.381-3.669-3.559c-1.984-0.154-3.212,0.98-3.783,2.65
			c-1.051,3.07-3.192,4.904-6.031,6.227c-2.981,1.391-2.684,3.025-0.063,4.545c2.114,1.227,4.029,2.83,6.885,2.137
			c1.844-0.447,3.021,0.789,3.577,2.668c0.639,2.152-0.827,2.469-2.237,3.104c-2.997,1.352-3.845,3.51-1.647,6.172
			c1.528,1.854,1.811,3.982,0.257,5.359c-1.888,1.676-4.071,3.473-6.985,3.273c-0.869-0.063-1.734-0.35-1.814-1.352
			c-0.512-6.396-6.095-7.037-10.374-9.053c-1.46-0.688-3.946-1.213-4.601,0.346c-1.479,3.537-3.26,2.857-5.587,1.256
			c-1.05-0.723-2.473-0.813-3.36-0.254c-5.526,3.5-11.372,2.092-17.193,1.4c-1.27-0.148-3.1,0.398-3.39-1.246
			c-0.318-1.809,1.149-3.699,2.754-3.57c4.801,0.389,7.588-2.461,10.481-5.443c1.385-1.428,3.273-1.66,5.126-1.459
			c4.951,0.533,9.818-0.855,14.846-0.244c3.896,0.475,5.627-3.572,7.991-6.02c0.167-0.172-0.103-0.904-0.324-1.291
			c-2.271-3.9-13.062-5.229-16.143-1.859c-1.874,2.049-3.968,3.635-6.655,4.158c-6.547,1.27-12.7,4.471-20.108,3.971
			c3.298,5.285,0.323,5.52-3.929,5.842c-3.009,0.229-6.046,1.756-8.792,3.223c-2.114,1.127-3.964,1.191-5.488-0.291
			c-3.604-3.506-7.533-3.457-11.981-2.055c-5.716,1.799-8.068-0.561-6.822-6.512c1.252-5.982-0.111-10.029-4.14-12.281
			c-0.077-1.447,1.214-1.322,2.021-1.732c2.389-1.219,3.095-3.451,3.184-5.82c0.097-2.582-2.372-2.65-3.946-3.754
			c-3.922-2.75-7.666-4.729-12.735-3.107c-1.821,0.582-3.405,1.439-4.758,2.479c-2.35,1.801-2.264,3.965,1.025,4.34
			c3.489,0.395,5.409,3.691,8.979,4.045c1.506,0.146,2.319,2.814,1.952,4.637c-0.441,2.184-2.285,3.336-4.436,3.352
			c-3.313,0.025-6.673,0.018-9.937-0.484c-5.71-0.881-8.098-6-10.584-10.107c-1.473-2.43-2.951-3.49-4.782-2.605
			c-2.604,1.256-6.16,2.145-6.216,6.184c-0.014,0.988,0.366,1.523,1.503,1.332c0.971-0.164,2.021-0.406,2.94-0.195
			c2.669,0.607,4.922,3.031,4.873,4.979c-0.056,2.273-3.297,1.383-5.076,1.221c-3.781-0.342-7.581-0.551-11.292-1.801
			c-2.142-0.723-4.667-1.201-6.189,2.154c-1.201,2.648-3.563,2.459-5.577,0.066c-2.646-3.141-5.71-3.695-9.063-0.963
			c-1.659,1.354-4.119,2.314-5.563,1.25c-4.223-3.109-9.579-2.465-13.887-4.885c-1.214-0.682-2.347-1.365-3.709-1.037
			c-3.212,0.773-3.634-1.713-4.166-3.691c-0.671-2.488,1.232-3.58,3.137-4.379c0.732-0.309,1.634-0.195,2.448-0.33
			c1.477-0.246,3.288-0.422,3.149-2.393c-0.111-1.602-1.68-1.844-3.085-1.836c-4.68,0.025-7.3-2.213-8.281-6.857
			c-0.658-3.113-6.604-5.176-10.578-3.551c-3.37,1.377-6.522,3.314-9.684,5.16c-1.693,0.99-2.628,2.563-1.985,4.652
			c0.664,2.16,2.258,2.666,4.314,2.4c0.985-0.125,2.033-0.297,2.979-0.1c1.978,0.414,2.757,2.111,2.378,3.766
			c-0.441,1.928-2.329,1.168-3.281,0.58c-6.845-4.213-14.977-5.51-21.796-9.729c-3.144-1.943-3.104-3.93,0.031-5.777
			c7.429-4.375,8.047-8.619,1.862-15.006c-1.672-1.727-3.25-3.877-5.938-4.367c-1.088-0.197-1.571-1.064-2.12-1.938
			c-0.791-1.254,0.717-4.6-2.558-3.516c-2.238,0.742-4.287,3.119-3.432,5.475c1.964,5.402-4.048,9.209-2.297,14.648
			c0.568,1.77-2.658,2.605-4.624,2.891c-1.802,0.26-2.815-0.943-3.012-2.615c-0.396-3.428-2.26-5.527-5.088-7.484
			c-2.063-1.426-3.382-4.102-3.735-6.818c-0.319-2.447-1.353-4.02-3.927-4.355c-2.593-0.344-2.768,1.756-3.554,3.342
			c-2.822,5.686-2.895,5.719-7.508,0.693c-1.167-1.273-2.468-0.979-3.655-0.73c-11.482,2.406-22.705-0.152-33.986-1.641
			c-1.688-0.223-3.479-0.164-3.255-2.676c0.223-2.504-1.523-2.355-3.26-2.58c-4.121-0.535-5.218-3.189-2.469-6.373
			c1.816-2.105,3.942-4.059,6.938-4.594c3.891-0.697,4.17-2.494,1.751-5.42c-1.47-1.777-2.435-3.963-3.77-5.865
			c-1.595-2.271-4.022-2.941-6.615-2.662c-2.65,0.287-2.051,2.586-2.251,4.307c-0.272,2.344-1.822,3.242-3.854,2.855
			c-3.787-0.725-7.536-1.756-7.449-6.801c0.014-0.738-0.134-1.201-0.79-1.617c-2.307-1.469-10.873-0.377-12.354,1.885
			c-1.128,1.717-2.495,2.297-4.408,2.73c-6.606,1.504-12.396,3.947-12.996,12.139c-0.17,2.328-2.401,3.572-4.509,4.23
			c-2.713,0.848-2.601-1.895-3.601-3.189c-2.081-2.699-5.098-4.072-7.99-5.58c-1.313-0.686-2.871-0.885-4.229-1.504
			c-2.494-1.141-5.066-2.525-4.204-5.875c0.829-3.217,3.613-2.037,5.84-2.115c5.188-0.186,10.285,0.154,15.272,1.752
			c3.259,1.045,4.484-1.053,4.232-3.65c-0.188-1.951-0.832-3.723-0.085-5.766c0.651-1.783-0.874-1.762-2.083-1.645
			c-1.139,0.107-2.585,0.822-3.352,0.363c-5.656-3.396-11.557-3.809-17.786-2.125c-0.457,0.121-1.274-0.326-1.623-0.756
			c-0.479-0.59-0.104-1.438,0.475-1.691c2.077-0.922,3.219-4.201,6.388-2.484c0.892,0.484,1.9-0.012,2.836-0.492
			c5.176-2.666,10.382-5.275,15.581-7.896c2.843-1.436,3.417-3.469,0.614-5.188c-2.354-1.443-2.63-5.287-6.218-5.143
			c2.781,5.051,2.25,6.742-2.849,9.613c-0.997,0.564-1.957,1.291-2.723,2.135c-1.395,1.533-3.474,2.295-4.955,1.594
			c-4.001-1.896-7.611-4.125-12.465-4.014c-1.971,0.045-3.424-3.521-0.824-5.373c3.065-2.182,0.959-3.109-0.475-4.432
			c-0.113-0.104-0.313-0.109-0.46-0.186c-1.208-0.605-13.79-1.539-15.191-1.244c-0.963,0.203-2.016,0.34-2.97,0.172
			c-4.146-0.729-7.28-0.398-8.937,4.541c-1.12,3.342-4.387,3.27-6.662,0.416c-0.404-0.508-0.563-1.207-0.936-1.75
			c-3.211-4.67-5.937-9.693-10.409-13.42c-1.655-1.377-2.988-2.744-5.12-0.957c-1.067,0.896-2.342,1.617-3.569,0.52
			c-0.668-0.598-1.288-1.707-1.244-2.553c0.102-1.914,1.794-1.549,3.069-1.6c1.04-0.043,2.116-0.021,1.969-1.502
			c-0.132-1.318-0.997-2.219-2.238-2.344c-2.146-0.215-4.314-0.156-6.473-0.242c-2.589-0.102-4-1.525-4.148-4.051
			c-0.16-2.727,1.865-2.674,3.747-2.713c0.166-0.004,0.335-0.02,0.494-0.061c2.105-0.533,6.025,0.158,5.678-2.268
			c-0.334-2.313-2.337-5.898-5.101-6.588c-2.694-0.67-5.035,1.646-5.574,4.572c-0.634,3.436-3.519,4.75-5.763,6.555
			c-1.227,0.984-3.15,1.082-4.063-1.133c-0.883-2.145-2.222-4.145-2.835-6.354c-0.701-2.521-1.471-5.469,2.632-6.131
			c3.421-0.553,5.768-2.426,5.131-6.051c-0.671-3.824-4.037-4.605-7.296-4.535c-2.459,0.053-4.892,1.063-7.396,0.229
			c-4.063-1.354-4.854-3.881-2.087-7.039c2.705-3.088,4.025-7.582,10.052-6.676c3.372,0.508,3.688-3.678,2.771-7.027
			c-1.278-4.666-3.532-7.996-7.044-11.104c-1.504-1.33-0.85-3.961-0.066-6.16c2.193-6.174,1.572-7.223-4.468-8.389
			c-1.358-0.264-2.219-0.826-2.089-2.229c0.143-1.535,0.611-3.141,2.372-3.426c3.79-0.617,5.828-3.057,7.988-6.021
			c1.979-2.719,5.644-2.305,8.754-1.811c2.626,0.416,4.722,0.268,6.756-1.893c3.951-4.188,8.781-4.527,13.615-1.303
			c1.774,1.188,3.479,1.449,4.862-0.293c1.159-1.461,1.076-3.287-0.367-4.514c-2.527-2.145-5.205-4.266-8.867-3.629
			c-1.323,0.23-2.599,0.73-3.862-0.027c-1.518-0.912-4.032-0.932-4.3-2.971c-0.313-2.406,2.281-2.43,3.822-3.158
			c1.22-0.578,2.444-1.088,3.264-2.207c0.713-0.973,1.249-2.121,0.505-3.211c-0.691-1.012-1.755-0.367-2.729-0.219
			c-3.825,0.582-7.938,0.727-6.428,6.576c0.273,1.061-0.629,1.695-1.664,2.146c-3.064,1.336-6.448,2.035-7.745,6.037
			c-0.555,1.709-2.974,1.244-4.372,0.188c-2.269-1.711-0.428-3.361,0.225-5.236c-1.563,0.861-3.228,1.58-4.663,2.615
			c-1.859,1.342-3.944,2.689-1.888,5.578c1.188,1.668,0.556,3.254-1.332,4.035c-1.954,0.809-3.4,0.521-4.257-1.857
			c-1.485-4.121-4.237-3.383-6.26-0.729c-2.416,3.172-5.188,3.313-8.777,3.055c-5.579-0.402-11.063-1.883-16.76-1.303
			c-1.92,0.195-4.979,0.389-5.355-2.369c-0.381-2.771,1.804-5.297,4.063-6.176c3.005-1.17,6.21-1.779,9.277-3.092
			c2.267-0.969,5.279-0.074,6.766,2.727c0.637,1.197,1.412,1.734,2.813,1.189c1.539-0.604,1.156-1.811,1.085-2.934
			c-0.333-5.256-3.265-6.941-8.218-5.088c-2.542,0.953-4.537,3.334-8.195,1.164c-4.529-2.688-5.771-5.334-3.052-9.748
			c0.759-1.23,1.063-2.568,0.405-3.785c-1.147-2.111-3.188-4.137,0.729-5.594c0.327-0.121,0.587-1.309,0.393-1.811
			c-1.542-3.965-0.951-6.188,3.979-5.479c1.369,0.195,2.339-0.682,1.938-2.137c-0.366-1.328-0.29-3.406-2.351-3.303
			c-4.05,0.203-7.935-0.568-11.848-1.373c-2.741-0.564-3.79,2.199-4.952,3.52c-2.178,2.48-4.766,3.795-7.502,5.289
			c-1.705,0.932-2.699,1.154-3.571-0.6c-0.792-1.594-0.364-2.916,1.313-3.701c0.603-0.281,1.229-0.514,1.844-0.77
			c3.185-1.33,5.464-3.039,4.101-7.143c-0.526-1.586,0.104-3.4,1.638-4.43c1.723-1.15,2.139,0.939,3.168,1.518
			c2.938,1.648,7.688,0.42,9.109-2.563c0.579-1.213,1.915-2.701,0.22-4.033c-1.262-0.99-2.765-1.148-4.193-0.227
			c-1.395,0.898-2.85,1.75-4.084,2.84c-1.154,1.018-2.496,1.555-3.589,0.635c-3.257-2.744-7.07-1.492-10.589-1.57
			c-5.469-0.123-7.094,2.957-4.406,7.668c0.587,1.027,1.664,2.152,0.464,3.018c-1.922,1.383-4.283,1.748-6.668,1.42
			c-1.338-0.186-2.23-1.063-2.064-2.373c0.509-4.021,0.183-8.59,5.754-9.686c-0.916-1.059-2.215-1.857-2.24-2.697
			c-0.166-5.428-0.462-10.293-8.05-9.945c-1.903,0.088-1.382-2.703-1.533-4.26c-0.583-5.996-1.227-6.465-6.652-4.248
			c-1.59,0.648-3.469,1.596-4.5-0.098c-1.126-1.848,0.747-3.188,2.186-3.842c6.091-2.768,10.797-7.572,16.484-10.91
			c1.517-0.889,2.974-0.723,4.042,0.588c2.485,3.045,4.724,1.525,5.888-0.816c3.352-6.752,9.014-8.164,15.772-7.896
			c3.071,0.119,6.324,1.328,9.172-0.982c1.076-0.873,2.114-1.842,1.675-3.332c-0.479-1.621-1.942-0.756-2.995-0.861
			c-2.215-0.225-5.167,1.016-6.253-1.715c-1.022-2.564,0.801-5.182,2.649-6.568c4.513-3.389,5.186-9.369,9.39-12.887
			c0.854-0.715,1.426-2.313,2.625-1.828c6.292,2.533,12.099-2.748,18.365-1.02c0.92,0.254,2.311-1.076,3.444-1.738
			c2.032-1.188,4.491-2.932,6.129-0.324c1.478,2.354-1.965,2.813-3.195,4.623c2.859,1.266,5.719,0.281,5.899-2.119
			c0.365-4.854,3.689-4.555,6.656-4.859c2.567-0.268,4.521-0.617,6.269-3.055c2.06-2.867,5.43-4.293,9.161-4.354
			c2.941-0.049,5.963,0.945,8.792-0.805c0.687-0.426,1.708-0.215,2.102,0.701c0.426,0.994-0.31,1.682-1.09,1.9
			c-6.588,1.867-3.111,5.383-0.922,7.838c2.497,2.799,1.301,2.615-0.979,4.922c-3.898,3.943-10.852,2.537-13.07,8.449
			c-0.114,0.307-1.451,0.582-1.724,0.332c-3.499-3.213-7.342-0.41-10.986-0.654c-1.638-0.109-4.438-1.572-4.453,1.979
			c-0.016,3.146,2.04,4.594,4.924,4.193c6.194-0.857,11.59,1.391,16.961,3.865c1.64,0.756,3.152,2.24,1.72,3.887
			c-3.788,4.348,0.233,3.471,2.392,3.895c4.001,0.787,5.423,3.344,2.599,6.23c-4.729,4.836,0.178,8.953,2.101,9.789
			c8.907,3.873,9.292,11.861,11.052,19.338c0.724,3.076,1.47,6.068,3.813,8.43c0.646,0.652,1.158,1.715,1.217,2.623
			c0.277,4.367,2.312,7.646,5.434,10.639c2.724,2.607,5.05,5.582,5.111,9.844c0.033,2.24,1.871,3.996,3.892,4.883
			c6.724,2.939,9.021,8.984,10.175,15.316c0.604,3.299,3.472,3.713,4.997,5.654c2.596,3.303,3.117,8.629,9.139,9.414
			c2.869,0.375-0.875,4.375,0.564,6.582c6.486-0.797,7.541-0.066,9.687,6.775c0.815,2.604,3.083,2.732,5.215,3
			c1.505,0.188,3.122,0.154,3.792,1.842c0.738,1.854-0.394,2.967-1.627,4.273c-3.091,3.273-2.636,4.594,1.647,6.35
			c3.146,1.287,6.12,2.004,9.633,0.75c3.517-1.254,10.969,3.16,12.644,6.596c0.672,1.379,1.049,2.385-0.271,3.465
			c-1.171,0.959-2.559,1.939-1.398,3.695c1.111,1.688,2.989,2.588,4.769,1.895c2.699-1.053,4.438-0.133,6.662,1.336
			c4.744,3.131,4.881,2.924,0.477,7.418c3.273,1.73,6.538,0.314,9.659,0.25c3.255-0.068,5.941,0.252,7.285,3.693
			c0.563,1.438,1.45,2.463,3.132,2.9c1.03,0.268,2.562,1.182,2.682,1.982c1.012,6.693,5.881,6.469,10.877,6.654
			c4.813,0.18,8.085,3.598,11.497,6.494c4.802,4.07,10.307,6.313,16.595,6.395c3.954,0.059,3.521,2.494,2.44,4.699
			c-1.945,3.975-0.89,4.734,3.136,3.85c3.001-0.662,6.013,0.422,8.759,1.496c4.327,1.693,3.939,10.57,0.021,14.26
			c-5.455,5.137-12.488,6.014-19.159,7.355c-3.761,0.758-7.591,1.277-10.874,3.078c-6.133,3.365-11.568,1.957-16.723-1.695
			c-3.938-2.791-6.273-3.152-9.465,1.664c-4.457,6.73-10.468,5.473-13.833-2.098c-4.044-9.1-2.292-15.455,5.923-21.436
			c2.179-1.588,4.366-0.633,6.619-0.104c2.705,0.635,3.848-0.408,2.728-3.182c-0.497-1.23-1.056-2.441-1.646-3.635
			c-2.892-5.838-2.941-5.887-7.8-1.811c-1.379,1.156-2.99,1.412-4.561,1.861c-4.247,1.213-8.017,3.311-11.188,6.316
			c-2.214,2.102-4.188,4.479,0.92,5.705c3.55,0.854,2.906,3.785,2.168,6.082c-0.729,2.27-1.021,3.99,0.873,5.855
			c3.136,3.094-1.186,5.902-0.604,9.293c0.675,3.938-2.75,4.895-6.422,4.564c-2.093-0.188-4.788-0.113-5.16,2.699
			c-0.335,2.535,1.143,4.311,3.803,5.055c3.256,0.908,5.249,4.959,9.323,3.883c5.39-1.424,10.466-3.568,16.506-6.889
			c-2.688-0.225-3.99-0.182-5.21-0.475c-1.397-0.334-3.093-0.539-3.272-2.494c-0.092-1.002-0.028-2.119,1.106-2.527
			c1.475-0.529,3.052-2.092,4.572-0.494c1.604,1.684,4.331,2.281,5.074,4.641c1.015,3.215,3.417,2.764,5.114,1.648
			c5.784-3.781,11.688-1.889,17.391-0.523c8.813,2.105,17.482,1.301,26.2-0.084c1.337-0.213,3.414-0.479,2.782-2.617
			c-0.518-1.748-2.063-2.564-3.996-1.889c-5.595,1.959-11.581,0.414-17.238,1.98c-4.052,1.123-6.646-2.434-10.033-3.51
			c-0.637-0.201-1.184-0.852-0.755-1.547c0.293-0.477,1.002-1.047,1.479-1.008c5.033,0.406,9.229-1.426,13.587-3.834
			c3.069-1.699,6.69,1.068,10.217,1.15c6.331,0.15,11.137-2.398,15.64-6.646c4.826-4.551,10.314-8.352,17.521-7.73
			c2.666,0.23,4.362,1.42,3.547,4.627c-2.408,9.48,2.411,14.068,12.087,11.605c1.533-0.393,2.931-1.805,5.005-0.49
			c-1.759,2.424-4.351,4.551-3.647,8.004c0.246,1.215-0.059,3.023,1.846,2.92c1.332-0.074,2.599-1.002,2.472-2.637
			c-0.269-3.461,1.8-5.203,4.703-5.104c2.376,0.08,4.226,1.75,3.357,4.824c-0.324,1.145,0.779,1.432,1.558,1.27
			c1.825-0.375,4.465,0.811,5.252-1.734c1.007-3.252,3.309-2.16,5.271-1.945c2.025,0.223,2.773,1.746,2.436,3.646
			c-0.524,2.928,1.411,3.35,3.508,3.604c2.268,0.275,4.813,0.963,4.921,3.338c0.106,2.379-2.248,3.439-4.604,3.693
			c-1.808,0.191-3.44,0.838-3.296,2.949c0.143,2.063,2.084,1.637,3.471,2.018c4.533,1.244,8.548,0.135,12.039-2.76
			c1.31-1.084,2.306-2.531-0.56-3.504c-3.808-1.293-3.81-4.346-2.38-7.355c1.486-3.129,7.412-5.186,9.904-3.631
			c2.028,1.268,2.237,2.684,0.103,4.229c-4.808,3.479-3.926,2.936-0.339,6.641c6.153,6.354,11.932,4.68,18.308,1.436
			c1.556-0.791,3.021-0.439,4.113,0.717c1.431,1.514-0.6,2.201-0.998,3.301c-0.626,1.723-2.934,3.723-0.689,5.277
			c1.838,1.275,3.614-0.74,5.502-1.523c5.766-2.395,10.869-6.939,17.693-6.414c2.663,0.205,4.961,0.123,7.365-1.881
			c2.506-2.09,6.477-1.842,9.021-0.328c3.612,2.146,7.245,3.07,11.239,3.154c4.485,0.096,7.42,1.721,6.908,6.924
			c3.104-1.221,5.746-2.629,8.563-3.24c1.983-0.434,5.446-1.006,3.254,3.316c-1.012,1.992-0.035,3.539,1.823,3.762
			c3.523,0.422,7.253,0.973,10.622,0.229c2.485-0.551,3.91-1.166,5.1,1.564c1.113,2.561,3.376,1.533,5.227,1.188
			c2.54-0.477,5.022-1.064,8.499,0.531c-6.206,2.172-3.723,4.689-2.604,8.605c2.389,8.375,6.73,5.535,12.167,4.494
			c4.535-0.867,8.513-3.922,13.394-3.258c0.667,0.092,1.795-0.502,2.129-1.102c2.701-4.844,5.967-3.191,10.017-1.695
			c7.27,2.689,14.628,2.314,21.465-1.977c1.631-1.023,3.426-2.615,5.295-0.475c1.877,2.146-0.784,3.053-1.375,4.564
			c-1.761,4.51-4.727,6.086-9.378,4.582c-1.123-0.361-2.391-0.26-2.978,1.088c-0.172,0.395-0.197,1.039,0.015,1.379
			c0.732,1.176,1.979,1.127,3.13,0.922c0.967-0.17,1.875-0.783,2.836-0.857c1.713-0.131,3.444,0.189,4.105,2.064
			c0.604,1.717,0.123,3.014-1.553,4.221c-4.446,3.197-9.152,5.66-14.602,6.561c-2.3,0.381-4.974,0.432-4.628,3.867
			c0.325,3.256,3.078,2.523,5.041,2.658c2.493,0.174,5.362,0.262,5.255-3.488c-0.074-2.568,0.188-4.363,3.343-4.934
			c3.083-0.559,5.658-0.49,7.454,2.357c2.063,3.271,3.881,6.209,8.836,5.553c2.776-0.369,3.752,3.4,5.464,5.354
			c3.312,3.779,7.665,4.486,11.771,1.645c0.663-0.459,1.627-1.029,1.729-1.668c0.793-4.914,2.666-9.104,6.708-12.295
			c1.063-0.842,0.771-2.559-0.476-3.523c-1.983-1.545-3.369-4.605-6.665-3.174c-1.861,0.813-3.52,1.271-4.856-0.645
			c-1.408-2.014-0.464-3.803,0.793-5.477c4.827-6.424,4.831-6.42,11.026-1.09c6.32,5.438,7.468,9.963,4.421,17.756
			c-0.429,1.098-1.018,2.105-0.257,3.59c3.267-3.297,6.279-4.268,8.343,1.107c0.571,1.49,2.058,1.545,3.423,1.438
			c1.75-0.135,2.83-1.229,2.924-2.879c0.229-4.014,1.826-3.785,4.8-2.146c5.19,2.861,9.979,1.088,11.892-4.533
			c0.843-2.479,2.07-2.938,4.272-2.928c2.787,0.014,2.64,1.975,2.781,3.791c0.146,1.871,0.858,3.57,2.956,3.033
			c1.67-0.428,3.528-1.541,3.44-3.754c-0.067-1.775-0.92-3.117-3.008-3.357c-1.44-0.166-3.576,1.15-4.048-1.494
			c-0.214-1.189,0.086-2.398,1.396-2.893c2.014-0.756,4.193-1.842,6.074,0.006c1.324,1.303,2.394,2.824,4.465,2.791
			c1.72-0.025,3.379,2.277,5.063,0.387c1.59-1.787,1.332-3.91,0.51-6.08c-0.926-2.438-2.311-5.125,1.611-6.438
			c1.781-0.598,3.553-1.15,5.189,0.229c1.739,1.463,2.048,3.271,1.234,5.4c-1.557,4.08,0.053,5.516,3.981,4.172
			c4.03-1.379,5.069,1.621,6.168,4.08c1.278,2.867,2.866,4.744,6.022,3.045c2.771-1.492,6.353-3.002,3.025-7.277
			c-1.771-2.275,0.43-5.271-1.168-7.695c-0.314-0.48,0.223-1.693,0.854-1.404c3.463,1.58,6.271-2.818,9.951-0.77
			c2.158,1.205,4.895,0.482,7.283-0.48c2.504-1.012,4.994-2.057,7.457,0.17c0.635,0.572,1.426,0.563,2.32,0.26
			c4.084-1.383,7.182,0.012,7.186,4.025c0.004,3.27,1.662,3.002,3.607,3.246c4.516,0.563,8.918-0.361,13.256-1.311
			c2.129-0.467,3.233-0.467,4.315,1.73c3.338,6.77,5.213,7.051,11.535,3.639c4.174-2.252,8.873-2.52,13.551-1.152
			c5.453,1.594,7.687,0.129,7.525-5.373c-0.119-4.164,3.707-4.203,5.729-6.035c1.826-1.654,2.931,0.145,4.314,1.563
			c1.904,1.953,4.598,1.406,7.066,0.639c1.733-0.541,3.465-1.199,5.246-1.441c2.413-0.328,5.098-1.025,5.495,2.953
			c0.418,4.154-2.553,3.371-4.86,3.623c1.422,6.336,4.324,7.92,10.51,7.191c4.1-0.479,7.701,2.227,10.797,4.564
			c1.507,1.143-1.555,3.754-0.77,5.994c0.403,1.156-0.479,2.912,1.328,3.371c1.09,0.275,2.34,0.23,3.151-0.92
			c0.934-1.324,0.633-2.727-0.319-3.678c-4.479-4.482-0.908-7.576,1.94-10.477c1.932-1.967,3.223-3.25,2.631-6.625
			c-1.354-7.723,2.918-11.369,10.368-9.4c3.727,0.984,6.442-1.232,9.046-2.695c2.725-1.531,4.407-2.416,6.782,0.213
			c1.301,1.439,3.184,1,4.465-0.334c1.48-1.541-0.191-2.01-1.078-2.982c-2.188-2.396,0.354-2.896,1.773-3.061
			c7.988-0.908,15.779-3.73,23.95-2.754c3.107,0.371,5.953,0.029,8.682-1.461c4.355-2.383,7.664-1.227,10.011,3.016
			c1.541,2.783,3.063,5.396,6.885,2.896c0.57-0.375,1.949-0.404,2.367,0.006c5.33,5.238,12.285,0.084,18.08,2.898
			c1.768,0.857,3.496-0.951,3.469-3.158c-0.029-2.418-1.805-1.871-3.268-1.549c-3.453,0.762-5.107-1.447-6.935-5.188
			c-0.359,4.047-1.85,4.553-4.389,3.234c-2.164-1.123-4.273-2.006-3.674-5.082c0.621-3.176,2.996-2.164,5.064-2.463
			c5.58-0.811,10.597-0.033,15.794,2.518c2.518,1.23,6.421-0.012,6.474-4.541c0.016-1.373-0.064-2.932,1.799-2.967
			c5.133-0.094,8.648-3.379,12.453-6.092c3.189-2.273,5.689-1.68,6.656,2.092c1.063,4.148,2.915,4.689,5.688,1.678
			c5.254-5.711,12.065-8.781,18.991-11.732c4.516-1.926,15.311,2.398,17.375,7.531c1.139,2.832,2.14,2.352,3.896,1.031
			c1.594-1.199,3.395-2.186,4.791-3.578c5.044-5.059,12.97-7.33,14.681-15.693c0.5-2.441,3.762-1.359,5.626-2.365
			c4.156-2.242,8.141-4.512,13.529-3.152c3.17,0.801,7.115-0.523,7.498-5.322c0.135-1.67,1.299-2.449,2.785-2.008
			c5.314,1.578,9.126-2.076,13.332-3.916c5.284-2.311,10.727-4.316,15.893-6.746c5.75-2.701,12.49-3.994,16.644-9.918
			c1.693-2.412,4.934-3.914,7.98-4.902c4.461-1.445,7.553-5.264,12.146-6.645c2.723-0.818,1.367-3.672,1.082-5.73
			c-0.227-1.627-0.986-3.523,1.766-3.605c2.313-0.068,2.807,1.502,2.533,3.357c-0.518,3.541,1.721,3.66,3.736,2.543
			c2.828-1.563,5.926-2.104,8.836-3.26c1.982-0.787,3.947-1.781,4.92-3.934c2.391-5.279,8.617-8.801,14.291-7.479
			c2.789,0.648,4.852,0.258,6.889-1.494c3.375-2.902,8.088-2.871,11.721-5.33c1.262-0.854,3.031-0.543,3.223,1.676
			c0.273,3.234,1.637,2.393,3.563,1.188c4.201-2.629,8.922-4.586,11.123-9.529c0,0-0.049-0.16-0.053-0.162
			c2.875-0.902,2.293-3.287,2.25-5.389c-0.061-2.93,1.244-5.164,4.141-5.205c4-0.059,8.348-3.096,12.08,1.064
			c0.451,0.502,1.941,0.328,2.855,0.094c1.258-0.322,2.703-1.49,3.688-0.287c1.527,1.865-1.094,1.77-1.635,2.701
			c-0.293,0.502-0.461,1.279-0.293,1.809c0.834,2.627,8.646,4.916,11.117,3.658c4.863-2.48,8.826-5.99,12.6-9.84
			c1.115-1.137,1.254-2.396,1.008-3.607c-0.404-1.982-2.025-1.133-3.252-0.965c-1.959,0.266-3.748,0.762-5.574,1.797
			c-4.035,2.287-11.688-0.645-13.264-4.721c-0.385-0.994,0.18-1.646,0.979-1.961c6.314-2.48,9.951-9.926,17.834-9.6
			c0.779,0.031,1.854-0.875,2.373-1.635c2.367-3.445,5.742-5.586,9.168-7.813c3.283-2.137,7.756-1.207,10.574-4.393
			c0.195-0.223,1.252,0.184,1.832,0.457c6.293,2.963,9.996,2.303,14.539-2.539c-0.656-2.084-4.398,0.43-3.949-2.346
			c0.33-2.033,3.146-2.27,5.078-2.336c2.568-0.092,4.527-0.826,5.707-3.189c0.338,0.113,0.605,0.021,0.801-0.275
			c1.613,0.363,3.229,1.018,4.842,1.025c2.82,0.016,3.125,0.229,2.121,3.354c-1.404,4.379-4.838,5.074-8.02,6.492
			c-1.672,0.748-2.471,1.908-2.131,3.438c0.316,1.424,1.381,2.703,2.787,3.355c1.883,0.873,1.998-1.148,2.889-1.936
			c1.967-1.729,2.771-3.951,3.379-6.445c0.85-3.477,4.592-2.744,6.902-4.137c0.645-0.389,1.752-0.307,2.104,0.682
			c0.719,2.006-1.658,2.674-2.012,4.264c0.904,0.805,2.51-0.871,3.029,0.801c0.439,1.42-0.611,2.059-1.73,2.598
			c-1.105,0.535-2.172,1.197-1.125,2.641c0.734,1.014,1.75,1.475,3.047,1.277c2.238-0.336,6.037-9.877,4.635-11.695
			c-0.102-0.129-0.258-0.211-0.377-0.328c-1.361-1.35-3.646-2.395-2.43-4.85c1.227-2.467,3.592,0.332,5.65-0.975
			c-1.988-2.926-3.875-5.428-7.906-4.941c-3.545,0.428-7.816-0.775-8.166-3.787c-0.355-3.061,4.086-3.508,7.029-3.721
			c2.434-0.178,3.672-0.813,3.193-3.658c-0.314-1.877-0.768-4.35,0.848-5.695c3.264-2.723,3.152-6.059,3.258-9.824
			c0.105-3.701-0.355-8.92,6.521-7.234c1.457,0.354,4.014-0.744,3.676-2.477c-0.676-3.48,0.41-6.402,1.158-9.631
			c1.043-4.508,1.488-5.027,5.359-2.502c0.891,0.582,1.451,2.146,2.855,1.043c1.189-0.934,2.217-1.979,1.691-3.799
			c-0.715-2.5,0.086-4.506,2.146-6.15c0.721-0.574,1.563-1.674,1.494-2.459c-0.465-5.215,2.502-8.957,5.215-12.813
			c0.68-0.967,0.574-1.756,0.111-2.75c-1.16-2.49-4.74-5.029,0.084-7.559c0.561-0.293-0.266-1.059-0.709-1.541
			c-3.439-3.738,3.734-4.848,2.217-8.484c-0.25-0.602,2.535,0.395,3.938,0.441c1.949,0.068,4.029,0.789,5.613-1.039
			c1.65-1.906-0.174-3.811-0.121-5.734c0.045-1.701-2.17-1.734-3.145-2.814c-0.99-1.1-2.387-1.92-1.895-3.732
			c0.844-3.111,9.467-9.219,12.949-9.143c0.959,0.021,2.143,0.584,2.609-0.652c0.543-1.426-0.873-1.6-1.695-1.906
			c-1.982-0.734-3.328-2.268-4.588-3.764c-2.766-3.291-1.896-6.959,2.057-8.414c1.961-0.721,1.555-1.992,1.221-3.162
			c-0.785-2.768-1.234-5.475,2.088-6.711c2.689-1,5.408-2.037,7.867,1.258c1.463,1.963,4.295,1.428,6.516,0.547
			c1.098-0.434,0.949-1.676,0.629-2.643c-0.775-2.33-2.637-2.938-4.787-2.545c-3.904,0.713-7.346-2.242-11.371-1.176
			c-1.498,0.396-1.627-1.109-1.016-2.418c3.023-6.479,5.176-13.029,1.791-20.113c-0.514-1.07,0.129-2.195,0.496-3.33
			c1.088-3.352,3.139-5.967,5.342-8.648c3.457-4.203,2.424-7.469-2.479-8.57c-2.021-0.453-3.391-2.287-3.168-3.34
			c1.006-4.736-0.605-9.346-0.127-14.09c0.4-3.963,2.82-6.156,5.16-8.662c-1.738-1.287-3.266-0.801-4.717-0.893
			c-2.902-0.182-5.803-0.209-2.723-4.398c1.328-1.807-0.686-2.844-2.09-3.707l-0.031-0.027c-1.598-2.768-2.189-5.215,2.219-5.434
			c3.436-0.17,2.984-1.754,1.604-3.813c-1.018-1.516-2.113-2.873-3.736-3.922c-1.494-0.967-4.887-1.031-3.924-3.531
			c0.965-2.504,4.068-1.5,6.32-1.316c0.941,0.074,1.82,0.734,2.76,1.027c4.027,1.254,5.842-2.441,8.453-4.09
			c1.988-1.252-0.494-2.934-0.979-4.266c-0.824-2.266-5.975-2.254-8.727-0.188c-1.01,0.756-1.881,2.688-3.201,1.65
			c-3.76-2.938-8.594-3.621-12.406-6.33c-0.992-0.703-1.869-1.645-1.184-2.93c1.268-2.369-0.494-3.273-1.914-4.398
			c-4.986-3.961-9.123-8.717-12.836-13.854c-1.176-1.629-1.383-3.211,0.029-4.996c0.73-0.92,2.646-1.682,1.744-3.162
			c-0.98-1.613-2.713-0.49-4.137-0.346c-4.25,0.432-9.25,0.736-11.646-2.836c-4.389-6.543-11.416-9.445-17.094-14.122
			c-3.326-2.738-5.471-7.553-11.086-7.406c-1.732,0.045-4.018-2.201-2.326-4.391c2.486-3.217-0.35-3.365-1.926-4.517
			c-8.145-5.938-18.879-0.448-27.063-6.17c-0.111-0.078-0.328,0.006-0.492-0.016c-7.48-0.889-15.223-0.107-22.322-3.428
			c-1.584-0.742-4.119-0.437-3.166-3.783c1.756-6.17,1.563-6.25-4.863-6.002c-1.486,0.059-2.957,0.412-4.443,0.549
			c-4.77,0.438-9.758,1.867-14.26,0.949c-4.146-0.845-8.283-1.201-12.402-1.482c-3.459-0.235-6.518,0.369-5.043-4.879
			c0.479-1.693-0.607-3.561-2.855-4.063c-2.104-0.47-4.168-1.082-6.256-1.611c-2.854-0.719-4.537,0.098-4.592,3.336
			c-0.07,4.098-1.934,3.875-4.715,1.986c-4.57-3.105-9.238-5.229-15.236-4.091c-6.305,1.197-13.66-4.901-13.861-10.705
			c-2.926,0.585-5.891,0.609-6.07,4.989c-0.109,2.688-2.818,2.844-5.072,2.819c-2.168-0.021-2.742-1.225-2.77-3.235
			c-0.086-6.29-2.768-8.019-8.742-5.562c-4.598,1.893-8.518,1.64-11.355-2.988c-2.664,2.669-1.566,9.163-7.563,7.458
			c-2.148-0.61-4.645-1.037-6.609-2.998c-2.295-2.29-0.891-4.794-1.123-7.237c-2.268,0.3-3.691,0.82-4.564,2.902
			c-2.471,5.884-5.75,6.278-9.514,1.046c-1.516-2.107-2.028-5.599-4.967-5.642c-2.649-0.039-5.606,0.686-8.112,1.559
			c-2.378,0.83-3.255,0.824-5.207-0.93c-2.621-2.355,0.281-3.574,0.494-5.229c-1.785-0.502-2.896-0.022-3.504,1.435
			c-1.016,2.43-0.637,5.851-4.777,5.894c-2.807,0.028-5.604,0.618-8.414,0.692c-1.428,0.037-3.74-0.518-2.334-2.459
			c2.035-2.815-0.512-2.608-1.633-3.074c-2.377-0.982-4.395,0.596-5.9,0.896c-1.805,2.514,3.416,3.364,0.602,5.235
			c-1.797,1.194-4.76,1.251-6.254-1.175c-1.652-2.68-3.635-2.329-6.006-1.461c-1.07,0.393-2.949,1.031-3.287,0.613
			c-4.42-5.484-8.475-2.373-13.486-0.625c-4.963,1.729-10.432,0.133-14.492-4.35c-2.953-3.26-11.205-4.864-13.02-2.42
			c-4.207,5.66-9.561,3.262-14.642,2.777c-1.703-0.162-3.666-1.523-1.912-3.34c1.971-2.037,2.328-4.785,3.959-6.809
			c2.165-2.686,3.079-6.747,8.397-5.913c2.564,0.401,6.609-1.879,7.039-4.561c0.271-1.729-1.451-4.769-2.359-7.188
			c-0.207-0.549-2.242-0.048-1.777-1.589c0.365-1.209,1.551-0.866,2.557-0.743c2.123,0.258,4.236,0.125,6.172,1.549
			c2.045,1.506,4.223,1.291,6.193-0.535c-1.219-1.995-3.006-1.709-4.586-1.923c-1.229-0.167-2.449-0.578-2.756-1.807
			c-0.418-1.69,1.262-1.501,2.189-2.043c3.865-2.255,7.736-3.906,12.158-1.406c1.5,0.848,2.504-0.198,3.408-1.226
			c1.059-1.201,0.486-1.631-0.65-2.611c-2.098-1.809-0.924-3.499,1.213-4.414c2.129-0.912,4.324-2.112,6.552-2.258
			c4.42-0.288,8.852-3.541,12.888-1.898c5.809,2.362,9.627-0.202,13.378-3.436c1.73-1.492,2.678-1.865,4.607-0.551
			c3.746,2.554,7.617,4.156,12.494,2.474c2.56-0.883,5.937-1.568,8.054,1.771c0.385,0.604,1.729,1.348,2.025,1.144
			c3.833-2.622,7.287,0.615,10.928,0.622c1.613,0.003,4.145-1.136,4.577,1.508c0.322,1.96-0.463,3.938-3.096,4.338
			c-1.291,0.196-1.936,1.326-1.832,2.601c0.078,0.96,1.004,1.466,1.824,1.306c4.368-0.856,7.493,2.349,11.282,3.359
			c1.908,0.508,3.9,1.924,5.478-0.04c1.277-1.588,1.348-3.402,1.012-5.801c-0.43-3.086-1.9-7.526,2.301-9.797
			c5.395-2.914,9.242-1.658,13.398,2.729c3.117,3.29,5.73,7.347,10.426,8.957c2.066,0.707,2.301,2.368,0.795,3.92
			c-1.967,2.028-3.965,3.965-7.221,3.842c-4.316-0.163-8.648,0.023-12.975-0.037c-1.451-0.021-2.887,0.197-3.33,1.587
			c-0.59,1.84,1.297,1.847,2.342,2.538c3.092,2.045,8.301-0.063,9.998,5.064c0.09,0.271,3.127-1.27,4.09-2.78
			c0.711-1.115,1.008-2.764,2.496-2.843c5.43-0.285,10.449-4.761,16.326-1.309c1.639,0.962,4.465,0.443,4.779-2.046
			c0.242-1.902-0.338-4.32-2.965-5.035c-1.125-0.307-2.223-0.713-3.352-0.998c-2.908-0.736-3.98-1.71-1.5-4.543
			c3.133-3.584,2.166-5.482-2.105-7.633c-2.297-1.157-5.465,0.064-6.461-1.208c-2.197-2.808-6.496-4.293-6.297-8.856
			c0.045-1.051,0.328-2.999-0.992-2.988c-7.795,0.064,0.033-3.113-0.975-4.387l0.34,0.028c1.482,2.243,4.316,2.858,5.895,5.115
			c1.639,2.346,3.773,3.414,6.863,1.761c2.82-1.507,4.881-0.292,5.219,3.008c0.188,1.821,1.242,3.136,2.373,4.273
			c2.225,2.239,4.701,0.866,6.918-0.128c2.256-1.014,1.424-2.583,0.275-4.026c-1.193-1.499,0.572-0.667,0.707-0.72
			c5.549-2.167,8.168-0.416,8.613,5.778c0.219,3.038,1.369,5.613,4.188,6.83c1.938,0.837,3.324,1.809,4.396,3.696
			c2.252,3.966,7.221,1.462,10.303,3.998c1.355,1.116,2.027-1.645,3.074-1.707c4.217-0.255,6.541-6.186,11.549-3.757
			c0,0,0.322-0.021,0.326-0.023c0.703,2.024,1.348,4.072,2.121,6.069c0.504,1.298,2.902,2.008,1.895,3.658
			c-3.348,5.474,0.926,4.494,3.682,4.343c2.615-0.143,5.037,0.543,7.217,1.559c2.297,1.069,4.426,1.819,7.004,0.739
			c-0.488,2.801-4.707,2.041-3.982,4.742c0.494,1.838,3.002,1.909,4.777,1.938c7.088,0.117,13.199,2.139,17.588,8.111
			c1.186,1.609,3.586,2.164,4.943,1.644c5.623-2.161,10.76-0.603,16.354,0.231c4.596,0.688,8.525,1.467,12.195,4.225
			c2.447,1.839,4.951,3.296,1.186,6.305c-0.982,0.786-1.508,2.307-0.588,3.612c0.307,0.435,1.416,0.882,1.65,0.692
			c2.592-2.092,6.635-0.936,9.006-3.924c-0.977-1.612-4.221-1.291-3.531-3.662c0.582-1.994,1.891-3.832,4.277-4.498
			c1.813-0.504,3.699-0.828,5.408-0.321c2.518,0.746,5.768,0.733,7.447,1.921c3.721,2.63,7.535,4.906,11.555,6.999
			c1.449,0.755,1.125,2.661,0.631,4.125c-0.695,2.063,0.242,3.038,2.119,2.688c3.465-0.646,6.471,1.156,9.736,1.449
			C988.497,396.681,988.986,397.122,989.478,397.563z M961.997,802.346c2.508-1.479,4.514-3.322,4.711-6.479
			c0.082-1.311,0.461-2.73-0.953-3.609c-1.385-0.859-2.793-0.184-3.689,0.652c-3.105,2.906-5.383,2.752-7.15-1.326
			c-0.344-0.791-1.27-1.012-2.266-0.174c0.979,1.545,2.645,3.168,0.031,4.844c-1.547,0.996-0.707,1.949,0.471,2.594
			c1.98,1.08,3.719,2.662,6.398,1.279C961.216,799.264,963.073,799.52,961.997,802.346z M1103.698,687.319
			c5.148,2.463,10.803,1.725,15.479,4.582c0.898,0.551,3.025,0.393,2.25-1.197c-1.516-3.104,1.338-3.467,2.258-5.111
			c1.092-1.955,4.969-3.982,1.514-6.592c-2.471-1.863-2.412-3.52-1.387-5.838c1.32-2.977,0-5.664-2.771-5.461
			c-4.932,0.363-10.402-1.092-14.711,2.703c-2.137,1.883-4.33,2.328-6.766,0.771c-1.551-0.992-3.578-3.613-4.773-1.375
			c-1.111,2.08,0.16,5.449,2.713,6.816c2.375,1.271,5.943,1.422,7.549-0.285c3.354-3.57,6.551-2.025,9.973-1.072
			c1.77,0.492,3.906,1.045,3.148,3.527c-0.625,2.049-2.482,3.619-4.607,2.934C1108.124,679.969,1105.65,682.907,1103.698,687.319z
			 M729.045,361.612c-0.092-1.452,1.217-2.882-0.318-4.216c-3.572-3.109-11.283-3.185-15.429-0.302
			c-2.443,1.699-5.135,3.541-7.547-0.098c-0.885-1.332-1.557-0.697-2.33-0.021c-2.753,2.401-2.748,5.926,0.242,8.083
			c5.219,3.761,11.311,6.177,16.23,10.429c0.252,0.218,1.131,0.173,1.313-0.063C724.476,371.19,729.781,368.069,729.045,361.612z
			 M132.798,929.918c-1.094,3.344-2.731,5.213-5.938,5.939c-2.859,0.648-5.743,1.826-7.599,4.402
			c-1.589,2.209-3.575,3.385-6.354,3.008c-3.105-0.424-3.622,1.877-3.799,4.02c-0.177,2.18,1.169,3.436,3.426,3.223
			c3.556-0.334,4.344,1.193,2.641,4.039c-1.522,2.543,0.71,2.918,1.756,2.506c2.796-1.102,6.422-1.799,7.459-4.979
			c3.216-9.859,12.395-12.408,19.639-17.023C135.704,933.901,135.662,933.883,132.798,929.918z M112.631,963.928
			c-2.587-0.82-4.729,0.352-6.188-1.26c0.403-1.381,1.313-1.293,2.096-1.385c1.405-0.168,3.307,0.305,3.146-2.063
			c-0.158-2.35-2.068-1.645-3.429-1.672c-1.643-0.031-3.229,0.143-4.869,0.652c-6.471,2.014-7.104,3.301-3.164,8.57
			c1.807,2.416,0.972,3.514-1.313,4.414c-2.436,0.959-4.256,2.398-4.938,5.119c-0.673,2.689-1.985,4.813-5.178,5.209
			c-1.765,0.225-2.199,1.836-2.337,3.393c-0.119,1.34,0.523,2.219,1.837,2.563c3.285,0.867,6.884-0.291,10.02,1.547
			c1.222-2.512,2.446-5.02,3.65-7.541c0.211-0.438,0.367-0.918,0.479-1.395C103.928,973.844,105.526,967.676,112.631,963.928z
			 M-182.576,860.36c4.864-2.109,8.426-2.131,10.896,1.357c1.673,2.359,3.744,3.557,6.651,3.744c1.63,0.107,3.342,0.84,4.351,2.223
			c2.786,3.824,6.146,3.42,9.637,1.4c3.775-2.188,5.819-5.459,4.969-9.953c-0.332-1.748-1.012-4.227-2.833-4.273
			c-3.705-0.1-5.772-1.414-6.604-5.051c-0.271-1.188-1.604-1.58-2.896-1.391c-0.905,0.135-1.648,0.65-1.849,1.471
			c-0.334,1.367,1.086,1.389,1.782,1.977c1.13,0.951,2.592,1.838,1.742,3.662c-0.8,1.721-2.524,2.342-4.164,2.273
			c-5.736-0.236-11.456,1.332-17.208,0.098C-179.23,857.655-180.716,856.954-182.576,860.36z M158.867,963.588
			c-2.916-4.061-2.907-9.68-5.979-14.023c-0.687-0.975-0.521-2.992,0.798-4.137c0.896-0.77,2.038-1.355,1.051-2.777
			c-0.774-1.117-1.91-1.088-3.127-1.016c-3.576,0.227-5.661,3.107-5.821,7.143c-0.248,6.289,1.591,13.273-5.154,17.754
			c-0.774,0.516-1.446,1.516-0.803,2.613c0.847,1.441,2.348,1.221,3.592,0.99C148.922,969.129,154.558,968.411,158.867,963.588z
			 M103.706,946.94c2.291-0.48,2.877-1.953,2.311-3.779c-0.585-1.883-1.869-3.592-2.218-5.494c-0.604-3.295-2.245-4.33-4.022-1.385
			c-2.626,4.35-4.914,8.17-10.15,10.42c-2.182,0.936-2.355,6.553-7.07,6.611c-0.76,0.01-1.536,0.908-1.412,1.813
			c0.493,3.576,3.082,5.77,6.132,6.408c3.518,0.736,3.688-2.064,3.576-4.881c-0.119-3.031-0.728-6.721,4.426-6.334
			c1.79,0.135,1.811-1.51,2.153-2.807c0.938-3.523,2.305-5.857,5.473-1.516C103.162,946.358,103.478,946.674,103.706,946.94z
			 M887.7,387.493c4.379,0.783,5.525-2.032,5.961-4.549c0.543-3.147-2.313-2.473-4.156-2.551c-2.814-0.117-5.633-0.771-8.332-0.902
			c-4.209-0.205-7.473-4.061-11.857-2.588c-0.9,0.304-2.188,0.709-2.459,1.397c-0.551,1.404,0.945,2.128,1.912,2.419
			c3.189,0.965,5.021,2.941,5.822,6.168c0.467,1.875,1.953,3.016,3.77,1.725C881.599,386.315,884.667,384.196,887.7,387.493z
			 M1050.529,667.282c0.66,0.053,1.332,0.045,1.98,0.168c3.109,0.594,4.172-0.859,4.213-3.814c0.049-3.445-1.869-2.357-3.896-2.182
			c-2.947,0.26-5.998,0.303-8.91-0.152c-3.469-0.543-5.043,2.768-7.926,3.287c-0.582,0.105-0.691,1.359-0.008,1.59
			c2.576,0.871,4.928,3.535,7.828,2.055C1046.079,667.069,1048.22,667.094,1050.529,667.282z M-67.016,858.514
			c4.782,0.01,8.928-1.334,11.629-5.424c1.45-2.189,1.727-4.506-1.66-5.256c-3.678-0.811-11.022,2.982-12.656,6.334
			C-71.159,857.153-70.056,858.459-67.016,858.514z M345.388,979.967c-3.627,1.537-7.314,1.395-10.841,2.064
			c-4.82,0.916-5.467,2.666-2.66,6.889c1.354,2.041,1.561,4.174,1.686,7.023C339.745,991.991,339.385,983.858,345.388,979.967z
			 M1146.734,578.377c-1.023-1.867-2.629-5.217-5.588-5.313c-3.705-0.117-5.424,4.283-5.172,6.814
			c0.248,2.502,3.506,4.707,5.461,7.029c0.055,0.063,0.404,0.012,0.465-0.082C1143.491,584.331,1147.095,583.145,1146.734,578.377z
			 M1068.558,632.614c-0.363-2.17-2.029-3.535-4.311-3.748c-2.215-0.209-4.645,0.482-4.967,3.027
			c-0.313,2.461-0.703,4.521-3.09,5.715c-1.029,0.514-1.404,1.387-1.049,2.463c0.363,1.102,1.426,1.336,2.379,1.549
			C1060.136,642.204,1068.515,635.575,1068.558,632.614z M814.851,376.69c-0.35-0.375-0.713-0.959-1.236-1.293
			c-2.52-1.606-5.316-3.275-8.225-1.77c-3.621,1.879-5.59,5.432-7.01,9.164c-0.283,0.748,0.404,1.586,1.23,1.928
			c1.156,0.479,2.563,0.487,3.127-0.617c2.047-4.002,6.131-4.013,9.613-5.221C813.423,378.51,814.665,378.39,814.851,376.69z
			 M445.437,958.395c0.01-1.223-0.359-2.053-1.211-2.275c-2.246-0.59-4.719-0.354-5.785,1.727c-1.99,3.879-5.619,4.314-9.102,5.289
			c-0.938,0.266-2.709-0.758-2.541,1.309c0.157,1.939,1.836,2.49,3.325,2.107c5.197-1.332,9.796-4.043,14.339-6.801
			C444.966,959.444,445.216,958.717,445.437,958.395z M279.384,1005.51c-1.817-2.479-3.495-5.287-5.715-7.563
			c-0.952-0.98-2.934,0.225-2.898,1.617c0.057,2.303-1.244,3.094-2.85,4.043c-0.923,0.545-2.476,1.33-1.925,2.523
			c0.872,1.9,2.113,0.336,3.207-0.16c2.198-0.994,3.229,0.98,4.7,1.885c1.29,0.791,2.646,1.463,4.122,0.311
			C278.851,1007.522,279.437,1006.774,279.384,1005.51z M-236.682,756.348c-2.092,0.102-2.919,0.111-3.739,0.186
			c-1.43,0.125-3.308-0.338-3.86,1.426c-0.608,1.938,1.216,3.035,2.453,3.92c2.157,1.543,4.676,2.396,7.427,2.318
			c1.779-0.049,3.656,0.379,4.137-2.256c0.472-2.576-0.538-4.271-2.814-5.057C-234.597,756.364-236.304,756.399-236.682,756.348z
			 M-52.102,917.903c2.49-0.273,5.521,0.248,5.371-3.123c-0.12-2.705-0.84-5.506-4.276-6.541c-3.326-1-3.363,1.641-4.394,3.334
			c-0.333,0.547-0.848,1.004-1.341,1.43c-3.119,2.699-2.168,3.984,1.486,4.396C-54.113,917.53-52.982,917.758-52.102,917.903z
			 M166.782,1008.247c0.329,0,0.664-0.031,0.99,0.006c3.748,0.434,4.976-2.451,5.632-5.037c0.649-2.555-1.516-5.225-3.294-6.033
			c-3.063-1.395-2.063,2.922-3.753,4.018c-0.772,0.504-1.153,1.59-1.771,2.365c-0.819,1.027-1.989,2.021-1.342,3.467
			C163.917,1008.526,165.541,1007.979,166.782,1008.247z M-248.68,668.219c3.005-0.379,5.945-1.871,8.79-3.447
			c1.083-0.602,1.888-2.074,1.258-3.443c-0.688-1.496-2.197-1.291-3.485-0.904c-2.987,0.896-6.101,1.543-8.555,3.682
			c-0.952,0.828-1.4,1.848-0.899,3.084C-251.085,668.387-249.955,668.067-248.68,668.219z M-115.486,827.381
			c-0.016,0.195,0.063,0.729-0.113,1.152c-2.248,5.49,1.033,4.635,4.313,3.77c1.273-0.336,2.548-0.688,3.806-1.088
			c0.912-0.287,2.104-0.385,2.076-1.713c-0.026-1.285-1.027-1.555-2.085-1.621c-1.973-0.123-3.344-1.281-4.654-2.604
			c-1.108-1.125-2.122-3.346-3.896-2.227C-117.523,823.985-115.889,825.721-115.486,827.381z M766.691,891.584
			c-0.979-1.932-0.4-5.76-3.533-5.51c-3.461,0.277-5.922,3.629-7.413,6.469c-0.449,0.857,4.2,2.486,6.588,2.955
			C764.344,895.891,766.447,894.459,766.691,891.584z M332.286,968.87c-3.632,0.832-6.975,1.764-7.456,5.74
			c-0.159,1.332,0.439,4.166,2.479,3.336c2.927-1.195,6.994-1.527,8.021-5.229C335.814,970.963,334.597,968.836,332.286,968.87z
			 M-51.503,940.03c3.502-0.869,7.803-0.713,9.698-5.227c0.342-0.809,0.612-1.576-0.041-2.281c-0.721-0.777-1.559-0.383-2.251,0.055
			c-2.652,1.676-5.46,2.951-8.471,3.887c-1.048,0.326-3.118,0.461-2.66,2.27C-54.85,940.208-53.099,939.965-51.503,940.03z
			 M1059.448,508.575c-0.135,1.814,0.857,3.367,1.645,5.006c0.836,1.746,1.967,1.746,2.986,0.396
			c1.768-2.34,2.184-5.502,4.457-7.586c0.143-0.131-0.123-1.104-0.404-1.23c-2.299-1.051-4.488-0.055-6.725,0.445
			C1059.769,505.973,1059.253,506.932,1059.448,508.575z M-261.678,699.208c2.095-0.225,3.979-1.115,3.98-3.803
			c0.003-3.336-2.968-4.676-5.203-5.021c-2.115-0.322-3.354,2.387-3.345,4.598C-266.233,697.596-264.848,699.299-261.678,699.208z
			 M1120.917,697.129c-2.164-0.438-5.172-0.936-4.92,2.035c0.223,2.613,3.053,4.775,5.762,5.396c3.49,0.797,3.375-2.822,3.77-4.645
			C1126.49,695.5,1122.663,697.805,1120.917,697.129z M1132.204,606.534c-0.193,2.393,0.41,3.768,2.699,3.492
			c2.299-0.277,4.715-1.189,4.156-3.854c-0.455-2.162-0.48-6.125-3.225-5.869C1133.156,600.551,1132.044,603.936,1132.204,606.534z
			 M-291.945,711.657c1.666-0.449,2.499-2.15,3.466-3.643c0.563-0.865,0.667-1.898-0.607-2.414c-2.472-0.994-4.427-2.701-6.305-4.52
			c-0.976-0.945-1.941-1.094-3.005-0.064c-1.077,1.047-0.836,1.992-0.001,3.02c1.641,2.016,3.74,3.711,4.175,6.543
			C-294.09,711.44-293.171,711.756-291.945,711.657z M1053.157,463.102c-3.188-0.938-6.443-3.563-9.137,0.094
			c-1.1,1.488,0.43,3.225,1.518,3.793C1049.529,469.075,1050.615,464.586,1053.157,463.102z M-200.113,805.573
			c2.071,2.859,4.854,3.605,7.341,4.689c1.91,0.832,3.564-0.16,4.312-2.121c0.355-0.938,0.194-2.354-1.034-2.299
			C-192.858,805.995-196.196,804.569-200.113,805.573z M-300.694,683.807c-2.114,0.365-5.182,0.178-2.175,3.564
			c1.446,1.629,1.252,2.295-0.801,3.01c-1.46,0.508-1.872,1.947-0.916,3.273c0.834,1.158,1.396,3.02,3.131,2.873
			c1.893-0.158,1.366-2.025,1.39-3.207c0.041-2.02,1.497-3.303,2.34-4.834C-295.692,684.797-297.743,684.149-300.694,683.807z
			 M213.355,984.473c-2.871-2.203-4.478-5.553-8.241-3.754c-1.218,0.582-2.092,2.201-0.817,3.752
			C206.9,987.649,209.719,986.379,213.355,984.473z M-125.416,824.53c-0.033-1.635-0.497-2.881-1.869-2.732
			c-2.688,0.291-3.83,2.248-4.005,4.76c-0.115,1.652,0.896,3.367,2.31,3.209C-125.902,829.42-127.054,825.801-125.416,824.53z
			 M1085.972,518.61c-0.91,1.381-3.547,1.582-3.451,3.973c0.063,1.514,1.676,1.873,3.033,1.723c1.762-0.193,3.875-0.311,3.775-2.813
			C1089.267,519.875,1087.988,519,1085.972,518.61z M1082.32,652.928c2.924-0.123,3.439-2.77,3.893-5.172
			c0.328-1.746-0.467-3.734-2.43-3.635c-2.979,0.154-3.779,2.814-4.201,5.275C1079.292,651.086,1079.476,652.834,1082.32,652.928z
			 M553.928,980.782c-3.926-5.83-4.203-5.914-8.845-2.439C548.313,978.776,550.272,981.655,553.928,980.782z M859.802,863.43
			c2.646-1.805,5.064,0.291,7.555,0.441c1.566,0.094,2.814-0.447,2.93-1.883c0.18-2.115-1.729-1.33-2.805-1.42
			C864.615,860.331,862.419,862.293,859.802,863.43z M352.45,953.383c-0.241-1.129-0.797-2.609-2.305-2.363
			c-1.955,0.316-3.453,2.035-3.863,3.775c-0.36,1.539,1.193,2.465,2.922,2.416C351.551,957.147,352.103,955.51,352.45,953.383z
			 M-1.193,891.161c-0.405-1.125-0.933-2.338-2.328-2.092c-1.499,0.266-2.913,1.01-2.668,2.951c0.183,1.428,1.331,1.943,2.533,1.836
			C-2.171,893.721-1.392,892.645-1.193,891.161z M472.585,951.676c-1.837,0.297-2.378,1.539-2.257,3.201
			c0.072,0.965,0.08,2.09,1.607,1.77c1.875-0.396,2.844-1.592,2.777-3.482C474.671,951.864,473.648,951.686,472.585,951.676z
			 M1010.548,770.52c-1.941,0.1-2.926,0.639-2.703,2.078c0.197,1.293,1.221,1.889,2.498,1.771c1.234-0.115,2.256-0.674,2.064-2.135
			C1012.226,770.838,1011.156,770.5,1010.548,770.52z M123.639,965.831c-2.617-0.207-4.615-0.566-6.85,1.023
			C119.423,969.084,121.414,969.709,123.639,965.831z M941.605,794.67c-1.395-0.02-2.252,0.762-2.117,2.059
			c0.125,1.203,1.322,1.221,2.311,1.174c1.213-0.061,2.557-0.502,2.479-1.775C944.2,794.844,942.728,794.774,941.605,794.67z
			 M717.785,907.688c-1.455,0.002-2.08,1-2.146,2.477c-0.039,0.822,0.07,1.873,1.135,1.686c1.376-0.24,2.027-1.576,2.541-2.727
			C719.797,908.04,718.851,907.801,717.785,907.688z M518.034,962.954c1.283-0.033,1.607-1.129,1.83-2.252
			c0.172-0.861-0.043-1.803-1.09-1.607c-1.252,0.234-2.506,0.854-2.52,2.447C516.245,962.502,516.95,962.885,518.034,962.954z
			 M228.371,971.399c-0.467-0.668-0.607-1.838-1.906-1.689c-1.271,0.146-1.41,1.23-1.333,2.215c0.072,0.936,0.132,2.154,1.563,1.902
			C227.821,973.629,227.911,972.463,228.371,971.399z M1079.486,638.516c-0.406-1.074-1.381-1.307-2.326-1.258
			c-0.951,0.049-1.344,0.955-1.293,1.736c0.094,1.396,1.234,1.197,2.166,1.063C1078.857,639.938,1079.591,639.606,1079.486,638.516z
			 M939.743,804.569c0.313,0.938,0.91,1.404,1.813,1.361c1.131-0.053,1.807-0.803,1.902-1.811c0.119-1.221-0.691-1.221-1.516-0.738
			C941.218,803.811,939.849,803.151,939.743,804.569z M1109.947,550.19c-0.227-1.059-1.09-1.096-1.904-1.09
			c-1.055,0.008-2.141,0.318-2.209,1.508c-0.076,1.289,0.908,1.656,2.033,1.354C1108.792,551.713,1109.837,551.493,1109.947,550.19z
			"/>
		<path fill="#444444" d="M461.964,211.887c-6.404-0.543-12.175-2.34-16.556-8.558c2.814,7.497-5.201,7.526-7.217,11.758
			c-0.795,1.671-3.867,2.664-5.238,1.632c-1.758-1.325-1.088-3.863,0.359-5.809c-2.984-1.832-6.416-0.766-9.564-1.483
			c-1.76-0.401-2.729,0.393-2.938,2.364c-0.188,1.764-1.273,3.338-3.221,3.184c-2.275-0.181-1.506-2.23-1.474-3.569
			c0.05-2.058-0.608-3.219-2.825-3.063c-1.604,0.112-2.771-0.366-3.783-1.803c-1.121-1.593-3.021-1.64-4.441-0.522
			c-1.891,1.483-0.082,2.971,0.471,4.408c0.113,0.297,0.392,0.536,0.609,0.787c4.563,5.232,4.469,5.763-0.914,10.271
			c-2.139,1.79-4.27,1.169-4.859-0.857c-0.983-3.386-3.524-5.952-4.145-9.497c-0.836-4.796-4.189-6.302-8.621-4.168
			c-1.77,0.853-3.547,1.409-4.966-0.354c-2.201-2.733-4.441-1.486-5.748,0.408c-1.652,2.398,0.313,3.38,2.553,3.995
			c1.867,0.513,2.988,2.098,3.656,3.856c0.529,1.394,1.019,3.004-0.135,4.252c-1.127,1.217-2.597,0.519-3.64-0.218
			c-2.366-1.672-6.487,0.074-7.635-4.285c-0.34-1.291-2.328,0.11-3.512,0.55c-1.771,0.656-3.143,0.985-4.806-0.85
			c-6.421-7.073-5.142-4.971,2.686-12.693c-4.33-0.663-7.85-0.089-9.674,4.122c-0.65,1.502-1.551,2.444-2.892,3.227
			c-1.654,0.968-1.178,2.599-0.965,4.051c0.263,1.781,1.624,1.768,3.034,1.789c1.572,0.025,3.871-0.397,3.611,2.104
			c-0.224,2.137-2.396,2.97-4.219,2.496c-5.026-1.302-7.874,2.113-10.229,5.145c-2.053,2.646-4.437,5.229-5.923,8.229
			c-1.223,2.471-3.215,2.891-4.85,2.051c-3.71-1.907-7.709-3.713-10.188-7.283c-2.798-4.032-5.722-7.652-11.142-7.848
			c-1.323-0.048-1.956-1.1-2.86-1.807c-2.665-2.086-5.347-3.079-7.806,0.363c-1.813,2.534-4.173,1.658-6.162,0.567
			c-2.091-1.146-0.896-2.429,0.47-3.393c1.309-0.923,0.227-1.291-0.407-1.653c-2.414-1.382-4.645-3.236-7.799-2.499
			c-3.053,0.714-5.916,0.169-8.479-1.767c-1.965-1.483-4.268-1.549-4.507,1.133c-0.19,2.114-4.354,4.176,0.248,6.939
			c4.28,2.571,8.325,5.618,12.777,8.018c3.115,1.68,6.028,2.213,8.485-0.816c1.081-1.333,1.07-3.98,3.478-3.6
			c3.195,0.507,6.913,0.075,9.351,2.455c1.6,1.563,4.686,2.721,3.286,6.457c-0.587,1.567,1.431,3.277,3.579,3.149
			c5.618-0.337,8.704,4.475,13.197,6.424c1.061,0.459,2.373,1.843,1.49,3.274c-0.906,1.468-2.148,0.641-3.434-0.025
			c-2.94-1.525-5.626-2.249-7.76,1.713c-1.461,2.713-4.077,1.557-6.082,0.133c-3.584-2.545-6.926-3.178-10.067,0.658
			c-1.122,1.368-2.517,1.298-4.065,0.652c-2.883-1.201-5.514,0.542-8.237,0.974c-1.692,0.269-2.533,1.464-1.103,3.252
			c0.857,1.07,1.522,2.778-0.057,3.433c-3.688,1.525-6.429-1.604-9.54-2.69c-1.949-0.68-2.935-2.619-0.869-4.773
			c1.208-1.261,0.182-2.122-1.108-2.47c-1.135-0.306-2.257-0.213-3.398,0.292c-8.226,3.625-8.284,3.646-13.515-3.485
			c-2.579-3.518-6.677-6.159-4.767-12.002c0.694-2.123-4.323-2.045-5.571-4.452c-1.432,1.118-1.007,2.413-1.148,3.509
			c-0.852,6.478-0.826,6.506-7.511,5.3c-1.452-0.263-2.639,0.253-3.755,0.974c-1.122,0.725-2.112,1.679-3.839,1.186
			c-1.488-1.198,2.255-3.384-0.444-4.335c-1.218-0.429-2.811-0.364-3.526,1.084c-1.229,2.477-3.216,4.862-1.774,7.914
			c0.34,0.72,1.168,1.194,1.603,1.889c1.775,2.853,0.855,4.362-2.416,4.551c-1.328,0.076-2.687-0.086-3.99,0.113
			c-3.875,0.591-5.789,4.563-3.125,7.345c2.649,2.766,5.124,6.097,9.32,7.006c1.759,0.381,4.103,0.837,3.596,3.243
			c-0.464,2.198-2.864,1.685-4.617,2.034c-2.024,0.403-3.759-1.589-5.868-0.517c-0.163,1.874,1.344,3.217,2.516,3.1
			c4.572-0.456,9.705,3.29,13.745-1.85c1.254-1.595,3.371-0.824,5.197-0.565c3.656,0.52,7.613,2.852,10.302-2.237
			c0.706-1.342,3.382-1.432,4.336,0.194c1.056,1.799,0.69,4.347-1.367,5.238c-5.899,2.554-11.938,4.816-18.017,6.916
			c-1.365,0.473-3.028,0.14-3.823,1.73c-0.86,1.723-1.594,1.333-3.361,0.877c-2.096-0.54-5.104,0.181-6.924,1.472
			c-1.915,1.356-2.647,0.965-4.087-0.271c-3.353-2.876-6.965-5.145-11.628-2.877c-1.324,0.644-2.595,0.571-3.773-0.266
			c-1.592-1.13-3.563-1.608-5.235-1.237c-5.188,1.153-10.277-0.659-15.754,0.801c-6.795,1.812-14.124,0.161-21.16-2.267
			c-5.685-1.963-11.93-2.45-17.979-3.124c-1.982-0.222-3.844-0.354-5.745-1.074c-2.465-0.934-4.768-0.219-5.921,2.233
			c-1.188,2.521,0.814,3.691,2.705,4.454c4.379,1.767,6.386,6.752,11.138,8.022c1.111,0.297,0.938,1.637,0.978,2.616
			c0.08,2.104,1.263,3.176,2.984,3.833c1.903-1.939-3.854-4.358,0.737-5.63c4.396-1.218,9.634,0.601,10.541,3.456
			c0.584,1.836-4.565,7.048-6.845,6.063c-4.544-1.964-10.234-0.895-13.826-4.345c-3.503-3.364-7.297-3.323-11.45-3.463
			c-2.688-0.09-4.867,0.891-6.922,2.358c-1.56,1.115-4.129,2.063-3.297,4.354c0.854,2.358,3.298,4.396,5.857,3.778
			c4.222-1.019,6.78,2.276,10.255,3.05c1.172,0.261,2.268,1.575,2.111,3.091c-0.182,1.773-1.793,2-3.03,1.873
			c-6.161-0.635-11.611,0.39-15.983,5.326c-0.78,0.882-3.037,0.949-3.709-1.01c-1.569-4.576-5.431-4.663-8.507-3.188
			c-3.148,1.51-5.924,0.945-8.933,0.799c-3.771-0.185-7.514-0.936-11.195,1.146c-1.788,1.011-3.863-0.01-3.618-2.509
			c0.393-4.002-0.852-8.462,3.649-11.918c-3.553-0.582-5.757-0.954-8.029,1.896c-3.241,4.063-8.636,2.744-13.073,3.659
			c-5.688,1.173-6.904,3.079-4.582,8.703c0.672,1.628,2.883,3.058,0.425,5.202c-1.295,1.129,0.51,1.557,1.22,1.846
			c1.098,0.447,1.846,0.528,2.511-1.168c2.312-5.895,10.604-8.283,15.461-4.434c2.117,1.679,4.636,1.704,6.857,2.772
			c1.486,0.714,2.541,1.657,2.711,3.274c0.193,1.836-1.178,2.765-2.605,3.213c-3.648,1.144-6.228,3.027-6.426,7.242
			c-0.029,0.606-0.976,1.59-1.601,1.681c-5.244,0.758-6.736,6.087-10.597,8.578c-2.581,1.667-0.639,3.09,1.049,4.55
			c1.524,1.318,5.042,0.11,4.791,2.887c-0.276,3.058-2.889,4.184-5.975,3.876c-1.108-0.11-1.696,0.543-2.128,1.646
			c-1.427,3.634-4.932,4.033-8.082,5.031c-1.69,0.535-5.551-2.678-4.733,2.638c0.089,0.585-1.472,0.734-2.178,0.277
			c-3.973-2.571-9.047-1.73-13.265-4.66c1.928-1.082,5.207-0.004,5.975-3.55c-3.876-0.192-7.674-1.841-10.67,2.395
			c-1.174,1.658-3.41,0.782-5.188,0.445c-2.064-0.391-3.766,0.203-4.556,2.132c-0.917,2.24,1.117,3.053,2.544,3.526
			c4.705,1.564,6.902,6.184,10.892,8.586c1.405,0.847,1.151,1.918-0.231,2.637c-2.683,1.391-6.1,1.387-7.149-1.141
			c-2.632-6.322-6.471-2.943-10.012-1.895c-1.11,0.329-2.164,0.971-3.32,0.711c-3.686-0.824-6.659,0.898-7.879,3.824
			c-1.443,3.463-4.94,3.98-6.938,6.431c-1.003,1.229-2.125,0.482-3.074-0.233c-1.089-0.822-1.407-1.979-0.527-3.043
			c2.938-3.549,2.568-6.396-1.439-8.844c-1.257-0.766-1.188-2.309-1.022-3.663c0.333-2.76-1.088-3.399-3.562-3.352
			c-5.222,0.102-5.658,0.674-3.309,5.251c0.757,1.475,1.054,2.983-0.29,4.101c-2.563,2.125-1.034,2.883,1.014,3.563
			c1.26,0.419,2.556,0.73,3.808,1.169c0.957,0.337,1.905,0.872,2.054,1.966c0.202,1.489-1.054,1.813-2.094,2.369
			c-5.257,2.82-5.229,2.826-0.573,6.938c0.574,0.508,1.131,1.287,1.251,2.013c0.691,4.163-6.576,12.398-10.97,12.229
			c-3.146-0.121-5.367-0.263-5.204,4.16c0.108,2.935-3.828,4.568-6.4,3c-4.498-2.742-8.105-4.376-12.868,0.713
			c-1.786,1.908-5.376,6.316-10.228,4.154c-1.189-0.531-2.344,0.432-2.522,1.754c-0.272,1.99-1.565,2.783-3.743,3.357
			c2.111,1.768,4.604,2.973,5.669,4.944c1.637,3.031-2.543,3.027-4.092,5.605c2.561,0,4.586-0.039,6.606,0.014
			c1.532,0.037,3.271,0.211,3.544,2.039c0.271,1.789-1.636,2.269-2.72,2.26c-9.594-0.063-15.023,7.504-22.054,12.027
			c-2.315,1.49-3.429,5.016-1.979,7.449c2.487,4.184,0.032,5.374-2.96,6.586c-2.009,0.813-4.122,1.404-6.337,1.086
			c-1.649-0.236-2.285-0.529-3.227,1.891c-1.055,2.703-4.802,4.406-7.905,5.652c-1.172,0.471-2.922,0.346-3.413-1.209
			c-0.46-1.457,1.17-1.656,2.063-2.275c1.13-0.787,2.063-1.756,1.646-3.322c-0.419-1.582-1.872-1.805-3.112-2.135
			c-7.11-1.895-10.553,0.422-12.392,8.141c-0.495,2.074-0.915,4.271-1.95,6.082c-0.956,1.672-0.681,2.637,0.415,3.938
			c2.314,2.744,1.993,4.529-1.811,5.615c-2.239,0.639-4.491,0.969-6.63,1.102c-0.481,1.371,0.214,1.824,0.987,2.184
			c3.955,1.822,2.175,3.225-0.338,4.541c-1.18,0.617-2.417,1.127-3.601,1.738c-0.887,0.455-2.324,0.854-2.489,1.525
			c-1.128,4.604-2.733,8.773-7.327,11.031c3.583,5.17-0.121,8.01-2.884,11.988c-2.593,3.734-4.206,5.504-8.358,3.189
			c-1.009-0.563-2.119-1.195-2.771-2.096c-1.622-2.23-3.436-4.086-5.967-1.666c-2.235,2.137-4.407,4.695-2.334,8.23
			c0.495,0.852,0.923,1.764,1.544,2.512c0.922,1.107,1.581,2.346,0.646,3.563c-0.922,1.205-2.08,0.27-3.146-0.174
			c-1.839-0.76-3.876-0.52-3.384,1.805c1.047,4.928-1.969,6.881-5.387,8.822c-1.008,0.574-2.048,1.127-2.957,1.838
			c-1.72,1.348-5.161,1.371-4.692,4.404c0.383,2.488,3.427,2.174,5.296,3.086c0.848,0.414,2.331,0.344,2.169,1.607
			c-0.361,2.822-3.205,4.396-3.653,7.449c-0.563,3.842-3.589,3.178-6.62,2.922c-2.625-0.221-6.045-2.037-7.546,2.924
			c-0.738,2.438-3.847,1.221-4.989-1.002c-0.788-1.533-1.464-2.65-3.289-2.088c-1.232,0.381-2.814,0.674-3.113,2.148
			c-0.333,1.646,1.343,2.121,2.364,2.861c1.624,1.176,2.598,2.738,2.356,4.68c-0.593,4.791,2.672,4.375,5.394,3.783
			c6.762-1.475,9.608-0.412,13.675,6.373c-4.939-1.648-8.106,0.354-11.335,3.318c-2.072,1.904-5.339,2.078-7.575-0.514
			c-1.211-1.404-1.982-3.24-4.275-2.502c-0.687,0.221-0.914,1.23-0.407,1.666c1.647,1.412,1.543,4.879,4.713,4.402
			c2.389-0.359,3.649-0.012,4.143,2.713c0.856,4.754-0.514,6.555-5.705,6.92c-2.271,0.158-5.206-1.205-6.188,2.451
			c-0.868,3.238-0.202,5.748,2.567,7.912c4.196,3.275-0.141,5.529-1.836,6.197c-4.943,1.947-6.841,3.43-2.295,8.199
			c2.538,2.664-0.823,3.885-3.03,4.256c-3.576,0.602-7.216,0.832-10.835,1.15c-2.342,0.205-4.522,0.688-6.679,1.793
			c-3.34,1.717-6.176,2.086-8.859-1.984c-2.744-4.162-6.929-1.488-9.715,0.361c-3.701,2.457-5.849,3.654-8.213-1.521
			c-1.46-3.193-5.919-2.523-8.851-4.008l0.081,0.078c-1.329-3.863,1.843-5.688,3.692-8.096c1.188-1.543,3.527-2.979,2.618-4.969
			c-0.978-2.141-3.704-1.621-5.834-1.795c-3.434-0.281-6.54,1-9.762,1.791c-2.556,0.629-4.995,1.594-7.81,1.291
			c-2.895-0.313-4.303,1.939-5.286,4.369c-0.622,1.533-1.722,2.605-3.446,2.225c-2.121-0.467-1.45-2.264-1.403-3.686
			c0.208-6.354,3.804-10.848,9.992-12.455c0.8-0.207,1.995-0.646,2.417-0.285c4.688,3.99,7.962-1.197,11.924-1.689
			c2.25-0.279,2.385-1.926,2.795-3.523c0.605-2.355-1.519-1.973-2.605-2.604c-0.852-0.496-1.719-1.014-2.645-1.318
			c-1.406-0.463-4.005,0.398-3.489-2.254c0.636-3.26,3.115-1.127,4.849-1.1c0.108,0.1,0.222,0.197,0.333,0.295
			c-0.136-0.076-0.271-0.152-0.403-0.229c-0.672-3.244-1.495-6.314,1.816-8.988c2.146-1.734,1.328-3.861-1.002-5.219
			c-4.296-2.5-2.467-6.859-2.831-10.373c-0.199-1.91,2.035-1.729,3.395-0.674c3.607,2.801,5.706,1.455,7.037-2.389
			c0.267-0.771,0.668-1.516,1.124-2.193c0.834-1.242,3.047-2.154,1.042-4.039c-1.555-1.461-3.257-2.25-5.331-0.666
			c-1.266,0.967-2.929,1.313-4.092,0.02c-1.5-1.668,0.119-2.875,0.936-4.318c2.005-3.541,4.748-5.283,8.906-5.158
			c2.676,0.08,4.797-0.816,3.026-4.24c-0.497-0.963-0.449-2.121,0.467-2.725c4.85-3.172,3.016-5.275-1.097-6.824
			c0.021-1.932,1.422-1.893,2.424-2.227c4.752-1.588,9.375-3.422,13.273-6.686c2.968-2.484,6.039-2.275,9.272-0.543
			c5.754,3.082,9.506,2.377,13.576-2.486c2.882-3.443,5.901-5.736,10.176-1.867c1.873,1.697,4.13,1.654,5.876-0.045
			c1.656-1.611,3.462-2.48,5.676-2.779c0.919-0.121,2.289,0.016,2.174-1.395c-0.127-1.553-1.556-1.725-2.686-1.422
			c-1.237,0.332-2.309,1.262-3.539,1.646c-2.618,0.816-4.985-0.311-5.872-2.539c-1.203-3.02,1.841-2.121,3.28-2.631
			c5.229-1.85,10.395-8.188,9.938-12.262c-0.236-2.121-0.326-4.385-3.111-4.941c-2.645-0.527-3.858,1.482-5.262,3.033
			c-0.521,0.576-0.595,1.537-0.951,2.283c-1.14,2.395-3.576,1.168-5.338,1.854c-0.961,0.375-1.121-0.496-1.148-1.107
			c-0.101-2.123,1.696-2.395,3.049-3.352c4.138-2.93,7.748-6.783,13.479-6.26c0.775,0.07,1.346-0.6,1.155-1.262
			c-0.26-0.912-0.678-2.102-1.396-2.484c-0.938-0.504-2.245-0.281-3.376-0.475c-2.202-0.373-4.396-0.801-1.719-3.566
			c2.065-2.131,1.703-3.324-1.333-3.822c-1.855-0.307-2.997-2.037-2.972-3.604c0.038-2.373,2.309-1.355,3.532-1.322
			c4.057,0.113,4.933-4.012,8.091-5.258c-2.299-2.105-5.156-0.941-7.316-2.314c-0.932-0.594-1.667-1.043-1.504-2.227
			c0.178-1.281,1.161-1.471,2.196-1.506c0.996-0.033,2.001-0.08,2.99,0.006c2.685,0.236,4.078-0.586,3.63-3.624
			c-0.429-2.91,0.253-4.93,3.821-5.692c3.471-0.744,4.329-4.695,6.494-7.097c0.289-0.321,0.079-1.242,0.366-1.396
			c5.409-2.949,8.631-6.166,2.646-11.845c-1.086-1.028,0.404-2.161,2.103-2.176c3.153-0.022,6.316-0.164,9.454-0.469
			c1.841-0.18,3.248-0.074,4.031,1.914c0.785,1.992,0.197,3.217-1.771,3.83c-1.697,0.531-1.677,1.963-1.631,3.26
			c0.059,1.656,1.549,1.312,2.604,1.656c3.786,1.248,7.439,1.899,10.623-1.363c-0.077-0.358-0.038-0.807-0.225-0.936
			c-1.369-0.961-4.448-0.146-4.06-2.679c0.323-2.1,1.897-4.352,4.01-5.28c1.791-0.789,3.021-1.453,2.407-3.529
			c-0.593-2.008-2.313-2.098-4.048-2.113c-1.151-0.012-2.424,0.111-3.426-0.324c-1.777-0.772-4.258-1.688-3.892-3.924
			c0.374-2.272,2.792-0.653,4.255-1.01c4.128-1,8.102-1.322,12.163,0.768c3.104,1.595,5.748-1.989,8.851-1.646
			c2.928,0.324,4.988,4.291,9.208,1.711c-4.371-0.938-5.91-5.27-9.965-6.27c-1.933-0.479-3.562-1.306-5.681-0.275
			c-2.91,1.416-5.22-0.396-6.934-2.48c-1.531-1.86-1.006-4.269,0.139-6.113c1.542-2.486,4.256-2.784,6.657-1.689
			c2.897,1.32,3.829,0.741,4.927-2.31c1.515-4.204,4.404-7.411,9.745-6.655c6.342,0.897,11.047-2.14,15.082-6.606
			c0.916-1.014,1.918-2.08,3.392-1.563c1.757,0.614,1.424,2.291,1.68,3.767c0.611,3.572-2.974,6.42-1.361,10.295
			c0.734,1.766,1.184,3.102,3.17,3.006c3.143-0.15,6.349,0.279,9.41-0.749c1.507-0.508,3.782-0.717,3.259-2.961
			c-0.447-1.922-0.76-4.485-3.646-4.692c-2.275-0.163-4.263-0.663-5.141-3.136c-0.897-2.531-1.298-4.686,2.523-4.656
			c1.507,0.011,2.812-0.43,4.159-1.327c1.855-1.239,4.063-1.79,5.508,0.83c1.016,1.843,2.604,1.388,3.89,0.769
			c1.828-0.885,0.527-2.291,0.116-3.434c-0.388-1.078-0.879-2.139-1.471-3.116c-0.554-0.911-0.966-1.86-0.474-2.807
			c0.731-1.406,1.946-0.693,3.07-0.515c1.131,0.181,2.368,0.396,3.437,0.123c1.962-0.506,3.829-1.432,5.365,0.772
			c1.479,2.12,0.8,4.092-0.315,6.071c-0.562,0.992-1.287,1.947-1.037,3.207c3.368,0.482,10.684-4.061,11.021-7.041
			c0.504-4.428-3.725-4.791-6.172-6.11c-5.755-3.103-5.545-3.14-2.287-8.329c4.065-6.478,9.692-9.004,17.979-8.96
			c-4.198-3.404-7.048-6.456-7.327-11.339c-0.271-4.727,2.7-9.581,7.573-9.783c3.439-0.142,4.903-1.604,6.379-4.385
			c2.313-4.366,5.565-4.839,8.438-0.847c3.207,4.46,6.616,2.975,10.317,1.652c1.128-0.403,2.416-1.306,1.995-2.51
			c-1.165-3.328,0.232-4.89,2.848-6.901c2.315-1.782,4.442-2.605,7.171-2.584c1.042,0.008,2.592,0.756,2.792-1.026
			c0.155-1.382-1.229-1.202-2.147-1.411c-1.282-0.291-3.14-0.5-3.113-1.945c0.039-2.347,2.389-0.87,3.528-1.521
			c3.159-1.805,6.075-2.279,9.097,0.516c0.764,0.706,2.556,0.309,3.876,0.405c1.952,0.144,3.359-0.891,3.793-2.594
			c0.466-1.829-1.322-2.445-2.589-3.188c-1.818-1.067-5.984-0.558-4.808-3.61c1.126-2.917,4.61-0.231,7.052-0.288
			c0.311-0.007,0.814,0.122,0.908,0.332c2.555,5.698,9.577,5.368,13.079,9.714c1.899,2.358,3.564,1.628,5.461,0.079
			c1.866-1.524,2.478-2.876,0.483-4.894c-2.357-2.386-2.979-5.524-2.551-8.766c0.258-1.949,0.75-4.637,3.079-4.453
			c2.354,0.187,4.958,1.913,4.699,4.781c-0.257,2.854,1.02,4.063,3.063,5.493c2.344,1.641,1.849,1.369,4.313-0.278
			c2.261-1.51,5.267-1.884,6.006-4.74c-2.307-0.143-4.832,0.166-5.682-3.088c-0.348-1.334-1.544-1.76-2.645-2.016
			c-4.505-1.048-1.251-4.411-1.934-6.586c-0.776-2.487,1.749-2.319,3.183-2.749c1.417-0.425,2.966-0.412,4.384-0.836
			c0.896-0.269,2.441-1.247,2.369-1.462c-2.146-6.38,3.948-4.062,6.129-5.604c1.862-1.318,4.356-1.688,6.522-2.842
			c2.105-1.123,5.801,0.597,8.761,1.239c6.033,1.31,7.646,0.218,8.755-6.162c0.627-3.604,3.807-4.655,7.66-4.655
			c7.25-0.002,13.896,2.807,20.941,3.443c1.711,0.154,3.911,0.602,3.123-2.712c-1.227-5.157,1.259-7.631,6.354-7.828
			c0.656,0.08,1.313,0.161,1.972,0.241c3.43,2.488,6.397,1.233,8.642-1.584c1.885-2.362,4.162-3.723,6.93-4.463
			c8.28-2.218,17.429-2.119,23.924-9.101c0.495-0.532,1.513-0.711,2.313-0.798c2.273-0.246,2.914-1.366,1.76-3.278
			c-1.979-3.271-0.588-5.583,1.938-7.656c0.694,0.018,1.391,0.036,2.085,0.054c5.067,1.06,10.316-0.726,15.341,0.984
			c0.292,1.044,0.904,1.745,2.03,1.896c0.819,1.764,1.688,3.411,4.002,1.74c1.101,0.913,2.293,0.821,3.526,0.336
			c0.981,0.605,2.159,1.03,2.913,1.846c5.655,6.118,11.997,1.118,17.984,1.039c1.763-0.023,2.384-2.087,1.613-3.985
			c-0.7-1.727,0-2.878,1.575-3.634c5.572-2.676,10.862-5.978,17.635-4.738c2.727,0.499,4.91-3.058,3.861-5.321
			c-2.454-5.301-2.453-5.285,3.307-5.729c1.153-0.089,2.359-0.163,3.424-0.56c1.313-0.487,2.688-1.22,0.629-2.686
			c-3.232-2.305-0.84-3.626,1.082-4.422c2.51-1.038,5.138-0.682,7.802,0.147c6.054,1.884,11.048-0.071,14.574-5.38
			c0.677-1.014,1.812-2.333,2.738-1.507c3.259,2.901,6.499,0.196,9.583,0.501c5.853,0.577,10.876-1.173,15.72-3.608
			c2.557-1.285,3.953-0.627,5.702,0.899c5.411,4.723,17.34,3.227,21.586-2.532c1.41-1.913,3.134-5.346,4.933-4.904
			c6.183,1.518,11.745-2.601,17.727-1.196c3.129,2.18,6.073-0.808,9.142-0.325c5.05-0.958,10.058-1.468,15.16-0.053
			c2.504,0.694,3.019-0.556,2.439-3.08c-0.662-2.894-0.978-6.137,2-8.199c3.141-2.178,17.132-0.674,19.8,1.898
			c1.164,1.122,0.4,1.923-0.033,3.042c-2.186,5.647-0.162,9.523,5.729,10.409c4.192,0.63,9.004,3.979,12.373-1.865
			c0.245-0.426,1.559-0.266,2.377-0.326c2.459-0.182,5.379,0.172,5.887-3.194c0.496-3.293-0.188-6.35-3.555-8.057
			c-1.121-0.569-2.863-0.55-2.671-2.396c0.207-1.967,1.91-2.53,3.466-3.183c2.532-1.065,4.19,0.676,5.754,2.023
			c2.158,1.86,5.701,2.832,6.723,1.197c2.803-4.479,5.896-2.247,9.113-1.626c1.817,0.352,3.674,0.438,5.289-0.732
			c1.129-0.818,2.27-1.453,3.676-0.767c3.686,1.799,7.41,0.984,11.195,0.359c2.102-0.347,3.813-0.344,3.846-3.31
			c0.023-2.168,8.244-4.892,9.891-3.336c1.242,1.176,2.095,3.352,0.136,4.206c-3.23,1.406-1.199,3.275-1.023,5.02
			c0.234,2.329,2.264,3.604,3.816,3.023c5.516-2.065,11.905-2.281,16.491-6.204c3.689-3.155,7.228-5.123,12.079-3.829
			c2.283,1.1,4.566,2.199,6.852,3.299c0.561,1.874,2.168,2.006,3.637,1.891c4.385-0.344,7.754,0.892,9.924,5.052
			c1.106,2.116,3.44,2.736,5.678,2.273c3.858-0.798,7.917-1.058,11.034-4.087c1.391-1.351,3.762-2.006,3.896-4.201
			c0.15-2.506-2.951-2.01-4.316-3.288c1.615-0.942,3.656-1.415,4.035-2.479c1.705-4.778,4.128-4.063,7.802-2.135
			c2.521,1.323,5.312,0.545,4.074-3.426c-0.631-2.027-0.359-3.401,1.64-3.885c6.211-1.501,11.576-5.873,18.38-5.371
			c1.186,0.088,2.564-1.462,3.518,0.312c0.664,1.237-0.396,2.191-0.918,3.185c-0.541,1.03-1.191,2.005-2.014,3.365
			c7.176-4.115,14.32-1.584,20.764-0.143c2.73,0.611,5.344,0.998,8.132,1.437c3.76,0.59,9.131-5.242,11.043,2.402
			c1.486-0.525,1.697-1.589,1.961-2.513c1.021-3.579,2-6.368,6.13-2.268c1.82,1.807,4.771,1.902,6.844,0.047
			c3.971-3.555,13.508-4.497,16.836-0.834c3.006,3.308,4.94,3.76,7.321-0.379c0.842-1.463,2.621-2.022,4.424-1.73
			c2.154,0.349,2.396,2.15,2.541,3.779c0.197,2.247,1.111,4.119,2.275,5.986c1.824,2.925,1.158,6.427,1.879,9.628
			c0.445,1.981-2.311,1.902-3.609,2.781c-1.201,0.815-1.139,1.645-0.316,2.9c1.998,3.048,6.18,3.108,8.133-0.201
			c1.174-1.986,1.748-4.32,2.873-6.341c1.594-2.862,5.348-5.381,7.152-3.139c3.986,4.955,6.396,0.856,8.916-0.679
			c1.719-1.048,2.885-1.954,4.834-0.982c4.207,2.097,8.496,3.773,13.394,3.039c1.293-0.193,3.475,1.213,2.332,2.015
			c-3.344,2.349-5.252,6.327-9.162,7.85c-1.025,0.4-1.66-0.53-2.305-1.416c-3.169-4.354-8.496-4.407-11.91-0.222
			c1.494,1.097,4.961-0.555,4.742,2.271c-0.189,2.445-3.152,2.455-5.318,2.281c-1.769-0.143-2.316,0.953-3.396,2.085
			c-3.758,3.936-9.24,3.805-14.105,5.07c-3.402,0.887-3.768-3.545-5.096-3.851c-4.441-1.019-5.254-3.257-6.939-7.314
			c-2.221-5.342-5.854-4.896-11.188-1.438c-1.383,0.896-2.942,1.566-4.493,2.151c-3.248,1.226-4.768,0.278-5.336-3.431
			c-0.564-3.646,1.773-7.351-0.535-10.903c-0.533-0.82,0.469-1.414,1.307-1.688c0.893-0.291,2.383-0.281,2.01-1.608
			c-0.387-1.367-2.041-2.153-3.219-1.675c-4.559,1.854-10.025,0.293-14.1,3.846c-0.928,0.808-2.861,0.639-2.716,2.446
			c0.113,1.414,1.462,1.638,2.597,1.926c1.311,0.333,2.174,0.542,3.143-1.166c1.553-2.739,8.619-2.489,10.352,0.074
			c0.707,1.05,1.043,2.288-0.496,2.877c-3.26,1.246-4.691,3.895-6.102,6.847c-1.174,2.462-3.543,4.075-6.271,4.499
			c-6.476,1.007-12.712,3.873-19.515,2.533c-0.873-0.172-1.961,0.247-2.83,0.647c-5.152,2.375-6.385,2.031-8.801-3.055
			c-0.59-1.243-1.018-3.143-2.492-1.985c-2.035,1.594-4.598,0.991-6.471,2.257c-2.129,1.439-4.533,2.461-6.375,0.705
			c-1.986-1.896-4.351-4.014-3.025-7.751c0.859-2.421,0.443-5.204-0.07-7.877c-0.513-2.677-2.164-3.616-4.234-2.747
			c-4.814,2.013-10.666,1.259-14.609,5.612c-1.1,1.213-4.168,0.536-3.793,3.13c0.285,1.983,2.424,2.482,4.164,3.145
			c6.392,2.431,7.3,7.949,1.928,12.294c-1.357,1.1-2.27,2.256-2.705,3.879c0,0,0.074-0.071,0.076-0.068
			c-1.777-0.148-3.344-0.115-4.658-2.056c-3.479-5.132-6.675-5.665-12.117-2.157c-4.271,2.751-9.649,3.357-13.353,7.208
			c-1.061,1.102-2.727,0.636-4.264,0.534c-5.438-0.36-10.759-3.613-16.404-0.188c-2.139,1.298-3.631-1.112-4.545-2.84
			c-0.979-1.852-1.721-3.729-4.32-2.793c-2.127,0.767-5.313,0.127-6.182,2.461c-0.898,2.41,2.395,3.159,3.547,4.865
			c0.166,0.245,0.146,0.617,0.236,1.065c-0.89,0.38-1.9,0.62-2.685,1.182c-2.965,2.13-5.539,3.26-9.143,0.502
			c-5.76-4.409-10.688-1.226-14.988,2.993c-1.883,1.846-3.403,4.062-5.09,6.109C463.173,211.207,462.568,211.546,461.964,211.887z
			 M-139.652,444.446c3.51,4.987-0.006,5.561-3.354,6.25c-6.355,1.307-6.883,3.32-3.291,8.667c3.208,4.775,7.63,1.666,11.393,2.564
			c3.131,0.748,5.229-0.656,5.976-3.672c0.719-2.895,2.792-5.139,5.084-5.734c6.23-1.625,4.27-6.119,3.861-9.796
			c-0.366-3.305-3.03-3.967-5.156-1.364c-1.631,1.994-3.083,2.987-5.421,1.457c-1.375-0.9-2.547-0.646-3.497,0.569
			C-135.4,445.106-137.219,444.692-139.652,444.446z M-53.284,406.532c5.113,0.231,6.676-3.672,9.59-5.146
			c4.422-2.232,6.713-3.806,1.354-7.59c-1.229-0.867-0.906-3.701-3.656-3.003c-2.282,0.578-3.368,2.22-3.513,4.313
			c-0.208,3.015-1.836,3.544-4.385,3.153c-1.798-0.273-3.623-0.378-5.437-0.554c-1.127-0.108-2.078,0.037-2.341-1.744
			c-0.688-4.667-3.771-5.811-7.665-2.816c-2.207,1.694-2.976,4.673-2.906,7.11c0.079,2.866,3.088,1.391,4.84,1.823
			c2.239,0.557,4.472,1.215,6.615,2.063C-58.007,405.241-55.245,406.317-53.284,406.532z M-96.997,443.216
			c-3.923-0.541-6.802,1.396-10.006,3.394c-2.98,1.856-4.218,6.44-9.313,5.778c-0.925-0.119-2.672,5.902-3.951,9.125
			c-0.082,0.207,0.553,0.777,0.935,1.074c3.005,2.336,10.328-0.383,11.637-3.934c0.684-1.855-0.052-5.289,3.496-5.066
			c3.17,0.197,5.735-1.458,8.603-2.144c3.007-0.722,5.238-2.972,4.949-5.425C-90.999,443.034-94.088,442.448-96.997,443.216z
			 M-240.979,576.52c-2.066,0.254-5.207-0.697-5.167,1.775c0.041,2.477-1.908,5.883,1.683,7.785c1.731,0.92,3.493,1.861,5.02,3.074
			c2.028,1.611,4.114,1.295,6.043,0.313c2.032-1.033,3.363-2.92,2.771-5.324c-0.413-1.678-0.155-2.836,1.038-4.025
			c1.538-1.541,2.428-3.502,0.671-5.277c-1.691-1.711-3.938-1.766-5.927-0.289C-236.758,575.967-238.626,577.288-240.979,576.52z
			 M-211.085,570.911c-0.726,0.637-0.606,1.48-0.56,2.301c0.087,1.48,0.53,3.332-1.591,3.543c-2.208,0.225-2.578-1.697-2.821-3.373
			c-0.091-0.627,0.284-1.313,0.249-1.959c-0.155-2.926-2.491-3.537-4.594-3.439c-2.591,0.111-2.409,2.438-2.001,4.219
			c0.44,1.924,1.044,3.916,2.076,5.566c0.784,1.258,2.049,3.756,3.505,2.854c6.634-4.102,14.114-2.602,21.153-3.855
			c2.67-0.477,4.832-1.949,5.984-4.875c-4.378-0.725-8.24-0.139-12.122,1.773C-206.679,576.065-209.068,575.167-211.085,570.911z
			 M45.286,343.886c2.501,1.178,4.001-0.399,4.799-2.934c1.026-3.268,2.427-6.152,5.688-7.796c0.89-0.446,1.562-1.342,1.027-2.489
			c-0.474-1.019-1.443-1.265-2.475-1.396c-1.655-0.212-2.723,0.934-4.056,1.557c-5.124,2.393-9.808,7.051-16.277,3.389
			c-0.855-0.483-2.526-0.332-2.82,1.172c-0.248,1.271,0.979,1.647,1.946,1.696c2.848,0.144,4.127,1.163,3.761,4.36
			c-0.305,2.656,1.929,3.228,4.107,2.926C42.271,344.193,43.448,343.323,45.286,343.886z M-232.364,541.209
			c2.299,1.215,4.109,2.52,5.732,4.176c1.91,1.955,4.336,3.094,7.213,2.16c1.356-0.438,3.181-0.553,3.031-2.615
			c-0.126-1.762-1.677-1.834-2.979-1.979c-2.816-0.314-5.527-0.818-7.974-2.438C-228.81,539.543-230.457,539.43-232.364,541.209z
			 M-38.903,352.794c1.968,2.973,4.595,4.103,7.08,5.535c1.541,0.889,2.956,1.502,4.614,0.971c1.337-0.428,0.731-1.522,0.577-2.478
			c-0.351-2.131-1.27-3.922-3.513-4.227C-32.858,352.228-35.646,351.681-38.903,352.794z M-22.938,363.375
			c-1.284,0.376-4.301-0.884-3.577,1.411c0.713,2.261,3.535,3.99,6.29,4.58c1.558,0.333,2.739-0.534,2.404-2.182
			C-18.353,364.576-19.579,362.508-22.938,363.375z M1.054,338.223c2.622-0.194,4.231-0.882,4.195-3.521
			c-0.029-2.155-1.168-2.854-3.092-2.841c-2.189,0.015-3.323,1.206-3.505,3.282C-1.518,337.132-0.552,338.217,1.054,338.223z
			 M378.657,192.898c-0.93-1.054-1.465-2.808-3.268-2.551c-1.959,0.279-2.439,2.065-2.656,3.669
			c-0.229,1.701,0.783,1.669,2.15,1.284C376.404,194.872,378.267,195.187,378.657,192.898z M30.175,335.471
			c-2.896-0.851-4.002-2.5-6.294-2.209C24.623,336.433,26.257,336.917,30.175,335.471z"/>
		<path fill="#444444" d="M534.917,161.606c0.686,1.462,1.953,3.344-0.148,4.217c-1.977,0.819-4.297,2.187-6.554,0.681
			c-1.211-0.808-1.268-2.367-0.883-3.614c0.785-2.552,3.202-0.687,4.672-1.51C532.977,161.456,533.946,161.531,534.917,161.606z"/>
		<path fill="#444444" d="M324.331,188.718c0.953,3.156-0.673,3.808-3.36,3.514c-1.793-0.196-2.901-1.182-2.592-2.92
			c0.301-1.69,1.817-1.638,3.206-1.348c0.803,0.168,1.601,0.356,2.397,0.537C323.984,188.502,324.331,188.718,324.331,188.718z"/>
		<path fill="#444444" d="M931.374,867.95c-1.424-2.133-5.232-3.193-3.104-6.916c-0.002,0.004,0.313-0.195,0.316-0.201
			c0.926,1.244,1.85,2.492,2.77,3.74C931.363,865.698,931.368,866.823,931.374,867.95z"/>
		<path fill="#444444" d="M733.293,953.649c-5.719,0.508-9.762-3.221-14.344-5.342c-1.439-0.666-1.919-2.762-1.205-3.385
			c2.836-2.475,1.705-5.963,2.795-8.828c1.564-4.109,4.475-5.824,7.465-4.379c2.889,1.396,4.572,6.111,3.207,8.832
			c-0.494,0.984-1.574,2.043-0.559,3.162c0.873,0.965,2.146,0.865,3.213,0.186c1.379-0.883,3.101-1.271,4.287-0.527
			c5.068,3.172,8.623,0.189,12.55-2.432c5.456-3.645,7.44-2.529,8.641,3.652c0.508,2.623-0.637,3.455-2.504,3.883
			C749.009,950.274,741.148,951.936,733.293,953.649z"/>
		<path fill="#444444" d="M1023.204,794.963c-0.24,6.988-1.699,8.17-7.275,7.439c-1.295-0.172-2.813-0.277-3.943,0.225
			c-5.871,2.607-11.217-0.582-16.762-1.34c-1.852-0.254-2.779-2.043-2.85-3.648c-0.074-1.736,1.871-1.43,3.027-1.898
			c4.4-1.779,9.328-1.979,13.459-4.574c1.693-1.064,3.451-1.084,5.115,0.197c1.434,1.104,3.219,1.441,4.732,0.811
			C1023.495,790.182,1023.212,793.292,1023.204,794.963z"/>
		<path fill="#444444" d="M-251.047,619.313c0.377,0.729,0.628,1.568,1.154,2.164c1.271,1.428,3.668,2.479,2.487,4.828
			c-0.927,1.846-3.185,1.521-4.978,1.549c-4.155,0.063-8.315-0.111-12.468,0.021c-4.438,0.145-5.958-2.854-6.243-6.279
			c-0.303-3.617,2.575-4.646,5.691-4.746c1.4-0.045,2.545-0.543,3.687-1.307c3.053-2.045,5.658-1.967,7.046,1.932
			c0.685,1.928,2.405,1.406,3.701,1.912C-250.966,619.389-251.047,619.313-251.047,619.313z"/>
		<path fill="#444444" d="M1044.314,444.569c-0.619-0.281-1.549-0.396-1.775-0.854c-1.588-3.221-3.852-6.434-4.172-9.813
			c-0.156-1.66,3.693-3.502,6.326-3.23c3.98,0.412,7.137-1.008,10.146-3.236c2.143-1.588,3.463-0.229,4.434,1.418
			c1.25,2.123,0.012,4.179-1.889,4.111c-6.102-0.215-8.662,3.16-10.324,8.318C1046.706,442.382,1045.95,444.081,1044.314,444.569z"
			/>
		<path fill="#444444" d="M668.89,962.686c-0.029,2.313-0.697,4.063-3.521,3.119c-4.803-1.6-6.979-0.531-8.184,4.289
			c-0.42,1.684,0.252,4.328-2.086,4.486c-2.534,0.172-5.364-0.309-7.653-1.383c-1.844-0.867-0.385-2.791,0.676-3.627
			c1.905-1.502,2.944-3.377,3.997-5.51c2.443-4.949,10.87-7.527,14.741-4.824C668.884,960.651,668.884,960.651,668.89,962.686z"/>
		<path fill="#444444" d="M-290.594,646.831c-2.05-0.207-3.981-0.162-4.544-2.086c-0.601-2.064,1.157-2.768,2.654-3.549
			c3.632-1.896,7.479-3.232,10.609-6.246c2.076-2,10.709,1.168,12.354,3.922c0.933,1.557,0.116,2.641-1.281,3.066
			c-2.174,0.662-4.434,1.393-6.668,1.43c-3.849,0.064-7.567-0.018-10.673,2.854C-288.766,646.799-290.012,646.702-290.594,646.831z"
			/>
		<path fill="#444444" d="M366.469,224.867c-3.191,3.766-5.929,7.847-9.56,10.843c-1.393,1.149-5.018-0.263-6.618-2.244
			c-1.549-1.917-2.975-4.768,1.313-5.382c2.881-0.412,3.375-2.271,3.674-4.476c0.5-3.676,3.252-2.662,5.365-2.448
			C363.172,221.416,365.372,222.527,366.469,224.867z"/>
		<path fill="#444444" d="M-81.888,942.055c0.021,1.146-0.635,1.66-1.323,2.123c-4.21,2.814-1.745,3.936,1.246,4.906
			c1.386,0.451,3.065,0.391,3.847,1.922c0.31,0.609-0.003,1.391-0.761,1.543c-1.869,0.383-3.918,1.779-5.605-0.053
			c-3.285-3.564-6.864-6.639-11.428-8.463c-1.26-0.504-1.813-1.541-0.835-2.758c1.885-2.354,4.401-3.27,7.407-3.363
			c2.846-0.092,5.269,0.408,6.851,3.01C-82.243,941.331-82.039,941.77-81.888,942.055z"/>
		<path fill="#444444" d="M-287.115,754.516c-1.806-0.273-3.277,0.156-3.565-1.42c-0.229-1.266,1.051-1.346,1.856-1.881
			c4.248-2.811,6.785-7.229,10.012-11c0.918-1.07,1.314-3.053,3.307-2.057c1.132,0.564,2.495,1.449,2.899,2.514
			c0.707,1.861-1.274,2.396-2.458,3.174c-2.09,1.381-4.547,2.496-3.012,5.766c0.314,0.672,0.116,1.625-0.514,1.676
			C-281.947,751.561-284.747,753.385-287.115,754.516z"/>
		<path fill="#444444" d="M1148.146,634.752c-1.781-0.377-3.229-0.801-4.701-0.965c-1.756-0.197-3.422-0.404-3.578-2.619
			c-0.145-2.063,1.205-2.635,2.949-3.318c3.195-1.254,6.189-3.02,9.279-4.541c1.438-0.703,3.039-0.926,4.135,0.369
			c0.973,1.15,0.402,2.703-0.391,3.721C1153.597,630.27,1152.64,634.633,1148.146,634.752z"/>
		<path fill="#444444" d="M-197.913,497.649c0.045,2.234-0.522,4.561-3.138,3.801c-3.471-1.006-8.963,1.871-9.957-4.4
			c-0.397-2.5,4.354-5.943,7.771-5.475C-199.968,492.024-198.135,494.28-197.913,497.649z"/>
		<path fill="#444444" d="M98.279,326.261c-2.647-1.171-3.645-0.383-4.468,1.811c-0.934,2.489-3.188,2.389-5.477,1.793
			c-3.199-0.831-3.56-3.061-1.138-4.374c3.91-2.121,7.659-5.024,12.352-5.296c1.796-0.104,4.576-0.888,4.872,1.925
			c0.311,2.953-2.796,3.132-4.726,4.104C99.188,326.48,98.438,326.261,98.279,326.261z"/>
		<path fill="#444444" d="M1126.435,723.735c1.93,0.025,2.932,0.479,3.521,1.65c0.738,1.469,0.041,2.734-0.924,3.594
			c-2.629,2.338-5.262,4.459-4.309,8.678c0.258,1.139-1.193,1.926-2.521,1.719c-2.107-0.332-2.699-2.311-2.66-3.758
			c0.1-3.727,3.65-6.412,3.557-10.428C1123.087,724.657,1125.642,724.063,1126.435,723.735z"/>
		<path fill="#444444" d="M1080.87,777.651c-1.859-0.191-3.865,1.004-4.826-0.803c-0.936-1.758,1.154-2.398,2.057-3.459
			c0.309-0.359,0.469-0.85,0.67-1.293c1.271-2.801,3.326-5.967,6.35-4.533c2.439,1.156,2.18,5.516,1.855,8.023
			C1086.579,778.647,1082.775,776.881,1080.87,777.651z"/>
		<path fill="#444444" d="M361.971,1014.709c-0.496-0.025-1.938,0.217-3.121-0.229c-1.986-0.746-2.646-2.627-1.971-4.51
			c0.862-2.412,2.756-2.072,4.448-0.885c1.396,0.977,2.765,1.799,4.529,1.805c1.141,0.006,2.492-0.131,2.546,1.592
			c0.055,1.768-1.093,2.236-2.608,2.227C364.797,1014.704,363.801,1014.709,361.971,1014.709z"/>
		<path fill="#444444" d="M1043.618,424.796c-5.127,4.342-11.004,3.121-16.547,3.568
			C1032.12,425.552,1036.681,420.659,1043.618,424.796z"/>
		<path fill="#444444" d="M1105.443,746.348c-2.617-0.152-4.838-1.828-4.025-3.504c1.059-2.182,0.318-5.568,3.156-6.549
			c1.928-0.664,6.666,4.926,6.154,7.453C1110.132,746.692,1106.751,744.805,1105.443,746.348z"/>
		<path fill="#444444" d="M1182.57,528.063c-1.719-0.104-3.963-0.637-3.834-3.438c0.111-2.434,1.447-4.533,4.266-4.428
			c2.59,0.098,3.379,1.934,3.598,4.395C1186.845,527.391,1185.49,528.096,1182.57,528.063z"/>
		<path fill="#444444" d="M-84.297,816.723c-0.182-2.215,0.005-3.977,1.458-5.398c1.313-1.285,2.81-1.893,4.479-0.953
			c1.595,0.893,1.505,2.371,0.963,3.926c-0.542,1.559-0.968,3.154-1.454,4.73c-0.438,1.428,0.623,3.939-1.813,3.939
			c-2.158-0.002-3.254-2.002-3.609-4.1C-84.411,818.063-84.297,817.213-84.297,816.723z"/>
		<path fill="#444444" d="M-195.479,879.211c1.876,0.203,4.459-0.164,4.344,2.715c-0.171,4.271-3.796,4.811-6.973,5.443
			c-1.69,0.338-3.297-0.738-2.741-2.443C-200.012,882.358-199.909,878.624-195.479,879.211z"/>
		<path fill="#444444" d="M696.11,890.936c0.199,3.711,0.807,7.252-1.717,10.381c-0.842,1.045-1.623,2.248-3.156,1.881
			c-1.876-0.447-1.029-2.063-1.199-3.262C689.374,895.266,691.063,892.186,696.11,890.936z"/>
		<path fill="#444444" d="M-82.531,368.772c-0.376,2.064-0.82,5.174-3.252,5.158c-3.659-0.024-3.749-4.012-4.456-6.609
			c-0.49-1.799,1.003-3.678,3.115-3.635C-84.214,363.746-82.874,365.771-82.531,368.772z"/>
		<path fill="#444444" d="M-202.996,480.721c2.578,0.268,5.354-0.135,7.246,2.355c1.089,1.432,1.62,2.695-0.667,3.285
			c-2.072,0.531-4.188,1.105-6.307,1.207c-3.529,0.168-3.033-3.059-3.429-5.033C-206.676,479.911-204.788,480.084-202.996,480.721z"
			/>
		<path fill="#444444" d="M997.71,833.442c-1.709-1.143-4.473-1.77-5.537-3.998c-0.84-1.758,1.578-2.543,2.744-2.795
			c2.639-0.566,5.148,0.543,7.301,2.049C1002.913,829.186,999.368,833.389,997.71,833.442z"/>
		<path fill="#444444" d="M190.67,285.666c-0.325,1.336,0.01,3.877-2.541,3.996c-1.657,0.077-3.855-0.918-3.659-3.151
			c0.191-2.174,1.213-4.765,3.452-5.146C189.814,281.042,190.793,283.13,190.67,285.666z"/>
		<path fill="#444444" d="M-315.771,714.272c-2.493,0.172-2.897-1.57-2.807-2.904c0.269-3.863,3.794-3.984,6.432-4.91
			c1.63-0.572,2.33,0.49,2.401,2.135C-309.547,713.131-314.13,712.235-315.771,714.272z"/>
		<path fill="#444444" d="M1150.972,611.395c3.203-0.66,6.074-2.707,9.553-2.236c1.162,0.156,2.49,0.127,2.615,1.656
			c0.109,1.352-0.926,2.113-2.078,2.441c-2.533,0.725-5.074,1.508-7.668,1.896c-3.361,0.5-2.813-1.775-2.354-3.83L1150.972,611.395z
			"/>
		<path fill="#444444" d="M-95.541,932.52c-0.525,1.398,0.844,4.313-2.188,3.93c-4.669-0.588-3.324-5.049-4.313-7.93
			c-0.478-1.385,0.153-2.881,1.945-2.609C-96.425,926.461-95.294,929.022-95.541,932.52z"/>
		<path fill="#444444" d="M198.427,938.217c-1.713,0.102-2.612-0.436-2.607-1.902c0.015-3.896,3.375-3.955,5.848-4.891
			c1.229-0.465,2.523,0.207,2.368,1.65C203.659,936.506,199.938,936.344,198.427,938.217z"/>
		<path fill="#444444" d="M1156.865,525.079c-0.32,0.367-0.563,0.869-0.945,1.039c-2.559,1.113-5.111,2.24-7.732,3.186
			c-1.23,0.443-2.764,0.65-3.357-1.002c-0.533-1.479,0.83-1.959,1.813-2.479c2.344-1.248,4.828-2.131,7.477-2.404
			C1155.304,523.292,1156.368,523.676,1156.865,525.079z"/>
		<path fill="#444444" d="M-180.882,898.356c0.189,2.822-1.364,3.322-3.434,3.178c-2.715-0.189-3.719-1.902-3.479-4.342
			c0.151-1.572,0.352-3.545,2.931-2.564C-182.918,895.366-179.65,894.766-180.882,898.356z"/>
		<path fill="#444444" d="M909.683,871.247c1.045-0.141,2.061,0.059,1.854,1.068c-0.516,2.516-2.404,3.789-4.807,4.234
			c-1.002,0.188-2.139-0.135-1.992-1.482C905.062,872.051,907.978,872.311,909.683,871.247z"/>
		<path fill="#444444" d="M446.955,1009.631c-1.213-0.594-3.646,0.559-3.579-1.521c0.084-2.646,2.27-3.834,4.885-3.863
			c1.85-0.021,4.399,0.201,4.192,2.281C452.185,1009.231,449.257,1009.311,446.955,1009.631z"/>
		<path fill="#444444" d="M1067.105,439.036c-2.063-0.23-2.77-1.226-2.77-2.707c0.002-2.074,0.439-4.078,2.842-4.521
			c1.643-0.303,2.301,0.921,2.336,2.433C1069.562,436.421,1068.068,437.683,1067.105,439.036z"/>
		<path fill="#444444" d="M-266.09,782.813c-3.554,2.15-5.984,0.604-8.477-0.52c-1.29-0.582-1.603-1.67-1.248-2.834
			c0.542-1.779,1.951-0.885,2.81-0.479C-270.828,780.012-268.772,781.301-266.09,782.813z"/>
		<path fill="#444444" d="M1148.238,678.346c-2.836-0.125-4.943-1.734-5.352-4.166c-0.271-1.615,1.813-3.26,3.691-3.141
			c2.777,0.178,4.266,2.773,5.008,4.844C1152.273,677.793,1149.706,677.956,1148.238,678.346z"/>
		<path fill="#444444" d="M-201.696,477.348c-1.35,0.061-2.36-0.416-1.977-1.277c1.003-2.262,0.908-5.58,4.31-5.93
			c2.074-0.213,3.729,1.125,3.385,3.271C-196.507,476.708-200.388,475.504-201.696,477.348z"/>
		<path fill="#444444" d="M-93.845,483.221c-0.333-0.557-0.607-1.16-1.012-1.662c-1.031-1.279-2.579-2.637-1.039-4.244
			c0.918-0.965,2.163,0.129,2.994,0.928c1.438,1.381,3.156,2.879,2.081,5.088c-0.762,1.563-2.001-0.271-3.051-0.137
			C-93.872,483.19-93.845,483.221-93.845,483.221z"/>
		<path fill="#444444" d="M1097.704,460.008c1.873,0.6,4.504,1.082,5.053,3.477c0.441,1.932-1.799,2.604-3.387,2.68
			c-2.242,0.104-4.299-0.639-4.553-3.357C1094.656,461.063,1095.556,460.038,1097.704,460.008z"/>
		<path fill="#444444" d="M1015.544,400.557c-0.762,1.751-0.238,4.708-3.52,4.883c-1.699,0.09-2.313-1.162-2.211-2.619
			c0.166-2.378,1.443-4.034,3.838-4.479C1015.011,398.086,1015.878,398.748,1015.544,400.557z"/>
		<path fill="#444444" d="M-264.528,791.303c-0.657,1.154-0.05,3.578-2.341,3.482c-1.942-0.084-1.802-2.014-1.734-3.443
			c0.084-1.762,0.867-3.42,2.81-3.291C-264.069,788.167-264.308,789.831-264.528,791.303z"/>
		<path fill="#444444" d="M1131.902,714.368c-1.441,1.408-2.791,2.936-4.359,4.184c-1.199,0.953-2.854,1.393-3.9-0.145
			c-1.195-1.744,0.207-2.777,1.631-3.285c2.02-0.723,4.146-1.15,6.229-1.703C1131.634,713.735,1131.769,714.051,1131.902,714.368z"
			/>
		<path fill="#444444" d="M-243.738,786.838c0.034,1.51-0.416,2.57-2.184,2.643c-1.35,0.053-2.43-0.271-2.253-1.824
			c0.183-1.627,1.234-2.736,2.91-2.85C-243.958,784.719-243.681,785.733-243.738,786.838z"/>
		<path fill="#444444" d="M892.935,871.284c1.424,0.316,3.615-0.371,3.771,1.93c0.107,1.578-1.535,1.918-2.879,1.914
			c-1.875-0.004-4.002-0.453-4.105-2.545C889.636,870.852,891.726,871.583,892.935,871.284z"/>
		<path fill="#444444" d="M1169.95,622.52c-0.771,1.986-2.146,3.377-4.23,3.842c-1.52,0.338-2.82-0.416-2.891-1.955
			c-0.096-2.088,1.066-3.52,3.344-3.402C1167.532,621.069,1169.282,620.473,1169.95,622.52z"/>
		<path fill="#444444" d="M951.531,837.879c0.727-1.055-1.277-3.725,0.93-3.469c2.541,0.293,2.797,3.596,3.52,5.695
			c0.438,1.279-1.516,1.271-2.623,1.264C950.734,841.354,950.999,839.719,951.531,837.879z"/>
		<path fill="#444444" d="M785.837,942.211c-4.648,2.436-6.285-0.02-7.871-2.344c-0.631-0.922-0.385-2.174,0.76-2.4
			C782.501,936.721,782.616,940.793,785.837,942.211z"/>
		<path fill="#444444" d="M261.262,940.069c-0.35,1.307-0.488,2.982-2.545,2.742c-0.848-0.102-2.286-0.193-1.933-1.529
			c0.401-1.521,1.112-3.133,3.09-3.293C261.368,937.868,261.268,938.981,261.262,940.069z"/>
		<path fill="#444444" d="M869.486,894.221c2.438-0.055,2.826,0.924,2.689,2.234c-0.238,2.262-1.783,3.008-3.797,3.014
			c-0.957,0.002-2.24-0.08-1.943-1.496C866.859,895.924,867.947,894.323,869.486,894.221z"/>
		<path fill="#444444" d="M1178.87,508.696c0.203,1.396-0.584,2.051-1.715,1.686c-1.945-0.627-3.584-1.973-3.957-4.014
			c-0.232-1.271,1.049-2.012,2.361-1.977C1178.398,504.473,1178.027,507.083,1178.87,508.696z"/>
		<path fill="#444444" d="M859.263,906.95c-1.051-0.051-2.207-0.039-1.826-1.535c0.424-1.67,1.977-2.055,3.371-2.436
			c1.32-0.359,1.752,0.475,1.619,1.635C862.204,906.522,860.683,906.711,859.263,906.95z"/>
		<path fill="#444444" d="M758.183,929.542c0.115-1.434,0.951-2.145,2.243-2.25c1.9-0.152,3.295,0.73,3.572,2.625
			c0.182,1.215-0.479,2.365-2,2.186C760.332,931.903,758.745,931.407,758.183,929.542z"/>
		<path fill="#444444" d="M920.247,853.979c-1.418,1.938-2.668,4.086-5.391,3.102c-0.859-0.311-1.039-1.398-0.684-2.088
			C915.638,852.147,918.111,854.014,920.247,853.979z"/>
		<path fill="#444444" d="M1162.193,498.717c1.646,0.33,4.023-0.242,4.135,2.322c0.076,1.738-1.846,2.613-3.176,2.326
			c-1.93-0.42-4.832-0.877-4.998-3.039C1157.995,498.264,1160.677,499.075,1162.193,498.717z"/>
		<path fill="#444444" d="M300.574,948.483c1.141,0.113,2.563,0.035,2.342,1.752c-0.217,1.674-1.465,2.531-3.074,2.773
			c-1.18,0.178-1.896-0.369-1.956-1.613C297.792,949.516,298.892,948.733,300.574,948.483z"/>
		<path fill="#444444" d="M770.381,944.116c-0.998-0.129-2.098-0.545-2.008-1.631c0.166-2.008,2.141-2.23,3.566-2.707
			c0.904-0.301,1.328,0.705,1.238,1.588C773.011,943.006,772.197,944.067,770.381,944.116z"/>
		<path fill="#444444" d="M297.83,940.977c-0.371,1.432-1.322,2.227-2.772,2.32c-1.054,0.07-2.116-0.25-1.894-1.555
			c0.27-1.568,1.776-1.742,3.021-2.021C297.105,939.514,297.752,939.932,297.83,940.977z"/>
		<path fill="#444444" d="M1048.927,447.179c1.277,0.199,1.781,0.992,1.553,2.111c-0.357,1.75-1.834,2.236-3.326,2.404
			c-1.031,0.116-1.516-0.761-1.25-1.636C1046.355,448.575,1047.38,447.528,1048.927,447.179z"/>
		<path fill="#444444" d="M428.439,213.902c0.107,0.771-0.354,1.246-1.084,1.202c-0.59-0.035-1.492-0.26-1.67-0.66
			c-0.443-1.003,0.377-1.496,1.248-1.635C427.669,212.692,428.169,213.155,428.439,213.902z"/>
		<path fill="#444444" d="M635.49,370.462c0.07-1.42-0.014-2.605,0.213-3.73c0.543-2.705,2.938-4.63,4.922-3.5
			c2.744,1.561,4.742,4.167,8.274,1.999c0.143-0.087,0.854,0.429,1.031,0.793c0.354,0.735-0.184,1.246-0.773,1.578
			c-3.618,2.029-6.899,4.483-9.846,7.414c-0.717,0.713-1.871,0.971-2.752,0.279C634.832,373.942,635.701,371.935,635.49,370.462z"/>
		<path fill="#444444" d="M791.552,398.167c1.738,0.95,4.934-0.407,5.535,2.614c0.381,1.9-1.713,2.398-3.1,1.964
			c-2.002-0.631-5.078,0.279-5.732-2.518C787.786,398.236,789.954,398.35,791.552,398.167z"/>
		<path fill="#444444" d="M677.841,160.568c-1.193-0.082-2.684,0.057-2.547-1.6c0.113-1.386,1.439-1.675,2.67-1.616
			c1.143,0.054,2.752,0.031,2.793,1.41C680.808,160.489,679.064,160.393,677.841,160.568z"/>
		<path fill="#444444" d="M413.626,175.737c-0.313,0.077-0.64,0.254-0.938,0.216c-1.643-0.209-3.805,0.766-4.637-1.449
			c-0.474-1.256,0.74-2.188,1.813-2.439c2.369-0.552,4.154,0.129,4.375,2.944C414.056,175.266,413.849,175.509,413.626,175.737z"/>
		<path fill="#444444" d="M414.242,175.008c0.537,0.186,1.097,0.336,1.588,0.604c0.06,0.032-0.137,0.944-0.372,1.033
			c-0.847,0.319-1.46-0.12-1.83-0.911C413.849,175.509,414.056,175.266,414.242,175.008z"/>
	</g>
</g>
</svg>
