<?xml version="1.0" encoding="utf-8"?>
<!-- Generator: Adobe Illustrator 15.1.0, SVG Export Plug-In . SVG Version: 6.00 Build 0)  -->
<!DOCTYPE svg PUBLIC "-//W3C//DTD SVG 1.1//EN" "http://www.w3.org/Graphics/SVG/1.1/DTD/svg11.dtd">
<svg version="1.1" id="Layer_1" xmlns="http://www.w3.org/2000/svg" xmlns:xlink="http://www.w3.org/1999/xlink" x="0px" y="0px"
	 width="670.615px" height="390.455px" viewBox="0 0 670.615 390.455" enable-background="new 0 0 670.615 390.455"
	 xml:space="preserve">
<g>
	<path fill="#FFFFFF" d="M449.923,4.561c-12.325,8.924-22.634,15.179-31.481,23.068c-14.229,12.688-16.646,31.227-7.448,46.492
		c9.247,15.335,26.91,22.408,44.458,15.316c9.481-3.832,15.362-2.601,23.938,2.457c11.125,6.557,24.279,9.801,36.727,13.961
		c27.541,9.213,55.563,17.141,82.513,27.81c6.758,2.673,11.048,13.306,14.85,21.073c2.365,4.835,1.274,11.244,2.44,16.8
		c13.921,66.289-26.328,100.895-74.945,124.609c-33.327,16.262-68.038,29.719-102.278,44.077
		c-41.118,17.244-84.288,21.08-128.2,17.607c-18.869-1.492-37.333-5.947-55.188,5.544c-3.71,2.389-12.458,0.271-17.063-2.648
		c-15.326-9.715-28.555-24.681-49.749-14.256c-2.107,1.036-5.993-1.188-8.929-2.239c-51.063-18.391-94.146-46.782-126.859-91.671
		c-14.646-20.097-7.507-36.303-6.688-56.733c0.982-24.409,16.815-35.057,25.614-51.855c29.014-55.392,80.833-81.129,135.368-103.271
		c8.187-3.325,16.31-7.099,23.833-11.688c11.24-6.855,21.967-12.447,35.2-4.418c2.631,1.596,7.376,0.112,11.058-0.5
		c38.691-6.449,77.241-13.916,116.097-19.13C410.982,2.574,429.369,4.561,449.923,4.561z"/>
</g>
<g>
	<path fill="#13B994" d="M580.53,108.777c0.139,1.812,1.246,2.693,2.846,2.072c2.934-1.14,4.146,0.89,5.439,2.668
		c1.143,1.575,2.395,1.899,4.238,0.752c0.537-0.336,1.053-0.979,1.773-0.556c0.244,0.143,0.383,0.625,0.4,0.961
		c0.033,0.673-0.385,1.138-1.008,1.291c-0.664,0.164-0.744,0.61-0.742,1.221c0.574-1.34,1.693-1.559,2.768-1.081
		c1.334,0.593,0.342,1.703,0.146,2.504c-0.203,0.828-0.795,1.56-1.207,2.336c-0.625,1.181-1.326,2.322,0.357,3.32
		c0.627,0.37,0.461,1.198,0.414,1.862c-0.252,3.72,2.744,6.439,6.281,6.252c1.674-0.086,3.236,0.295,4.889,1.388
		c1.027,0.679,3.713,2.639,5.461-0.046c0.068-0.105,0.289-0.223,0.383-0.186c2.365,0.94,4.154-1.027,6.287-1.236
		c1.547-0.152,2.783,0.072,2.252,2.111c-0.229,0.877,0.125,1.532,0.508,2.283c0.559,1.1,1.607,1.859,1.838,3.229
		c0.158,0.947,1.295,1.188,2.197,1.076c1.467-0.185,2.896,0.444,4.385,0.014c1-0.291,1.789,0.473,2.139,1.254
		c0.953,2.13,2.547,2.834,4.754,2.642c0.623-0.055,1.496-0.144,1.695,0.671c0.168,0.694-0.412,1.4-0.961,1.621
		c-3.117,1.256-6.119,3.504-9.738,1.52c-1.07-0.584-1.309-0.073-1.303,0.883c0.02,2.094,1.949,3.379,4.627,2.833
		c1.895-0.388,3.676-1.065,5.5,0.299c0.637,0.476,0.984-0.146,1.09-0.86c0.25-1.703,1.557-1.498,2.498-0.992
		c1.725,0.925,3.709,1.858,2.785,4.58c3.004-1.131,3.34-0.895,4.232,1.816c0.412,1.247,1.143,2.5,2.932,1.637
		c0.592-0.287,1.256-0.445,1.9-0.586c0.891-0.193,1.477-0.098,1.689,1.084c0.412,2.273,0.514,2.256,2.102,3.291
		c-0.461,0.94-1.188,0.609-1.9,0.418c-3.143-0.848-6.205-1.113-9.139,0.818c-0.68,0.447-1.574,0.807-2.525,0.609
		c-1.721-0.352-3.209,0.207-4.561,1.246c-0.176,0.135-0.338,0.307-0.535,0.389c-1.344,0.563-4.295,0.299-1.236,2.923
		c0.697,0.597-0.154,2.108-0.613,3.08c-0.287,0.603-0.52,1.18-0.707,1.821c-0.373,1.283,0.148,1.812,1.262,1.377
		c1.629-0.635,2.877-0.586,4.621,0.146c1.762,0.738,4-0.363,6.012-0.777c0.279-0.058,0.563-0.391,0.799-0.348
		c2.418,0.447,4.426-0.035,5.738-2.316c0.059-0.1,0.531-0.121,0.586-0.037c1.025,1.635,3.98,1.297,4.023,3.984
		c0.01,0.625,0.51,1.211,1.135,1.569c0.316,0.183,0.826,0.39,0.867,0.646c0.488,3.131,2.092,2.619,4.041,1.34
		c0.504-0.328,1.23-0.357,1.592,0.25c0.455,0.771-0.154,1.225-0.729,1.6c-0.309,0.201-0.686,0.523-0.98,0.479
		c-2.35-0.362-4.188,0.761-5.986,1.986c-1.34,0.913-2.656-0.863-4.039,0.055c-0.711,0.474-1.811,0.539-1.791,1.664
		c0.016,0.949-0.121,1.877,1.018,2.635c0.998,0.664,1.283,2.111,2.764,2.601c0.881,0.291,0.566,1.433-0.389,1.834
		c-0.586,0.246-1.266,0.263-2.084,0.415c1.459,0.65,1.43,1.484,0.387,2.295c-0.912,0.71-1.918,1.631-3.014,0.254
		c-0.277-0.35-0.152-1.166-0.975-0.693c-0.238,0.139-0.563,0.334-0.613,0.558c-0.127,0.54,0.361,0.737,0.736,0.955
		c1.73,0.999,0.906,1.637-0.334,2.126c-0.541,0.214-1.396,0.238-1.213,0.962c0.209,0.835,1.121,0.62,1.715,0.419
		c1.273-0.43,2.479-0.218,3.695,0.148c0.488,0.147,1.043,0.268,1.152,0.888c0.111,0.618-0.375,0.931-0.768,1.248
		c-0.672,0.542-1.666,0.659-2.068,1.563l0.029-0.031c-0.439,0.057-1.014-0.051-1.301,0.188c-2.717,2.253-6.516,3.148-8.309,6.549
		c-1.398,2.652-4.424,2.367-6.582,3.65c-0.602,0.358-0.877-0.523-0.906-1.159c-0.094-1.981-1.285-2.356-2.898-1.83
		c-1.594,0.521-3.191,1.113-4.105,2.732c0.672,0.85,2.178-0.307,2.436,1.035c0.201,1.051-0.662,1.735-1.291,2.459
		c-0.773,0.891-0.146,1.323,0.6,1.196c1.242-0.214,2.729-0.012,3.521-1.422c0.334-0.598,0.887-0.764,1.521-0.595
		c0.811,0.217,0.688,0.884,0.588,1.452c-0.266,1.519,0.529,1.79,1.797,1.666c1.844-0.182,3.688-0.253,5.469,0.438
		c1.51,0.586,1.982-0.058,1.504-1.429c-0.449-1.274,0.152-1.42,1.145-1.372c0.889,0.042,1.775,0.081,2.664,0.093
		c1.035,0.017,1.338,0.354,0.799,1.355c-0.197,0.368-0.857,0.896-0.252,1.342c0.645,0.47,1.383,0.128,1.736-0.453
		c0.658-1.08,1.697-1.011,2.699-1.179c0.469-0.079,0.891-0.161,1.104,0.376c0.205,0.52-0.086,0.833-0.514,1.061
		c-1.178,0.628-1.568,1.443-1.301,2.885c0.301,1.629-0.91,2.896-2.389,2.85c-2.574-0.082-4.238,1.952-6.555,2.329
		c-0.182,0.028-0.4,0.424-0.426,0.667c-0.063,0.551,0.328,0.741,0.82,0.82c0.615,0.101,1.559-0.231,1.713,0.614
		c0.17,0.947-0.93,0.979-1.479,1.398c-1.23,0.943-1.379,2.361-0.104,2.813c2.346,0.828,2.219,1.825,0.396,3.134
		c1.752,0.97,2.932,3.563,2.529,5.323c-0.701,3.072-3.021,2.491-5.396,1.988c2.168,2.633,1.893,3.492-1.238,4.508
		c-0.572,0.188-1.113,0.24-1.443,0.85c-0.826,1.515-2.064,1.771-3.576,1.075c-0.488-0.226-1.156-0.42-1.416,0.076
		c-0.469,0.89,0.537,0.795,0.949,1.094c0.059,0.043,0.176,0.049,0.193,0.098c0.566,1.592,0.986,3.379,0.559,4.885
		c-0.445,1.561-2.107,0.819-3.25,0.446c-1.811-0.589-6.764,0.567-8.064,2.139c-0.617,0.746-1.242,1.221-2.189,1.301
		c-0.592,0.052-1.254,0.063-1.336,0.859c-0.074,0.723,0.438,1.035,1.025,1.259c0.424,0.161,1.436,0.229,0.898,0.799
		c-1.842,1.97,0.373,1.75,1.256,2.204c-2.256,2.84-4.281,0.708-6.371,0.082c0.061-0.19,0.061-0.348,0.137-0.42
		c0.646-0.599,2.143-0.642,1.695-1.95c-0.416-1.222-1.703-0.641-2.545-0.595c-2.34,0.128-4.525,1.426-7.035,0.956
		c1.141,1.572,2.867,1.721,4.313,1.301c1.17-0.343,1.699,0.126,2.287,0.697c0.793,0.769-0.195,1.122-0.555,1.574
		c-0.492,0.623-0.443,1.254-0.063,1.851c0.342,0.533,0.863,0.813,1.527,0.539c1.26-0.519,1.609,0.368,1.77,1.267
		c0.189,1.064-0.658,1.018-1.41,1.203c-2.168,0.548-4.277,1.347-6.58,1.113c-0.604-0.061-0.875,0.486-1.203,0.869
		c-0.395,0.467-0.859,1.051-1.434,0.504s-0.229-1.215,0.271-1.746c0.564-0.598,1.691-1.062,0.723-2.12
		c-0.576-0.628-1.131-1.578-2.16-1.301c-1.146,0.312-0.504,1.358-0.586,2.076c-0.168,1.476-0.166,2.861,1,4.127
		c0.703,0.763,0.717,1.868-0.826,2.003c-0.775,0.068-0.932,0.555-0.982,1.216c-0.063,0.813,0.322,1.293,1.039,1.481
		c0.92,0.244,1.818,0.559,2.822,0.449c0.586-0.063,1.223,0.237,1.238,0.979c0.014,0.74-0.605,1.067-1.195,1.057
		c-1.881-0.034-3.361,0.934-4.963,1.69c-0.939,0.445-2.174,1.256-2.545-0.925c-0.213-1.247-1.57-1.83-2.916-1.492
		c-1.889,0.475-3.373,0.296-4.008-1.866c-0.24-0.816-0.859-1.136-1.701-1.125c-1.924,0.024-3.846,0.026-5.77,0.026
		c-0.771,0-1.447,0.18-1.947,0.824c-0.432,0.556-1.096,0.938-1.707,0.91c-2.264-0.095-4.111,0.583-5.771,2.183
		c-0.703,0.677-2.117,0.846-1.887,2.118c0.264,1.448,1.014,2.908,2.457,3.443c2.535,0.939,4.801,2.56,7.566,2.929
		c1.441,0.189,1.715,0.948,0.625,2.027c-0.104,0.104-0.189,0.229-0.26,0.358c-1.482,2.818-1.719,2.837-3.861,0.239
		c-0.346-0.419-0.738-0.789-1.27-0.825c-2.5-0.17-4.896-1.124-7.443-0.939c-1.021,0.074-1.525,0.328-1.703,1.52
		c-0.344,2.269-2.572,3.354-4.691,2.503c-0.035,2.993-0.053,2.877-2.998,3.305c-2.002,0.29-3.822,1.424-5.988,1.17
		c-0.84-0.098-1.535-0.101-1.609-1.022c-0.096-1.15-1.494-2.204-0.326-3.431c0.271-0.279,0.965-0.299,0.449-0.884
		c-0.314-0.354-0.779-0.346-1.229-0.12c-0.918,0.466-1.85,0.907-2.77,1.365c-0.504,0.249-1.066,0.81-0.396,1.106
		c1.957,0.86,0.828,2.111,0.467,3.13c-0.514,1.438-0.293,2.042,1.342,2.126c0.818,0.042,2.203,0.03,2.014,1.396
		c-0.318,2.306-2.145,3.979-3.553,3.563c-0.688-0.201-0.678-0.748-0.588-1.248c0.361-2.008-0.816-2.177-2.225-1.759
		c-1.227,0.36-1.895,0.205-2.354-1.104c-0.34-0.964-1.283-1.365-2.135-0.56c-1.227,1.166-1.99,0.914-2.66-0.516
		c-0.607-1.294-0.984-0.647-1.354,0.188c-1.006,2.296-0.801,3.057,1.416,4.333c1.398,0.807,1.313,1.447,0.395,2.764
		c-1.559,2.233-3.541,1.968-5.691,1.64c-1.615-0.246-3.23-0.495-4.854-0.665c-1.572-0.162-1.498,1.348-2.127,2.146
		c0.613,0.734,2.004,0.389,1.949,2.015c-0.053,1.623-0.531,2.204-2.006,2.944c-1.521,0.766-3.053,1.342-4.646,1.854
		c-1.086,0.348-1.869,0.147-1.623-1.152c0.268-1.406-0.533-1.28-1.4-1.193c-2.643,0.27-4.221,1.861-4.877,5.037
		c-0.271,1.313-0.191,2.853-2.314,2.187c-0.393-0.122-0.766,0.238-0.84,0.582c-0.279,1.289-1.25,1.676-2.33,2.093
		c-0.555,0.213-1.32,0.75-0.928,1.516c0.342,0.664,1.059,0.178,1.607,0.073c0.215-0.041,0.428-0.126,0.623-0.227
		c2.52-1.272,3.094-1.125,4.711,1.226c0.125,0.18,0.363,0.511,0.334,0.537c-1.258,1.16-0.34,3.469-2.338,4.271
		c-1.814,0.73-4.023,1.285-2.693,4.178c0.359,0.78-0.502,0.923-1.072,1.029c-2.66,0.504-5.174,0.987-6.883-2.147
		c-0.855-1.566-3.082-1.428-4.654-1.586c-2.535-0.262-3.41-2.717-5.482-3.419c0.932-2.188-1.834-2.166-2.273-3.742
		c-0.326-1.172-2.193-1.502-3.547-1.827c-0.207-0.051-0.721,0.298-0.707,0.337c0.529,1.639-0.748,2.916-0.848,4.381
		c-0.063,0.968,0.691,1.661,1.801,1.43c1.682-0.349,2.449,0.112,1.916,1.926c-0.146,0.498-0.379,1.067,0.238,1.369
		c0.664,0.323,0.871-0.312,1.156-0.716c0.869-1.232,2.111-0.789,3.238-0.655c0.537,0.063,0.922,0.531,0.791,1.146
		c-0.15,0.703-0.695,1.156-1.314,1.388c-0.641,0.237-1.303-0.027-1.953-0.194c-0.52-0.134-1.682-0.306-1.441,0.194
		c1.072,2.223-4.219,1.564-1.764,4.174c0.469,0.5,0.561,1.339-0.113,1.477c-2.148,0.439-3.217,2.89-5.568,2.867
		c-0.355-0.002-0.75,0.297-1.063,0.215c-1.074-0.278-2.809-0.188-2.725-1.588c0.076-1.267,1.693-1.167,2.762-1.033
		c0.797,0.101,1.354,0.347,1.49-0.801c0.098-0.816,0.898-1.58-0.336-2.254c-1.805-0.982-3.588-1.689-4.354-4.19
		c-0.52-1.688-3.209-0.813-4.9-0.993c-1.098-0.117-1.93,0.991-2.271,2.13c-0.268,0.889-0.314,1.743,0.67,2.326
		c0.814,0.482,1.51,0.438,2.205-0.206c0.512-0.474,1.045-1.313,1.813-0.52c0.477,0.495,0.961,1.205,0.588,1.999
		c-0.406,0.861-1.213,0.646-1.941,0.605c-0.662-0.034-1.34-0.133-1.986-0.039c-0.586,0.086-1.055,0.398-1.088,1.173
		c-0.027,0.706,1.291,1.521,0.342,1.889c-1.563,0.604-2.834,1.942-4.594,1.964c-1.385,0.014-2.072-1.649-1.439-3.449
		c0.604-1.714,0.592-3.313-0.576-4.799c-0.273-0.349-0.504-0.73-1.016-0.771c-2.297-0.188-5.473,2.588-5.418,4.957
		c0.027,1.293-0.498,1.282-1.443,1.199c-0.949-0.083-1.916-0.053-2.873-0.002c-0.91,0.049-1.627,0.534-1.666,1.465
		c-0.035,0.944,0.797,0.866,1.469,0.896c1.383,0.063,1.586,0.856,1.547,2.105c-0.066,2.252-0.533,3.898-3.271,4.008
		c-0.996,0.04-1.607-0.541-2.848-1.028c0.254,1.034,0.502,1.74,0.586,2.466c0.088,0.765-0.145,1.471-0.902,1.866
		c-1.014,0.528-0.975-0.391-1.311-0.903c-0.619-0.94-1.611-1.313-2.691-1.22c-1.297,0.108-0.594,1.295-0.904,1.945
		c-0.42,0.863-0.693,2.028-1.965,1.585c-1.025-0.361-2.43-0.77-1.695-2.456c0.336-0.768-0.004-1.399-0.561-1.729
		c-0.781-0.462-1.734-0.542-2.498,0.105c-1.299,1.102-2.58,1.09-4.268,0.788c-2.461-0.439-4.607,1.271-6.875,2.068
		c-1.346,0.477-2.598,1.342-3.494,2.581c-0.68,0.938-1.629,1.328-2.801,1.559c-1.24,0.24-2.697,0.229-3.531,1.563
		c-0.389,0.618-1.002,0.488-1.586,0.22c-0.914-0.419-1.916-0.487-2.832-0.245c-1.332,0.354-2.436,0.547-3.086-1.05
		c-0.215-0.524-0.813-0.692-1.328-0.386c-0.363,0.219-0.805,0.567-0.891,0.936c-0.164,0.7,0.551,0.783,1.006,0.898
		c1.225,0.311,2.605,0.874,2.271,2.211c-0.393,1.576-1.256,3.211-3.219,3.586c-1.41,0.27-2.826,0.491-4.256,0.737
		c0.357,1.132,1.941-0.408,1.811,1.063c-0.088,0.961-1.055,0.849-1.789,0.867c-1.203,0.033-1.918,0.849-2.391,1.759
		c-0.805,1.557-2.092,1.717-3.568,1.538c-0.51-0.06-1.09-0.076-1.318-0.649c-0.313-0.77,0.381-0.734,0.795-0.995
		c0.818-0.521,0.43-0.957-0.227-1.254c-1.814-0.821-3.912-0.746-5.67-1.773c-0.104-0.06-0.461,0.09-0.516,0.22
		c-1.441,3.412-4.406,3.073-7.25,2.906c-1.4-0.082-2.662-0.299-3.957,0.738c-1.064,0.854-2.795-0.951-2.766-2.969
		c0.016-0.948,0.518-2.064-0.805-2.386c-1.361-0.326-2.77-0.421-3.893,0.829c-1.023,1.145-1.443,2.712-2.799,3.641
		c-0.795,0.543-1.338,1.049-2.289,0.233c-0.957-0.817-2.068-0.486-3.121-0.011c-2.117,0.957-5.01,0.037-6.107-1.938
		c-0.574-1.032,0.33-1.288,0.934-1.624c0.795-0.44,1.336-0.893,0.234-1.527c-0.818-0.474-0.643-1.271-0.811-1.952
		c-0.262-1.053-0.715-2.289-1.727-2.364c-1.254-0.094-2.404,0.866-2.904,2.05c-0.387,0.909-0.648,1.766-1.584,2.271
		c-0.412,0.224-0.613,0.657-0.271,1.133c0.238,0.332,0.582,0.461,0.973,0.343c0.352-0.104,0.678-0.323,1.031-0.393
		c0.809-0.157,1.76-0.344,2.162,0.574c0.385,0.882-0.463,1.263-1.084,1.655c-2.234,1.418-4.465,2.849-6.705,4.255
		c-0.24,0.151-0.545,0.264-0.826,0.282c-4.748,0.338-9.424,1.51-14.208,1.347c-1.308-0.043-2.265,0.34-3.236,1.099
		c-2.18,1.703-4.884,1.375-6.508-0.835c-0.488-0.664-1.009-0.753-1.701-0.714c-0.607,0.033-0.707,0.423-0.702,0.902
		c0.012,0.862,0.611,1.115,1.313,1.22c1.094,0.157,1.816,0.864,2.558,1.594c0.413,0.407,1.117,0.697,0.755,1.396
		c-0.405,0.782-1.417,0.951-1.938,0.57c-1.529-1.114-3.507-0.428-5.019-1.469c-0.64-0.443-1.162,0.071-1.786,0.337
		c-1.713,0.72-3.32,1.88-5.477,0.763c-0.919-0.476-2.283,0.177-3.41-0.805c-1.261-1.1-1.629-2.104-0.529-3.36
		c0.898-1.027,0.917-1.979,0.093-2.972c-0.598-0.718-0.542-1.551-0.417-2.328c0.266-1.654-0.702-2.813-1.477-4.044
		c-0.402-0.646-1.036-0.921-1.656-0.257c-0.958,1.021-1.788,0.714-2.68-0.088c-0.254-0.229-0.653-0.393-0.996-0.409
		c-0.698-0.035-1.52-0.567-2.072,0.173c-0.35,0.467,0.076,0.995,0.358,1.411c0.495,0.724,1.152,1.172,2.079,0.818
		c0.414-0.154,0.81-0.365,1.197-0.58c0.61-0.334,1.101-0.105,1.175,0.488c0.134,1.07-0.407,2.021-0.993,2.849
		c-0.533,0.75-1.366,0.729-2.21,0.38c-2.726-1.126-4.98,0.624-7.353,1.376c-0.848,0.269-1.411,1.388-2.575,1.421
		c-0.523,0.017-0.944,0.416-0.979,1.038c-0.031,0.621,0.383,0.963,0.854,1.185c0.801,0.378,1.646,0.657,2.456,1.021
		c0.571,0.256,1.43,0.369,1.141,1.313c-0.255,0.834-0.846,1.58-1.784,1.295c-2.359-0.717-4.044-1.155-2.033,2.224
		c0.651,1.097-0.799,2.968-2.165,3.314c-3.355,0.855-6.792,0.77-10.208,0.912c-0.223,0.008-0.482-0.102-0.66-0.018
		c-3.537,1.701-6.904,0.766-10.309-0.517c-0.776-0.292-1.416-0.519-2.013-1.164c-1.083-1.17-2.494-1.536-4.034-0.857
		c-2.382,1.048-2.713,0.834-2.471-1.687c0.068-0.722,0.205-1.437,0.348-2.421c-0.72,0.492-1.248,0.835-1.758,1.201
		c-0.66,0.477-1.412,0.627-2.08,0.206c-0.843-0.53-0.156-1.147,0.064-1.732c0.103-0.267,0.246-0.694,0.122-0.841
		c-1.929-2.262-0.933-5.156-1.704-7.658c-0.249-0.807-0.653-1.503-1.631-1.582c-0.882-0.066-1.428,0.438-1.683,1.181
		c-0.468,1.363-1.42,2.182-2.682,2.769c-1.325,0.617-1.191,1.345-0.028,2.021c0.939,0.545,1.792,1.259,3.062,0.947
		c0.819-0.196,1.342,0.353,1.59,1.188c0.284,0.957-0.368,1.098-0.994,1.38c-1.333,0.6-1.709,1.562-0.731,2.743
		c0.68,0.823,0.805,1.771,0.113,2.382c-0.839,0.745-1.811,1.545-3.104,1.456c-0.386-0.026-0.771-0.154-0.808-0.602
		c-0.228-2.846-2.708-3.129-4.611-4.022c-0.647-0.306-1.754-0.54-2.044,0.153c-0.658,1.57-1.449,1.271-2.483,0.558
		c-0.467-0.321-1.099-0.361-1.493-0.112c-2.457,1.559-5.057,0.931-7.645,0.623c-0.563-0.064-1.378,0.179-1.507-0.555
		c-0.143-0.804,0.512-1.646,1.224-1.587c2.135,0.172,3.373-1.094,4.66-2.421c0.615-0.634,1.456-0.738,2.279-0.648
		c2.2,0.237,4.364-0.38,6.599-0.106c1.73,0.211,2.501-1.588,3.554-2.675c0.073-0.076-0.046-0.403-0.146-0.573
		c-1.009-1.736-5.807-2.324-7.175-0.828c-0.833,0.91-1.766,1.615-2.959,1.849c-2.91,0.563-5.646,1.986-8.939,1.767
		c1.465,2.349,0.145,2.452-1.747,2.598c-1.337,0.101-2.688,0.779-3.908,1.432c-0.938,0.501-1.763,0.53-2.439-0.129
		c-1.603-1.559-3.35-1.537-5.326-0.914c-2.541,0.803-3.587-0.249-3.033-2.895c0.557-2.659-0.049-4.458-1.839-5.459
		c-0.035-0.646,0.539-0.588,0.897-0.771c1.062-0.542,1.376-1.534,1.414-2.587c0.044-1.146-1.056-1.178-1.754-1.669
		c-1.742-1.224-3.407-2.103-5.661-1.382c-0.812,0.259-1.516,0.64-2.115,1.1c-1.044,0.804-1.006,1.766,0.456,1.932
		c1.551,0.176,2.404,1.643,3.991,1.799c0.67,0.064,1.031,1.253,0.868,2.061c-0.196,0.971-1.017,1.482-1.972,1.489
		c-1.473,0.013-2.966,0.008-4.417-0.216c-2.538-0.391-3.599-2.666-4.705-4.493c-0.653-1.079-1.312-1.553-2.125-1.158
		c-1.156,0.56-2.738,0.953-2.763,2.748c-0.006,0.439,0.163,0.679,0.668,0.594c0.431-0.073,0.898-0.181,1.308-0.087
		c1.188,0.271,2.188,1.349,2.167,2.214c-0.023,1.01-1.466,0.612-2.256,0.542c-1.682-0.152-3.371-0.245-5.02-0.803
		c-0.952-0.317-2.075-0.533-2.752,0.957c-0.534,1.18-1.584,1.096-2.479,0.031c-1.176-1.396-2.539-1.645-4.028-0.428
		c-0.737,0.602-1.832,1.026-2.475,0.555c-1.876-1.382-4.258-1.095-6.172-2.171c-0.54-0.303-1.043-0.607-1.648-0.462
		c-1.429,0.345-1.614-0.761-1.853-1.643c-0.298-1.104,0.548-1.591,1.395-1.943c0.325-0.141,0.727-0.088,1.089-0.147
		c0.655-0.107,1.461-0.187,1.399-1.063c-0.05-0.712-0.747-0.82-1.372-0.816c-2.08,0.013-3.245-0.981-3.682-3.049
		c-0.292-1.385-2.938-2.3-4.702-1.578c-1.499,0.612-2.899,1.475-4.304,2.294c-0.754,0.44-1.168,1.14-0.884,2.068
		c0.295,0.961,1.004,1.185,1.918,1.068c0.438-0.058,0.903-0.135,1.324-0.047c0.879,0.188,1.228,0.938,1.059,1.675
		c-0.197,0.856-1.036,0.52-1.459,0.261c-3.042-1.874-6.657-2.451-9.688-4.326c-1.396-0.863-1.38-1.747,0.015-2.567
		c3.303-1.943,3.576-3.831,0.829-6.672c-0.743-0.768-1.444-1.723-2.641-1.939c-0.482-0.09-0.699-0.476-0.942-0.86
		c-0.353-0.559,0.317-2.045-1.137-1.563c-0.995,0.328-1.905,1.389-1.524,2.436c0.873,2.401-1.799,4.093-1.021,6.512
		c0.253,0.786-1.182,1.158-2.056,1.284c-0.802,0.116-1.252-0.419-1.339-1.162c-0.178-1.521-1.005-2.458-2.263-3.328
		c-0.917-0.633-1.503-1.821-1.66-3.03c-0.143-1.089-0.602-1.784-1.745-1.938c-1.152-0.152-1.229,0.781-1.579,1.485
		c-1.255,2.525-1.286,2.542-3.338,0.308c-0.52-0.564-1.098-0.433-1.625-0.322c-5.104,1.069-10.094-0.068-15.107-0.729
		c-0.75-0.1-1.546-0.073-1.447-1.189c0.099-1.111-0.678-1.047-1.448-1.146c-1.832-0.238-2.318-1.418-1.098-2.834
		c0.809-0.937,1.753-1.805,3.084-2.042c1.73-0.311,1.854-1.108,0.778-2.41c-0.653-0.79-1.082-1.761-1.675-2.605
		c-0.708-1.011-1.789-1.309-2.941-1.185c-1.178,0.129-0.911,1.148-1.001,1.914c-0.122,1.042-0.812,1.44-1.713,1.271
		c-1.685-0.32-3.351-0.779-3.312-3.021c0.006-0.329-0.061-0.534-0.352-0.719c-1.024-0.653-4.833-0.167-5.492,0.838
		c-0.501,0.764-1.108,1.021-1.96,1.214c-2.937,0.667-5.51,1.755-5.776,5.396c-0.075,1.035-1.067,1.589-2.004,1.881
		c-1.206,0.378-1.154-0.841-1.601-1.417c-0.925-1.198-2.266-1.811-3.552-2.479c-0.584-0.305-1.277-0.394-1.879-0.669
		c-1.109-0.507-2.254-1.122-1.869-2.61c0.369-1.431,1.604-0.904,2.596-0.939c2.307-0.083,4.573,0.066,6.79,0.777
		c1.449,0.466,1.994-0.469,1.881-1.623c-0.084-0.866-0.37-1.652-0.038-2.563c0.29-0.794-0.389-0.783-0.926-0.73
		c-0.506,0.05-1.148,0.364-1.49,0.16c-2.514-1.51-5.137-1.69-7.905-0.942c-0.202,0.055-0.565-0.146-0.722-0.336
		c-0.213-0.265-0.048-0.64,0.21-0.753c0.924-0.409,1.432-1.867,2.84-1.104c0.396,0.216,0.846-0.005,1.262-0.219
		c2.301-1.188,4.614-2.346,6.926-3.513c1.264-0.639,1.52-1.54,0.272-2.307c-1.045-0.642-1.168-2.351-2.765-2.285
		c1.237,2.244,1,2.997-1.266,4.274c-0.443,0.248-0.87,0.572-1.211,0.948c-0.619,0.682-1.543,1.02-2.202,0.707
		c-1.779-0.846-3.384-1.834-5.542-1.783c-0.875,0.021-1.521-1.566-0.366-2.391c1.363-0.969,0.426-1.384-0.211-1.97
		c-0.05-0.047-0.139-0.05-0.205-0.082c-0.537-0.27-6.13-0.685-6.753-0.553c-0.429,0.09-0.896,0.148-1.32,0.076
		c-1.843-0.324-3.234-0.181-3.973,2.019c-0.498,1.485-1.95,1.453-2.96,0.188c-0.181-0.229-0.251-0.538-0.417-0.778
		c-1.427-2.076-2.639-4.31-4.627-5.966c-0.736-0.612-1.329-1.221-2.276-0.427c-0.475,0.397-1.041,0.72-1.587,0.23
		c-0.296-0.266-0.571-0.761-0.552-1.136c0.044-0.853,0.797-0.688,1.365-0.711c0.462-0.021,0.938-0.01,0.875-0.668
		c-0.06-0.585-0.443-0.985-0.995-1.041c-0.953-0.098-1.917-0.069-2.877-0.107c-1.151-0.045-1.778-0.678-1.845-1.801
		c-0.07-1.212,0.828-1.189,1.666-1.206c0.073,0,0.148-0.009,0.221-0.026c0.936-0.235,2.679,0.069,2.521-1.008
		c-0.146-1.027-1.039-2.623-2.267-2.929c-1.198-0.297-2.238,0.732-2.479,2.033c-0.279,1.524-1.563,2.11-2.561,2.914
		c-0.545,0.438-1.401,0.479-1.807-0.504c-0.394-0.954-0.986-1.845-1.261-2.825c-0.311-1.12-0.652-2.433,1.17-2.727
		c1.521-0.247,2.564-1.079,2.281-2.688c-0.298-1.701-1.794-2.049-3.243-2.019c-1.093,0.022-2.174,0.475-3.288,0.104
		c-1.806-0.604-2.155-1.728-0.927-3.129c1.203-1.372,1.79-3.37,4.468-2.969c1.5,0.227,1.643-1.637,1.233-3.123
		c-0.568-2.074-1.571-3.557-3.132-4.937c-0.668-0.592-0.377-1.761-0.03-2.74c0.977-2.743,0.699-3.21-1.985-3.728
		c-0.604-0.117-0.986-0.368-0.93-0.99c0.063-0.683,0.271-1.396,1.055-1.522c1.686-0.273,2.592-1.357,3.552-2.678
		c0.879-1.209,2.509-1.022,3.892-0.805c1.167,0.185,2.1,0.118,3.003-0.84c1.756-1.863,3.903-2.016,6.053-0.58
		c0.788,0.526,1.547,0.645,2.161-0.129c0.518-0.649,0.479-1.461-0.164-2.007c-1.124-0.953-2.313-1.896-3.94-1.613
		c-0.588,0.103-1.155,0.325-1.717-0.014c-0.676-0.404-1.793-0.412-1.911-1.32c-0.142-1.067,1.014-1.08,1.698-1.403
		c0.542-0.256,1.087-0.481,1.45-0.979c0.317-0.436,0.556-0.943,0.227-1.43c-0.31-0.449-0.781-0.163-1.215-0.098
		c-1.7,0.259-3.527,0.323-2.856,2.923c0.122,0.474-0.279,0.755-0.74,0.956c-1.361,0.593-2.866,0.904-3.441,2.686
		c-0.246,0.76-1.321,0.553-1.943,0.082c-1.007-0.762-0.189-1.494,0.102-2.326c-0.694,0.381-1.436,0.7-2.072,1.162
		c-0.827,0.596-1.755,1.193-0.84,2.479c0.526,0.741,0.247,1.448-0.593,1.795c-0.867,0.36-1.511,0.231-1.892-0.826
		c-0.66-1.832-1.883-1.504-2.782-0.322c-1.074,1.409-2.307,1.473-3.901,1.356c-2.479-0.181-4.918-0.837-7.449-0.579
		c-0.854,0.088-2.214,0.173-2.382-1.054c-0.169-1.229,0.803-2.354,1.808-2.745c1.335-0.52,2.761-0.791,4.125-1.374
		c1.007-0.431,2.346-0.032,3.007,1.211c0.283,0.533,0.627,0.772,1.25,0.529c0.685-0.267,0.515-0.804,0.482-1.303
		c-0.148-2.336-1.451-3.087-3.653-2.264c-1.13,0.426-2.018,1.482-3.644,0.52c-2.015-1.194-2.565-2.371-1.355-4.333
		c0.337-0.548,0.473-1.146,0.18-1.686c-0.51-0.938-1.417-1.839,0.324-2.484c0.146-0.055,0.261-0.581,0.175-0.808
		c-0.686-1.762-0.423-2.747,1.77-2.434c0.606,0.087,1.04-0.304,0.86-0.95c-0.163-0.59-0.13-1.514-1.045-1.468
		c-1.8,0.09-3.525-0.252-5.267-0.61c-1.219-0.25-1.686,0.979-2.201,1.565c-0.968,1.103-2.119,1.687-3.335,2.352
		c-0.758,0.413-1.2,0.516-1.587-0.267c-0.354-0.708-0.162-1.296,0.583-1.646c0.269-0.125,0.546-0.229,0.82-0.343
		c1.415-0.591,2.429-1.351,1.82-3.174c-0.232-0.705,0.048-1.514,0.729-1.969c0.766-0.515,0.951,0.417,1.409,0.675
		c1.307,0.732,3.417,0.185,4.05-1.14c0.257-0.539,0.851-1.2,0.097-1.792c-0.561-0.441-1.229-0.514-1.864-0.104
		c-0.62,0.401-1.267,0.778-1.814,1.263c-0.514,0.454-1.11,0.692-1.597,0.283c-1.447-1.22-3.144-0.664-4.707-0.699
		c-2.431-0.054-3.152,1.316-1.959,3.409c0.262,0.458,0.739,0.958,0.207,1.341c-0.854,0.615-1.903,0.775-2.964,0.632
		c-0.596-0.081-0.992-0.472-0.918-1.057c0.227-1.788,0.08-3.816,2.558-4.305c-0.407-0.47-0.984-0.825-0.996-1.199
		c-0.073-2.412-0.205-4.576-3.578-4.422c-0.846,0.04-0.615-1.201-0.683-1.894c-0.259-2.663-0.545-2.873-2.958-1.89
		c-0.706,0.288-1.542,0.71-2-0.042c-0.5-0.82,0.332-1.419,0.973-1.709c2.708-1.229,4.799-3.366,7.328-4.848
		c0.674-0.396,1.321-0.322,1.797,0.26c1.104,1.354,2.1,0.679,2.617-0.363c1.489-3.002,4.006-3.629,7.012-3.511
		c1.365,0.053,2.813,0.591,4.077-0.438c0.479-0.389,0.939-0.818,0.744-1.481c-0.212-0.721-0.864-0.335-1.331-0.382
		c-0.985-0.101-2.297,0.449-2.78-0.763c-0.455-1.143,0.355-2.305,1.179-2.921c2.006-1.507,2.306-4.165,4.174-5.729
		c0.381-0.317,0.635-1.028,1.167-0.813c2.798,1.127,5.377-1.223,8.164-0.452c0.408,0.11,1.025-0.479,1.53-0.773
		c0.903-0.526,1.997-1.304,2.725-0.145c0.657,1.046-0.872,1.25-1.42,2.057c1.271,0.563,2.542,0.124,2.622-0.943
		c0.163-2.157,1.642-2.022,2.959-2.159c1.143-0.118,2.01-0.273,2.785-1.355c0.915-1.277,2.413-1.909,4.072-1.938
		c1.309-0.021,2.65,0.421,3.909-0.356c0.304-0.188,0.759-0.096,0.934,0.313c0.189,0.44-0.137,0.745-0.482,0.846
		c-2.93,0.829-1.384,2.393-0.41,3.481c1.109,1.243,0.578,1.163-0.436,2.188c-1.732,1.754-4.822,1.129-5.812,3.757
		c-0.051,0.137-0.646,0.259-0.767,0.147c-1.556-1.43-3.264-0.184-4.885-0.291c-0.728-0.052-1.972-0.699-1.979,0.88
		c-0.007,1.396,0.905,2.042,2.188,1.864c2.755-0.383,5.152,0.616,7.541,1.718c0.729,0.336,1.401,0.995,0.766,1.729
		c-1.686,1.935,0.104,1.542,1.063,1.73c1.779,0.35,2.411,1.484,1.156,2.77c-2.103,2.149,0.079,3.98,0.933,4.354
		c3.959,1.722,4.131,5.271,4.913,8.597c0.321,1.367,0.653,2.697,1.695,3.747c0.287,0.29,0.515,0.762,0.541,1.166
		c0.124,1.94,1.026,3.397,2.415,4.729c1.21,1.159,2.245,2.48,2.271,4.376c0.016,0.995,0.831,1.776,1.729,2.17
		c2.988,1.309,4.01,3.995,4.522,6.812c0.269,1.466,1.543,1.65,2.223,2.513c1.152,1.47,1.385,3.836,4.062,4.188
		c1.275,0.166-0.389,1.943,0.251,2.926c2.884-0.354,3.354-0.029,4.307,3.012c0.362,1.159,1.37,1.217,2.317,1.334
		c0.669,0.083,1.389,0.069,1.688,0.818c0.327,0.825-0.176,1.318-0.726,1.898c-1.374,1.455-1.171,2.042,0.733,2.822
		c1.398,0.572,2.72,0.893,4.282,0.333c1.563-0.558,4.875,1.405,5.619,2.934c0.3,0.611,0.468,1.061-0.119,1.54
		c-0.521,0.428-1.138,0.861-0.622,1.644c0.495,0.75,1.329,1.15,2.12,0.843c1.199-0.47,1.973-0.061,2.961,0.594
		c2.107,1.393,2.17,1.302,0.211,3.299c1.456,0.769,2.906,0.139,4.294,0.108c1.446-0.028,2.642,0.112,3.238,1.645
		c0.25,0.639,0.646,1.095,1.393,1.289c0.458,0.118,1.139,0.523,1.191,0.883c0.448,2.975,2.613,2.875,4.835,2.958
		c2.14,0.078,3.595,1.6,5.11,2.885c2.135,1.813,4.581,2.808,7.377,2.846c1.759,0.024,1.565,1.108,1.086,2.089
		c-0.865,1.769-0.396,2.104,1.395,1.712c1.334-0.295,2.673,0.188,3.894,0.665c1.925,0.754,1.751,4.698,0.011,6.341
		c-2.426,2.28-5.553,2.67-8.518,3.268c-1.672,0.338-3.375,0.568-4.834,1.369c-2.726,1.495-5.143,0.869-7.434-0.754
		c-1.751-1.24-2.79-1.402-4.208,0.739c-1.981,2.991-4.653,2.433-6.149-0.934c-1.798-4.044-1.019-6.869,2.632-9.525
		c0.97-0.706,1.941-0.283,2.943-0.049c1.203,0.281,1.71-0.182,1.212-1.414c-0.221-0.548-0.469-1.086-0.73-1.613
		c-1.285-2.596-1.309-2.617-3.468-0.808c-0.613,0.516-1.33,0.629-2.026,0.826c-1.889,0.541-3.563,1.474-4.974,2.813
		c-0.982,0.933-1.861,1.989,0.409,2.534c1.578,0.38,1.292,1.684,0.963,2.704c-0.323,1.011-0.454,1.772,0.389,2.604
		c1.395,1.373-0.526,2.623-0.27,4.13c0.3,1.749-1.223,2.175-2.854,2.029c-0.931-0.082-2.128-0.052-2.293,1.2
		c-0.148,1.128,0.508,1.916,1.689,2.245c1.448,0.404,2.333,2.204,4.146,1.729c2.396-0.634,4.651-1.588,7.337-3.063
		c-1.194-0.1-1.773-0.08-2.315-0.21c-0.621-0.149-1.375-0.239-1.454-1.109c-0.042-0.445-0.013-0.94,0.492-1.123
		c0.655-0.236,1.355-0.932,2.033-0.22c0.713,0.746,1.925,1.014,2.256,2.062c0.451,1.43,1.52,1.229,2.273,0.734
		c2.57-1.683,5.195-0.841,7.729-0.234c3.918,0.938,7.771,0.579,11.646-0.037c0.595-0.094,1.519-0.212,1.236-1.164
		c-0.229-0.774-0.918-1.138-1.775-0.838c-2.486,0.871-5.147,0.186-7.663,0.881c-1.802,0.499-2.955-1.082-4.461-1.561
		c-0.282-0.09-0.525-0.378-0.336-0.688c0.131-0.211,0.445-0.465,0.657-0.448c2.237,0.184,4.104-0.633,6.04-1.703
		c1.365-0.754,2.977,0.476,4.542,0.513c2.814,0.065,4.95-1.067,6.952-2.954c2.146-2.023,4.586-3.713,7.789-3.437
		c1.186,0.101,1.938,0.63,1.577,2.056c-1.071,4.214,1.072,6.254,5.373,5.159c0.682-0.175,1.303-0.802,2.225-0.219
		c-0.78,1.077-1.933,2.022-1.621,3.559c0.108,0.54-0.025,1.344,0.819,1.298c0.592-0.031,1.155-0.443,1.1-1.171
		c-0.119-1.54,0.801-2.313,2.091-2.271c1.057,0.035,1.878,0.777,1.493,2.145c-0.145,0.512,0.348,0.637,0.691,0.566
		c0.813-0.167,1.984,0.357,2.334-0.771c0.448-1.446,1.472-0.961,2.343-0.865c0.901,0.101,1.233,0.776,1.082,1.621
		c-0.231,1.301,0.628,1.488,1.561,1.604c1.008,0.122,2.14,0.428,2.188,1.482c0.049,1.059-0.999,1.528-2.047,1.644
		c-0.803,0.086-1.529,0.37-1.465,1.311c0.063,0.917,0.926,0.729,1.543,0.896c2.015,0.555,3.799,0.062,5.353-1.228
		c0.582-0.479,1.023-1.125-0.249-1.558c-1.691-0.574-1.692-1.932-1.059-3.271c0.661-1.392,3.295-2.306,4.403-1.613
		c0.901,0.563,0.994,1.191,0.045,1.881c-2.138,1.545-1.745,1.304-0.15,2.95c2.735,2.824,5.304,2.08,8.139,0.64
		c0.69-0.354,1.344-0.196,1.828,0.315c0.637,0.675-0.267,0.979-0.443,1.47c-0.278,0.766-1.304,1.651-0.308,2.347
		c0.816,0.565,1.606-0.33,2.445-0.679c2.563-1.064,4.832-3.085,7.866-2.853c1.184,0.092,2.206,0.058,3.273-0.837
		c1.113-0.929,2.879-0.818,4.012-0.146c1.604,0.956,3.221,1.363,4.995,1.4c1.995,0.043,3.3,0.769,3.07,3.078
		c1.381-0.542,2.556-1.167,3.809-1.438c0.883-0.192,2.422-0.447,1.446,1.475c-0.45,0.886-0.017,1.572,0.812,1.672
		c1.565,0.188,3.224,0.433,4.722,0.103c1.104-0.244,1.738-0.52,2.267,0.694c0.495,1.14,1.501,0.685,2.323,0.528
		c1.129-0.212,2.232-0.476,3.777,0.236c-2.759,0.965-1.653,2.084-1.158,3.821c1.063,3.726,2.993,2.463,5.409,2
		c2.018-0.387,3.784-1.744,5.954-1.445c0.296,0.039,0.798-0.227,0.946-0.491c1.2-2.152,2.65-1.418,4.451-0.753
		c3.23,1.193,6.503,1.027,9.542-0.879c0.726-0.456,1.522-1.163,2.354-0.211c0.834,0.955-0.348,1.355-0.61,2.027
		c-0.782,2.006-2.102,2.705-4.169,2.037c-0.5-0.161-1.063-0.114-1.322,0.482c-0.075,0.176-0.088,0.462,0.007,0.612
		c0.325,0.521,0.881,0.501,1.392,0.408c0.431-0.074,0.833-0.348,1.262-0.381c0.761-0.058,1.531,0.085,1.824,0.918
		c0.271,0.765,0.056,1.341-0.689,1.876c-1.978,1.422-4.067,2.519-6.49,2.917c-1.021,0.169-2.21,0.191-2.059,1.721
		c0.146,1.446,1.368,1.12,2.241,1.183c1.108,0.077,2.385,0.114,2.335-1.552c-0.032-1.144,0.083-1.94,1.486-2.193
		c1.371-0.247,2.517-0.217,3.313,1.05c0.917,1.454,1.727,2.759,3.929,2.467c1.234-0.162,1.667,1.514,2.429,2.381
		c1.473,1.682,3.407,1.993,5.233,0.729c0.294-0.204,0.723-0.458,0.77-0.742c0.353-2.183,1.185-4.046,2.98-5.464
		c0.474-0.374,0.344-1.137-0.211-1.566c-0.882-0.687-1.498-2.049-2.963-1.411c-0.828,0.359-1.563,0.563-2.16-0.285
		c-0.625-0.896-0.206-1.689,0.354-2.435c2.146-2.854,2.146-2.854,4.901-0.483c2.812,2.419,3.319,4.429,1.966,7.894
		c-0.189,0.488-0.452,0.937-0.113,1.596c1.451-1.466,2.792-1.896,3.709,0.492c0.253,0.662,0.915,0.688,1.521,0.642
		c0.778-0.063,1.258-0.548,1.3-1.279c0.104-1.785,0.813-1.685,2.135-0.955c2.309,1.271,4.437,0.482,5.285-2.016
		c0.375-1.104,0.921-1.307,1.899-1.303c1.239,0.007,1.174,0.878,1.237,1.688c0.063,0.83,0.381,1.586,1.313,1.349
		c0.742-0.189,1.569-0.687,1.53-1.671c-0.031-0.788-0.409-1.385-1.337-1.491c-0.641-0.072-1.589,0.513-1.799-0.665
		c-0.097-0.526,0.037-1.064,0.619-1.284c0.896-0.336,1.863-0.817,2.7,0.003c0.589,0.579,1.064,1.256,1.985,1.241
		c0.764-0.014,1.501,1.013,2.25,0.171c0.707-0.795,0.592-1.737,0.227-2.702c-0.411-1.086-1.025-2.278,0.718-2.862
		c0.79-0.266,1.578-0.513,2.307,0.103c0.771,0.65,0.91,1.452,0.548,2.4c-0.689,1.813,0.024,2.452,1.771,1.854
		c1.792-0.613,2.253,0.721,2.74,1.813c0.568,1.275,1.274,2.109,2.679,1.354c1.229-0.663,2.822-1.334,1.345-3.234
		c-0.787-1.014,0.191-2.344-0.52-3.422c-0.141-0.213,0.099-0.753,0.382-0.623c1.539,0.702,2.788-1.255,4.423-0.344
		c0.96,0.536,2.176,0.218,3.237-0.213c1.112-0.449,2.221-0.915,3.314,0.075c0.282,0.255,0.633,0.248,1.032,0.114
		c1.814-0.614,3.192,0.004,3.192,1.789c0.002,1.453,0.739,1.334,1.604,1.442c2.006,0.251,3.964-0.158,5.894-0.582
		c0.945-0.206,1.438-0.206,1.919,0.771c1.482,3.009,2.316,3.134,5.129,1.617c1.854-1.001,3.942-1.12,6.022-0.513
		c2.424,0.707,3.416,0.058,3.346-2.392c-0.055-1.85,1.646-1.866,2.547-2.681c0.813-0.736,1.303,0.063,1.918,0.693
		c0.848,0.866,2.045,0.624,3.143,0.281c0.771-0.239,1.541-0.533,2.332-0.642c1.072-0.146,2.266-0.456,2.441,1.313
		c0.188,1.85-1.135,1.499-2.16,1.611c0.633,2.815,1.922,3.521,4.672,3.197c1.822-0.214,3.426,0.988,4.801,2.029
		c0.67,0.508-0.691,1.668-0.344,2.664c0.182,0.515-0.211,1.296,0.592,1.496c0.484,0.124,1.041,0.104,1.4-0.407
		c0.414-0.589,0.279-1.211-0.145-1.635c-1.99-1.992-0.402-3.367,0.863-4.654c0.857-0.875,1.432-1.446,1.17-2.946
		c-0.602-3.434,1.297-5.054,4.607-4.179c1.656,0.438,2.863-0.55,4.021-1.199c1.211-0.681,1.959-1.072,3.014,0.095
		c0.578,0.641,1.414,0.445,1.984-0.147c0.658-0.686-0.086-0.894-0.479-1.324c-0.973-1.065,0.156-1.288,0.789-1.361
		c3.551-0.4,7.016-1.657,10.646-1.224c1.381,0.164,2.645,0.013,3.855-0.649c1.939-1.059,3.406-0.545,4.449,1.341
		c0.688,1.238,1.361,2.398,3.063,1.288c0.254-0.167,0.867-0.18,1.053,0.001c2.369,2.33,5.461,0.038,8.039,1.289
		c0.785,0.383,1.553-0.423,1.541-1.402c-0.016-1.074-0.803-0.831-1.453-0.688c-1.535,0.339-2.271-0.644-3.082-2.305
		c-0.16,1.798-0.82,2.022-1.951,1.438c-0.961-0.499-1.898-0.892-1.633-2.26c0.275-1.41,1.332-0.961,2.252-1.096
		c2.48-0.358,4.711-0.015,7.021,1.118c1.117,0.548,2.854-0.006,2.877-2.02c0.008-0.609-0.027-1.302,0.801-1.315
		c2.281-0.042,3.844-1.503,5.535-2.709c1.418-1.013,2.529-0.746,2.959,0.931c0.473,1.845,1.295,2.085,2.527,0.743
		c2.336-2.536,5.361-3.901,8.441-5.215c2.006-0.855,6.807,1.065,7.725,3.35c0.508,1.258,0.949,1.045,1.73,0.458
		c0.709-0.533,1.51-0.972,2.129-1.591c2.242-2.248,5.768-3.261,6.527-6.979c0.223-1.085,1.67-0.604,2.502-1.051
		c1.846-0.997,3.617-2.006,6.014-1.401c1.41,0.355,3.164-0.231,3.332-2.365c0.063-0.741,0.578-1.09,1.24-0.894
		c2.359,0.701,4.057-0.923,5.926-1.741c2.352-1.025,4.771-1.919,7.064-2.999c2.557-1.2,5.553-1.773,7.398-4.407
		c0.752-1.072,2.189-1.739,3.545-2.181c1.984-0.643,3.357-2.34,5.402-2.955c1.207-0.363,0.605-1.632,0.479-2.547
		c-0.102-0.723-0.439-1.565,0.783-1.604c1.027-0.031,1.248,0.667,1.127,1.492c-0.229,1.573,0.768,1.629,1.662,1.131
		c1.258-0.694,2.635-0.937,3.928-1.449c0.883-0.35,1.756-0.791,2.188-1.748c1.063-2.346,3.832-3.912,6.354-3.324
		c1.238,0.288,2.154,0.115,3.063-0.664c1.5-1.291,3.594-1.274,5.211-2.368c0.559-0.381,1.346-0.241,1.432,0.743
		c0.121,1.438,0.729,1.063,1.584,0.527c1.867-1.167,3.967-2.039,4.945-4.235c0,0-0.021-0.071-0.023-0.071
		c1.277-0.401,1.02-1.463,1-2.396c-0.025-1.302,0.553-2.296,1.842-2.313c1.775-0.025,3.711-1.377,5.369,0.474
		c0.199,0.223,0.861,0.146,1.27,0.042c0.561-0.146,1.201-0.664,1.639-0.13c0.682,0.831-0.484,0.788-0.727,1.202
		c-0.129,0.225-0.205,0.567-0.129,0.804c0.369,1.167,3.844,2.186,4.939,1.625c2.162-1.103,3.924-2.662,5.604-4.373
		c0.494-0.505,0.557-1.064,0.445-1.604c-0.182-0.881-0.9-0.503-1.443-0.43c-0.871,0.117-1.666,0.339-2.48,0.8
		c-1.795,1.019-5.193-0.286-5.895-2.099c-0.172-0.442,0.078-0.731,0.434-0.872c2.809-1.103,4.424-4.412,7.93-4.268
		c0.348,0.015,0.822-0.391,1.055-0.728c1.053-1.531,2.553-2.481,4.076-3.473c1.459-0.95,3.447-0.537,4.699-1.953
		c0.088-0.099,0.557,0.082,0.814,0.203c2.797,1.315,4.443,1.022,6.463-1.128c-0.293-0.928-1.957,0.188-1.756-1.044
		c0.145-0.903,1.398-1.009,2.256-1.039c1.145-0.039,2.016-0.366,2.537-1.416c0.152,0.049,0.271,0.009,0.357-0.123
		c0.717,0.163,1.434,0.452,2.15,0.456c1.254,0.007,1.391,0.102,0.943,1.489c-0.627,1.945-2.152,2.256-3.564,2.889
		c-0.744,0.331-1.1,0.847-0.947,1.525c0.141,0.634,0.613,1.202,1.238,1.492c0.838,0.389,0.891-0.514,1.283-0.859
		c0.875-0.771,1.23-1.759,1.502-2.867c0.377-1.544,2.041-1.22,3.068-1.838c0.287-0.171,0.777-0.136,0.936,0.303
		c0.318,0.893-0.736,1.188-0.895,1.896c0.4,0.357,1.115-0.387,1.346,0.356c0.197,0.631-0.271,0.915-0.768,1.154
		c-0.492,0.236-0.967,0.531-0.5,1.174c0.324,0.45,0.775,0.654,1.354,0.566c0.994-0.148,2.684-4.392,2.061-5.198
		c-0.045-0.059-0.113-0.096-0.168-0.146c-0.605-0.599-1.621-1.063-1.078-2.154c0.545-1.097,1.596,0.147,2.51-0.433
		c-0.883-1.302-1.723-2.413-3.514-2.197c-1.576,0.189-3.477-0.347-3.631-1.685c-0.156-1.358,1.816-1.56,3.125-1.652
		c1.082-0.079,1.633-0.361,1.42-1.626c-0.141-0.835-0.34-1.935,0.377-2.532c1.451-1.21,1.4-2.692,1.447-4.367
		c0.047-1.646-0.158-3.966,2.898-3.217c0.646,0.157,1.783-0.331,1.635-1.102c-0.301-1.548,0.184-2.846,0.514-4.279
		c0.465-2.005,0.664-2.236,2.385-1.112c0.395,0.259,0.645,0.954,1.27,0.463c0.529-0.413,0.984-0.878,0.754-1.688
		c-0.316-1.108,0.037-2.002,0.953-2.73c0.32-0.258,0.695-0.745,0.664-1.095c-0.207-2.317,1.113-3.98,2.318-5.694
		c0.301-0.432,0.256-0.781,0.049-1.226c-0.516-1.104-2.105-2.234,0.037-3.357c0.25-0.131-0.117-0.471-0.314-0.688
		c-1.529-1.66,1.66-2.154,0.986-3.771c-0.111-0.269,1.125,0.175,1.75,0.196c0.865,0.029,1.791,0.351,2.494-0.462
		c0.734-0.849-0.076-1.694-0.055-2.552c0.021-0.756-0.965-0.771-1.396-1.251c-0.439-0.488-1.061-0.854-0.842-1.659
		c0.375-1.384,4.209-4.099,5.758-4.063c0.426,0.01,0.951,0.26,1.16-0.29c0.24-0.634-0.389-0.711-0.756-0.848
		c-0.883-0.327-1.479-1.01-2.039-1.674c-1.229-1.464-0.844-3.095,0.914-3.739c0.873-0.319,0.689-0.889,0.543-1.406
		c-0.35-1.229-0.551-2.434,0.928-2.982c1.197-0.442,2.404-0.906,3.498,0.562c0.648,0.871,1.91,0.633,2.895,0.242
		c0.488-0.192,0.426-0.746,0.281-1.177c-0.346-1.035-1.172-1.305-2.129-1.131c-1.736,0.316-3.264-0.998-5.055-0.522
		c-0.666,0.179-0.725-0.492-0.451-1.073c1.344-2.88,2.301-5.792,0.795-8.941c-0.227-0.476,0.059-0.977,0.221-1.479
		c0.484-1.49,1.396-2.653,2.375-3.845c1.537-1.869,1.078-3.32-1.1-3.811c-0.9-0.201-1.508-1.017-1.408-1.484
		c0.445-2.105-0.27-4.153-0.057-6.262c0.176-1.762,1.252-2.738,2.293-3.852c-0.773-0.572-1.451-0.355-2.098-0.396
		c-1.291-0.08-2.578-0.093-1.209-1.955c0.59-0.804-0.307-1.265-0.93-1.648l-0.014-0.012c-0.711-1.23-0.977-2.318,0.982-2.416
		c1.527-0.075,1.328-0.779,0.715-1.694c-0.453-0.675-0.939-1.277-1.66-1.744c-0.666-0.43-2.174-0.458-1.744-1.569
		c0.428-1.113,1.807-0.666,2.809-0.586c0.42,0.034,0.811,0.327,1.229,0.457c1.791,0.559,2.598-1.084,3.758-1.816
		c0.885-0.557-0.219-1.305-0.436-1.897c-0.365-1.006-2.654-1.001-3.879-0.083c-0.447,0.336-0.836,1.194-1.424,0.735
		c-1.672-1.306-3.818-1.609-5.516-2.813c-0.441-0.313-0.83-0.731-0.525-1.304c0.564-1.054-0.221-1.455-0.852-1.955
		c-2.217-1.761-4.057-3.875-5.705-6.16c-0.521-0.724-0.615-1.427,0.014-2.221c0.324-0.409,1.174-0.747,0.775-1.405
		c-0.438-0.718-1.207-0.219-1.842-0.154c-1.889,0.191-4.109,0.328-5.178-1.26c-1.949-2.908-5.072-4.199-7.598-6.277
		c-1.48-1.217-2.432-3.357-4.93-3.293c-0.77,0.021-1.783-0.979-1.031-1.95c1.104-1.431-0.158-1.497-0.857-2.007
		c-3.619-2.641-8.393-0.2-12.029-2.744c-0.049-0.035-0.145,0.002-0.219-0.006c-3.324-0.396-6.768-0.049-9.924-1.524
		c-0.705-0.33-1.83-0.194-1.408-1.682c0.781-2.743,0.695-2.778-2.16-2.669c-0.658,0.027-1.314,0.184-1.977,0.244
		c-2.121,0.194-4.338,0.83-6.338,0.422c-1.844-0.375-3.684-0.533-5.516-0.658c-1.535-0.105-2.895,0.164-2.24-2.169
		c0.211-0.753-0.271-1.582-1.271-1.806c-0.934-0.209-1.854-0.48-2.779-0.716c-1.27-0.319-2.018,0.042-2.041,1.482
		c-0.031,1.821-0.857,1.723-2.096,0.883c-2.033-1.38-4.107-2.324-6.773-1.817c-2.801,0.532-6.072-2.179-6.162-4.758
		c-1.299,0.26-2.617,0.271-2.699,2.219c-0.049,1.195-1.252,1.263-2.254,1.252c-0.963-0.01-1.219-0.543-1.23-1.438
		c-0.037-2.796-1.229-3.564-3.887-2.472c-2.043,0.841-3.785,0.729-5.049-1.329c-1.186,1.188-0.697,4.072-3.359,3.316
		c-0.955-0.272-2.063-0.461-2.938-1.334c-1.021-1.018-0.396-2.131-0.5-3.217c-1.008,0.133-1.643,0.364-2.029,1.29
		c-1.098,2.616-2.555,2.791-4.23,0.466c-0.672-0.938-0.898-2.488-2.207-2.508c-1.178-0.018-2.49,0.305-3.604,0.692
		c-1.061,0.368-1.449,0.366-2.314-0.413c-1.166-1.047,0.123-1.589,0.219-2.325c-0.793-0.224-1.287-0.01-1.557,0.638
		c-0.451,1.079-0.283,2.601-2.125,2.619c-1.248,0.014-2.492,0.275-3.74,0.309c-0.637,0.017-1.662-0.229-1.039-1.094
		c0.906-1.25-0.227-1.158-0.727-1.365c-1.055-0.438-1.949,0.264-2.621,0.398c-0.803,1.117,1.52,1.495,0.27,2.327
		c-0.801,0.531-2.117,0.556-2.781-0.522c-0.734-1.19-1.615-1.035-2.668-0.648c-0.479,0.175-1.314,0.459-1.463,0.273
		c-1.965-2.438-3.768-1.056-5.996-0.278c-2.205,0.77-4.639,0.059-6.441-1.933c-1.313-1.449-4.98-2.164-5.787-1.076
		c-1.871,2.516-4.25,1.449-6.51,1.233c-0.756-0.071-1.629-0.677-0.85-1.483c0.875-0.906,1.033-2.127,1.76-3.027
		c0.963-1.194,1.369-2.999,3.73-2.628c1.143,0.179,2.939-0.835,3.131-2.027c0.123-0.769-0.646-2.12-1.049-3.194
		c-0.092-0.244-0.998-0.021-0.789-0.707c0.16-0.537,0.688-0.385,1.135-0.33c0.943,0.115,1.885,0.056,2.744,0.688
		c0.908,0.669,1.877,0.574,2.754-0.238c-0.543-0.887-1.336-0.759-2.039-0.854c-0.547-0.074-1.09-0.257-1.225-0.803
		c-0.188-0.752,0.561-0.668,0.973-0.908c1.719-1.002,3.438-1.736,5.404-0.625c0.666,0.377,1.111-0.088,1.516-0.545
		c0.471-0.534,0.217-0.725-0.289-1.161c-0.934-0.804-0.41-1.556,0.539-1.962c0.945-0.405,1.924-0.939,2.912-1.004
		c1.967-0.129,3.936-1.574,5.729-0.844c2.582,1.049,4.279-0.09,5.947-1.527c0.771-0.663,1.189-0.829,2.049-0.245
		c1.666,1.135,3.389,1.848,5.557,1.1c1.137-0.393,2.637-0.696,3.578,0.787c0.172,0.269,0.771,0.599,0.9,0.509
		c1.705-1.166,3.24,0.272,4.857,0.275c0.719,0.001,1.842-0.505,2.033,0.67c0.146,0.872-0.205,1.751-1.375,1.93
		c-0.572,0.086-0.859,0.588-0.814,1.155c0.035,0.427,0.445,0.651,0.813,0.581c1.939-0.381,3.33,1.044,5.016,1.494
		c0.85,0.227,1.734,0.854,2.436-0.018c0.568-0.707,0.6-1.514,0.451-2.58c-0.191-1.371-0.848-3.345,1.02-4.354
		c2.398-1.295,4.109-0.737,5.957,1.213c1.387,1.463,2.547,3.267,4.637,3.981c0.918,0.314,1.02,1.054,0.352,1.744
		c-0.873,0.9-1.762,1.762-3.209,1.707c-1.92-0.072-3.846,0.012-5.768-0.016c-0.646-0.009-1.283,0.088-1.482,0.705
		c-0.26,0.818,0.578,0.821,1.043,1.128c1.375,0.909,3.689-0.028,4.445,2.251c0.039,0.12,1.391-0.564,1.816-1.236
		c0.314-0.496,0.447-1.229,1.109-1.263c2.414-0.127,4.645-2.116,7.258-0.582c0.73,0.427,1.984,0.197,2.123-0.909
		c0.109-0.846-0.148-1.92-1.316-2.238c-0.5-0.137-0.986-0.316-1.488-0.443c-1.293-0.327-1.77-0.76-0.668-2.021
		c1.395-1.592,0.963-2.437-0.936-3.393c-1.021-0.515-2.432,0.029-2.873-0.537c-0.977-1.248-2.889-1.908-2.799-3.937
		c0.021-0.468,0.146-1.335-0.441-1.329c-3.465,0.029,0.016-1.385-0.434-1.95l0.15,0.013c0.66,0.997,1.918,1.271,2.619,2.273
		c0.729,1.043,1.68,1.518,3.053,0.783c1.254-0.67,2.17-0.131,2.318,1.337c0.084,0.81,0.553,1.394,1.055,1.899
		c0.99,0.996,2.092,0.385,3.076-0.056c1.004-0.451,0.633-1.149,0.123-1.791c-0.531-0.667,0.254-0.296,0.313-0.319
		c2.469-0.964,3.633-0.186,3.828,2.567c0.098,1.351,0.609,2.496,1.863,3.037c0.859,0.372,1.479,0.804,1.953,1.643
		c1,1.765,3.209,0.65,4.578,1.778c0.604,0.496,0.9-0.73,1.367-0.759c1.875-0.113,2.908-2.75,5.135-1.671c0,0,0.145-0.008,0.146-0.01
		c0.313,0.9,0.6,1.812,0.941,2.698c0.225,0.577,1.289,0.892,0.842,1.626c-1.486,2.434,0.412,1.997,1.639,1.93
		c1.16-0.063,2.236,0.241,3.207,0.693c1.02,0.477,1.969,0.809,3.113,0.329c-0.219,1.245-2.096,0.907-1.771,2.108
		c0.219,0.816,1.334,0.848,2.123,0.861c3.15,0.053,5.867,0.95,7.818,3.606c0.525,0.715,1.594,0.962,2.195,0.729
		c2.5-0.961,4.783-0.268,7.271,0.104c2.043,0.305,3.791,0.651,5.422,1.877c1.088,0.817,2.199,1.465,0.525,2.803
		c-0.438,0.351-0.668,1.025-0.262,1.605c0.137,0.192,0.631,0.392,0.734,0.308c1.15-0.93,2.947-0.416,4.004-1.744
		c-0.438-0.717-1.877-0.574-1.57-1.628c0.26-0.887,0.84-1.702,1.902-2c0.805-0.224,1.645-0.368,2.402-0.144
		c1.119,0.332,2.563,0.326,3.313,0.854c1.65,1.17,3.35,2.182,5.137,3.111c0.643,0.336,0.5,1.184,0.279,1.834
		c-0.311,0.918,0.105,1.352,0.939,1.195c1.541-0.287,2.877,0.514,4.33,0.644C580.094,108.384,580.313,108.581,580.53,108.777z
		 M568.315,288.72c1.115-0.658,2.006-1.479,2.094-2.882c0.037-0.583,0.205-1.216-0.424-1.604c-0.615-0.383-1.24-0.081-1.641,0.289
		c-1.383,1.293-2.395,1.225-3.18-0.589c-0.152-0.354-0.563-0.449-1.008-0.078c0.434,0.688,1.174,1.409,0.016,2.154
		c-0.688,0.441-0.314,0.864,0.207,1.15c0.883,0.48,1.654,1.187,2.848,0.569C567.968,287.349,568.792,287.463,568.315,288.72z
		 M631.307,237.584c2.287,1.097,4.801,0.769,6.879,2.037c0.398,0.244,1.346,0.176,1-0.53c-0.672-1.382,0.596-1.541,1.004-2.272
		c0.486-0.869,2.209-1.771,0.674-2.931c-1.1-0.828-1.072-1.564-0.617-2.597c0.586-1.321,0-2.518-1.23-2.428
		c-2.191,0.162-4.625-0.483-6.539,1.201c-0.949,0.837-1.924,1.036-3.008,0.344c-0.689-0.439-1.592-1.605-2.123-0.609
		c-0.492,0.924,0.07,2.422,1.207,3.028c1.057,0.565,2.643,0.632,3.354-0.128c1.49-1.587,2.912-0.898,4.434-0.476
		c0.787,0.219,1.736,0.464,1.398,1.566c-0.277,0.91-1.104,1.608-2.047,1.306C633.274,234.316,632.171,235.623,631.307,237.584z
		 M464.759,92.796c-0.041-0.646,0.541-1.281-0.143-1.875c-1.59-1.381-5.018-1.416-6.857-0.133c-1.09,0.754-2.283,1.573-3.355-0.045
		c-0.393-0.592-0.691-0.31-1.035-0.009c-1.225,1.068-1.223,2.636,0.107,3.593c2.318,1.674,5.025,2.746,7.213,4.637
		c0.113,0.097,0.504,0.076,0.584-0.028C462.727,97.054,465.085,95.667,464.759,92.796z M199.706,345.43
		c-0.486,1.484-1.215,2.315-2.64,2.641c-1.271,0.287-2.555,0.813-3.378,1.957c-0.707,0.981-1.59,1.505-2.824,1.336
		c-1.381-0.188-1.609,0.834-1.688,1.787c-0.078,0.969,0.521,1.527,1.521,1.433c1.581-0.146,1.932,0.53,1.175,1.796
		c-0.678,1.132,0.314,1.299,0.779,1.113c1.244-0.489,2.854-0.8,3.315-2.214c1.43-4.382,5.509-5.515,8.729-7.565
		C200.998,347.198,200.98,347.19,199.706,345.43z M190.741,360.547c-1.149-0.365-2.102,0.154-2.75-0.561
		c0.18-0.614,0.583-0.574,0.932-0.616c0.625-0.073,1.471,0.138,1.398-0.916c-0.069-1.044-0.921-0.729-1.523-0.741
		c-0.729-0.016-1.436,0.063-2.165,0.288c-2.876,0.896-3.157,1.469-1.405,3.813c0.803,1.073,0.432,1.561-0.584,1.961
		c-1.082,0.426-1.892,1.067-2.194,2.277c-0.299,1.192-0.882,2.138-2.302,2.314c-0.784,0.099-0.978,0.815-1.039,1.506
		c-0.054,0.597,0.233,0.986,0.815,1.142c1.46,0.386,3.062-0.129,4.454,0.688c0.542-1.117,1.088-2.23,1.623-3.352
		c0.094-0.196,0.164-0.408,0.214-0.62C186.872,364.955,187.583,362.214,190.741,360.547z M59.511,314.508
		c2.163-0.938,3.746-0.947,4.845,0.604c0.742,1.05,1.665,1.581,2.957,1.665c0.725,0.047,1.485,0.372,1.935,0.987
		c1.237,1.699,2.731,1.52,4.282,0.623c1.68-0.974,2.587-2.429,2.208-4.424c-0.146-0.777-0.45-1.882-1.259-1.901
		c-1.646-0.043-2.566-0.628-2.936-2.243c-0.121-0.529-0.714-0.703-1.288-0.619c-0.401,0.061-0.731,0.288-0.82,0.653
		c-0.149,0.605,0.481,0.617,0.792,0.878c0.501,0.423,1.15,0.817,0.774,1.628c-0.355,0.766-1.123,1.041-1.852,1.011
		c-2.552-0.104-5.094,0.596-7.649,0.044C60.998,313.306,60.338,312.992,59.511,314.508z M211.295,360.396
		c-1.296-1.806-1.292-4.303-2.657-6.235c-0.305-0.432-0.231-1.33,0.354-1.837c0.397-0.344,0.906-0.604,0.468-1.234
		c-0.346-0.497-0.851-0.483-1.391-0.449c-1.59,0.098-2.519,1.381-2.588,3.173c-0.11,2.796,0.707,5.902-2.292,7.892
		c-0.345,0.229-0.644,0.676-0.356,1.162c0.376,0.644,1.043,0.543,1.597,0.441C206.874,362.86,209.379,362.539,211.295,360.396z
		 M186.774,352.995c1.02-0.215,1.278-0.866,1.027-1.68c-0.26-0.838-0.831-1.599-0.985-2.443c-0.269-1.465-0.998-1.925-1.788-0.613
		c-1.167,1.934-2.185,3.631-4.514,4.632c-0.968,0.416-1.047,2.913-3.143,2.938c-0.339,0.006-0.684,0.403-0.629,0.809
		c0.221,1.59,1.371,2.563,2.727,2.848c1.563,0.328,1.64-0.919,1.591-2.17c-0.054-1.347-0.324-2.986,1.967-2.813
		c0.796,0.058,0.805-0.674,0.958-1.248c0.417-1.566,1.024-2.605,2.434-0.676C186.532,352.736,186.672,352.877,186.774,352.995z
		 M535.286,104.3c1.947,0.349,2.457-0.902,2.65-2.021c0.242-1.399-1.027-1.1-1.85-1.134c-1.252-0.052-2.504-0.343-3.701-0.4
		c-1.873-0.092-3.322-1.806-5.271-1.15c-0.402,0.135-0.973,0.314-1.094,0.621c-0.246,0.625,0.42,0.945,0.85,1.076
		c1.418,0.429,2.23,1.308,2.59,2.74c0.207,0.834,0.867,1.34,1.676,0.768C532.575,103.776,533.938,102.835,535.286,104.3z
		 M607.669,228.677c0.293,0.022,0.594,0.021,0.881,0.076c1.385,0.264,1.854-0.384,1.875-1.695c0.02-1.534-0.832-1.05-1.732-0.971
		c-1.314,0.114-2.668,0.136-3.963-0.067c-1.541-0.241-2.242,1.229-3.521,1.461c-0.26,0.046-0.309,0.604-0.004,0.708
		c1.146,0.386,2.191,1.57,3.48,0.911C605.692,228.582,606.643,228.595,607.669,228.677z M110.882,313.687
		c2.126,0.004,3.969-0.593,5.169-2.409c0.646-0.975,0.768-2.005-0.738-2.337c-1.635-0.361-4.899,1.326-5.626,2.815
		C109.04,313.082,109.531,313.661,110.882,313.687z M294.208,367.678c-1.61,0.683-3.25,0.618-4.816,0.917
		c-2.146,0.405-2.432,1.185-1.185,3.062c0.604,0.907,0.693,1.855,0.749,3.122C291.702,373.022,291.54,369.405,294.208,367.678z
		 M650.436,189.156c-0.455-0.831-1.168-2.319-2.484-2.362c-1.645-0.051-2.41,1.905-2.299,3.029c0.111,1.113,1.559,2.094,2.428,3.125
		c0.023,0.029,0.182,0.006,0.207-0.035C648.995,191.802,650.596,191.275,650.436,189.156z M615.684,213.266
		c-0.16-0.964-0.9-1.571-1.916-1.665c-0.984-0.094-2.064,0.216-2.207,1.346c-0.141,1.094-0.313,2.01-1.373,2.54
		c-0.459,0.229-0.625,0.616-0.467,1.095c0.162,0.49,0.633,0.597,1.057,0.689C611.94,217.528,615.665,214.582,615.684,213.266z
		 M502.903,99.499c-0.156-0.166-0.318-0.426-0.551-0.574c-1.121-0.715-2.365-1.457-3.656-0.787
		c-1.609,0.835-2.484,2.414-3.115,4.074c-0.127,0.332,0.18,0.705,0.547,0.855c0.516,0.213,1.141,0.217,1.391-0.273
		c0.91-1.779,2.727-1.783,4.273-2.32C502.268,100.308,502.819,100.253,502.903,99.499z M338.686,358.088
		c0.004-0.543-0.16-0.912-0.539-1.014c-0.998-0.262-2.098-0.154-2.572,0.77c-0.885,1.725-2.498,1.916-4.046,2.352
		c-0.417,0.116-1.205-0.337-1.129,0.579c0.07,0.864,0.814,1.109,1.478,0.939c2.312-0.595,4.355-1.8,6.373-3.023
		C338.477,358.554,338.585,358.23,338.686,358.088z M264.868,379.032c-0.808-1.104-1.554-2.352-2.54-3.361
		c-0.423-0.437-1.303,0.1-1.289,0.718c0.024,1.023-0.553,1.376-1.267,1.798c-0.41,0.242-1.102,0.592-0.855,1.122
		c0.39,0.847,0.94,0.148,1.428-0.071c0.978-0.44,1.436,0.438,2.09,0.838c0.571,0.353,1.176,0.65,1.832,0.14
		C264.63,379.926,264.893,379.594,264.868,379.032z M35.459,268.271c-0.931,0.044-1.299,0.05-1.663,0.081
		c-0.636,0.057-1.471-0.15-1.716,0.634c-0.271,0.861,0.541,1.352,1.09,1.742c0.959,0.686,2.08,1.063,3.302,1.031
		c0.791-0.022,1.625,0.169,1.84-1.003c0.209-1.146-0.239-1.897-1.252-2.247C36.386,268.276,35.628,268.293,35.459,268.271z
		 M117.511,340.087c1.106-0.121,2.454,0.109,2.389-1.39c-0.054-1.202-0.373-2.445-1.9-2.906c-1.479-0.444-1.496,0.729-1.953,1.48
		c-0.147,0.243-0.376,0.446-0.597,0.636c-1.387,1.2-0.964,1.771,0.661,1.955C116.617,339.922,117.12,340.023,117.511,340.087z
		 M214.814,380.248c0.146,0,0.296-0.015,0.44,0.002c1.666,0.191,2.211-1.09,2.504-2.237c0.289-1.138-0.674-2.322-1.464-2.684
		c-1.361-0.619-0.917,1.299-1.668,1.785c-0.345,0.225-0.514,0.706-0.788,1.052c-0.363,0.457-0.884,0.899-0.598,1.54
		C213.54,380.372,214.261,380.13,214.814,380.248z M30.126,229.096c1.335-0.17,2.644-0.833,3.907-1.535
		c0.48-0.266,0.839-0.922,0.559-1.53c-0.307-0.665-0.978-0.573-1.549-0.4c-1.328,0.397-2.711,0.687-3.804,1.637
		c-0.423,0.368-0.623,0.82-0.398,1.371C29.056,229.168,29.56,229.025,30.126,229.096z M89.335,299.849
		c-0.008,0.087,0.026,0.322-0.052,0.511c-0.999,2.442,0.459,2.063,1.917,1.677c0.567-0.146,1.133-0.308,1.691-0.481
		c0.404-0.127,0.935-0.172,0.923-0.761c-0.013-0.571-0.456-0.692-0.928-0.723c-0.877-0.056-1.486-0.568-2.068-1.159
		c-0.494-0.499-0.942-1.484-1.732-0.987C88.429,298.338,89.156,299.109,89.335,299.849z M481.493,328.389
		c-0.436-0.858-0.178-2.563-1.57-2.448c-1.537,0.122-2.633,1.612-3.295,2.874c-0.199,0.382,1.867,1.106,2.93,1.313
		C480.448,330.303,481.387,329.665,481.493,328.389z M288.388,362.743c-1.615,0.37-3.104,0.784-3.314,2.553
		c-0.072,0.593,0.195,1.853,1.103,1.481c1.301-0.53,3.107-0.68,3.563-2.323C289.954,363.674,289.412,362.729,288.388,362.743z
		 M117.778,349.925c1.558-0.39,3.47-0.318,4.313-2.323c0.15-0.36,0.271-0.701-0.019-1.016c-0.32-0.347-0.692-0.171-1.001,0.022
		c-1.181,0.745-2.427,1.313-3.767,1.729c-0.466,0.145-1.386,0.205-1.182,1.007C116.29,350.002,117.069,349.896,117.778,349.925z
		 M611.635,158.126c-0.063,0.808,0.381,1.498,0.729,2.227c0.373,0.775,0.875,0.775,1.328,0.175c0.785-1.04,0.971-2.446,1.979-3.372
		c0.064-0.058-0.055-0.49-0.18-0.547c-1.02-0.467-1.994-0.023-2.988,0.198C611.776,156.971,611.546,157.397,611.635,158.126z
		 M24.348,242.868c0.932-0.099,1.769-0.495,1.77-1.688c0.001-1.482-1.318-2.078-2.313-2.231c-0.939-0.144-1.49,1.062-1.486,2.042
		C22.323,242.153,22.94,242.91,24.348,242.868z M638.958,241.945c-0.961-0.195-2.299-0.416-2.186,0.905
		c0.098,1.161,1.354,2.123,2.561,2.396c1.555,0.354,1.5-1.255,1.678-2.063C641.438,241.222,639.735,242.246,638.958,241.945z
		 M643.977,201.673c-0.086,1.063,0.184,1.675,1.201,1.553c1.02-0.124,2.096-0.527,1.848-1.712c-0.203-0.964-0.213-2.724-1.434-2.61
		C644.401,199.014,643.905,200.517,643.977,201.673z M10.894,248.403c0.739-0.2,1.11-0.956,1.541-1.619
		c0.25-0.385,0.296-0.845-0.271-1.071c-1.099-0.442-1.968-1.201-2.803-2.012c-0.435-0.42-0.863-0.483-1.335-0.026
		c-0.479,0.465-0.372,0.886,0,1.342c0.729,0.896,1.662,1.648,1.854,2.909C9.94,248.308,10.347,248.448,10.894,248.403z
		 M608.837,137.911c-1.416-0.416-2.861-1.584-4.061,0.041c-0.49,0.663,0.189,1.434,0.674,1.687
		C607.225,140.566,607.706,138.571,608.837,137.911z M51.715,290.152c0.92,1.271,2.158,1.604,3.265,2.084
		c0.849,0.37,1.584-0.07,1.916-0.941c0.158-0.416,0.087-1.048-0.459-1.021C54.941,290.341,53.457,289.705,51.715,290.152z
		 M7.004,236.024c-0.938,0.16-2.304,0.077-0.967,1.582c0.643,0.725,0.557,1.021-0.355,1.338c-0.648,0.229-0.833,0.866-0.407,1.456
		c0.371,0.516,0.621,1.343,1.393,1.277c0.841-0.071,0.606-0.9,0.617-1.425c0.02-0.897,0.666-1.471,1.041-2.149
		C9.228,236.464,8.317,236.176,7.004,236.024z M235.518,369.682c-1.276-0.982-1.99-2.469-3.664-1.67
		c-0.541,0.258-0.931,0.978-0.364,1.668C232.648,371.092,233.901,370.527,235.518,369.682z M84.921,298.579
		c-0.016-0.728-0.222-1.279-0.831-1.215c-1.194,0.129-1.702,0.999-1.779,2.116c-0.053,0.734,0.397,1.497,1.025,1.427
		C84.705,300.754,84.194,299.146,84.921,298.579z M623.427,162.587c-0.404,0.615-1.578,0.703-1.535,1.767
		c0.025,0.672,0.746,0.833,1.348,0.765c0.783-0.087,1.725-0.138,1.68-1.25C624.889,163.15,624.321,162.762,623.427,162.587z
		 M621.802,222.298c1.301-0.058,1.527-1.232,1.729-2.301c0.148-0.775-0.205-1.66-1.078-1.615c-1.324,0.067-1.682,1.251-1.867,2.347
		C620.456,221.479,620.536,222.256,621.802,222.298z M386.911,368.039c-1.744-2.593-1.867-2.63-3.932-1.085
		C384.415,367.147,385.286,368.428,386.911,368.039z M522.885,315.871c1.178-0.801,2.252,0.133,3.355,0.196
		c0.697,0.042,1.25-0.198,1.303-0.835c0.078-0.941-0.77-0.592-1.246-0.632C525.026,314.493,524.05,315.365,522.885,315.871z
		 M297.35,355.86c-0.108-0.503-0.354-1.162-1.024-1.053c-0.869,0.143-1.535,0.906-1.717,1.679c-0.162,0.687,0.53,1.099,1.297,1.075
		C296.948,357.532,297.196,356.806,297.35,355.86z M140.143,328.198c-0.181-0.5-0.415-1.039-1.035-0.93
		c-0.666,0.118-1.295,0.449-1.187,1.313c0.081,0.636,0.592,0.863,1.126,0.816C139.708,329.339,140.054,328.857,140.143,328.198z
		 M350.753,355.102c-0.814,0.131-1.059,0.684-1.004,1.423c0.033,0.43,0.035,0.93,0.717,0.786c0.834-0.177,1.266-0.706,1.232-1.549
		C351.68,355.185,351.227,355.105,350.753,355.102z M589.897,274.57c-0.863,0.044-1.301,0.283-1.201,0.923
		c0.088,0.575,0.541,0.84,1.109,0.788c0.549-0.052,1.004-0.3,0.918-0.948C590.643,274.713,590.165,274.563,589.897,274.57z
		 M195.634,361.394c-1.163-0.092-2.052-0.252-3.045,0.455C193.76,362.84,194.647,363.117,195.634,361.394z M559.247,285.308
		c-0.619-0.01-1,0.338-0.938,0.912c0.055,0.537,0.588,0.544,1.023,0.521c0.539-0.022,1.137-0.223,1.105-0.789
		C560.403,285.384,559.747,285.353,559.247,285.308z M459.753,335.546c-0.646,0.002-0.926,0.443-0.957,1.102
		c-0.018,0.366,0.033,0.833,0.506,0.75c0.611-0.109,0.9-0.703,1.131-1.213C460.647,335.702,460.225,335.599,459.753,335.546z
		 M370.956,360.113c0.57-0.015,0.715-0.502,0.814-1.001c0.076-0.384-0.021-0.801-0.484-0.715c-0.557,0.104-1.111,0.379-1.119,1.088
		C370.161,359.914,370.475,360.084,370.956,360.113z M242.193,363.867c-0.207-0.297-0.271-0.814-0.848-0.75
		c-0.563,0.064-0.627,0.545-0.593,0.984c0.031,0.415,0.06,0.958,0.694,0.846C241.948,364.859,241.988,364.342,242.193,363.867z
		 M620.54,215.891c-0.18-0.479-0.611-0.58-1.031-0.561c-0.424,0.021-0.6,0.426-0.574,0.771c0.041,0.622,0.547,0.533,0.961,0.473
		C620.262,216.522,620.587,216.374,620.54,215.891z M558.421,289.705c0.141,0.418,0.404,0.625,0.807,0.606
		c0.504-0.024,0.805-0.356,0.848-0.805c0.053-0.544-0.309-0.544-0.674-0.328C559.077,289.368,558.469,289.074,558.421,289.705z
		 M634.081,176.626c-0.1-0.471-0.482-0.486-0.848-0.483c-0.467,0.003-0.949,0.142-0.98,0.67c-0.031,0.573,0.404,0.737,0.904,0.603
		C633.569,177.304,634.034,177.206,634.081,176.626z"/>
	<path fill="#13B994" d="M346.032,26.237c-2.848-0.242-5.412-1.04-7.359-3.804c1.252,3.333-2.313,3.346-3.208,5.228
		c-0.354,0.742-1.721,1.184-2.327,0.725c-0.782-0.59-0.484-1.717,0.158-2.582c-1.325-0.814-2.853-0.34-4.252-0.659
		c-0.78-0.179-1.213,0.174-1.306,1.051c-0.083,0.784-0.566,1.484-1.431,1.415c-1.015-0.081-0.67-0.992-0.656-1.587
		c0.021-0.915-0.271-1.431-1.255-1.36c-0.713,0.049-1.233-0.164-1.684-0.803c-0.497-0.708-1.342-0.729-1.975-0.232
		c-0.839,0.66-0.036,1.321,0.21,1.961c0.05,0.132,0.174,0.238,0.271,0.35c2.027,2.326,1.985,2.563-0.406,4.566
		c-0.95,0.795-1.898,0.52-2.161-0.381c-0.438-1.506-1.568-2.646-1.843-4.222c-0.372-2.132-1.861-2.802-3.832-1.854
		c-0.788,0.38-1.577,0.627-2.208-0.156c-0.979-1.215-1.977-0.661-2.557,0.181c-0.732,1.066,0.141,1.503,1.136,1.776
		c0.831,0.229,1.33,0.933,1.625,1.714c0.233,0.62,0.454,1.335-0.061,1.89c-0.5,0.541-1.153,0.231-1.618-0.097
		c-1.052-0.743-2.885,0.033-3.393-1.903c-0.151-0.576-1.035,0.049-1.563,0.243c-0.785,0.292-1.396,0.438-2.136-0.378
		c-2.853-3.145-2.285-2.209,1.194-5.643c-1.926-0.295-3.49-0.04-4.299,1.832c-0.291,0.668-0.691,1.087-1.285,1.435
		c-0.737,0.431-0.524,1.155-0.431,1.802c0.115,0.791,0.723,0.785,1.349,0.795c0.7,0.012,1.721-0.178,1.604,0.936
		c-0.099,0.949-1.063,1.32-1.876,1.109c-2.231-0.58-3.498,0.939-4.544,2.287c-0.912,1.176-1.973,2.323-2.633,3.657
		c-0.543,1.099-1.43,1.285-2.155,0.912c-1.647-0.849-3.428-1.649-4.527-3.237c-1.244-1.793-2.543-3.402-4.953-3.488
		c-0.589-0.021-0.87-0.489-1.272-0.803c-1.185-0.928-2.377-1.369-3.469,0.16c-0.806,1.127-1.854,0.737-2.74,0.252
		c-0.929-0.509-0.396-1.08,0.209-1.508c0.581-0.41,0.102-0.572-0.182-0.734c-1.074-0.615-2.064-1.438-3.467-1.11
		c-1.356,0.317-2.629,0.075-3.771-0.786c-0.874-0.659-1.896-0.688-2.003,0.504c-0.084,0.939-1.936,1.855,0.11,3.084
		c1.903,1.143,3.702,2.498,5.681,3.564c1.385,0.746,2.681,0.983,3.772-0.363c0.479-0.592,0.476-1.77,1.545-1.6
		c1.421,0.225,3.072,0.032,4.156,1.09c0.711,0.695,2.082,1.209,1.462,2.871c-0.263,0.696,0.635,1.457,1.591,1.399
		c2.498-0.149,3.87,1.99,5.867,2.856c0.471,0.203,1.055,0.818,0.661,1.455c-0.4,0.651-0.953,0.285-1.523-0.012
		c-1.31-0.678-2.501-1-3.45,0.762c-0.647,1.205-1.813,0.691-2.704,0.059c-1.593-1.131-3.079-1.412-4.476,0.293
		c-0.499,0.607-1.118,0.577-1.81,0.29c-1.279-0.534-2.449,0.241-3.661,0.433c-0.753,0.12-1.126,0.651-0.488,1.446
		c0.381,0.476,0.677,1.235-0.025,1.526c-1.639,0.678-2.855-0.713-4.241-1.196c-0.865-0.302-1.304-1.164-0.386-2.122
		c0.537-0.561,0.081-0.943-0.493-1.098c-0.504-0.137-1.004-0.096-1.512,0.13c-3.656,1.61-3.683,1.621-6.007-1.55
		c-1.146-1.563-2.969-2.737-2.119-5.334c0.31-0.944-1.921-0.909-2.477-1.979c-0.637,0.497-0.447,1.073-0.512,1.56
		c-0.378,2.879-0.367,2.893-3.338,2.356c-0.646-0.117-1.173,0.112-1.669,0.433c-0.499,0.322-0.939,0.746-1.707,0.527
		c-0.66-0.533,1.002-1.504-0.197-1.927c-0.541-0.19-1.249-0.162-1.567,0.481c-0.546,1.102-1.431,2.162-0.789,3.519
		c0.15,0.319,0.52,0.53,0.712,0.84c0.79,1.269,0.381,1.938-1.074,2.022c-0.59,0.035-1.192-0.039-1.773,0.051
		c-1.723,0.263-2.572,2.027-1.389,3.265c1.178,1.229,2.277,2.71,4.144,3.114c0.781,0.17,1.824,0.373,1.599,1.441
		c-0.207,0.978-1.272,0.748-2.053,0.904c-0.9,0.18-1.672-0.707-2.608-0.23c-0.072,0.834,0.597,1.431,1.118,1.379
		c2.033-0.203,4.313,1.462,6.109-0.822c0.558-0.709,1.5-0.366,2.312-0.251c1.625,0.231,3.385,1.269,4.579-0.995
		c0.313-0.596,1.503-0.636,1.928,0.086c0.469,0.801,0.308,1.932-0.608,2.329c-2.622,1.136-5.306,2.142-8.008,3.075
		c-0.607,0.21-1.348,0.063-1.701,0.77c-0.382,0.767-0.708,0.592-1.493,0.391c-0.933-0.24-2.27,0.08-3.078,0.654
		c-0.853,0.603-1.178,0.428-1.816-0.121c-1.489-1.277-3.097-2.287-5.168-1.278c-0.59,0.286-1.153,0.254-1.679-0.118
		c-0.708-0.502-1.585-0.715-2.328-0.55c-2.306,0.513-4.568-0.293-7.003,0.356c-3.021,0.805-6.277,0.07-9.405-1.008
		c-2.526-0.873-5.304-1.09-7.992-1.39c-0.881-0.099-1.708-0.157-2.554-0.478c-1.097-0.414-2.12-0.097-2.633,0.993
		c-0.526,1.12,0.362,1.642,1.203,1.979c1.945,0.785,2.839,3.002,4.951,3.566c0.493,0.133,0.417,0.729,0.434,1.163
		c0.036,0.935,0.563,1.412,1.328,1.704c0.847-0.861-1.713-1.938,0.328-2.502c1.954-0.542,4.282,0.268,4.687,1.536
		c0.259,0.815-2.028,3.133-3.043,2.694c-2.021-0.873-4.551-0.397-6.146-1.932c-1.558-1.496-3.243-1.477-5.09-1.539
		c-1.195-0.039-2.163,0.396-3.077,1.049c-0.692,0.496-1.835,0.916-1.466,1.936c0.381,1.048,1.466,1.954,2.604,1.68
		c1.876-0.453,3.015,1.012,4.56,1.356c0.521,0.116,1.008,0.7,0.938,1.374c-0.081,0.789-0.797,0.89-1.348,0.832
		c-2.739-0.282-5.162,0.174-7.104,2.369c-0.348,0.392-1.351,0.422-1.648-0.449c-0.698-2.034-2.414-2.073-3.781-1.417
		c-1.399,0.671-2.634,0.42-3.971,0.354c-1.677-0.082-3.34-0.416-4.979,0.511c-0.795,0.448-1.718-0.006-1.607-1.115
		c0.176-1.779-0.378-3.762,1.623-5.299c-1.58-0.258-2.56-0.424-3.569,0.844c-1.44,1.806-3.838,1.22-5.813,1.626
		c-2.527,0.521-3.068,1.368-2.037,3.868c0.299,0.725,1.281,1.359,0.188,2.313c-0.576,0.502,0.228,0.692,0.543,0.821
		c0.487,0.199,0.819,0.234,1.115-0.52c1.027-2.621,4.714-3.683,6.873-1.971c0.94,0.746,2.061,0.758,3.049,1.232
		c0.661,0.316,1.129,0.736,1.205,1.455c0.086,0.816-0.523,1.229-1.159,1.429c-1.622,0.508-2.769,1.346-2.855,3.22
		c-0.014,0.27-0.434,0.707-0.71,0.747c-2.332,0.337-2.996,2.706-4.711,3.813c-1.146,0.74-0.284,1.373,0.466,2.022
		c0.679,0.586,2.241,0.05,2.131,1.283c-0.123,1.358-1.284,1.858-2.656,1.724c-0.493-0.05-0.754,0.241-0.945,0.731
		c-0.634,1.614-2.19,1.792-3.594,2.235c-0.751,0.238-2.466-1.189-2.104,1.172c0.04,0.261-0.653,0.328-0.968,0.123
		c-1.766-1.143-4.021-0.769-5.896-2.07c0.855-0.48,2.313-0.002,2.654-1.578c-1.724-0.086-3.411-0.818-4.742,1.064
		c-0.521,0.736-1.517,0.348-2.306,0.197c-0.918-0.173-1.675,0.09-2.024,0.948c-0.408,0.996,0.497,1.356,1.131,1.567
		c2.091,0.695,3.067,2.748,4.842,3.816c0.625,0.376,0.513,0.852-0.104,1.172c-1.19,0.619-2.71,0.616-3.178-0.507
		c-1.17-2.81-2.876-1.308-4.451-0.841c-0.493,0.146-0.962,0.432-1.477,0.316c-1.638-0.367-2.96,0.399-3.502,1.699
		c-0.643,1.541-2.196,1.771-3.085,2.858c-0.445,0.546-0.944,0.215-1.367-0.104c-0.482-0.365-0.625-0.879-0.233-1.353
		c1.307-1.578,1.142-2.843-0.642-3.933c-0.558-0.34-0.526-1.025-0.453-1.627c0.147-1.228-0.483-1.512-1.583-1.49
		c-2.32,0.045-2.517,0.3-1.471,2.334c0.336,0.654,0.469,1.327-0.128,1.822c-1.141,0.945-0.46,1.281,0.449,1.584
		c0.56,0.186,1.136,0.324,1.692,0.52c0.425,0.15,0.848,0.389,0.913,0.874c0.09,0.662-0.469,0.806-0.931,1.054
		c-2.337,1.252-2.325,1.256-0.255,3.082c0.256,0.227,0.503,0.572,0.556,0.896c0.309,1.851-2.923,5.513-4.876,5.437
		c-1.397-0.054-2.386-0.117-2.313,1.85c0.049,1.304-1.7,2.031-2.845,1.334c-2-1.219-3.604-1.945-5.723,0.316
		c-0.794,0.85-2.39,2.809-4.545,1.848c-0.53-0.236-1.042,0.191-1.122,0.779c-0.121,0.885-0.695,1.238-1.664,1.492
		c0.938,0.786,2.047,1.321,2.521,2.199c0.729,1.348-1.13,1.346-1.818,2.492c1.139,0,2.039-0.018,2.938,0.005
		c0.682,0.017,1.453,0.094,1.574,0.907c0.12,0.795-0.727,1.008-1.208,1.004c-4.265-0.028-6.679,3.336-9.804,5.347
		c-1.029,0.663-1.522,2.229-0.879,3.312c1.104,1.86,0.014,2.389-1.315,2.929c-0.894,0.362-1.832,0.624-2.817,0.481
		c-0.732-0.104-1.016-0.234-1.435,0.842c-0.468,1.201-2.134,1.959-3.514,2.513c-0.521,0.209-1.3,0.153-1.519-0.537
		c-0.205-0.647,0.521-0.737,0.917-1.012c0.502-0.349,0.917-0.781,0.731-1.478c-0.188-0.703-0.832-0.803-1.383-0.949
		c-3.162-0.842-4.69,0.188-5.51,3.619c-0.22,0.922-0.406,1.898-0.866,2.703c-0.426,0.744-0.304,1.174,0.186,1.752
		c1.028,1.219,0.886,2.012-0.806,2.496c-0.995,0.284-1.996,0.43-2.947,0.489c-0.214,0.608,0.096,0.812,0.438,0.97
		c1.759,0.811,0.968,1.434-0.149,2.019c-0.523,0.274-1.073,0.501-1.602,0.772c-0.393,0.204-1.032,0.379-1.105,0.68
		c-0.501,2.045-1.215,3.9-3.258,4.904c1.593,2.299-0.054,3.561-1.282,5.329c-1.151,1.661-1.869,2.447-3.715,1.419
		c-0.448-0.25-0.941-0.533-1.232-0.932c-0.722-0.991-1.525-1.816-2.651-0.741c-0.994,0.95-1.959,2.087-1.038,3.66
		c0.221,0.377,0.411,0.782,0.688,1.115c0.409,0.493,0.703,1.043,0.288,1.585c-0.41,0.535-0.925,0.117-1.397-0.077
		c-0.817-0.338-1.724-0.231-1.504,0.802c0.466,2.189-0.875,3.059-2.396,3.922c-0.447,0.256-0.91,0.502-1.313,0.817
		c-0.764,0.598-2.294,0.608-2.086,1.958c0.17,1.105,1.522,0.967,2.354,1.372c0.376,0.184,1.036,0.151,0.964,0.714
		c-0.16,1.255-1.425,1.955-1.623,3.313c-0.252,1.707-1.597,1.412-2.943,1.299c-1.167-0.098-2.688-0.907-3.354,1.299
		c-0.329,1.084-1.71,0.542-2.218-0.445c-0.352-0.681-0.65-1.178-1.462-0.928c-0.549,0.169-1.252,0.3-1.386,0.956
		c-0.147,0.731,0.598,0.942,1.052,1.271c0.722,0.523,1.153,1.219,1.048,2.081c-0.265,2.13,1.188,1.945,2.397,1.683
		c3.005-0.654,4.271-0.184,6.079,2.832c-2.195-0.732-3.604,0.158-5.039,1.478c-0.922,0.847-2.373,0.923-3.368-0.229
		c-0.537-0.623-0.881-1.439-1.899-1.111c-0.306,0.098-0.406,0.547-0.181,0.74c0.731,0.627,0.686,2.168,2.095,1.957
		c1.062-0.159,1.623-0.004,1.841,1.207c0.382,2.113-0.228,2.914-2.535,3.076c-1.011,0.07-2.313-0.537-2.75,1.09
		c-0.388,1.438-0.092,2.554,1.143,3.517c1.864,1.456-0.063,2.458-0.817,2.754c-2.196,0.867-3.041,1.524-1.021,3.646
		c1.129,1.185-0.365,1.728-1.347,1.893c-1.591,0.27-3.208,0.369-4.816,0.511c-1.041,0.095-2.012,0.308-2.97,0.8
		c-1.484,0.762-2.745,0.926-3.938-0.885c-1.221-1.85-3.08-0.66-4.317,0.162c-1.646,1.092-2.601,1.623-3.65-0.677
		c-0.649-1.423-2.632-1.123-3.937-1.781l0.036,0.034c-0.591-1.719,0.819-2.529,1.643-3.6c0.527-0.687,1.567-1.324,1.164-2.209
		c-0.435-0.951-1.646-0.722-2.594-0.799c-1.526-0.123-2.906,0.445-4.339,0.797c-1.136,0.279-2.221,0.709-3.471,0.573
		c-1.287-0.138-1.913,0.862-2.351,1.942c-0.276,0.682-0.767,1.158-1.533,0.99c-0.942-0.209-0.646-1.008-0.624-1.641
		c0.093-2.824,1.69-4.822,4.44-5.536c0.356-0.094,0.888-0.288,1.075-0.129c2.085,1.774,3.54-0.532,5.301-0.751
		c1-0.124,1.061-0.855,1.243-1.566c0.27-1.047-0.675-0.875-1.159-1.156c-0.378-0.221-0.764-0.45-1.175-0.586
		c-0.625-0.205-1.779,0.178-1.551-1.002c0.28-1.449,1.384-0.5,2.153-0.488c0.049,0.043,0.1,0.087,0.147,0.13
		c-0.061-0.034-0.119-0.067-0.179-0.103c-0.3-1.44-0.665-2.807,0.807-3.996c0.955-0.771,0.592-1.715-0.444-2.318
		c-1.91-1.111-1.097-3.049-1.26-4.611c-0.088-0.849,0.905-0.768,1.51-0.3c1.604,1.245,2.537,0.647,3.128-1.062
		c0.119-0.344,0.297-0.674,0.5-0.975c0.371-0.554,1.354-0.959,0.463-1.796c-0.69-0.649-1.446-1-2.368-0.296
		c-0.563,0.43-1.304,0.584-1.819,0.01c-0.667-0.742,0.053-1.279,0.416-1.92c0.892-1.574,2.111-2.351,3.959-2.294
		c1.189,0.036,2.134-0.362,1.347-1.885c-0.222-0.429-0.199-0.942,0.208-1.209c2.155-1.41,1.341-2.347-0.486-3.035
		c0.009-0.858,0.632-0.84,1.076-0.989c2.113-0.705,4.168-1.521,5.901-2.972c1.319-1.104,2.685-1.011,4.122-0.241
		c2.559,1.37,4.227,1.057,6.035-1.105c1.281-1.53,2.624-2.549,4.522-0.829c0.833,0.754,1.836,0.735,2.611-0.021
		c0.736-0.717,1.539-1.104,2.523-1.236c0.408-0.055,1.018,0.006,0.967-0.619c-0.057-0.691-0.69-0.768-1.192-0.633
		c-0.551,0.147-1.025,0.562-1.573,0.732c-1.164,0.363-2.216-0.137-2.609-1.128c-0.535-1.343,0.817-0.942,1.458-1.169
		c2.324-0.822,4.621-3.641,4.418-5.452c-0.104-0.942-0.146-1.948-1.383-2.196c-1.176-0.234-1.716,0.66-2.339,1.349
		c-0.23,0.256-0.265,0.683-0.423,1.016c-0.507,1.064-1.59,0.519-2.373,0.824c-0.427,0.167-0.499-0.222-0.511-0.494
		c-0.045-0.944,0.754-1.063,1.354-1.489c1.839-1.302,3.443-3.016,5.992-2.781c0.346,0.031,0.599-0.268,0.515-0.562
		c-0.116-0.405-0.301-0.933-0.621-1.104c-0.417-0.223-0.998-0.125-1.501-0.209c-0.979-0.166-1.954-0.356-0.763-1.586
		c0.918-0.947,0.757-1.479-0.593-1.699c-0.825-0.137-1.333-0.906-1.32-1.602c0.017-1.056,1.025-0.604,1.569-0.589
		c1.805,0.05,2.192-1.784,3.598-2.337c-1.021-0.938-2.292-0.418-3.252-1.029c-0.415-0.264-0.741-0.463-0.669-0.988
		c0.077-0.57,0.517-0.655,0.977-0.67c0.443-0.016,0.891-0.035,1.33,0.002c1.193,0.105,1.813-0.26,1.613-1.61
		c-0.189-1.293,0.112-2.19,1.698-2.531c1.543-0.331,1.925-2.088,2.888-3.153c0.129-0.144,0.036-0.553,0.164-0.621
		c2.404-1.312,3.837-2.74,1.176-5.264c-0.482-0.459,0.181-0.962,0.936-0.968c1.401-0.012,2.809-0.073,4.203-0.209
		c0.818-0.08,1.442-0.034,1.792,0.851c0.35,0.887,0.088,1.431-0.787,1.703c-0.755,0.236-0.745,0.873-0.726,1.449
		c0.024,0.736,0.688,0.582,1.157,0.736c1.683,0.555,3.308,0.845,4.722-0.605c-0.034-0.16-0.017-0.359-0.099-0.416
		c-0.608-0.428-1.979-0.063-1.806-1.19c0.145-0.933,0.846-1.935,1.783-2.349c0.796-0.351,1.343-0.646,1.069-1.568
		c-0.264-0.893-1.026-0.932-1.799-0.939c-0.513-0.005-1.078,0.049-1.523-0.145c-0.789-0.344-1.892-0.75-1.729-1.743
		c0.166-1.013,1.241-0.292,1.892-0.449c1.836-0.444,3.602-0.588,5.407,0.341c1.379,0.709,2.555-0.885,3.935-0.732
		c1.301,0.145,2.218,1.908,4.093,0.761c-1.943-0.416-2.627-2.343-4.43-2.787c-0.858-0.212-1.582-0.58-2.524-0.122
		c-1.294,0.628-2.32-0.176-3.083-1.104c-0.681-0.827-0.446-1.896,0.063-2.717c0.687-1.105,1.893-1.238,2.959-0.752
		c1.289,0.588,1.702,0.33,2.19-1.025c0.673-1.869,1.957-3.295,4.331-2.959c2.819,0.398,4.911-0.951,6.704-2.938
		c0.407-0.451,0.854-0.925,1.509-0.695c0.78,0.272,0.633,1.019,0.745,1.675c0.271,1.588-1.32,2.854-0.604,4.575
		c0.326,0.785,0.526,1.379,1.409,1.336c1.396-0.066,2.821,0.125,4.184-0.332c0.67-0.226,1.683-0.318,1.448-1.316
		c-0.198-0.854-0.337-1.994-1.619-2.086c-1.013-0.072-1.896-0.294-2.285-1.395c-0.399-1.125-0.578-2.082,1.122-2.069
		c0.67,0.005,1.25-0.19,1.85-0.591c0.825-0.551,1.807-0.795,2.448,0.369c0.451,0.819,1.158,0.617,1.729,0.342
		c0.813-0.394,0.233-1.02,0.053-1.526c-0.173-0.479-0.392-0.95-0.654-1.386c-0.245-0.405-0.428-0.827-0.209-1.248
		c0.325-0.625,0.865-0.309,1.365-0.229c0.502,0.08,1.053,0.176,1.527,0.055c0.872-0.225,1.702-0.637,2.385,0.343
		c0.657,0.942,0.356,1.819-0.141,2.699c-0.249,0.44-0.572,0.866-0.461,1.425c1.496,0.215,4.75-1.805,4.899-3.13
		c0.225-1.968-1.656-2.13-2.744-2.716c-2.559-1.379-2.465-1.396-1.018-3.703c1.809-2.879,4.31-4.002,7.991-3.983
		c-1.867-1.513-3.134-2.87-3.258-5.041c-0.12-2.101,1.2-4.259,3.366-4.349c1.529-0.063,2.181-0.713,2.835-1.949
		c1.028-1.941,2.476-2.15,3.752-0.376c1.427,1.981,2.94,1.321,4.586,0.733c0.501-0.178,1.074-0.58,0.888-1.115
		c-0.519-1.479,0.104-2.174,1.267-3.068c1.028-0.792,1.975-1.158,3.188-1.148c0.463,0.002,1.151,0.336,1.24-0.457
		c0.069-0.613-0.547-0.534-0.956-0.627c-0.569-0.129-1.396-0.221-1.384-0.864c0.018-1.043,1.063-0.386,1.568-0.677
		c1.405-0.803,2.701-1.014,4.043,0.229c0.34,0.314,1.137,0.139,1.724,0.18c0.868,0.064,1.494-0.396,1.688-1.151
		c0.207-0.814-0.588-1.087-1.15-1.418c-0.809-0.474-2.661-0.248-2.137-1.604c0.5-1.297,2.05-0.103,3.135-0.128
		c0.138-0.003,0.362,0.054,0.404,0.148c1.136,2.532,4.257,2.386,5.813,4.317c0.845,1.049,1.584,0.725,2.429,0.035
		c0.83-0.677,1.1-1.277,0.215-2.175c-1.048-1.062-1.325-2.456-1.134-3.897c0.114-0.865,0.333-2.061,1.368-1.979
		c1.046,0.083,2.204,0.852,2.09,2.125c-0.113,1.27,0.452,1.807,1.36,2.441c1.042,0.729,0.821,0.609,1.917-0.123
		c1.004-0.672,2.341-0.838,2.669-2.107c-1.023-0.063-2.147,0.074-2.524-1.373c-0.154-0.593-0.687-0.781-1.176-0.896
		c-2.003-0.465-0.557-1.961-0.858-2.928c-0.346-1.104,0.778-1.031,1.415-1.222c0.629-0.188,1.317-0.185,1.948-0.372
		c0.397-0.12,1.085-0.555,1.054-0.65c-0.953-2.836,1.755-1.805,2.726-2.492c0.828-0.586,1.938-0.75,2.898-1.262
		c0.938-0.5,2.578,0.265,3.896,0.551c2.683,0.582,3.397,0.097,3.893-2.739c0.278-1.603,1.691-2.07,3.404-2.07
		c3.224-0.001,6.178,1.248,9.311,1.531c0.761,0.069,1.738,0.267,1.389-1.206c-0.545-2.293,0.561-3.393,2.823-3.48
		c0.292,0.037,0.584,0.072,0.876,0.107c1.525,1.105,2.845,0.548,3.843-0.705c0.837-1.05,1.851-1.654,3.08-1.982
		c3.682-0.986,7.748-0.942,10.635-4.045c0.221-0.237,0.673-0.316,1.029-0.355c1.011-0.109,1.295-0.607,0.781-1.458
		c-0.879-1.454-0.262-2.481,0.862-3.403c0.309,0.008,0.616,0.016,0.927,0.023c2.252,0.471,4.586-0.322,6.818,0.438
		c0.13,0.465,0.402,0.776,0.902,0.844c0.363,0.783,0.75,1.517,1.778,0.773c0.488,0.406,1.02,0.365,1.566,0.148
		c0.438,0.27,0.96,0.459,1.295,0.82c2.516,2.721,5.333,0.498,7.995,0.463c0.783-0.012,1.06-0.929,0.718-1.772
		c-0.312-0.769,0-1.279,0.699-1.615c2.479-1.188,4.829-2.657,7.841-2.106c1.211,0.223,2.183-1.358,1.716-2.364
		c-1.091-2.356-1.091-2.349,1.47-2.547c0.513-0.04,1.049-0.073,1.522-0.249c0.583-0.217,1.192-0.542,0.278-1.194
		c-1.438-1.024-0.373-1.612,0.48-1.966c1.115-0.461,2.283-0.303,3.467,0.064c2.691,0.838,4.911-0.031,6.48-2.391
		c0.299-0.451,0.804-1.038,1.217-0.67c1.449,1.29,2.889,0.087,4.26,0.223c2.603,0.256,4.834-0.521,6.988-1.604
		c1.135-0.572,1.757-0.279,2.535,0.398c2.405,2.101,7.708,1.436,9.595-1.125c0.627-0.851,1.396-2.375,2.193-2.18
		c2.748,0.674,5.221-1.156,7.88-0.531c1.39,0.969,2.699-0.359,4.063-0.146c2.244-0.427,4.472-0.653,6.738-0.022
		c1.115,0.309,1.342-0.248,1.085-1.369c-0.294-1.287-0.434-2.729,0.889-3.646c1.397-0.968,7.616-0.299,8.804,0.844
		c0.518,0.499,0.179,0.854-0.017,1.353c-0.972,2.511-0.07,4.234,2.546,4.627c1.865,0.279,4.003,1.769,5.501-0.83
		c0.108-0.189,0.692-0.118,1.058-0.145c1.093-0.082,2.39,0.075,2.617-1.421c0.221-1.464-0.084-2.823-1.58-3.581
		c-0.499-0.254-1.274-0.246-1.188-1.065c0.092-0.875,0.851-1.125,1.54-1.415c1.126-0.473,1.862,0.3,2.559,0.9
		c0.96,0.827,2.533,1.258,2.987,0.532c1.247-1.991,2.622-0.999,4.051-0.723c0.809,0.157,1.635,0.195,2.352-0.326
		c0.504-0.363,1.01-0.646,1.635-0.34c1.639,0.799,3.295,0.438,4.979,0.16c0.936-0.154,1.693-0.153,1.711-1.472
		c0.01-0.963,3.664-2.174,4.395-1.482c0.553,0.522,0.932,1.49,0.061,1.87c-1.438,0.625-0.531,1.456-0.455,2.231
		c0.104,1.035,1.008,1.602,1.695,1.344c2.453-0.918,5.295-1.014,7.332-2.758c1.643-1.403,3.213-2.277,5.369-1.702
		c1.018,0.489,2.029,0.978,3.045,1.466c0.25,0.833,0.965,0.892,1.617,0.84c1.949-0.153,3.447,0.396,4.412,2.245
		c0.49,0.941,1.529,1.218,2.523,1.012c1.713-0.354,3.518-0.471,4.902-1.816c0.617-0.601,1.672-0.892,1.732-1.868
		c0.064-1.114-1.314-0.893-1.92-1.461c0.719-0.419,1.625-0.629,1.793-1.103c0.76-2.125,1.836-1.807,3.471-0.949
		c1.119,0.589,2.361,0.242,1.811-1.522c-0.279-0.901-0.158-1.512,0.729-1.727c2.762-0.667,5.146-2.611,8.172-2.387
		c0.525,0.038,1.141-0.65,1.564,0.138c0.293,0.55-0.178,0.974-0.408,1.416c-0.242,0.458-0.529,0.891-0.896,1.496
		c3.188-1.83,6.365-0.705,9.229-0.063c1.217,0.271,2.377,0.444,3.615,0.639c1.672,0.262,4.061-2.331,4.908,1.068
		c0.66-0.233,0.756-0.706,0.871-1.117c0.453-1.591,0.891-2.831,2.727-1.008c0.809,0.803,2.121,0.846,3.043,0.021
		c1.764-1.581,6.004-2,7.48-0.371c1.338,1.47,2.197,1.671,3.258-0.168c0.371-0.65,1.166-0.899,1.967-0.77
		c0.957,0.155,1.063,0.956,1.129,1.681c0.088,0.999,0.494,1.831,1.012,2.661c0.813,1.3,0.518,2.857,0.836,4.28
		c0.197,0.881-1.027,0.846-1.604,1.236c-0.535,0.363-0.51,0.731-0.143,1.29c0.889,1.355,2.746,1.383,3.613-0.09
		c0.523-0.883,0.777-1.92,1.277-2.818c0.711-1.272,2.379-2.393,3.18-1.396c1.773,2.203,2.844,0.38,3.965-0.302
		c0.764-0.466,1.281-0.868,2.148-0.437c1.869,0.932,3.775,1.677,5.955,1.351c0.572-0.086,1.543,0.54,1.033,0.896
		c-1.484,1.044-2.334,2.813-4.07,3.489c-0.457,0.178-0.738-0.236-1.025-0.629c-1.408-1.937-3.773-1.96-5.295-0.1
		c0.666,0.488,2.207-0.246,2.109,1.01c-0.084,1.086-1.402,1.091-2.363,1.014c-0.789-0.063-1.031,0.424-1.514,0.927
		c-1.668,1.75-4.105,1.691-6.27,2.254c-1.514,0.395-1.674-1.575-2.266-1.712c-1.977-0.453-2.334-1.447-3.084-3.251
		c-0.988-2.375-2.605-2.177-4.977-0.64c-0.613,0.398-1.309,0.695-1.996,0.956c-1.443,0.545-2.119,0.124-2.373-1.525
		c-0.248-1.621,0.789-3.268-0.236-4.847c-0.236-0.365,0.209-0.629,0.582-0.75c0.395-0.13,1.059-0.125,0.891-0.715
		c-0.172-0.608-0.906-0.957-1.428-0.744c-2.027,0.824-4.459,0.13-6.271,1.709c-0.414,0.359-1.271,0.284-1.207,1.088
		c0.053,0.628,0.65,0.728,1.154,0.856c0.582,0.148,0.967,0.241,1.396-0.518c0.688-1.218,3.832-1.107,4.602,0.033
		c0.314,0.467,0.463,1.017-0.221,1.279c-1.449,0.554-2.086,1.731-2.713,3.043c-0.521,1.094-1.574,1.812-2.787,2
		c-2.877,0.447-5.65,1.722-8.676,1.125c-0.389-0.075-0.871,0.11-1.26,0.289c-2.289,1.057-2.838,0.902-3.912-1.357
		c-0.262-0.553-0.449-1.396-1.105-0.882c-0.904,0.708-2.043,0.44-2.875,1.003c-0.947,0.64-2.02,1.094-2.834,0.313
		c-0.885-0.843-1.938-1.783-1.346-3.445c0.381-1.075,0.195-2.313-0.031-3.501c-0.23-1.19-0.961-1.607-1.885-1.221
		c-2.139,0.895-4.74,0.56-6.492,2.495c-0.49,0.539-1.855,0.238-1.688,1.391c0.125,0.882,1.076,1.104,1.852,1.398
		c2.842,1.081,3.244,3.534,0.855,5.466c-0.604,0.488-1.012,1.002-1.203,1.725c0,0,0.033-0.032,0.035-0.03
		c-0.791-0.065-1.486-0.051-2.072-0.914c-1.545-2.28-2.967-2.519-5.387-0.959c-1.896,1.224-4.289,1.493-5.934,3.205
		c-0.475,0.49-1.213,0.283-1.896,0.237c-2.416-0.16-4.783-1.606-7.291-0.084c-0.951,0.576-1.613-0.494-2.021-1.262
		c-0.436-0.824-0.766-1.658-1.92-1.242c-0.945,0.341-2.361,0.057-2.746,1.095c-0.4,1.071,1.063,1.403,1.574,2.163
		c0.074,0.109,0.064,0.273,0.105,0.474c-0.396,0.169-0.846,0.274-1.193,0.524c-1.316,0.947-2.463,1.449-4.063,0.225
		c-2.563-1.96-4.75-0.545-6.662,1.33c-0.838,0.82-1.514,1.807-2.262,2.716C346.569,25.936,346.302,26.087,346.032,26.237z
		 M78.592,129.618c1.562,2.219-0.003,2.473-1.491,2.778c-2.825,0.582-3.06,1.478-1.464,3.853c1.427,2.125,3.393,0.741,5.064,1.142
		c1.393,0.333,2.325-0.292,2.657-1.632c0.317-1.288,1.24-2.285,2.26-2.551c2.771-0.722,1.896-2.719,1.717-4.354
		c-0.162-1.469-1.348-1.764-2.292-0.607c-0.726,0.887-1.371,1.33-2.41,0.648c-0.61-0.4-1.132-0.286-1.555,0.254
		C80.484,129.911,79.674,129.728,78.592,129.618z M116.987,112.764c2.272,0.104,2.967-1.632,4.264-2.287
		c1.966-0.993,2.983-1.692,0.602-3.375c-0.547-0.386-0.403-1.646-1.625-1.335c-1.016,0.257-1.497,0.986-1.563,1.917
		c-0.093,1.34-0.814,1.575-1.948,1.401c-0.799-0.121-1.609-0.168-2.417-0.246c-0.501-0.047-0.924,0.017-1.041-0.775
		c-0.307-2.075-1.676-2.583-3.406-1.252c-0.981,0.753-1.321,2.077-1.292,3.161c0.034,1.272,1.372,0.616,2.15,0.811
		c0.996,0.247,1.987,0.54,2.94,0.916C114.887,112.189,116.115,112.669,116.987,112.764z M97.554,129.071
		c-1.743-0.24-3.022,0.62-4.447,1.508c-1.325,0.826-1.874,2.864-4.14,2.57c-0.412-0.053-1.188,2.624-1.756,4.057
		c-0.037,0.092,0.245,0.346,0.415,0.478c1.336,1.039,4.591-0.17,5.173-1.749c0.305-0.825-0.022-2.352,1.555-2.252
		c1.408,0.088,2.549-0.648,3.823-0.954c1.336-0.319,2.328-1.32,2.2-2.411C100.22,128.99,98.848,128.73,97.554,129.071z
		 M33.549,188.329c-0.919,0.113-2.313-0.31-2.296,0.791c0.019,1.1-0.85,2.615,0.747,3.461c0.771,0.407,1.554,0.826,2.23,1.366
		c0.9,0.718,1.829,0.575,2.687,0.14c0.902-0.459,1.495-1.299,1.231-2.369c-0.184-0.745-0.067-1.26,0.462-1.79
		c0.685-0.685,1.079-1.558,0.298-2.347c-0.751-0.76-1.75-0.785-2.634-0.127C35.425,188.085,34.595,188.671,33.549,188.329z
		 M46.838,185.837c-0.321,0.283-0.271,0.658-0.249,1.021c0.039,0.657,0.235,1.48-0.707,1.575c-0.98,0.099-1.146-0.757-1.254-1.5
		c-0.041-0.279,0.126-0.583,0.109-0.871c-0.069-1.301-1.107-1.573-2.042-1.531c-1.151,0.052-1.07,1.084-0.891,1.875
		c0.195,0.856,0.465,1.741,0.924,2.476c0.349,0.56,0.91,1.67,1.558,1.27c2.948-1.822,6.274-1.156,9.403-1.714
		c1.188-0.211,2.147-0.867,2.661-2.167c-1.946-0.322-3.664-0.063-5.389,0.788C48.797,188.128,47.736,187.729,46.838,185.837z
		 M160.804,84.917c1.112,0.523,1.779-0.179,2.135-1.305c0.457-1.453,1.078-2.734,2.527-3.465c0.396-0.199,0.692-0.597,0.457-1.105
		c-0.21-0.453-0.642-0.563-1.101-0.621c-0.735-0.094-1.21,0.414-1.802,0.691c-2.278,1.063-4.36,3.135-7.237,1.508
		c-0.38-0.216-1.123-0.148-1.254,0.521c-0.109,0.565,0.436,0.731,0.865,0.754c1.266,0.063,1.834,0.517,1.672,1.938
		c-0.136,1.181,0.856,1.435,1.827,1.301C159.464,85.053,159.988,84.665,160.804,84.917z M37.379,172.634
		c1.021,0.541,1.827,1.119,2.548,1.856c0.851,0.869,1.929,1.374,3.207,0.96c0.604-0.195,1.414-0.244,1.349-1.162
		c-0.057-0.783-0.746-0.816-1.325-0.881c-1.251-0.139-2.457-0.363-3.545-1.083C38.959,171.894,38.228,171.843,37.379,172.634z
		 M123.379,88.876c0.875,1.321,2.042,1.823,3.147,2.461c0.686,0.395,1.313,0.668,2.051,0.432c0.596-0.189,0.326-0.678,0.258-1.102
		c-0.155-0.946-0.563-1.744-1.562-1.879C126.067,88.624,124.827,88.382,123.379,88.876z M130.477,93.579
		c-0.571,0.168-1.912-0.393-1.591,0.627c0.316,1.006,1.572,1.774,2.796,2.037c0.692,0.147,1.219-0.238,1.069-0.971
		C132.514,94.112,131.969,93.193,130.477,93.579z M141.142,82.398c1.165-0.087,1.881-0.394,1.864-1.565
		c-0.014-0.959-0.521-1.27-1.375-1.263c-0.974,0.007-1.479,0.536-1.558,1.459C139.998,81.913,140.427,82.396,141.142,82.398z
		 M308.997,17.796c-0.413-0.469-0.649-1.248-1.452-1.133c-0.869,0.123-1.084,0.918-1.18,1.631c-0.102,0.756,0.35,0.742,0.955,0.57
		C307.996,18.673,308.825,18.813,308.997,17.796z M154.087,81.175c-1.287-0.377-1.778-1.111-2.798-0.981
		C151.618,81.603,152.345,81.817,154.087,81.175z"/>
	<path fill="#13B994" d="M378.46,3.887c0.307,0.649,0.867,1.486-0.064,1.875c-0.877,0.364-1.91,0.971-2.914,0.302
		c-0.537-0.359-0.563-1.052-0.391-1.606c0.35-1.135,1.422-0.305,2.074-0.671C377.598,3.819,378.03,3.853,378.46,3.887z"/>
	<path fill="#13B994" d="M284.852,15.938c0.423,1.402-0.3,1.691-1.496,1.563c-0.797-0.088-1.29-0.525-1.152-1.299
		c0.135-0.752,0.811-0.729,1.425-0.6c0.357,0.075,0.712,0.159,1.067,0.238C284.696,15.843,284.852,15.938,284.852,15.938z"/>
	<path fill="#13B994" d="M554.702,317.882c-0.635-0.948-2.326-1.42-1.381-3.075c0,0.003,0.139-0.087,0.143-0.088
		c0.41,0.553,0.82,1.104,1.229,1.662C554.696,316.881,554.698,317.381,554.702,317.882z"/>
	<path fill="#13B994" d="M466.647,355.978c-2.541,0.227-4.34-1.432-6.375-2.373c-0.645-0.297-0.855-1.229-0.537-1.506
		c1.262-1.102,0.758-2.65,1.242-3.924c0.693-1.828,1.988-2.591,3.316-1.947c1.285,0.622,2.033,2.718,1.428,3.926
		c-0.221,0.438-0.699,0.909-0.248,1.407c0.389,0.428,0.953,0.384,1.43,0.082c0.611-0.394,1.377-0.566,1.904-0.234
		c2.254,1.409,3.834,0.083,5.58-1.081c2.424-1.619,3.307-1.124,3.84,1.624c0.227,1.166-0.281,1.534-1.113,1.728
		C473.634,354.478,470.137,355.217,466.647,355.978z"/>
	<path fill="#13B994" d="M595.524,285.437c-0.107,3.105-0.756,3.632-3.234,3.307c-0.574-0.075-1.25-0.124-1.754,0.102
		c-2.607,1.16-4.984-0.261-7.451-0.598c-0.82-0.111-1.232-0.906-1.266-1.622c-0.033-0.771,0.832-0.635,1.346-0.844
		c1.955-0.79,4.146-0.88,5.982-2.033c0.754-0.475,1.533-0.48,2.271,0.09c0.641,0.488,1.434,0.641,2.105,0.357
		C595.653,283.311,595.526,284.693,595.524,285.437z"/>
	<path fill="#13B994" d="M29.073,207.354c0.167,0.323,0.279,0.698,0.515,0.962c0.563,0.635,1.631,1.104,1.104,2.146
		c-0.412,0.818-1.416,0.676-2.213,0.688c-1.848,0.027-3.696-0.049-5.541,0.012c-1.974,0.063-2.648-1.271-2.775-2.793
		c-0.135-1.607,1.146-2.063,2.529-2.109c0.622-0.02,1.131-0.239,1.639-0.579c1.356-0.909,2.516-0.875,3.132,0.858
		c0.305,0.854,1.069,0.625,1.646,0.851L29.073,207.354z"/>
	<path fill="#13B994" d="M604.907,129.673c-0.275-0.125-0.688-0.176-0.789-0.379c-0.707-1.433-1.713-2.86-1.854-4.362
		c-0.07-0.738,1.641-1.556,2.811-1.435c1.771,0.182,3.174-0.449,4.512-1.439c0.951-0.706,1.539-0.104,1.971,0.63
		c0.559,0.944,0.008,1.856-0.84,1.828c-2.711-0.097-3.85,1.405-4.59,3.698C605.971,128.7,605.635,129.456,604.907,129.673z"/>
	<path fill="#13B994" d="M438.016,359.993c-0.016,1.028-0.313,1.809-1.564,1.391c-2.135-0.712-3.104-0.238-3.639,1.905
		c-0.188,0.746,0.111,1.925-0.928,1.993c-1.125,0.076-2.385-0.137-3.4-0.614c-0.82-0.386-0.172-1.238,0.301-1.611
		c0.846-0.666,1.309-1.5,1.775-2.447c1.086-2.202,4.832-3.348,6.553-2.146C438.012,359.091,438.012,359.091,438.016,359.993z"/>
	<path fill="#13B994" d="M11.494,219.587c-0.911-0.095-1.771-0.072-2.021-0.93c-0.267-0.918,0.515-1.229,1.181-1.577
		c1.614-0.843,3.325-1.438,4.716-2.774c0.924-0.892,4.762,0.519,5.492,1.742c0.414,0.69,0.053,1.175-0.568,1.361
		c-0.967,0.295-1.972,0.619-2.964,0.639c-1.712,0.026-3.365-0.011-4.744,1.269C12.306,219.572,11.752,219.528,11.494,219.587z"/>
	<path fill="#13B994" d="M303.579,32.007c-1.419,1.675-2.635,3.488-4.248,4.82c-0.619,0.512-2.229-0.117-2.94-0.998
		c-0.688-0.852-1.322-2.119,0.583-2.392c1.279-0.185,1.5-1.01,1.632-1.99c0.223-1.634,1.446-1.183,2.386-1.088
		C302.115,30.474,303.094,30.968,303.579,32.007z"/>
	<path fill="#13B994" d="M104.272,350.823c0.009,0.511-0.282,0.739-0.59,0.944c-1.87,1.252-0.774,1.748,0.555,2.182
		c0.616,0.2,1.364,0.173,1.71,0.854c0.139,0.271-0.001,0.617-0.338,0.687c-0.831,0.169-1.742,0.791-2.492-0.021
		c-1.46-1.585-3.051-2.952-5.08-3.764c-0.56-0.226-0.805-0.687-0.371-1.228c0.838-1.045,1.957-1.453,3.292-1.495
		c1.265-0.041,2.342,0.182,3.046,1.338C104.114,350.502,104.203,350.696,104.272,350.823z"/>
	<path fill="#13B994" d="M13.04,267.456c-0.804-0.122-1.458,0.07-1.585-0.63c-0.104-0.563,0.466-0.6,0.824-0.837
		c1.89-1.25,3.018-3.214,4.451-4.891c0.407-0.479,0.584-1.356,1.469-0.915c0.503,0.252,1.109,0.645,1.29,1.118
		c0.313,0.828-0.566,1.063-1.093,1.411c-0.93,0.611-2.021,1.106-1.34,2.562c0.142,0.299,0.053,0.723-0.229,0.745
		C15.338,266.142,14.093,266.953,13.04,267.456z"/>
	<path fill="#13B994" d="M651.065,214.218c-0.793-0.168-1.438-0.356-2.092-0.432c-0.779-0.087-1.521-0.18-1.59-1.163
		c-0.064-0.917,0.533-1.171,1.311-1.477c1.422-0.558,2.752-1.343,4.125-2.021c0.641-0.313,1.352-0.41,1.838,0.164
		c0.432,0.514,0.18,1.203-0.174,1.654C653.487,212.226,653.061,214.164,651.065,214.218z"/>
	<path fill="#13B994" d="M52.694,153.271c0.021,0.993-0.231,2.027-1.396,1.689c-1.542-0.447-3.983,0.832-4.426-1.957
		c-0.178-1.112,1.937-2.645,3.453-2.435C51.781,150.768,52.595,151.771,52.694,153.271z"/>
	<path fill="#13B994" d="M184.362,77.081c-1.177-0.521-1.62-0.17-1.985,0.806c-0.415,1.104-1.417,1.062-2.436,0.797
		c-1.422-0.37-1.582-1.361-0.505-1.944c1.738-0.943,3.404-2.234,5.489-2.354c0.798-0.047,2.035-0.396,2.166,0.854
		c0.139,1.313-1.243,1.393-2.101,1.825C184.765,77.179,184.431,77.081,184.362,77.081z"/>
	<path fill="#13B994" d="M641.411,253.772c0.859,0.013,1.307,0.213,1.566,0.734c0.328,0.65,0.018,1.215-0.41,1.596
		c-1.168,1.04-2.34,1.983-1.916,3.858c0.115,0.506-0.529,0.854-1.121,0.764c-0.938-0.147-1.199-1.026-1.182-1.67
		c0.043-1.656,1.623-2.853,1.58-4.637C639.925,254.183,641.059,253.918,641.411,253.772z"/>
	<path fill="#13B994" d="M621.157,277.739c-0.826-0.084-1.719,0.446-2.145-0.354c-0.416-0.78,0.514-1.066,0.914-1.536
		c0.137-0.161,0.209-0.38,0.297-0.575c0.564-1.247,1.479-2.654,2.822-2.017c1.084,0.515,0.967,2.45,0.822,3.566
		C623.694,278.184,622.003,277.399,621.157,277.739z"/>
	<path fill="#13B994" d="M301.58,383.12c-0.22-0.011-0.86,0.1-1.387-0.1c-0.884-0.333-1.176-1.17-0.877-2.005
		c0.385-1.073,1.225-0.923,1.979-0.396c0.62,0.437,1.229,0.801,2.015,0.804c0.506,0.002,1.105-0.061,1.131,0.707
		c0.025,0.784-0.485,0.993-1.16,0.988C302.837,383.118,302.395,383.12,301.58,383.12z"/>
	<path fill="#13B994" d="M604.598,120.884c-2.279,1.93-4.893,1.387-7.355,1.586C599.485,121.218,601.514,119.044,604.598,120.884z"
		/>
	<path fill="#13B994" d="M632.079,263.825c-1.162-0.067-2.148-0.813-1.789-1.559c0.471-0.97,0.143-2.479,1.402-2.911
		c0.857-0.293,2.965,2.189,2.736,3.313C634.165,263.979,632.663,263.14,632.079,263.825z"/>
	<path fill="#13B994" d="M666.366,166.79c-0.764-0.045-1.762-0.283-1.705-1.527c0.051-1.082,0.646-2.016,1.896-1.969
		c1.15,0.043,1.502,0.859,1.6,1.955C668.268,166.491,667.663,166.805,666.366,166.79z"/>
	<path fill="#13B994" d="M103.199,295.109c-0.08-0.984,0.002-1.768,0.647-2.401c0.583-0.569,1.249-0.84,1.992-0.424
		c0.708,0.397,0.669,1.056,0.429,1.745c-0.241,0.692-0.431,1.402-0.646,2.104c-0.196,0.634,0.275,1.753-0.809,1.752
		c-0.959,0-1.446-0.893-1.604-1.822C103.15,295.704,103.199,295.328,103.199,295.109z"/>
	<path fill="#13B994" d="M53.776,322.888c0.834,0.09,1.981-0.073,1.932,1.207c-0.076,1.896-1.688,2.138-3.101,2.42
		c-0.752,0.148-1.467-0.328-1.219-1.086C51.76,324.286,51.806,322.625,53.776,322.888z"/>
	<path fill="#13B994" d="M450.116,328.101c0.088,1.647,0.359,3.224-0.762,4.614c-0.375,0.464-0.723,0.999-1.404,0.836
		c-0.834-0.198-0.457-0.917-0.533-1.45C447.122,330.024,447.872,328.654,450.116,328.101z"/>
	<path fill="#13B994" d="M103.986,95.979c-0.167,0.917-0.363,2.299-1.444,2.292c-1.627-0.011-1.667-1.783-1.98-2.938
		c-0.219-0.799,0.445-1.634,1.385-1.615C103.237,93.745,103.832,94.645,103.986,95.979z"/>
	<path fill="#13B994" d="M50.435,145.743c1.146,0.118,2.38-0.059,3.221,1.047c0.483,0.637,0.721,1.199-0.297,1.461
		c-0.921,0.236-1.86,0.492-2.804,0.537c-1.568,0.073-1.349-1.359-1.523-2.238C48.798,145.384,49.637,145.46,50.435,145.743z"/>
	<path fill="#13B994" d="M584.192,302.541c-0.762-0.509-1.99-0.785-2.463-1.775c-0.373-0.781,0.701-1.131,1.221-1.242
		c1.172-0.252,2.287,0.241,3.244,0.91C586.501,300.648,584.927,302.519,584.192,302.541z"/>
	<path fill="#13B994" d="M225.432,59.034c-0.146,0.594,0.005,1.725-1.129,1.776c-0.736,0.034-1.714-0.408-1.627-1.399
		c0.085-0.968,0.539-2.119,1.534-2.289C225.052,56.979,225.487,57.907,225.432,59.034z"/>
	<path fill="#13B994" d="M0.301,249.565c-1.107,0.076-1.289-0.698-1.248-1.29c0.119-1.719,1.688-1.771,2.859-2.185
		c0.725-0.253,1.035,0.219,1.066,0.948C3.069,249.06,1.031,248.66,0.301,249.565z"/>
	<path fill="#13B994" d="M652.319,203.833c1.424-0.295,2.701-1.203,4.248-0.994c0.516,0.068,1.104,0.057,1.162,0.735
		c0.049,0.603-0.412,0.941-0.926,1.087c-1.125,0.32-2.254,0.672-3.406,0.842c-1.494,0.225-1.252-0.789-1.049-1.7L652.319,203.833z"
		/>
	<path fill="#13B994" d="M98.202,346.584c-0.233,0.622,0.375,1.919-0.973,1.747c-2.076-0.261-1.478-2.241-1.917-3.522
		c-0.211-0.616,0.067-1.282,0.864-1.16C97.809,343.894,98.312,345.029,98.202,346.584z"/>
	<path fill="#13B994" d="M228.88,349.117c-0.762,0.044-1.161-0.191-1.159-0.847c0.006-1.729,1.5-1.758,2.6-2.174
		c0.546-0.206,1.123,0.093,1.054,0.732C231.206,348.356,229.552,348.285,228.88,349.117z"/>
	<path fill="#13B994" d="M654.94,165.462c-0.145,0.164-0.25,0.388-0.422,0.461c-1.139,0.496-2.271,0.998-3.438,1.418
		c-0.547,0.197-1.229,0.289-1.494-0.445c-0.234-0.659,0.371-0.872,0.809-1.104c1.041-0.555,2.145-0.947,3.324-1.069
		C654.245,164.669,654.719,164.841,654.94,165.462z"/>
	<path fill="#13B994" d="M60.264,331.397c0.085,1.256-0.605,1.478-1.525,1.413c-1.207-0.085-1.652-0.847-1.547-1.931
		c0.067-0.699,0.155-1.576,1.302-1.142C59.36,330.068,60.813,329.803,60.264,331.397z"/>
	<path fill="#13B994" d="M545.059,319.347c0.465-0.063,0.916,0.024,0.824,0.476c-0.23,1.118-1.07,1.687-2.141,1.882
		c-0.441,0.084-0.949-0.06-0.885-0.657C543.001,319.704,544.302,319.819,545.059,319.347z"/>
	<path fill="#13B994" d="M339.36,380.863c-0.539-0.264-1.621,0.247-1.59-0.678c0.037-1.176,1.008-1.704,2.17-1.718
		c0.822-0.009,1.957,0.09,1.865,1.015C341.684,380.686,340.384,380.721,339.36,380.863z"/>
	<path fill="#13B994" d="M615.038,127.212c-0.918-0.103-1.23-0.543-1.23-1.203c0-0.922,0.193-1.813,1.262-2.008
		c0.73-0.135,1.023,0.408,1.039,1.08C616.132,126.05,615.468,126.611,615.038,127.212z"/>
	<path fill="#13B994" d="M22.386,280.034c-1.579,0.956-2.659,0.271-3.768-0.229c-0.572-0.259-0.712-0.742-0.555-1.263
		c0.24-0.788,0.867-0.393,1.248-0.212C20.281,278.791,21.195,279.362,22.386,280.034z"/>
	<path fill="#13B994" d="M651.106,233.596c-1.262-0.056-2.199-0.771-2.379-1.854c-0.121-0.719,0.805-1.447,1.641-1.396
		c1.234,0.079,1.896,1.23,2.227,2.151C652.899,233.351,651.759,233.424,651.106,233.596z"/>
	<path fill="#13B994" d="M51.011,144.245c-0.601,0.024-1.049-0.186-0.878-0.57c0.446-1.004,0.403-2.479,1.916-2.635
		c0.922-0.094,1.658,0.5,1.505,1.455C53.319,143.96,51.593,143.425,51.011,144.245z"/>
	<path fill="#13B994" d="M98.955,146.855c-0.148-0.247-0.271-0.517-0.45-0.737c-0.458-0.57-1.146-1.174-0.462-1.889
		c0.408-0.428,0.962,0.059,1.331,0.413c0.639,0.614,1.402,1.278,0.925,2.261c-0.339,0.696-0.891-0.12-1.356-0.061
		C98.944,146.841,98.955,146.855,98.955,146.855z"/>
	<path fill="#13B994" d="M628.641,136.536c0.834,0.266,2.002,0.48,2.246,1.545c0.195,0.858-0.799,1.157-1.506,1.19
		c-0.996,0.046-1.91-0.283-2.023-1.492C627.284,137.005,627.686,136.55,628.641,136.536z"/>
	<path fill="#13B994" d="M592.118,110.108c-0.34,0.778-0.105,2.092-1.563,2.169c-0.756,0.04-1.029-0.517-0.984-1.164
		c0.074-1.057,0.645-1.794,1.707-1.991C591.882,109.009,592.266,109.305,592.118,110.108z"/>
	<path fill="#13B994" d="M23.081,283.81c-0.292,0.515-0.021,1.592-1.041,1.548c-0.863-0.036-0.802-0.896-0.771-1.53
		c0.036-0.781,0.385-1.52,1.248-1.463C23.285,282.414,23.178,283.154,23.081,283.81z"/>
	<path fill="#13B994" d="M643.843,249.608c-0.643,0.626-1.24,1.305-1.938,1.859c-0.533,0.424-1.268,0.615-1.732-0.064
		c-0.531-0.773,0.092-1.232,0.725-1.46c0.896-0.322,1.844-0.512,2.77-0.758C643.723,249.327,643.784,249.468,643.843,249.608z"/>
	<path fill="#13B994" d="M32.323,281.823c0.016,0.673-0.186,1.146-0.971,1.174c-0.6,0.024-1.08-0.117-1.001-0.811
		c0.08-0.724,0.549-1.217,1.294-1.265C32.226,280.883,32.348,281.332,32.323,281.823z"/>
	<path fill="#13B994" d="M537.612,319.362c0.635,0.143,1.609-0.165,1.678,0.858c0.047,0.701-0.684,0.853-1.277,0.851
		c-0.834-0.002-1.779-0.201-1.826-1.131C536.147,319.172,537.075,319.496,537.612,319.362z"/>
	<path fill="#13B994" d="M660.757,208.778c-0.344,0.883-0.953,1.501-1.883,1.707c-0.674,0.15-1.252-0.186-1.281-0.867
		c-0.043-0.93,0.475-1.563,1.484-1.515C659.682,208.134,660.458,207.87,660.757,208.778z"/>
	<path fill="#13B994" d="M563.661,304.515c0.322-0.47-0.566-1.656,0.412-1.542c1.129,0.13,1.244,1.598,1.564,2.533
		c0.193,0.566-0.674,0.563-1.164,0.562C563.307,306.06,563.427,305.332,563.661,304.515z"/>
	<path fill="#13B994" d="M490.003,350.895c-2.063,1.082-2.793-0.011-3.498-1.042c-0.279-0.409-0.172-0.966,0.34-1.067
		C488.522,348.452,488.573,350.264,490.003,350.895z"/>
	<path fill="#13B994" d="M256.814,349.939c-0.155,0.581-0.218,1.326-1.132,1.219c-0.377-0.043-1.016-0.085-0.858-0.679
		c0.18-0.677,0.495-1.394,1.374-1.464C256.861,348.963,256.816,349.457,256.814,349.939z"/>
	<path fill="#13B994" d="M527.19,329.561c1.082-0.024,1.256,0.41,1.195,0.994c-0.107,1.005-0.793,1.336-1.689,1.338
		c-0.426,0.002-0.996-0.035-0.865-0.664C526.022,330.316,526.507,329.604,527.19,329.561z"/>
	<path fill="#13B994" d="M664.723,158.181c0.09,0.622-0.262,0.912-0.766,0.75c-0.861-0.279-1.594-0.877-1.758-1.785
		c-0.104-0.564,0.465-0.895,1.049-0.878C664.512,156.304,664.348,157.462,664.723,158.181z"/>
	<path fill="#13B994" d="M522.647,335.219c-0.469-0.023-0.982-0.02-0.814-0.685c0.189-0.742,0.879-0.913,1.5-1.083
		c0.586-0.159,0.779,0.212,0.721,0.729C523.952,335.027,523.278,335.111,522.647,335.219z"/>
	<path fill="#13B994" d="M477.71,345.262c0.055-0.64,0.426-0.954,0.998-1c0.848-0.067,1.467,0.324,1.588,1.167
		c0.08,0.539-0.213,1.051-0.889,0.97C478.667,346.312,477.96,346.091,477.71,345.262z"/>
	<path fill="#13B994" d="M549.757,311.671c-0.633,0.86-1.189,1.814-2.398,1.379c-0.381-0.141-0.461-0.622-0.303-0.931
		C547.704,310.855,548.805,311.688,549.757,311.671z"/>
	<path fill="#13B994" d="M657.309,153.745c0.729,0.146,1.789-0.107,1.838,1.032c0.033,0.772-0.82,1.162-1.412,1.034
		c-0.857-0.188-2.146-0.391-2.221-1.352C655.444,153.544,656.634,153.902,657.309,153.745z"/>
	<path fill="#13B994" d="M274.288,353.682c0.506,0.05,1.142,0.015,1.041,0.776c-0.097,0.745-0.649,1.128-1.364,1.233
		c-0.524,0.079-0.844-0.164-0.87-0.717C273.052,354.142,273.539,353.793,274.288,353.682z"/>
	<path fill="#13B994" d="M483.134,351.739c-0.443-0.058-0.932-0.242-0.893-0.726c0.074-0.894,0.951-0.991,1.584-1.203
		c0.402-0.134,0.59,0.313,0.551,0.706C484.303,351.247,483.942,351.719,483.134,351.739z"/>
	<path fill="#13B994" d="M273.069,350.344c-0.165,0.637-0.588,0.988-1.232,1.033c-0.468,0.029-0.938-0.111-0.841-0.69
		c0.119-0.698,0.79-0.775,1.346-0.899C272.745,349.695,273.034,349.882,273.069,350.344z"/>
	<path fill="#13B994" d="M606.956,130.833c0.568,0.088,0.791,0.441,0.691,0.938c-0.16,0.778-0.816,0.994-1.48,1.069
		c-0.457,0.052-0.674-0.338-0.555-0.727C605.815,131.454,606.27,130.987,606.956,130.833z"/>
	<path fill="#13B994" d="M331.127,27.134c0.05,0.342-0.154,0.554-0.48,0.535c-0.262-0.017-0.663-0.116-0.741-0.293
		c-0.198-0.446,0.167-0.666,0.554-0.728C330.785,26.596,331.009,26.802,331.127,27.134z"/>
	<path fill="#13B994" d="M423.169,96.73c0.031-0.631-0.008-1.159,0.096-1.659c0.24-1.201,1.307-2.058,2.188-1.556
		c1.221,0.692,2.107,1.852,3.68,0.888c0.063-0.039,0.383,0.19,0.459,0.354c0.156,0.326-0.08,0.553-0.346,0.701
		c-1.605,0.901-3.064,1.992-4.377,3.295c-0.316,0.316-0.832,0.432-1.223,0.125C422.876,98.276,423.264,97.384,423.169,96.73z"/>
	<path fill="#13B994" d="M492.544,109.046c0.773,0.422,2.191-0.182,2.463,1.162c0.168,0.846-0.764,1.066-1.381,0.873
		c-0.889-0.279-2.256,0.125-2.549-1.119C490.87,109.077,491.835,109.126,492.544,109.046z"/>
	<path fill="#13B994" d="M441.995,3.424c-0.531-0.036-1.189,0.025-1.131-0.71c0.051-0.617,0.639-0.745,1.188-0.719
		c0.508,0.023,1.223,0.014,1.24,0.626C443.315,3.39,442.538,3.347,441.995,3.424z"/>
	<path fill="#13B994" d="M324.543,10.167c-0.14,0.034-0.282,0.113-0.417,0.096c-0.729-0.093-1.688,0.34-2.061-0.644
		c-0.21-0.559,0.33-0.973,0.807-1.085c1.056-0.245,1.848,0.058,1.945,1.309C324.736,9.958,324.644,10.066,324.543,10.167z"/>
	<path fill="#13B994" d="M324.819,9.844c0.239,0.083,0.487,0.149,0.706,0.268c0.026,0.014-0.063,0.42-0.166,0.459
		c-0.376,0.142-0.648-0.054-0.813-0.405C324.644,10.066,324.736,9.958,324.819,9.844z"/>
</g>
<g>
	<path fill="#5F5F5F" d="M152.133,176.763h14.904c0.115,2.104,0.232,3.977,0.352,5.611c0.115,1.639,0.232,3.187,0.352,4.646
		c0.115,1.463,0.232,2.893,0.352,4.296c0.114,1.403,0.231,2.925,0.352,4.56c2.806-6.313,6.34-11.367,10.607-15.168
		c4.267-3.797,10.141-5.756,17.623-5.873c7.364,0,13.238,1.841,17.623,5.522c4.384,3.683,6.983,8.505,7.803,14.466
		c1.403-2.92,2.98-5.61,4.733-8.065c1.754-2.455,3.709-4.56,5.874-6.313c2.162-1.752,4.646-3.125,7.453-4.121
		c2.806-0.992,6.077-1.49,9.818-1.49c7.716,0,13.854,2.076,18.413,6.225c4.56,4.15,6.954,9.557,7.188,16.221v54.01h-16.833v-46.119
		c-0.236-3.621-1.463-6.752-3.682-9.381c-2.223-2.631-5.905-4.062-11.048-4.297c-6.898,0-12.247,2.252-16.044,6.752
		c-3.8,4.5-5.698,10.258-5.698,17.271v35.771H205.44v-46.119c-0.235-3.621-1.49-6.75-3.771-9.381
		c-2.279-2.629-5.935-4.061-10.96-4.295c-6.898,0-12.246,2.252-16.045,6.75c-3.8,4.502-5.698,10.201-5.698,17.098v35.947h-16.833
		L152.133,176.763L152.133,176.763z"/>
	<path fill="#5F5F5F" d="M291.007,213.937c0-5.375,1.022-10.434,3.068-15.168c2.044-4.734,4.88-8.855,8.504-12.361
		c3.622-3.508,7.861-6.283,12.713-8.33c4.852-2.043,10.022-3.068,15.521-3.068c5.609,0,10.813,1.025,15.604,3.068
		c4.793,2.047,8.914,4.822,12.363,8.33c3.447,3.506,6.164,7.627,8.154,12.361c1.984,4.734,2.979,9.793,2.979,15.168
		c0,5.379-0.965,10.465-2.895,15.256c-1.93,4.795-4.646,8.975-8.152,12.537c-3.508,3.568-7.658,6.373-12.451,8.418
		c-4.793,2.043-10.055,3.068-15.781,3.068c-5.494,0-10.638-0.939-15.43-2.809c-4.795-1.865-8.973-4.525-12.538-7.979
		c-3.565-3.445-6.398-7.598-8.504-12.449C292.059,225.134,291.007,219.784,291.007,213.937z M307.666,214.112
		c0,3.156,0.583,6.109,1.753,8.855c1.167,2.748,2.775,5.145,4.822,7.188c2.044,2.049,4.441,3.654,7.189,4.822
		c2.743,1.17,5.697,1.754,8.854,1.754s6.107-0.584,8.855-1.754c2.742-1.168,5.143-2.773,7.188-4.822
		c2.043-2.045,3.683-4.439,4.908-7.188c1.229-2.746,1.842-5.699,1.842-8.855c0-3.154-0.613-6.105-1.842-8.854
		c-1.229-2.744-2.865-5.145-4.908-7.188c-2.047-2.045-4.445-3.685-7.188-4.91c-2.748-1.229-5.699-1.842-8.855-1.842
		c-3.157,0-6.11,0.613-8.854,1.842c-2.749,1.227-5.146,2.865-7.189,4.91c-2.047,2.047-3.655,4.443-4.822,7.188
		C308.249,208.007,307.666,210.958,307.666,214.112z"/>
	<path fill="#5F5F5F" d="M427.604,196.577c-3.274,0-6.4,0.412-9.382,1.229c-2.98,0.818-5.61,2.076-7.893,3.77
		c-2.278,1.697-4.12,3.801-5.521,6.314c-1.402,2.516-2.104,5.465-2.104,8.855v34.543H385.87v-74.524h14.729
		c0.23,4.208,0.496,7.628,0.789,10.258c0.288,2.63,0.554,5.583,0.787,8.854c1.52-3.271,3.564-6.194,6.139-8.768
		c2.568-2.57,5.229-4.762,7.979-6.576c2.746-1.811,5.464-3.213,8.154-4.207c2.688-0.992,4.967-1.492,6.839-1.492L427.604,196.577z"
		/>
	<path fill="#5F5F5F" d="M505.283,242.694c-3.625,3.273-8.009,5.85-13.151,7.717c-5.146,1.867-10.404,2.807-15.779,2.807
		c-5.496,0-10.669-1.025-15.521-3.068c-4.853-2.045-9.061-4.85-12.625-8.418c-3.565-3.563-6.398-7.715-8.505-12.449
		c-2.104-4.732-3.156-9.789-3.156-15.168c0-5.375,1.054-10.434,3.156-15.166c2.104-4.734,4.938-8.885,8.505-12.451
		c3.564-3.564,7.715-6.37,12.449-8.418c4.734-2.043,9.731-3.068,14.992-3.068c8.417,0,15.81,2.542,22.183,7.628
		c6.37,5.085,10.898,11.778,13.589,20.077c-3.507,1.289-7.568,2.836-12.187,4.646c-4.619,1.814-9.441,3.711-14.468,5.697
		c-5.026,1.99-10.056,4.006-15.079,6.051c-5.027,2.047-9.646,3.889-13.854,5.523c1.986,3.625,4.734,6.547,8.242,8.768
		c3.507,2.223,7.479,3.332,11.924,3.332c3.038,0,6.106-0.555,9.205-1.666c3.097-1.107,5.639-2.602,7.628-4.473L505.283,242.694z
		 M490.554,198.856c-1.403-2.57-3.509-4.472-6.313-5.697c-2.806-1.229-5.554-1.843-8.241-1.843c-3.157,0-6.138,0.614-8.941,1.843
		c-2.808,1.227-5.203,2.864-7.189,4.908c-1.989,2.047-3.567,4.385-4.734,7.014c-1.17,2.633-1.754,5.352-1.754,8.154v0.701
		c2.921-1.166,6.051-2.424,9.382-3.77c3.331-1.344,6.663-2.719,9.995-4.121c3.331-1.402,6.517-2.719,9.559-3.945
		C485.351,200.874,488.099,199.795,490.554,198.856z"/>
</g>
</svg>
