<?xml version="1.0" encoding="utf-8"?>
<!-- Generator: Adobe Illustrator 19.0.0, SVG Export Plug-In . SVG Version: 6.00 Build 0)  -->
<svg version="1.1" id="Layer_1" xmlns="http://www.w3.org/2000/svg" xmlns:xlink="http://www.w3.org/1999/xlink" x="0px" y="0px"
	 viewBox="733 -332.9 1293 171" style="enable-background:new 733 -332.9 1293 171;" xml:space="preserve">
<style type="text/css">
	.st0{stroke:#000000;stroke-width:10;}
	.st1{fill:none;stroke:#000000;stroke-width:10;stroke-miterlimit:10;}
</style>
<path class="st0" d="M926.3-274.9c-2.2,0-4-1.8-4-4s1.8-4,4-4s4,1.8,4,4S928.5-274.9,926.3-274.9z"/>
<path class="st1" d="M1359.1-253.6c0,0-35-17-44,7.3s25,27.5,25,27.5s25.5,4,25.5,24.1s-12,28.4-34.5,24.6s-29.8-18.8-32.8-25.5
	c-4.5-10.2,11.5-17.7,15.5-5.8c6.2,18.3,23.7,21.7,23.7,21.7c19.3,2.9,32.1-1.8,44.3-7.5c11.8-5.5,13-19.3,13-19.3l17-85.7
	c0,0,5.6-20.8,0-27.2s-9.4-0.7-9.4,11.8v93.3c0,0-2,44.9,31.5,44c24.9-0.7,34.8-31,34.8-31s6.5-24.2,25.8-32.3
	c16.8-7.1,28.1-7.9,34.4-7.4c4,0.3,3.9-4.8,2.8-7.1c-4.7-9.8-23.5-9.8-23.5-9.8s-29.3-4-34.3,35s11.6,53.1,34.3,53.7
	s34-21.7,32.7-49c0,0-0.3-10.4-4.8-7.6s1.9,8.8,18.3,3c25.6-9.1,36.7-76.7,36.7-76.7s1.6-8.3-2.4-8.7s-4,5.1-4,5.8v91.8
	c0,0-4.8,41.5,26.5,41.4s33.8-39.9,32.5-50.6s-15-25.5-20.5-24s7,13.8,28,12.5s44.1-17.8,63.9-8.2c7.7,3.8,20,3.2,26,2.2
	c3.4-0.5,4.2-4.1,4-5.5c-2.3-14.3-27.9-16-27.9-16s-29.4-3.2-34.4,35.8s11.6,53.1,34.3,53.7c22.7,0.6,34-21.7,32.7-49
	c0,0-0.3-10.4-4.8-7.6c-4.5,2.8,2,9,18.3,3s21.7-19.7,52.5-17.2s16.2-10.4,16.2-10.4s-32.5-25.8-38.2,30.5s26.4,51,32.3,49.6
	c17.6-4.1,25-12.3,33.8-30.3c18.8-38.5,0.3-96.7,0-100.9s-6.4-6.6-9.1-0.8c0,0-12.8,98.1,5.9,121.4s46.3-7,49.3-18.3
	c0,0,23.3-54.5,45.3-42s12.9-7.4,9.8-11.4c-2.8-3.6-7.2-6.2-18.9-6.4c-8.3,0-29.6,0-32,41.5c-1,19.9,2.4,34.5,10.3,41.5
	c3.4,3.1,8.3,4.5,14.4,4.8c0.3,0,0.7,0,1,0c27.4,3.3,29.6-45,29.6-45.4s0.8-0.7,0.8-0.7s-4.9,44.2,19.9,45.2
	c26.2,1,32.2-25.4,33.3-29.2"/>
<path class="st1" d="M1220.8-200.8c-1.2,3.7-7.2,30.2-33.3,29.2c-24.7-0.9-19.9-45.2-19.9-45.2s-0.8,0.4-0.8,0.7
	s-2.2,48.7-29.6,45.4c-0.3,0-0.7,0-1,0c-6.2-0.3-11-1.7-14.4-4.8c-7.9-7-11.3-21.6-10.3-41.5c2.4-41.5,23.7-41.5,32-41.5
	c11.7,0.3,16.2,2.8,18.9,6.4c3.1,3.9,4.3,6.4,3.4,10.6c0,0-1.6,6.3-5.9,4.9c-1-0.3-7.6-3.5-11.6-4c-9-1.1-24.3,7.1-28.1,15.5
	c-9.9,21.3-18.8,58.4-41.1,55.9s-20.3-24.5-21.7-50.2s-5.3-34-29.7-35.7c-24.3-1.7-35.7,32.3-35.7,32.3v55.3v-96v62.2
	c-4.3,10.3-16.3,34.1-41.3,31.8s-26-35.7-26-35.7v-28v29.7c0,0-9.4,32.5-38.3,32s-29.7-46.1-29.7-46.1v-90.5
	c0-5.4-0.4-18.8,6.2-16.2s3.5,16.2,3.5,16.2s-12.4,99.3-14.7,106.5c-1.2,3.7-7.2,30.2-33.3,29.2c-24.7-0.9-19.9-45.2-19.9-45.2
	s-0.8,0.4-0.8,0.7c0,0.4-2.2,48.7-29.6,45.4c-0.3,0-0.7,0-1,0c-6.2-0.3-11-1.7-14.4-4.8c-7.9-7-11.3-21.6-10.3-41.5
	c2.4-41.5,23.7-41.5,32-41.5c11.7,0.3,16.2,2.8,18.9,6.4c3.1,3.9,5.7,8.8,6.4,17.8c0,0,0.8,5.2-4.7,5.8c-11,1.3-6.5-15.4,1-22.3
	s13.5-7.5,13.5-7.5"/>
</svg>
