<?xml version="1.0" encoding="utf-8"?>
<!-- Generator: Adobe Illustrator 19.0.0, SVG Export Plug-In . SVG Version: 6.00 Build 0)  -->
<svg version="1.1" id="Layer_1" xmlns="http://www.w3.org/2000/svg" xmlns:xlink="http://www.w3.org/1999/xlink" x="0px" y="0px"
	 viewBox="-383.2 292.2 15.5 11.1" style="enable-background:new -383.2 292.2 15.5 11.1;" xml:space="preserve">
<style type="text/css">
	.st0{fill:#FFFFFF;}
</style>
<g>
	<path class="st0" d="M-382.4,303.3h13.7l-4.5-4.6l-0.9,0.9c-0.4,0.4-0.9,0.6-1.5,0.6c0,0,0,0,0,0c-0.6,0-1.1-0.2-1.5-0.6l-0.9-0.9
		L-382.4,303.3L-382.4,303.3z M-383.2,293.1v9.3l4.6-4.7L-383.2,293.1L-383.2,293.1z M-372.3,297.8l4.5,4.6v-9.2L-372.3,297.8
		L-372.3,297.8z M-382.4,292.2l6.3,6.4c0.1,0.1,0.3,0.2,0.6,0.2c0,0,0,0,0,0c0.2,0,0.4-0.1,0.6-0.2l6.4-6.4H-382.4L-382.4,292.2z"/>
</g>
</svg>
