<?xml version="1.0" encoding="utf-8"?>
<!-- Generator: Adobe Illustrator 15.1.0, SVG Export Plug-In . SVG Version: 6.00 Build 0)  -->
<!DOCTYPE svg PUBLIC "-//W3C//DTD SVG 1.1//EN" "http://www.w3.org/Graphics/SVG/1.1/DTD/svg11.dtd">
<svg version="1.1" id="Layer_1" xmlns="http://www.w3.org/2000/svg" xmlns:xlink="http://www.w3.org/1999/xlink" x="0px" y="0px"
	 width="1343.037px" height="164.338px" viewBox="0 -6.662 1343.037 164.338" enable-background="new 0 -6.662 1343.037 164.338"
	 xml:space="preserve">
<path fill="#444444" d="M697.63-1.034c0.318,0.14,0.63,0.345,0.966,0.408c4.395,0.814,6.604,3.424,6.633,7.95
	c0.028,4.441,0.006,8.882,0.006,13.323c0.005,24.788-0.027,49.575,0.035,74.363c0.021,7.521,0.369,15.051,1.869,22.455
	c1.198,5.92,3.018,11.596,7.493,16.002c3.521,3.467,7.865,4.957,12.683,5.383c10.769,0.949,17.957-4.445,22.803-13.354
	c2.746-5.047,4.689-10.523,7.115-15.756c0.913-1.971,0.969-3.938,0.847-6.02c-0.649-11.008,0.56-21.762,5.118-31.892
	c5.674-12.602,15.052-20.986,28.854-23.59c17.314-3.267,36.036,2.956,45.486,21.047c1.71,3.274,3.044,6.77,4.271,10.261
	c0.52,1.479,1.287,2.029,2.675,2.23c8.845,1.287,17.349,0.215,25.504-3.521c1.001-0.457,1.324-1.016,1.332-2.094
	c0.061-8.879,0.146-17.76,0.297-26.639c0.164-9.855,0.396-19.711,0.615-29.566c0.063-2.939,0.155-5.881,0.304-8.818
	c0.122-2.444,1.353-4.239,3.624-5.124c3.395-1.322,6.854-1.361,10.235,0.06c2.585,1.086,3.942,3.053,3.891,5.924
	c-0.191,9.855-0.367,19.711-0.563,29.567c-0.104,5.315-0.32,10.628-0.356,15.944c-0.106,15.746-0.212,31.488-0.193,47.234
	c0.007,6.959,0.281,13.918,2.318,20.666c1.006,3.334,2.349,6.502,4.563,9.23c2.668,3.283,6.2,4.883,10.358,5.113
	c11.29,0.627,17.592-5.188,21.058-13.891c3.149-7.908,4.793-16.17,4.866-24.727c0.053-6.016-2.022-10.891-7.224-14.176
	c-2.921-1.846-5.926-3.555-8.837-5.408c-3.229-2.064-4.295-4.659-3.185-8.365c0.599-1.99,1.489-3.973,2.64-5.7
	c1.998-3.005,4.909-3.538,8.276-2.228c7.004,2.727,14.029,5.4,21.109,7.918c3.855,1.371,7.934,1.787,12.025,1.808
	c6.188,0.03,12.381-0.016,18.569,0.058c1.22,0.015,1.718-0.496,2.122-1.521c2.618-6.647,6.518-12.438,12.008-17.032
	c6.268-5.24,13.523-8.111,21.695-8.836c9.487-0.842,18.397,0.852,26.597,5.729c9.076,5.4,14.563,13.67,18.162,23.363
	c0.306,0.821,0.563,1.66,0.829,2.493c0.748,2.324,0.923,2.224,3.334,2.605c10.502,1.672,20.065-1.146,29.438-5.556
	c2.434-1.146,3.967-2.558,5.221-4.914c4.612-8.668,11.104-15.482,20.377-19.285c9.319-3.822,18.422-3.084,27.343,1.336
	c0.556,0.272,1.11,0.541,1.681,0.781c0.123,0.053,0.299-0.02,0.586-0.047c0.232-2.646,0.475-5.3,0.7-7.955
	c0.503-5.898,1.009-11.799,1.495-17.699c0.451-5.44,0.87-10.883,1.323-16.323c0.175-2.104,0.327-4.213,0.626-6.302
	c0.324-2.264,1.66-3.91,3.729-4.799c3.796-1.634,7.558-1.428,11.101,0.748c3.182,1.951,3.068,5.105,2.79,8.265
	c-0.38,4.256-0.78,8.51-1.168,12.765c-0.483,5.333-0.975,10.665-1.442,15.999c-0.354,4.001-0.845,8-0.979,12.011
	c-0.489,14.279-0.974,28.563-1.213,42.85c-0.108,6.541,0.155,13.104,0.614,19.635c0.356,5.082,1.373,10.086,3.334,14.865
	c3.469,8.449,11.233,10.828,18.787,8.537c5.976-1.814,10.351-5.881,14.196-10.564c4.061-4.945,7.179-10.459,9.436-16.441
	c0.354-0.938,0.581-1.992,0.571-2.99c-0.094-9.688,0.854-19.248,3.457-28.595c2.297-8.242,6.06-15.688,12.517-21.516
	c5.772-5.211,12.672-7.684,20.36-8.344c5.216-0.447,10.303,0.177,15.301,1.462c10.104,2.599,16.224,9.382,19.354,19.087
	c1.846,5.723,2.771,11.617,2.827,17.626c0.063,6.713-0.135,13.434,0.072,20.139c0.235,7.621,0.819,15.23,3.346,22.525
	c0.421,1.213,0.979,2.383,1.545,3.539c3.197,6.529,10.564,7.375,15.484,4.979c4.536-2.205,8.095-5.627,10.93-9.643
	c4.521-6.398,8.692-13.045,12.975-19.615c1.72-2.639,3.97-4.381,7.131-4.961c3.091-0.566,5.549,0.494,7.684,2.621
	c0.355,0.355,0.729,0.689,1.095,1.031c0,3.305,0,6.609,0,9.916c-1.362,2.24-2.758,4.461-4.083,6.723
	c-5.517,9.4-11.723,18.26-20.223,25.248c-6.672,5.486-14.187,8.818-23.053,7.883c-8.968-0.941-16.322-4.822-21.527-12.379
	c-0.333-0.479-0.69-0.945-1.043-1.426c-1.913,2.031-3.519,4.08-5.458,5.736c-9.229,7.875-20.085,9.133-31.451,6.875
	c-10.095-2.004-16.808-8.543-21.247-17.604c-0.284-0.58-0.577-1.154-0.868-1.73c-0.166-0.08-0.334-0.16-0.5-0.238
	c-0.198,0.359-0.334,0.779-0.604,1.07c-2.353,2.531-4.569,5.217-7.128,7.525c-7.354,6.645-15.813,10.701-25.971,10.697
	c-9.356-0.004-17.34-3.148-23.845-9.934c-0.347-0.359-0.727-0.688-1.132-1.072c-0.409,0.354-0.731,0.6-1.021,0.883
	c-3.271,3.219-7,5.77-11.171,7.682c-7.528,3.451-15.438,4.955-23.637,3.822c-8.388-1.158-14.933-5.719-20.104-12.277
	c-5.278-6.693-8.39-14.412-10.162-22.676c-1.475-6.871-2.17-13.832-1.655-20.879c0.1-1.355,0.016-2.73,0.016-4.258
	c-0.713,0.186-1.256,0.301-1.781,0.465c-7.721,2.428-15.6,3.279-23.654,2.428c-1.902-0.199-2.053-0.084-2.021,1.844
	c0.11,7.619-0.714,15.121-2.808,22.461c-2.55,8.926-6.917,16.779-13.993,22.918c-6.645,5.762-14.456,8.729-23.207,9.512
	c-6.525,0.582-12.878-0.016-19.021-2.234c-10.754-3.883-17.584-11.771-21.919-22.047c-4.308-10.201-5.3-21.01-5.552-31.93
	c-0.036-1.545-0.048-3.105,0.12-4.637c0.281-2.57,0.252-2.598-2.282-2.635c-6.086-0.092-12.171-0.264-18.258-0.393
	c-1.156-0.025-2.316-0.004-3.55-0.004c0.259,2.244,0.623,4.375,0.729,6.52c0.298,5.949-0.261,11.85-1.536,17.658
	c-1.662,7.561-3.537,15.07-7.43,21.867c-6.034,10.539-14.935,16.994-27.07,18.748c-1.568,0.227-3.138,0.459-4.705,0.688
	c-1.033,0-2.065,0-3.102,0c-1.761-0.295-3.527-0.547-5.28-0.891c-11.687-2.295-19.213-9.607-24.065-20.078
	c-3.051-6.58-4.586-13.559-4.912-20.771c-0.261-5.719-0.251-11.449-0.374-17.176c-0.015-0.645-0.105-1.289-0.177-2.084
	c-2.527,0.613-4.854,1.211-7.197,1.74c-5.835,1.32-11.734,1.521-17.673,0.924c-1.97-0.195-2.117-0.096-2.097,1.928
	c0.103,10.102-1.194,19.975-5.299,29.283c-5.953,13.512-15.901,22.396-30.671,24.982c-11.636,2.037-22.731,0.51-32.469-6.844
	c-4.09-3.092-7.271-7.008-9.836-11.438c-0.23-0.396-0.478-0.795-0.729-1.182c-0.049-0.076-0.17-0.105-0.438-0.262
	c-0.396,0.541-0.813,1.096-1.207,1.662c-5.55,7.967-12.492,14.291-21.978,17.004c-13.117,3.752-25.672,2.586-36.855-5.922
	c-6.765-5.145-10.852-12.188-13.344-20.215c-0.485-1.564-0.915-3.148-1.426-4.908c-0.666,0.195-1.242,0.34-1.801,0.535
	c-7.503,2.652-15.229,4.393-23.063,5.713c-0.908,0.152-1.655,0.289-1.964,1.521c-3.521,14.1-12.462,22.854-26.747,25.188
	c-13.424,2.191-26.435,0.396-38.209-7.104c-9.005-5.734-14.616-14.119-18.313-23.9c-1.254-3.314-2.267-6.742-3.093-10.189
	c-1.319-5.51,1.586-9.551,7.228-10.354c1.016-0.146,2.067-0.309,3.067-0.184c4.501,0.564,6.034,2.078,7.066,6.656
	c1.443,6.396,3.664,12.457,7.843,17.643c4.603,5.715,10.703,8.764,17.825,9.914c4.604,0.744,9.229,0.855,13.846,0.025
	c6.39-1.152,11.421-5.988,12.359-12.453c0.845-5.814-0.979-11.783-7.438-15.396c-4.775-2.672-10.047-3.959-15.203-5.58
	c-5.4-1.695-10.889-3.188-16.146-5.258c-8.517-3.352-14.531-9.299-16.484-18.494c-2.407-11.331,1.154-20.771,9.973-28.175
	c5.876-4.934,12.814-7.294,20.419-7.96c9.714-0.851,18.869,1.112,27.563,5.331c1.716,0.832,3.31,2.107,4.637,3.488
	c1.492,1.554,1.6,3.642,0.959,5.681c-0.896,2.851-2.575,5.183-5.036,6.864c-2.563,1.749-5.211,1.959-7.976,0.275
	c-3.813-2.322-8.093-3.254-12.45-3.873c-4.164-0.592-8.25-0.225-12.154,1.324c-4.564,1.809-8.043,4.766-8.7,9.954
	c-0.382,3.011,0.428,5.747,3.11,7.603c3.554,2.457,7.715,3.35,11.742,4.605c6.729,2.104,13.523,4.051,20.122,6.52
	c5.796,2.17,10.601,5.98,14.352,10.947c1.165,1.543,2.122,3.313,2.836,5.107c0.625,1.578,1.558,1.926,3.075,1.809
	c5.183-0.398,10.149-1.703,14.997-3.482c2.757-1.018,5.477-2.143,8.15-3.354c0.547-0.248,1.158-1.098,1.164-1.672
	c0.031-3.766-0.147-7.527-0.162-11.295c-0.063-18.176-0.09-36.353-0.147-54.531c-0.03-9.861-0.109-19.722-0.147-29.582
	c-0.021-4.554,2.708-7.599,7.223-8.168c0.551-0.068,1.084-0.277,1.624-0.421C696.595-1.034,697.11-1.034,697.63-1.034z
	 M775.76,100.02c0.146,2.828,0.254,5.66,0.445,8.486c0.382,5.57,1.36,11.033,3.448,16.24c1.863,4.645,4.419,8.9,9.002,11.238
	c7.604,3.879,15.483,3.652,23.089,0.092c6.2-2.898,9.563-8.445,11.816-14.68c2.766-7.629,3.357-15.563,3.1-23.596
	c-0.177-5.432-0.946-10.771-2.818-15.896c-4.844-13.261-14.765-17.564-26.9-16.33c-8.849,0.898-14.584,6.188-17.857,14.285
	C776.466,86.332,775.679,93.096,775.76,100.02z M991.246,99.699c-0.114,7.473,0.519,14.479,2.481,21.316
	c1.489,5.188,3.756,9.965,8.023,13.479c4.177,3.439,9.144,4.105,14.386,4.088c9.584-0.023,16.428-4.361,20.83-12.717
	c2.979-5.646,4.227-11.775,4.771-18.088c0.674-7.756,0.406-15.438-1.617-22.992c-3.839-14.329-14.623-21.396-29.265-18.979
	c-8.106,1.339-13.261,6.433-16.327,13.838C991.82,86.191,991.032,93.059,991.246,99.699z M1104.757,104.965
	c0.277,3.229,0.423,6.477,0.864,9.684c0.809,5.867,2.457,11.492,5.676,16.533c3.337,5.229,7.638,8.533,14.385,8.045
	c9.051-0.652,15.771-4.617,20-12.666c0.354-0.678,0.51-1.582,0.43-2.346c-0.449-4.35-1.216-8.676-1.465-13.031
	c-0.323-5.662-0.328-11.348-0.349-17.021c-0.021-5.264,0.15-10.521,0.166-15.787c0.001-0.763-0.188-1.738-0.672-2.252
	c-3.076-3.258-6.591-5.957-10.837-7.531c-4.692-1.739-9.181-1.299-13.461,1.396c-4.346,2.735-7.323,6.622-9.546,11.137
	C1106.259,88.627,1104.935,96.65,1104.757,104.965z M1265.162,92.563c0.129-0.02,0.259-0.033,0.389-0.053
	c-0.563-5.314-0.953-10.652-1.751-15.932c-0.563-3.72-2.154-7.203-5.837-8.803c-5.744-2.497-11.715-2.809-17.543-0.23
	c-4.729,2.09-7.334,6.205-9.243,10.781c-2.775,6.65-3.835,13.705-4.028,20.816c-0.176,6.369,0.115,12.771,0.604,19.131
	c0.362,4.73,1.679,9.32,4.051,13.521c2.096,3.709,5.072,6.264,9.426,6.752c2.293,0.258,4.637,0.391,6.934,0.229
	c4.201-0.293,7.74-2.135,9.805-5.873c1.526-2.77,2.854-5.752,3.656-8.801C1264.337,113.779,1265.019,103.193,1265.162,92.563z"/>
<path fill="#444444" d="M129.03-1.034c0.322,0.14,0.631,0.345,0.967,0.408c4.395,0.814,6.604,3.424,6.632,7.951
	c0.028,4.647,0.007,9.297,0.008,13.943c0.004,24.531-0.028,49.063,0.032,73.593c0.02,7.576,0.363,15.154,1.871,22.609
	c1.198,5.922,3.021,11.596,7.499,16.002c3.521,3.463,7.867,4.959,12.686,5.375c9.498,0.82,16.342-3.381,21.479-11.084
	c3.878-5.818,6.236-12.309,8.666-18.771c0.141-0.371,0.119-0.813,0.119-1.221c-0.001-8.107-0.013-16.217-0.016-24.324
	c-0.002-4.594,2.61-7.639,7.229-8.062c1.86-0.17,3.846-0.043,5.646,0.436c3.122,0.829,4.813,3.361,4.822,6.593
	c0.019,6.973-0.131,13.945,0.058,20.912c0.195,7.318,0.81,14.615,3.092,21.646c1.241,3.826,2.967,7.41,6.113,10.061
	c4.442,3.744,9.781,4.508,15.294,3.949c7.482-0.758,12.693-5.277,16.987-11.051c4.461-6,7.813-12.627,10.793-19.449
	c0.294-0.672,0.29-1.506,0.29-2.266c0.019-17.717,0.085-35.428-0.015-53.141c-0.038-6.727,4.68-8.431,9.795-8.296
	c0.616,0.017,1.234,0.104,1.846,0.203c4.186,0.677,6.396,3.293,6.398,7.558c0.001,2.832,0,5.666,0,9.039
	c1.072-0.877,1.809-1.449,2.51-2.06c5.397-4.707,11.532-7.952,18.604-9.288c8.335-1.574,16.281-0.197,23.972,3.196
	c6.233,2.749,11.603,6.498,15.141,12.498c3.162,5.362,5.028,11.146,5.797,17.314c1.142,9.186,1.093,18.418,1.263,27.646
	c0.108,5.869,0.333,11.752,1.832,17.48c0.286,1.098,0.647,2.172,1.009,3.244c2.322,6.926,10.514,9.459,16.517,5.73
	c3.854-2.396,6.976-5.6,9.313-9.379c3.819-6.174,7.283-12.57,10.826-18.91c0.371-0.664,0.379-1.594,0.371-2.396
	c-0.098-10,0.906-19.863,3.741-29.478c2.346-7.957,6.122-15.11,12.418-20.699c5.729-5.086,12.544-7.507,20.121-8.164
	c5.216-0.453,10.306,0.166,15.304,1.447c10.1,2.589,16.24,9.354,19.378,19.063c1.85,5.721,2.781,11.614,2.838,17.624
	c0.063,6.713-0.133,13.434,0.073,20.141c0.234,7.621,0.813,15.23,3.339,22.525c0.437,1.262,1.012,2.48,1.608,3.68
	c3.193,6.408,10.494,7.262,15.396,4.893c4.542-2.193,8.065-5.639,10.943-9.627c3.831-5.307,7.295-10.879,10.914-16.338
	c1.083-1.633,2.033-3.371,3.261-4.889c3.501-4.34,9.821-4.707,13.497-0.893c2.688,2.793,3.15,7.17,0.978,11.086
	c-2.104,3.789-4.31,7.525-6.59,11.209c-4.81,7.77-10.399,14.898-17.464,20.775c-5.973,4.967-12.786,8.254-20.61,8.049
	c-9.764-0.256-18.009-4.092-23.807-12.328c-0.377-0.535-0.746-1.076-1.259-1.814c-0.492,0.574-0.862,0.973-1.191,1.396
	c-5.533,7.207-12.915,11.01-21.875,11.957c-5.43,0.572-10.813,0.537-16.077-1.115c-8.104-2.547-13.933-7.822-17.98-15.186
	c-0.646-1.174-1.233-2.379-1.854-3.566c-0.021-0.041-0.082-0.061-0.318-0.229c-0.351,0.43-0.744,0.854-1.067,1.326
	c-3.228,4.723-6.979,8.975-11.512,12.471c-6.262,4.826-13.21,7.371-21.294,6.643c-7.986-0.719-14.549-4-19.661-10.1
	c-4.197-5.006-6.329-11.018-7.244-17.352c-0.859-5.949-1.257-11.979-1.58-17.986c-0.31-5.77-0.122-11.564-0.417-17.334
	c-0.273-5.346-0.744-10.695-2.748-15.761c-1.284-3.248-3.373-5.707-6.519-7.35c-3.567-1.861-7.255-3.318-11.301-3.365
	c-5.603-0.064-10.487,1.97-14.625,5.724c-6.714,6.092-10.479,13.886-12.32,22.58c-0.868,4.098-1.186,8.369-1.237,12.566
	c-0.166,13.271-0.18,26.547-0.068,39.816c0.06,6.889-5.525,9.395-10.583,8.953c-2.271-0.197-4.35-0.863-6.017-2.492
	c-1.354-1.318-2.074-2.932-2.072-4.84c0.001-2.006,0-4.01,0-6.455c-0.75,0.629-1.219,0.965-1.621,1.369
	c-5.974,5.994-12.913,10.426-21.345,11.752c-12.752,2.004-24.497-0.264-33.931-9.814c-2.184-2.207-3.745-5.025-5.58-7.572
	c-0.32-0.443-0.575-0.938-1.02-1.67c-9.124,13.098-21.203,20.063-37.232,19.279c-16.179-0.783-27.187-8.996-33.911-23.787
	c-0.642,0.813-1.18,1.447-1.675,2.117c-4.533,6.135-9.54,11.809-15.817,16.238c-5.324,3.76-11.262,6.135-17.761,5.928
	c-9.769-0.311-18.013-4.094-23.815-12.32c-0.378-0.535-0.747-1.08-1.263-1.826c-0.486,0.564-0.858,0.957-1.187,1.385
	c-5.527,7.209-12.907,11.016-21.866,11.969c-6.066,0.645-12.06,0.508-17.832-1.711c-8.96-3.436-14.645-10.105-18.243-18.756
	c-2.454-5.898-3.896-12.07-4.313-18.432c-0.367-5.604-0.811-11.244-0.542-16.838c0.563-11.736,2.182-23.306,7.99-33.84
	c5.805-10.526,14.582-16.81,26.573-18.25c7.006-0.842,13.908-0.037,20.514,2.511c5.861,2.26,10.224,6.301,13.199,11.842
	c3.156,5.877,4.729,12.242,5.058,18.812c0.398,7.98,0.226,15.99,0.397,23.984c0.149,6.963,0.685,13.9,2.498,20.654
	c0.609,2.271,1.506,4.502,2.547,6.613c3.128,6.346,10.381,7.188,15.272,4.859c4.555-2.168,8.118-5.598,10.958-9.605
	c4.495-6.354,8.583-12.998,12.938-19.453c0.984-1.459,1.313-2.889,1.26-4.607c-0.178-5.982-0.286-11.971-0.313-17.953
	c-0.076-16.269-0.09-32.535-0.146-48.801c-0.033-9.914-0.11-19.826-0.149-29.739c-0.019-4.556,2.707-7.601,7.221-8.17
	c0.551-0.069,1.084-0.278,1.626-0.423C127.997-1.034,128.513-1.034,129.03-1.034z M56.082,92.631
	c0.129-0.02,0.258-0.035,0.388-0.053c-0.563-5.313-0.913-10.662-1.744-15.934c-0.84-5.333-3.776-9.101-9.405-10.146
	c-1.514-0.281-3.058-0.438-4.595-0.543c-5.828-0.396-11.01,1.072-14.73,5.826c-1.568,2.006-2.892,4.293-3.898,6.637
	c-2.829,6.568-3.832,13.596-4.028,20.654c-0.178,6.367,0.118,12.771,0.597,19.129c0.354,4.684,1.649,9.213,3.952,13.395
	c2.118,3.846,5.146,6.469,9.611,6.969c2.344,0.262,4.745,0.381,7.089,0.188c4.398-0.361,7.899-2.504,9.948-6.439
	c1.367-2.629,2.555-5.432,3.3-8.293C55.239,113.74,55.921,103.207,56.082,92.631z M440.621,92.617
	c0.129-0.018,0.258-0.035,0.387-0.053c-0.563-5.314-0.912-10.662-1.745-15.933c-0.844-5.334-3.789-9.094-9.417-10.135
	c-1.516-0.281-3.06-0.439-4.596-0.543c-5.826-0.388-11.009,1.084-14.726,5.842c-1.568,2.009-2.901,4.291-3.896,6.641
	c-2.913,6.875-3.85,14.199-4.069,21.584c-0.156,5.244-0.05,10.52,0.324,15.752c0.396,5.564,1.582,11.014,4.349,15.977
	c2.073,3.721,5.045,6.299,9.396,6.789c2.394,0.271,4.846,0.406,7.238,0.213c4.271-0.344,7.749-2.367,9.774-6.188
	c1.435-2.709,2.685-5.602,3.458-8.557C439.79,113.727,440.46,103.191,440.621,92.617z"/>
<path fill="#444444" d="M205.936,51.694c0.213,4.903-3.611,11.092-11.082,11.141c-6.238,0.041-11.128-4.48-11.187-11.082
	c-0.063-7.363,6.052-11.306,11.189-11.211C201.04,40.656,205.938,45.491,205.936,51.694z"/>
</svg>
