<?xml version="1.0" encoding="utf-8"?>
<!-- Generator: Adobe Illustrator 16.0.0, SVG Export Plug-In . SVG Version: 6.00 Build 0)  -->
<!DOCTYPE svg PUBLIC "-//W3C//DTD SVG 1.1//EN" "http://www.w3.org/Graphics/SVG/1.1/DTD/svg11.dtd">
<svg version="1.1" id="Layer_1" xmlns="http://www.w3.org/2000/svg" xmlns:xlink="http://www.w3.org/1999/xlink" x="0px" y="0px"
	 width="765.35px" height="765.35px" viewBox="0 0 765.35 765.35" enable-background="new 0 0 765.35 765.35" xml:space="preserve">
<g>
	<path fill="#444444" d="M491.972,303.194c0.32,0.139,0.63,0.344,0.966,0.407c4.394,0.815,6.603,3.424,6.632,7.951
		c0.029,4.441,0.006,8.882,0.006,13.323c0.005,24.788-0.028,49.575,0.035,74.362c0.02,7.525,0.369,15.051,1.869,22.455
		c1.199,5.921,3.018,11.596,7.494,16.003c3.52,3.466,7.866,4.956,12.682,5.382c10.768,0.95,17.957-4.445,22.803-13.35
		c2.746-5.047,4.689-10.527,7.115-15.756c0.913-1.971,0.969-3.941,0.846-6.02c-0.65-11.006,0.559-21.76,5.119-31.891
		c5.673-12.602,15.051-20.987,28.854-23.59c17.316-3.267,36.036,2.956,45.487,21.047c1.71,3.274,3.044,6.769,4.27,10.261
		c0.519,1.478,1.288,2.029,2.675,2.231c8.844,1.287,17.348,0.215,25.504-3.52c1.001-0.458,1.324-1.016,1.332-2.095
		c0.059-8.879,0.146-17.759,0.296-26.638c0.165-9.856,0.396-19.711,0.616-29.566c0.064-2.94,0.155-5.882,0.303-8.819
		c0.123-2.444,1.352-4.239,3.624-5.124c3.394-1.322,6.853-1.361,10.236,0.06c2.585,1.085,3.944,3.052,3.89,5.923
		c-0.192,9.856-0.367,19.712-0.564,29.568c-0.105,5.315-0.32,10.628-0.357,15.944c-0.107,15.746-0.211,31.492-0.194,47.237
		c0.007,6.959,0.282,13.918,2.319,20.666c1.006,3.334,2.348,6.502,4.564,9.231c2.668,3.283,6.201,4.882,10.36,5.112
		c11.29,0.627,17.591-5.185,21.057-13.888c3.15-7.909,4.792-16.171,4.866-24.727c0.052-6.013-2.023-10.888-7.223-14.173
		c-2.92-1.846-5.925-3.555-8.836-5.412c-3.23-2.062-4.295-4.658-3.184-8.364c0.598-1.99,1.49-3.973,2.639-5.7
		c1.998-3.005,4.909-3.538,8.277-2.228c7.004,2.727,14.03,5.4,21.11,7.918c3.856,1.371,7.933,1.788,12.026,1.808
		c6.189,0.03,12.381-0.016,18.57,0.057c1.219,0.015,1.717-0.495,2.123-1.522c2.618-6.647,6.516-12.439,12.007-17.032
		c6.266-5.24,13.524-8.111,21.696-8.836c9.488-0.842,18.398,0.852,26.596,5.729c9.076,5.4,14.561,13.669,18.162,23.363
		c0.305,0.821,0.563,1.66,0.83,2.493c0.748,2.324,0.922,2.223,3.334,2.606c10.502,1.672,20.066-1.146,29.437-5.557
		c2.433-1.145,3.966-2.557,5.22-4.914c4.613-8.668,11.104-15.482,20.377-19.285c9.32-3.822,18.422-3.083,27.343,1.336
		c0.554,0.273,1.11,0.541,1.679,0.781c0.123,0.053,0.299-0.019,0.586-0.046c0.234-2.646,0.474-5.3,0.7-7.955
		c0.503-5.899,1.009-11.799,1.497-17.7c0.451-5.44,0.87-10.883,1.323-16.323c0.175-2.104,0.327-4.213,0.626-6.301
		c0.324-2.265,1.66-3.911,3.728-4.8c3.796-1.633,7.557-1.427,11.1,0.748c3.181,1.952,3.069,5.106,2.79,8.265
		c-0.379,4.256-0.78,8.51-1.168,12.765c-0.484,5.333-0.974,10.665-1.443,15.999c-0.352,4.001-0.844,8-0.98,12.01
		c-0.49,14.28-0.973,28.563-1.213,42.849c-0.109,6.542,0.156,13.106,0.615,19.636c0.357,5.081,1.373,10.086,3.334,14.864
		c3.468,8.452,11.234,10.829,18.788,8.538c5.974-1.812,10.349-5.879,14.196-10.565c4.059-4.945,7.178-10.458,9.435-16.442
		c0.354-0.938,0.581-1.992,0.571-2.99c-0.093-9.686,0.854-19.249,3.457-28.596c2.297-8.242,6.059-15.688,12.516-21.515
		c5.774-5.211,12.672-7.684,20.361-8.344c5.216-0.447,10.303,0.177,15.301,1.462c10.104,2.599,16.222,9.382,19.352,19.087
		c1.846,5.722,2.773,11.616,2.828,17.627c0.061,6.713-0.135,13.432,0.072,20.138c0.236,7.621,0.82,15.23,3.346,22.525
		c0.42,1.213,0.979,2.384,1.544,3.54c3.198,6.528,10.566,7.374,15.486,4.98c4.536-2.206,8.094-5.627,10.929-9.641
		c4.52-6.4,8.693-13.046,12.973-19.615c1.72-2.64,3.97-4.382,7.131-4.962c3.091-0.567,5.549,0.494,7.684,2.622
		c0.355,0.353,0.729,0.687,1.093,1.03c0,3.305,0,6.61,0,9.916c-1.363,2.24-2.757,4.461-4.083,6.723
		c-5.515,9.4-11.721,18.26-20.221,25.248c-6.672,5.486-14.186,8.819-23.053,7.884c-8.967-0.946-16.323-4.824-21.528-12.38
		c-0.333-0.482-0.692-0.947-1.043-1.426c-1.913,2.031-3.518,4.081-5.458,5.736c-9.23,7.876-20.085,9.133-31.451,6.876
		c-10.094-2.004-16.807-8.544-21.248-17.604c-0.285-0.58-0.578-1.155-0.868-1.732c-0.167-0.08-0.334-0.159-0.501-0.238
		c-0.198,0.36-0.334,0.779-0.605,1.071c-2.352,2.532-4.57,5.217-7.127,7.526c-7.354,6.644-15.814,10.701-25.971,10.697
		c-9.357-0.004-17.34-3.149-23.844-9.931c-0.346-0.361-0.725-0.69-1.131-1.075c-0.41,0.354-0.733,0.6-1.02,0.883
		c-3.271,3.22-7,5.77-11.171,7.682c-7.528,3.451-15.438,4.955-23.636,3.823c-8.387-1.158-14.932-5.72-20.105-12.278
		c-5.279-6.694-8.39-14.414-10.162-22.675c-1.475-6.872-2.17-13.832-1.657-20.88c0.099-1.357,0.015-2.729,0.015-4.258
		c-0.712,0.185-1.255,0.301-1.781,0.465c-7.721,2.428-15.6,3.279-23.655,2.428c-1.903-0.201-2.052-0.085-2.022,1.843
		c0.111,7.619-0.713,15.121-2.807,22.46c-2.549,8.926-6.917,16.781-13.993,22.918c-6.644,5.762-14.456,8.731-23.207,9.512
		c-6.526,0.582-12.878-0.016-19.022-2.234c-10.754-3.883-17.584-11.775-21.919-22.047c-4.307-10.201-5.3-21.01-5.552-31.93
		c-0.036-1.545-0.047-3.104,0.121-4.637c0.281-2.569,0.252-2.596-2.283-2.634c-6.086-0.091-12.171-0.263-18.257-0.392
		c-1.157-0.025-2.317-0.004-3.55-0.004c0.259,2.244,0.623,4.375,0.73,6.52c0.298,5.949-0.26,11.848-1.537,17.658
		c-1.662,7.559-3.537,15.07-7.429,21.867c-6.034,10.539-14.934,16.994-27.071,18.748c-1.569,0.227-3.137,0.459-4.705,0.689
		c-1.033,0-2.066,0-3.1,0c-1.761-0.295-3.529-0.547-5.281-0.891c-11.686-2.294-19.213-9.607-24.067-20.078
		c-3.05-6.58-4.585-13.559-4.912-20.772c-0.26-5.718-0.251-11.449-0.374-17.175c-0.014-0.646-0.106-1.29-0.176-2.084
		c-2.528,0.614-4.855,1.211-7.198,1.741c-5.835,1.32-11.735,1.519-17.673,0.923c-1.969-0.197-2.117-0.095-2.096,1.926
		c0.102,10.102-1.195,19.975-5.298,29.284c-5.954,13.511-15.902,22.398-30.671,24.983c-11.635,2.037-22.732,0.51-32.468-6.844
		c-4.09-3.09-7.272-7.006-9.836-11.433c-0.231-0.4-0.476-0.795-0.729-1.183c-0.049-0.075-0.17-0.104-0.439-0.261
		c-0.394,0.541-0.811,1.095-1.207,1.662c-5.55,7.966-12.492,14.291-21.976,17.003c-13.118,3.752-25.672,2.586-36.857-5.921
		c-6.764-5.144-10.851-12.187-13.343-20.214c-0.486-1.566-0.916-3.15-1.426-4.91c-0.666,0.197-1.242,0.34-1.8,0.537
		c-7.503,2.652-15.23,4.391-23.063,5.712c-0.908,0.153-1.655,0.289-1.963,1.522c-3.52,14.099-12.462,22.854-26.748,25.188
		c-13.423,2.193-26.433,0.397-38.208-7.102c-9.005-5.736-14.617-14.119-18.314-23.902c-1.253-3.314-2.266-6.742-3.092-10.19
		c-1.32-5.509,1.586-9.55,7.227-10.353c1.014-0.145,2.068-0.308,3.068-0.182c4.501,0.566,6.034,2.078,7.067,6.656
		c1.444,6.398,3.664,12.457,7.842,17.643c4.602,5.714,10.703,8.762,17.826,9.914c4.604,0.744,9.229,0.857,13.845,0.025
		c6.389-1.152,11.421-5.988,12.36-12.453c0.844-5.814-0.98-11.784-7.439-15.396c-4.776-2.672-10.047-3.959-15.204-5.58
		c-5.401-1.697-10.888-3.188-16.145-5.258c-8.516-3.351-14.532-9.299-16.485-18.493c-2.408-11.334,1.154-20.773,9.972-28.177
		c5.876-4.934,12.815-7.294,20.419-7.96c9.713-0.851,18.869,1.112,27.563,5.331c1.715,0.832,3.309,2.107,4.636,3.488
		c1.493,1.554,1.599,3.642,0.959,5.681c-0.895,2.851-2.575,5.183-5.036,6.864c-2.562,1.749-5.211,1.959-7.975,0.276
		c-3.813-2.323-8.092-3.254-12.451-3.874c-4.164-0.592-8.25-0.224-12.154,1.324c-4.566,1.81-8.043,4.767-8.701,9.955
		c-0.381,3.01,0.427,5.747,3.111,7.604c3.553,2.457,7.715,3.347,11.743,4.605c6.73,2.104,13.524,4.051,20.122,6.519
		c5.796,2.168,10.6,5.981,14.351,10.948c1.165,1.543,2.122,3.311,2.835,5.109c0.625,1.577,1.557,1.925,3.076,1.807
		c5.182-0.401,10.15-1.703,14.997-3.485c2.757-1.014,5.476-2.14,8.151-3.351c0.547-0.247,1.159-1.096,1.164-1.671
		c0.032-3.765-0.148-7.529-0.162-11.294c-0.064-18.178-0.09-36.355-0.148-54.533c-0.031-9.861-0.111-19.722-0.149-29.583
		c-0.019-4.553,2.708-7.598,7.222-8.167c0.551-0.069,1.084-0.278,1.624-0.421C490.939,303.194,491.454,303.194,491.972,303.194z
		 M570.102,404.247c0.146,2.828,0.253,5.66,0.446,8.486c0.381,5.575,1.361,11.037,3.449,16.244c1.863,4.642,4.419,8.9,9.002,11.238
		c7.605,3.88,15.483,3.652,23.088,0.092c6.201-2.902,9.561-8.448,11.817-14.679c2.765-7.63,3.358-15.564,3.099-23.597
		c-0.176-5.43-0.947-10.771-2.819-15.895c-4.843-13.262-14.764-17.565-26.901-16.332c-8.848,0.899-14.584,6.189-17.859,14.288
		C570.808,390.56,570.023,397.323,570.102,404.247z M785.589,403.927c-0.115,7.471,0.517,14.478,2.482,21.317
		c1.49,5.188,3.756,9.965,8.024,13.479c4.177,3.438,9.143,4.103,14.386,4.088c9.584-0.025,16.427-4.364,20.83-12.718
		c2.978-5.647,4.226-11.776,4.773-18.088c0.673-7.755,0.406-15.437-1.618-22.992c-3.839-14.33-14.624-21.398-29.264-18.98
		c-8.108,1.339-13.261,6.433-16.328,13.839C786.164,390.42,785.376,397.286,785.589,403.927z M899.099,409.193
		c0.278,3.229,0.423,6.477,0.865,9.683c0.808,5.867,2.457,11.492,5.675,16.534c3.337,5.23,7.637,8.533,14.384,8.045
		c9.051-0.653,15.773-4.617,20-12.667c0.355-0.678,0.51-1.581,0.43-2.346c-0.451-4.348-1.216-8.674-1.465-13.031
		c-0.323-5.662-0.328-11.347-0.348-17.021c-0.019-5.263,0.152-10.525,0.166-15.789c0.001-0.762-0.188-1.738-0.672-2.251
		c-3.076-3.258-6.59-5.957-10.836-7.531c-4.693-1.74-9.18-1.3-13.461,1.395c-4.345,2.735-7.324,6.622-9.545,11.136
		C900.601,392.856,899.279,400.879,899.099,409.193z M1059.505,396.791c0.129-0.018,0.258-0.034,0.388-0.052
		c-0.563-5.314-0.954-10.654-1.751-15.933c-0.561-3.719-2.155-7.202-5.836-8.802c-5.745-2.497-11.715-2.808-17.544-0.231
		c-4.729,2.09-7.334,6.206-9.243,10.781c-2.776,6.653-3.835,13.707-4.029,20.819c-0.175,6.369,0.116,12.772,0.604,19.13
		c0.363,4.731,1.678,9.32,4.05,13.521c2.095,3.709,5.073,6.264,9.425,6.752c2.293,0.258,4.637,0.392,6.933,0.231
		c4.202-0.294,7.741-2.135,9.804-5.874c1.528-2.769,2.855-5.751,3.658-8.8C1058.679,418.007,1059.363,407.421,1059.505,396.791z"/>
	<path fill="#444444" d="M-76.626,303.194c0.322,0.139,0.631,0.344,0.967,0.407c4.393,0.815,6.603,3.424,6.631,7.952
		c0.029,4.647,0.006,9.296,0.007,13.943c0.004,24.531-0.028,49.062,0.033,73.593c0.019,7.577,0.364,15.155,1.872,22.61
		c1.198,5.921,3.02,11.596,7.499,16.002c3.521,3.463,7.867,4.958,12.684,5.375c9.498,0.821,16.342-3.381,21.479-11.085
		c3.878-5.818,6.236-12.305,8.666-18.771c0.139-0.37,0.119-0.813,0.119-1.221c-0.001-8.107-0.013-16.216-0.016-24.323
		c-0.002-4.594,2.612-7.64,7.229-8.063c1.86-0.17,3.845-0.042,5.644,0.436c3.122,0.829,4.815,3.361,4.823,6.592
		c0.018,6.973-0.13,13.947,0.057,20.914c0.196,7.317,0.81,14.615,3.092,21.645c1.241,3.825,2.967,7.41,6.113,10.061
		c4.444,3.744,9.782,4.508,15.294,3.949c7.484-0.758,12.694-5.277,16.988-11.052c4.461-5.999,7.813-12.626,10.793-19.448
		c0.293-0.672,0.29-1.507,0.29-2.266c0.018-17.714,0.085-35.428-0.014-53.141c-0.038-6.726,4.679-8.43,9.795-8.295
		c0.616,0.016,1.234,0.104,1.845,0.203c4.185,0.676,6.397,3.293,6.399,7.558c0.001,2.832,0,5.665,0,9.038
		c1.072-0.877,1.808-1.448,2.51-2.059c5.397-4.707,11.532-7.952,18.602-9.288c8.335-1.575,16.281-0.197,23.972,3.196
		c6.233,2.749,11.601,6.498,15.139,12.498c3.163,5.363,5.03,11.146,5.797,17.315c1.142,9.186,1.093,18.419,1.263,27.648
		c0.108,5.869,0.333,11.751,1.832,17.483c0.286,1.095,0.648,2.171,1.009,3.245c2.322,6.924,10.513,9.458,16.515,5.728
		c3.855-2.396,6.976-5.598,9.313-9.378c3.819-6.175,7.283-12.57,10.826-18.911c0.371-0.664,0.379-1.593,0.371-2.396
		c-0.097-9.999,0.906-19.864,3.741-29.48c2.346-7.957,6.123-15.11,12.418-20.699c5.729-5.086,12.544-7.507,20.122-8.164
		c5.215-0.453,10.305,0.166,15.303,1.447c10.1,2.589,16.24,9.355,19.378,19.063c1.85,5.721,2.781,11.615,2.838,17.626
		c0.064,6.713-0.133,13.432,0.073,20.139c0.236,7.621,0.813,15.232,3.339,22.527c0.437,1.261,1.012,2.481,1.609,3.679
		c3.194,6.409,10.495,7.262,15.397,4.893c4.542-2.194,8.065-5.639,10.943-9.627c3.831-5.308,7.295-10.879,10.914-16.339
		c1.083-1.633,2.035-3.371,3.261-4.889c3.501-4.337,9.821-4.707,13.497-0.89c2.689,2.792,3.151,7.169,0.977,11.086
		c-2.103,3.788-4.309,7.524-6.59,11.208c-4.81,7.768-10.4,14.899-17.464,20.775c-5.973,4.968-12.786,8.254-20.61,8.049
		c-9.764-0.256-18.009-4.092-23.807-12.328c-0.377-0.535-0.746-1.075-1.259-1.814c-0.492,0.576-0.862,0.971-1.191,1.399
		c-5.533,7.206-12.915,11.009-21.875,11.956c-5.43,0.572-10.814,0.537-16.077-1.115c-8.106-2.547-13.933-7.823-17.982-15.186
		c-0.646-1.174-1.233-2.378-1.852-3.566c-0.021-0.041-0.082-0.061-0.32-0.228c-0.349,0.429-0.744,0.853-1.067,1.325
		c-3.227,4.723-6.979,8.975-11.512,12.471c-6.261,4.827-13.21,7.371-21.294,6.644c-7.986-0.72-14.548-4.001-19.661-10.101
		c-4.197-5.006-6.329-11.018-7.244-17.352c-0.859-5.948-1.257-11.977-1.58-17.985c-0.31-5.769-0.122-11.564-0.417-17.335
		c-0.274-5.344-0.744-10.695-2.748-15.761c-1.284-3.247-3.373-5.707-6.519-7.349c-3.567-1.862-7.254-3.319-11.299-3.366
		c-5.603-0.064-10.489,1.97-14.625,5.724c-6.714,6.093-10.479,13.888-12.322,22.581c-0.868,4.097-1.184,8.369-1.237,12.568
		c-0.166,13.271-0.18,26.545-0.068,39.815c0.058,6.889-5.527,9.395-10.583,8.954c-2.273-0.198-4.35-0.864-6.017-2.492
		c-1.352-1.319-2.074-2.931-2.072-4.841c0.001-2.003,0-4.007,0-6.454c-0.75,0.629-1.219,0.965-1.621,1.368
		c-5.974,5.996-12.913,10.426-21.345,11.752c-12.752,2.004-24.497-0.262-33.931-9.81c-2.182-2.208-3.745-5.028-5.58-7.575
		c-0.32-0.445-0.575-0.938-1.018-1.669c-9.124,13.096-21.203,20.06-37.234,19.281c-16.177-0.784-27.185-8.996-33.911-23.787
		c-0.64,0.808-1.179,1.446-1.675,2.117c-4.533,6.134-9.54,11.806-15.817,16.237c-5.324,3.76-11.262,6.136-17.761,5.929
		c-9.767-0.311-18.011-4.094-23.815-12.322c-0.378-0.536-0.747-1.08-1.263-1.826c-0.486,0.563-0.858,0.956-1.185,1.382
		c-5.529,7.21-12.909,11.016-21.868,11.969c-6.066,0.646-12.058,0.508-17.832-1.711c-8.955-3.441-14.64-10.111-18.239-18.761
		c-2.454-5.898-3.895-12.071-4.312-18.431c-0.368-5.604-0.811-11.245-0.542-16.838c0.563-11.736,2.18-23.306,7.99-33.84
		c5.805-10.527,14.582-16.81,26.573-18.25c7.006-0.842,13.909-0.037,20.514,2.51c5.861,2.26,10.223,6.302,13.199,11.843
		c3.156,5.877,4.73,12.242,5.058,18.811c0.398,7.982,0.224,15.991,0.397,23.985c0.15,6.962,0.685,13.901,2.498,20.655
		c0.61,2.271,1.506,4.501,2.547,6.613c3.128,6.346,10.381,7.188,15.273,4.859c4.554-2.168,8.119-5.594,10.958-9.605
		c4.496-6.354,8.583-12.997,12.939-19.452c0.985-1.46,1.312-2.89,1.26-4.609c-0.178-5.983-0.286-11.97-0.313-17.954
		c-0.076-16.268-0.089-32.535-0.145-48.802c-0.034-9.913-0.111-19.826-0.15-29.739c-0.018-4.556,2.707-7.601,7.22-8.17
		c0.551-0.069,1.084-0.278,1.626-0.422C-77.659,303.194-77.143,303.194-76.626,303.194z M-149.574,396.859
		c0.128-0.018,0.257-0.035,0.386-0.052c-0.562-5.314-0.913-10.662-1.744-15.934c-0.84-5.333-3.776-9.1-9.405-10.146
		c-1.514-0.281-3.058-0.438-4.595-0.543c-5.828-0.396-11.009,1.073-14.73,5.827c-1.57,2.006-2.892,4.293-3.9,6.636
		c-2.829,6.571-3.832,13.596-4.028,20.656c-0.178,6.368,0.118,12.771,0.597,19.13c0.353,4.68,1.649,9.212,3.952,13.391
		c2.118,3.845,5.145,6.469,9.611,6.969c2.344,0.262,4.745,0.381,7.089,0.188c4.399-0.363,7.9-2.502,9.948-6.441
		c1.368-2.629,2.555-5.431,3.3-8.292C-150.417,417.968-149.736,407.436-149.574,396.859z M234.965,396.845
		c0.128-0.018,0.256-0.035,0.385-0.053c-0.562-5.313-0.912-10.662-1.745-15.933c-0.844-5.333-3.789-9.094-9.417-10.135
		c-1.514-0.28-3.058-0.439-4.595-0.542c-5.827-0.388-11.008,1.083-14.725,5.842c-1.568,2.008-2.901,4.291-3.896,6.639
		c-2.913,6.876-3.848,14.201-4.069,21.585c-0.156,5.244-0.05,10.519,0.324,15.751c0.398,5.567,1.582,11.014,4.349,15.977
		c2.073,3.719,5.045,6.297,9.396,6.789c2.394,0.271,4.846,0.406,7.24,0.213c4.271-0.344,7.749-2.368,9.774-6.189
		c1.435-2.708,2.685-5.6,3.458-8.556C234.134,417.955,234.802,407.42,234.965,396.845z"/>
	<path fill="#444444" d="M4.436,338.922c0.213,4.903-3.611,11.091-11.082,11.14c-6.238,0.042-11.127-4.48-11.185-11.081
		c-0.064-7.364,6.051-11.306,11.189-11.211C-0.458,327.884,4.439,332.719,4.436,338.922z"/>
</g>
</svg>
