<?xml version="1.0" encoding="utf-8"?>
<!-- Generator: Adobe Illustrator 19.0.0, SVG Export Plug-In . SVG Version: 6.00 Build 0)  -->
<svg version="1.1" id="Layer_1" xmlns="http://www.w3.org/2000/svg" xmlns:xlink="http://www.w3.org/1999/xlink" x="0px" y="0px"
	 viewBox="733 -332.9 1293 171" style="enable-background:new 733 -332.9 1293 171;" xml:space="preserve">
<style type="text/css">
	.st0{stroke:#000000;stroke-width:10;}
	.st1{fill:none;stroke:#000000;stroke-width:10;stroke-miterlimit:10;}
</style>
<path class="st1" d="M1220.8-200.8c-1.2,
3.7-7.2,
30.2-33.3,
29.2c-24.7-0.9-19.9-45.2-19.9-45.2s-0.8,
0.4-0.8,0.7
	s-2.2,
	48.7-29.6,
	45.4c-0.3,
	0-0.7,0-1,
	0c-6.2-0.3-11-1.7-14.4-4.8c-7.9-7-11.3-21.6-10.3-41.5c2.4-41.5,
	23.7-41.5,32-41.5
	c11.7,0.3,16.2,
	2.8,18.9,
	6.4c3.1,
	3.9,4.3,
	6.4,3.4,
	10.6c0,
	0-1.6,
	6.3-5.9,
	4.9c-1-0.3-7.6-3.5-11.6-4c-9-1.1-24.3,
	7.1-28.1,15.5
	c-9.9,
	21.3-18.8,
	58.4-41.1,
	55.9s-20.3-24.5-21.7-50.2s-5.3-34-29.7-35.7c-24.3-1.7-35.7,
	32.3-35.7,
	32.3v55.3v-96v62.2
	c-4.3,
	10.3-16.3,
	34.1-41.3,
	31.8s-26-35.7-26-35.7v-28v29.7c0,
	0-9.4,
	32.5-38.3,
	32s-29.7-46.1-29.7-46.1v-90.5
	c0-5.4-0.4-18.8,
	6.2-16.2s3.5,
	16.2,
	3.5,
	16.2s-12.4,
	99.3-14.7,
	106.5c-1.2,
	3.7-7.2,
	30.2-33.3,
	29.2c-24.7-0.9-19.9-45.2-19.9-45.2
	s-0.8,
	0.4-0.8,
	0.7c0,
	0.4-2.2,
	48.7-29.6,
	45.4c-0.3,
	0-0.7,
	0-1,
	0c-6.2-0.3-11-1.7-14.4-4.8c-7.9-7-11.3-21.6-10.3-41.5
	
	
	c2.4-41.5,
	23.7-41.5,
	32-41.5c11.7,
	0.3,
	16.2,
	2.8,
	18.9,
	6.4c3.1,
	3.9,
	5.7,
	8.8,
	6.4,
	17.8c0,
	0,
	0.8,
	5.2-4.7,
	5.8c-11,
	1.3-6.5-15.4,
	1-22.3
	
	s13.5-7.5,
	13.5-7.5"/>
</svg>
