<?xml version="1.0" encoding="utf-8"?>
<!-- Generator: Adobe Illustrator 19.0.0, SVG Export Plug-In . SVG Version: 6.00 Build 0)  -->
<svg version="1.1" id="Layer_1" xmlns="http://www.w3.org/2000/svg" xmlns:xlink="http://www.w3.org/1999/xlink" x="0px" y="0px"
	 viewBox="340 -142.1 1521.1 878.4" style="enable-background:new 340 -142.1 1521.1 878.4;" xml:space="preserve">
<style type="text/css">
	.st0{fill:#13B994;}
</style>
<g>
	<g>
		<path class="st0" d="M1655.6,106.7c0.3,4.1,2.8,6.1,6.4,4.7c6.6-2.6,9.3,2,12.2,6c2.6,3.5,5.4,4.3,9.5,1.7c1.2-0.8,2.4-2.2,4-1.3
			c0.5,0.3,0.9,1.4,0.9,2.2c0.1,1.5-0.9,2.6-2.3,2.9c-1.5,0.4-1.7,1.4-1.7,2.7c1.3-3,3.8-3.5,6.2-2.4c3,1.3,0.8,3.8,0.3,5.6
			c-0.5,1.9-1.8,3.5-2.7,5.3c-1.4,2.7-3,5.2,0.8,7.5c1.4,0.8,1,2.7,0.9,4.2c-0.6,8.4,6.2,14.5,14.1,14.1c3.8-0.2,7.3,0.7,11,3.1
			c2.3,1.5,8.4,5.9,12.3-0.1c0.2-0.2,0.7-0.5,0.9-0.4c5.3,2.1,9.3-2.3,14.1-2.8c3.5-0.3,6.3,0.2,5.1,4.8c-0.5,2,0.3,3.4,1.1,5.1
			c1.3,2.5,3.6,4.2,4.1,7.3c0.4,2.1,2.9,2.7,4.9,2.4c3.3-0.4,6.5,1,9.9,0c2.3-0.7,4,1.1,4.8,2.8c2.1,4.8,5.7,6.4,10.7,5.9
			c1.4-0.1,3.4-0.3,3.8,1.5c0.4,1.6-0.9,3.1-2.2,3.6c-7,2.8-13.8,7.9-21.9,3.4c-2.4-1.3-2.9-0.2-2.9,2c0,4.7,4.4,7.6,10.4,6.4
			c4.3-0.9,8.3-2.4,12.4,0.7c1.4,1.1,2.2-0.3,2.5-1.9c0.6-3.8,3.5-3.4,5.6-2.2c3.9,2.1,8.3,4.2,6.3,10.3c6.8-2.5,7.5-2,9.5,4.1
			c0.9,2.8,2.6,5.6,6.6,3.7c1.3-0.6,2.8-1,4.3-1.3c2-0.4,3.3-0.2,3.8,2.4c0.9,5.1,1.2,5.1,4.7,7.4c-1,2.1-2.7,1.4-4.3,0.9
			c-7.1-1.9-14-2.5-20.6,1.8c-1.5,1-3.5,1.8-5.7,1.4c-3.9-0.8-7.2,0.5-10.3,2.8c-0.4,0.3-0.8,0.7-1.2,0.9c-3,1.3-9.7,0.7-2.8,6.6
			c1.6,1.3-0.3,4.7-1.4,6.9c-0.6,1.4-1.2,2.7-1.6,4.1c-0.8,2.9,0.3,4.1,2.8,3.1c3.7-1.4,6.5-1.3,10.4,0.3c4,1.7,9-0.8,13.5-1.7
			c0.6-0.1,1.3-0.9,1.8-0.8c5.4,1,10-0.1,12.9-5.2c0.1-0.2,1.2-0.3,1.3-0.1c2.3,3.7,9,2.9,9.1,9c0,1.4,1.1,2.7,2.6,3.5
			c0.7,0.4,1.9,0.9,2,1.4c1.1,7,4.7,5.9,9.1,3c1.1-0.7,2.8-0.8,3.6,0.6c1,1.7-0.4,2.8-1.6,3.6c-0.7,0.5-1.5,1.2-2.2,1.1
			c-5.3-0.8-9.4,1.7-13.5,4.5c-3,2.1-6-1.9-9.1,0.1c-1.6,1.1-4.1,1.2-4,3.7c0,2.1-0.3,4.2,2.3,5.9c2.2,1.5,2.9,4.7,6.2,5.8
			c2,0.7,1.3,3.2-0.9,4.1c-1.3,0.6-2.9,0.6-4.7,0.9c3.3,1.5,3.2,3.3,0.9,5.2c-2.1,1.6-4.3,3.7-6.8,0.6c-0.6-0.8-0.3-2.6-2.2-1.6
			c-0.5,0.3-1.3,0.7-1.4,1.3c-0.3,1.2,0.8,1.7,1.7,2.1c3.9,2.2,2,3.7-0.8,4.8c-1.2,0.5-3.1,0.5-2.7,2.2c0.5,1.9,2.5,1.4,3.9,0.9
			c2.9-1,5.6-0.5,8.3,0.3c1.1,0.3,2.3,0.6,2.6,2c0.2,1.4-0.8,2.1-1.7,2.8c-1.5,1.2-3.7,1.5-4.7,3.5l0.1-0.1c-1,0.1-2.3-0.1-2.9,0.4
			c-6.1,5.1-14.7,7.1-18.7,14.7c-3.1,6-10,5.3-14.8,8.2c-1.4,0.8-2-1.2-2-2.6c-0.2-4.5-2.9-5.3-6.5-4.1c-3.6,1.2-7.2,2.5-9.2,6.1
			c1.5,1.9,4.9-0.7,5.5,2.3c0.5,2.4-1.5,3.9-2.9,5.5c-1.7,2-0.3,3,1.3,2.7c2.8-0.5,6.1,0,7.9-3.2c0.8-1.3,2-1.7,3.4-1.3
			c1.8,0.5,1.6,2,1.3,3.3c-0.6,3.4,1.2,4,4,3.7c4.1-0.4,8.3-0.6,12.3,1c3.4,1.3,4.5-0.1,3.4-3.2c-1-2.9,0.3-3.2,2.6-3.1
			c2,0.1,4,0.2,6,0.2c2.3,0,3,0.8,1.8,3c-0.4,0.8-1.9,2-0.6,3c1.4,1.1,3.1,0.3,3.9-1c1.5-2.4,3.8-2.3,6.1-2.6c1.1-0.2,2-0.4,2.5,0.8
			c0.5,1.2-0.2,1.9-1.2,2.4c-2.6,1.4-3.5,3.2-2.9,6.5c0.7,3.7-2,6.5-5.4,6.4c-5.8-0.2-9.5,4.4-14.7,5.2c-0.4,0.1-0.9,1-1,1.5
			c-0.1,1.2,0.7,1.7,1.9,1.8c1.4,0.2,3.5-0.5,3.8,1.4c0.4,2.1-2.1,2.2-3.3,3.1c-2.8,2.1-3.1,5.3-0.2,6.3c5.3,1.9,5,4.1,0.9,7
			c3.9,2.2,6.6,8,5.7,12c-1.6,6.9-6.8,5.6-12.1,4.5c4.9,5.9,4.3,7.9-2.8,10.1c-1.3,0.4-2.5,0.5-3.2,1.9c-1.9,3.4-4.6,4-8,2.4
			c-1.1-0.5-2.6-0.9-3.2,0.2c-1.1,2,1.2,1.8,2.1,2.5c0.1,0.1,0.4,0.1,0.4,0.2c1.3,3.6,2.2,7.6,1.3,11c-1,3.5-4.7,1.8-7.3,1
			c-4.1-1.3-15.2,1.3-18.1,4.8c-1.4,1.7-2.8,2.7-4.9,2.9c-1.3,0.1-2.8,0.1-3,1.9c-0.2,1.6,1,2.3,2.3,2.8c0.9,0.4,3.2,0.5,2,1.8
			c-4.1,4.4,0.8,3.9,2.8,5c-5.1,6.4-9.6,1.6-14.3,0.2c0.1-0.4,0.1-0.8,0.3-0.9c1.5-1.3,4.8-1.4,3.8-4.4c-0.9-2.7-3.8-1.4-5.7-1.3
			c-5.3,0.3-10.2,3.2-15.8,2.1c2.6,3.5,6.5,3.9,9.7,2.9c2.6-0.8,3.8,0.3,5.1,1.6c1.8,1.7-0.4,2.5-1.2,3.5c-1.1,1.4-1,2.8-0.1,4.2
			c0.8,1.2,1.9,1.8,3.4,1.2c2.8-1.2,3.6,0.8,4,2.8c0.4,2.4-1.5,2.3-3.2,2.7c-4.9,1.2-9.6,3-14.8,2.5c-1.4-0.1-2,1.1-2.7,2
			c-0.9,1-1.9,2.4-3.2,1.1c-1.3-1.2-0.5-2.7,0.6-3.9c1.3-1.3,3.8-2.4,1.6-4.8c-1.3-1.4-2.5-3.5-4.9-2.9c-2.6,0.7-1.1,3.1-1.3,4.7
			c-0.4,3.3-0.4,6.4,2.2,9.3c1.6,1.7,1.6,4.2-1.9,4.5c-1.7,0.2-2.1,1.2-2.2,2.7c-0.1,1.8,0.7,2.9,2.3,3.3c2.1,0.5,4.1,1.3,6.4,1
			c1.3-0.1,2.7,0.5,2.8,2.2c0,1.7-1.4,2.4-2.7,2.4c-4.2-0.1-7.6,2.1-11.2,3.8c-2.1,1-4.9,2.8-5.7-2.1c-0.5-2.8-3.5-4.1-6.6-3.4
			c-4.2,1.1-7.6,0.7-9-4.2c-0.5-1.8-1.9-2.6-3.8-2.5c-4.3,0.1-8.7,0.1-13,0.1c-1.7,0-3.3,0.4-4.4,1.9c-1,1.3-2.5,2.1-3.8,2.1
			c-5.1-0.2-9.2,1.3-13,4.9c-1.6,1.5-4.8,1.9-4.2,4.8c0.6,3.3,2.3,6.5,5.5,7.8c5.7,2.1,10.8,5.8,17,6.6c3.2,0.4,3.9,2.1,1.4,4.6
			c-0.2,0.2-0.4,0.5-0.6,0.8c-3.3,6.3-3.9,6.4-8.7,0.5c-0.8-0.9-1.7-1.8-2.9-1.9c-5.6-0.4-11-2.5-16.7-2.1c-2.3,0.2-3.4,0.7-3.8,3.4
			c-0.8,5.1-5.8,7.5-10.5,5.6c-0.1,6.7-0.1,6.5-6.7,7.4c-4.5,0.7-8.6,3.2-13.5,2.6c-1.9-0.2-3.5-0.2-3.6-2.3c-0.2-2.6-3.4-5-0.7-7.7
			c0.6-0.6,2.2-0.7,1-2c-0.7-0.8-1.8-0.8-2.8-0.3c-2.1,1-4.2,2-6.2,3.1c-1.1,0.6-2.4,1.8-0.9,2.5c4.4,1.9,1.9,4.8,1,7
			c-1.2,3.2-0.7,4.6,3,4.8c1.8,0.1,5,0.1,4.5,3.1c-0.7,5.2-4.8,8.9-8,8c-1.5-0.5-1.5-1.7-1.3-2.8c0.8-4.5-1.8-4.9-5-4
			c-2.8,0.8-4.3,0.5-5.3-2.5c-0.8-2.2-2.9-3.1-4.8-1.3c-2.8,2.6-4.5,2.1-6-1.2c-1.4-2.9-2.2-1.5-3,0.4c-2.3,5.2-1.8,6.9,3.2,9.7
			c3.1,1.8,3,3.3,0.9,6.2c-3.5,5-8,4.4-12.8,3.7c-3.6-0.6-7.3-1.1-10.9-1.5c-3.5-0.4-3.4,3-4.8,4.8c1.4,1.6,4.5,0.9,4.4,4.5
			c-0.1,3.7-1.2,5-4.5,6.6c-3.4,1.7-6.9,3-10.5,4.2c-2.4,0.8-4.2,0.3-3.6-2.6c0.6-3.2-1.2-2.9-3.2-2.7c-5.9,0.6-9.5,4.2-11,11.3
			c-0.6,3-0.4,6.4-5.2,4.9c-0.9-0.3-1.7,0.5-1.9,1.3c-0.6,2.9-2.8,3.8-5.2,4.7c-1.2,0.5-3,1.7-2.1,3.4c0.8,1.5,2.4,0.4,3.6,0.2
			c0.5-0.1,1-0.3,1.4-0.5c5.7-2.9,7-2.5,10.6,2.8c0.3,0.4,0.8,1.1,0.8,1.2c-2.8,2.6-0.8,7.8-5.3,9.6c-4.1,1.6-9.1,2.9-6.1,9.4
			c0.8,1.8-1.1,2.1-2.4,2.3c-6,1.1-11.6,2.2-15.5-4.8c-1.9-3.5-6.9-3.2-10.5-3.6c-5.7-0.6-7.7-6.1-12.3-7.7c2.1-4.9-4.1-4.9-5.1-8.4
			c-0.7-2.6-4.9-3.4-8-4.1c-0.5-0.1-1.6,0.7-1.6,0.8c1.2,3.7-1.7,6.6-1.9,9.9c-0.1,2.2,1.6,3.7,4,3.2c3.8-0.8,5.5,0.3,4.3,4.3
			c-0.3,1.1-0.9,2.4,0.5,3.1c1.5,0.7,2-0.7,2.6-1.6c2-2.8,4.8-1.8,7.3-1.5c1.2,0.1,2.1,1.2,1.8,2.6c-0.3,1.6-1.6,2.6-3,3.1
			c-1.4,0.5-2.9-0.1-4.4-0.4c-1.2-0.3-3.8-0.7-3.2,0.4c2.4,5-9.5,3.5-4,9.4c1.1,1.1,1.3,3-0.3,3.3c-4.8,1-7.2,6.5-12.5,6.5
			c-0.8,0-1.7,0.7-2.4,0.5c-2.4-0.6-6.3-0.4-6.1-3.6c0.2-2.8,3.8-2.6,6.2-2.3c1.8,0.2,3,0.8,3.4-1.8c0.2-1.8,2-3.6-0.8-5.1
			c-4.1-2.2-8.1-3.8-9.8-9.4c-1.2-3.8-7.2-1.8-11-2.2c-2.5-0.3-4.3,2.2-5.1,4.8c-0.6,2-0.7,3.9,1.5,5.2c1.8,1.1,3.4,1,5-0.5
			c1.1-1.1,2.3-3,4.1-1.2c1.1,1.1,2.2,2.7,1.3,4.5c-0.9,1.9-2.7,1.5-4.4,1.4c-1.5-0.1-3-0.3-4.5-0.1c-1.3,0.2-2.4,0.9-2.4,2.6
			c-0.1,1.6,2.9,3.4,0.8,4.2c-3.5,1.4-6.4,4.4-10.3,4.4c-3.1,0-4.7-3.7-3.2-7.8c1.4-3.9,1.3-7.5-1.3-10.8c-0.6-0.8-1.1-1.6-2.3-1.7
			c-5.2-0.4-12.3,5.8-12.2,11.2c0.1,2.9-1.1,2.9-3.2,2.7c-2.1-0.2-4.3-0.1-6.5,0c-2,0.1-3.7,1.2-3.7,3.3c-0.1,2.1,1.8,1.9,3.3,2
			c3.1,0.1,3.6,1.9,3.5,4.7c-0.2,5.1-1.2,8.8-7.4,9c-2.2,0.1-3.6-1.2-6.4-2.3c0.6,2.3,1.1,3.9,1.3,5.5c0.2,1.7-0.3,3.3-2,4.2
			c-2.3,1.2-2.2-0.9-2.9-2c-1.4-2.1-3.6-3-6.1-2.7c-2.9,0.2-1.3,2.9-2,4.4c-0.9,1.9-1.6,4.6-4.4,3.6c-2.3-0.8-5.5-1.7-3.8-5.5
			c0.8-1.7,0-3.1-1.3-3.9c-1.8-1-3.9-1.2-5.6,0.2c-2.9,2.5-5.8,2.4-9.6,1.8c-5.5-1-10.4,2.9-15.5,4.7c-3,1.1-5.8,3-7.9,5.8
			c-1.5,2.1-3.7,3-6.3,3.5c-2.8,0.5-6.1,0.5-7.9,3.5c-0.9,1.4-2.2,1.1-3.6,0.5c-2.1-0.9-4.3-1.1-6.4-0.5c-3,0.8-5.5,1.2-6.9-2.4
			c-0.5-1.2-1.8-1.6-3-0.9c-0.8,0.5-1.8,1.3-2,2.1c-0.4,1.6,1.2,1.8,2.3,2c2.8,0.7,5.9,2,5.1,5c-0.9,3.5-2.8,7.2-7.2,8.1
			c-3.2,0.6-6.4,1.1-9.6,1.7c0.8,2.5,4.4-0.9,4.1,2.4c-0.2,2.2-2.4,1.9-4,1.9c-2.7,0.1-4.3,1.9-5.4,4c-1.8,3.5-4.7,3.9-8,3.5
			c-1.1-0.1-2.4-0.2-3-1.5c-0.7-1.7,0.9-1.7,1.8-2.2c1.8-1.2,1-2.2-0.5-2.8c-4.1-1.8-8.8-1.7-12.8-4c-0.2-0.1-1,0.2-1.2,0.5
			c-3.2,7.7-9.9,6.9-16.3,6.5c-3.2-0.2-6-0.7-8.9,1.7c-2.4,1.9-6.3-2.1-6.2-6.7c0-2.1,1.2-4.6-1.8-5.4c-3.1-0.7-6.2-1-8.8,1.9
			c-2.3,2.6-3.2,6.1-6.3,8.2c-1.8,1.2-3,2.4-5.1,0.5c-2.2-1.8-4.7-1.1-7,0c-4.8,2.2-11.3,0.1-13.7-4.4c-1.3-2.3,0.7-2.9,2.1-3.7
			c1.8-1,3-2,0.5-3.4c-1.8-1.1-1.4-2.9-1.8-4.4c-0.6-2.4-1.6-5.1-3.9-5.3c-2.8-0.2-5.4,1.9-6.5,4.6c-0.9,2-1.5,4-3.6,5.1
			c-0.9,0.5-1.4,1.5-0.6,2.5c0.5,0.7,1.3,1,2.2,0.8c0.8-0.2,1.5-0.7,2.3-0.9c1.8-0.4,4-0.8,4.9,1.3c0.9,2-1,2.8-2.4,3.7
			c-5,3.2-10,6.4-15.1,9.6c-0.5,0.3-1.2,0.6-1.9,0.6c-10.7,0.8-21.2,3.4-32,3c-2.9-0.1-5.1,0.8-7.3,2.5c-4.9,3.8-11,3.1-14.6-1.9
			c-1.1-1.5-2.3-1.7-3.8-1.6c-1.4,0.1-1.6,0.9-1.6,2c0,1.9,1.4,2.5,3,2.7c2.5,0.4,4.1,1.9,5.8,3.6c0.9,0.9,2.5,1.6,1.7,3.1
			c-0.9,1.8-3.2,2.1-4.4,1.3c-3.4-2.5-7.9-1-11.3-3.3c-1.4-1-2.6,0.2-4,0.8c-3.9,1.6-7.5,4.2-12.3,1.7c-2.1-1.1-5.1,0.4-7.7-1.8
			c-2.8-2.5-3.7-4.7-1.2-7.6c2-2.3,2.1-4.5,0.2-6.7c-1.3-1.6-1.2-3.5-0.9-5.2c0.6-3.7-1.6-6.3-3.3-9.1c-0.9-1.4-2.3-2.1-3.7-0.6
			c-2.2,2.3-4,1.6-6-0.2c-0.6-0.5-1.5-0.9-2.2-0.9c-1.6-0.1-3.4-1.3-4.7,0.4c-0.8,1,0.2,2.2,0.8,3.2c1.1,1.6,2.6,2.6,4.7,1.8
			c0.9-0.4,1.8-0.8,2.7-1.3c1.4-0.8,2.5-0.2,2.6,1.1c0.3,2.4-0.9,4.5-2.2,6.4c-1.2,1.7-3.1,1.6-5,0.9c-6.1-2.5-11.2,1.4-16.5,3.1
			c-1.9,0.6-3.2,3.1-5.8,3.2c-1.2,0-2.1,0.9-2.2,2.3c-0.1,1.4,0.9,2.2,1.9,2.7c1.8,0.8,3.7,1.5,5.5,2.3c1.3,0.6,3.2,0.8,2.6,3
			c-0.6,1.9-1.9,3.6-4,2.9c-5.3-1.6-9.1-2.6-4.6,5c1.5,2.5-1.8,6.7-4.9,7.5c-7.6,1.9-15.3,1.7-23,2.1c-0.5,0-1.1-0.2-1.5,0
			c-8,3.8-15.5,1.7-23.2-1.2c-1.7-0.7-3.2-1.2-4.5-2.6c-2.4-2.6-5.6-3.5-9.1-1.9c-5.4,2.4-6.1,1.9-5.6-3.8c0.2-1.6,0.5-3.2,0.8-5.4
			c-1.6,1.1-2.8,1.9-4,2.7c-1.5,1.1-3.2,1.4-4.7,0.5c-1.9-1.2-0.4-2.6,0.1-3.9c0.2-0.6,0.6-1.6,0.3-1.9c-4.3-5.1-2.1-11.6-3.8-17.2
			c-0.6-1.8-1.5-3.4-3.7-3.6c-2-0.2-3.2,1-3.8,2.7c-1.1,3.1-3.2,4.9-6,6.2c-3,1.4-2.7,3-0.1,4.5c2.1,1.2,4,2.8,6.9,2.1
			c1.8-0.4,3,0.8,3.6,2.7c0.6,2.2-0.8,2.5-2.2,3.1c-3,1.4-3.8,3.5-1.6,6.2c1.5,1.9,1.8,4,0.3,5.4c-1.9,1.7-4.1,3.5-7,3.3
			c-0.9-0.1-1.7-0.3-1.8-1.4c-0.5-6.4-6.1-7-10.4-9.1c-1.5-0.7-3.9-1.2-4.6,0.3c-1.5,3.5-3.3,2.9-5.6,1.3c-1-0.7-2.5-0.8-3.4-0.3
			c-5.5,3.5-11.4,2.1-17.2,1.4c-1.3-0.1-3.1,0.4-3.4-1.2c-0.3-1.8,1.1-3.7,2.8-3.6c4.8,0.4,7.6-2.5,10.5-5.4
			c1.4-1.4,3.3-1.7,5.1-1.5c5,0.5,9.8-0.9,14.8-0.2c3.9,0.5,5.6-3.6,8-6c0.2-0.2-0.1-0.9-0.3-1.3c-2.3-3.9-13.1-5.2-16.1-1.9
			c-1.9,2-4,3.6-6.7,4.2c-6.5,1.3-12.7,4.5-20.1,4c3.3,5.3,0.3,5.5-3.9,5.8c-3,0.2-6,1.8-8.8,3.2c-2.1,1.1-4,1.2-5.5-0.3
			c-3.6-3.5-7.5-3.5-12-2.1c-5.7,1.8-8.1-0.6-6.8-6.5c1.3-6-0.1-10-4.1-12.3c-0.1-1.4,1.2-1.3,2-1.7c2.4-1.2,3.1-3.5,3.2-5.8
			c0.1-2.6-2.4-2.7-3.9-3.8c-3.9-2.8-7.7-4.7-12.7-3.1c-1.8,0.6-3.4,1.4-4.8,2.5c-2.3,1.8-2.3,4,1,4.3c3.5,0.4,5.4,3.7,9,4
			c1.5,0.1,2.3,2.8,2,4.6c-0.4,2.2-2.3,3.3-4.4,3.4c-3.3,0-6.7,0-9.9-0.5c-5.7-0.9-8.1-6-10.6-10.1c-1.5-2.4-3-3.5-4.8-2.6
			c-2.6,1.3-6.2,2.1-6.2,6.2c0,1,0.4,1.5,1.5,1.3c1-0.2,2-0.4,2.9-0.2c2.7,0.6,4.9,3,4.9,5c-0.1,2.3-3.3,1.4-5.1,1.2
			c-3.8-0.3-7.6-0.6-11.3-1.8c-2.1-0.7-4.7-1.2-6.2,2.2c-1.2,2.6-3.6,2.5-5.6,0.1c-2.6-3.1-5.7-3.7-9.1-1c-1.7,1.4-4.1,2.3-5.6,1.2
			c-4.2-3.1-9.6-2.5-13.9-4.9c-1.2-0.7-2.3-1.4-3.7-1c-3.2,0.8-3.6-1.7-4.2-3.7c-0.7-2.5,1.2-3.6,3.1-4.4c0.7-0.3,1.6-0.2,2.4-0.3
			c1.5-0.2,3.3-0.4,3.2-2.4c-0.1-1.6-1.7-1.8-3.1-1.8c-4.7,0-7.3-2.2-8.3-6.9c-0.7-3.1-6.6-5.2-10.6-3.6c-3.4,1.4-6.5,3.3-9.7,5.2
			c-1.7,1-2.6,2.6-2,4.7c0.7,2.2,2.3,2.7,4.3,2.4c1-0.1,2-0.3,3-0.1c2,0.4,2.8,2.1,2.4,3.8c-0.4,1.9-2.3,1.2-3.3,0.6
			c-6.8-4.2-15-5.5-21.8-9.7c-3.1-1.9-3.1-3.9,0-5.8c7.4-4.4,8-8.6,1.9-15c-1.7-1.7-3.3-3.9-5.9-4.4c-1.1-0.2-1.6-1.1-2.1-1.9
			c-0.8-1.3,0.7-4.6-2.6-3.5c-2.2,0.7-4.3,3.1-3.4,5.5c2,5.4-4,9.2-2.3,14.6c0.6,1.8-2.7,2.6-4.6,2.9c-1.8,0.3-2.8-0.9-3-2.6
			c-0.4-3.4-2.3-5.5-5.1-7.5c-2.1-1.4-3.4-4.1-3.7-6.8c-0.3-2.4-1.4-4-3.9-4.4c-2.6-0.3-2.8,1.8-3.6,3.3c-2.8,5.7-2.9,5.7-7.5,0.7
			c-1.2-1.3-2.5-1-3.7-0.7c-11.5,2.4-22.7-0.2-34-1.6c-1.7-0.2-3.5-0.2-3.3-2.7c0.2-2.5-1.5-2.4-3.3-2.6c-4.1-0.5-5.2-3.2-2.5-6.4
			c1.8-2.1,3.9-4.1,6.9-4.6c3.9-0.7,4.2-2.5,1.8-5.4c-1.5-1.8-2.4-4-3.8-5.9c-1.6-2.3-4-2.9-6.6-2.7c-2.7,0.3-2,2.6-2.3,4.3
			c-0.3,2.3-1.8,3.2-3.9,2.9c-3.8-0.7-7.5-1.8-7.4-6.8c0-0.7-0.1-1.2-0.8-1.6c-2.3-1.5-10.9-0.4-12.4,1.9c-1.1,1.7-2.5,2.3-4.4,2.7
			c-6.6,1.5-12.4,3.9-13,12.1c-0.2,2.3-2.4,3.6-4.5,4.2c-2.7,0.8-2.6-1.9-3.6-3.2c-2.1-2.7-5.1-4.1-8-5.6c-1.3-0.7-2.9-0.9-4.2-1.5
			c-2.5-1.1-5.1-2.5-4.2-5.9c0.8-3.2,3.6-2,5.8-2.1c5.2-0.2,10.3,0.2,15.3,1.8c3.3,1,4.5-1.1,4.2-3.7c-0.2-2-0.8-3.7-0.1-5.8
			c0.7-1.8-0.9-1.8-2.1-1.6c-1.1,0.1-2.6,0.8-3.4,0.4c-5.7-3.4-11.6-3.8-17.8-2.1c-0.5,0.1-1.3-0.3-1.6-0.8
			c-0.5-0.6-0.1-1.4,0.5-1.7c2.1-0.9,3.2-4.2,6.4-2.5c0.9,0.5,1.9,0,2.8-0.5c5.2-2.7,10.4-5.3,15.6-7.9c2.8-1.4,3.4-3.5,0.6-5.2
			c-2.4-1.4-2.6-5.3-6.2-5.1c2.8,5,2.3,6.7-2.8,9.6c-1,0.6-2,1.3-2.7,2.1c-1.4,1.5-3.5,2.3-5,1.6c-4-1.9-7.6-4.1-12.5-4
			c-2,0-3.4-3.5-0.8-5.4c3.1-2.2,1-3.1-0.5-4.4c-0.1-0.1-0.3-0.1-0.5-0.2c-1.2-0.6-13.8-1.5-15.2-1.2c-1,0.2-2,0.3-3,0.2
			c-4.1-0.7-7.3-0.4-8.9,4.5c-1.1,3.3-4.4,3.3-6.7,0.4c-0.4-0.5-0.6-1.2-0.9-1.8c-3.2-4.7-5.9-9.7-10.4-13.4c-1.7-1.4-3-2.7-5.1-1
			c-1.1,0.9-2.3,1.6-3.6,0.5c-0.7-0.6-1.3-1.7-1.2-2.6c0.1-1.9,1.8-1.5,3.1-1.6c1,0,2.1,0,2-1.5c-0.1-1.3-1-2.2-2.2-2.3
			c-2.1-0.2-4.3-0.2-6.5-0.2c-2.6-0.1-4-1.5-4.1-4.1c-0.2-2.7,1.9-2.7,3.7-2.7c0.2,0,0.3,0,0.5-0.1c2.1-0.5,6,0.2,5.7-2.3
			c-0.3-2.3-2.3-5.9-5.1-6.6c-2.7-0.7-5,1.6-5.6,4.6c-0.6,3.4-3.5,4.7-5.8,6.6c-1.2,1-3.1,1.1-4.1-1.1c-0.9-2.1-2.2-4.1-2.8-6.4
			c-0.7-2.5-1.5-5.5,2.6-6.1c3.4-0.6,5.8-2.4,5.1-6c-0.7-3.8-4-4.6-7.3-4.5c-2.5,0.1-4.9,1.1-7.4,0.2c-4.1-1.4-4.9-3.9-2.1-7
			c2.7-3.1,4-7.6,10.1-6.7c3.4,0.5,3.7-3.7,2.8-7c-1.3-4.7-3.5-8-7-11.1c-1.5-1.3-0.9-4-0.1-6.2c2.2-6.2,1.6-7.2-4.5-8.4
			c-1.4-0.3-2.2-0.8-2.1-2.2c0.1-1.5,0.6-3.1,2.4-3.4c3.8-0.6,5.8-3.1,8-6c2-2.7,5.6-2.3,8.8-1.8c2.6,0.4,4.7,0.3,6.8-1.9
			c4-4.2,8.8-4.5,13.6-1.3c1.8,1.2,3.5,1.4,4.9-0.3c1.2-1.5,1.1-3.3-0.4-4.5c-2.5-2.1-5.2-4.3-8.9-3.6c-1.3,0.2-2.6,0.7-3.9,0
			c-1.5-0.9-4-0.9-4.3-3c-0.3-2.4,2.3-2.4,3.8-3.2c1.2-0.6,2.4-1.1,3.3-2.2c0.7-1,1.2-2.1,0.5-3.2c-0.7-1-1.8-0.4-2.7-0.2
			c-3.8,0.6-7.9,0.7-6.4,6.6c0.3,1.1-0.6,1.7-1.7,2.1c-3.1,1.3-6.4,2-7.7,6c-0.6,1.7-3,1.2-4.4,0.2c-2.3-1.7-0.4-3.4,0.2-5.2
			c-1.6,0.9-3.2,1.6-4.7,2.6c-1.9,1.3-3.9,2.7-1.9,5.6c1.2,1.7,0.6,3.3-1.3,4c-2,0.8-3.4,0.5-4.3-1.9c-1.5-4.1-4.2-3.4-6.3-0.7
			c-2.4,3.2-5.2,3.3-8.8,3.1c-5.6-0.4-11.1-1.9-16.8-1.3c-1.9,0.2-5,0.4-5.4-2.4c-0.4-2.8,1.8-5.3,4.1-6.2c3-1.2,6.2-1.8,9.3-3.1
			c2.3-1,5.3-0.1,6.8,2.7c0.6,1.2,1.4,1.7,2.8,1.2c1.5-0.6,1.2-1.8,1.1-2.9c-0.3-5.3-3.3-6.9-8.2-5.1c-2.5,1-4.5,3.3-8.2,1.2
			c-4.5-2.7-5.8-5.3-3.1-9.7c0.8-1.2,1.1-2.6,0.4-3.8c-1.1-2.1-3.2-4.1,0.7-5.6c0.3-0.1,0.6-1.3,0.4-1.8c-1.5-4-1-6.2,4-5.5
			c1.4,0.2,2.3-0.7,1.9-2.1c-0.4-1.3-0.3-3.4-2.4-3.3c-4,0.2-7.9-0.6-11.8-1.4c-2.7-0.6-3.8,2.2-5,3.5c-2.2,2.5-4.8,3.8-7.5,5.3
			c-1.7,0.9-2.7,1.2-3.6-0.6c-0.8-1.6-0.4-2.9,1.3-3.7c0.6-0.3,1.2-0.5,1.8-0.8c3.2-1.3,5.5-3,4.1-7.1c-0.5-1.6,0.1-3.4,1.6-4.4
			c1.7-1.2,2.1,0.9,3.2,1.5c2.9,1.6,7.7,0.4,9.1-2.6c0.6-1.2,1.9-2.7,0.2-4c-1.3-1-2.8-1.1-4.2-0.2c-1.4,0.9-2.9,1.8-4.1,2.8
			c-1.2,1-2.5,1.6-3.6,0.6c-3.3-2.7-7.1-1.5-10.6-1.6c-5.5-0.1-7.1,3-4.4,7.7c0.6,1,1.7,2.2,0.5,3c-1.9,1.4-4.3,1.7-6.7,1.4
			c-1.3-0.2-2.2-1.1-2.1-2.4c0.5-4,0.2-8.6,5.8-9.7c-0.9-1.1-2.2-1.9-2.2-2.7c-0.2-5.4-0.5-10.3-8-9.9c-1.9,0.1-1.4-2.7-1.5-4.3
			c-0.6-6-1.2-6.5-6.7-4.2c-1.6,0.7-3.5,1.6-4.5-0.1c-1.1-1.8,0.7-3.2,2.2-3.8c6.1-2.8,10.8-7.6,16.5-10.9c1.5-0.9,3-0.7,4,0.6
			c2.5,3,4.7,1.5,5.9-0.8c3.4-6.8,9-8.2,15.8-7.9c3.1,0.1,6.3,1.3,9.2-1c1.1-0.9,2.1-1.8,1.7-3.3c-0.5-1.6-1.9-0.8-3-0.9
			c-2.2-0.2-5.2,1-6.3-1.7c-1-2.6,0.8-5.2,2.6-6.6c4.5-3.4,5.2-9.4,9.4-12.9c0.9-0.7,1.4-2.3,2.6-1.8c6.3,2.5,12.1-2.7,18.4-1
			c0.9,0.3,2.3-1.1,3.4-1.7c2-1.2,4.5-2.9,6.1-0.3c1.5,2.4-2,2.8-3.2,4.6c2.9,1.3,5.7,0.3,5.9-2.1c0.4-4.9,3.7-4.6,6.7-4.9
			c2.6-0.3,4.5-0.6,6.3-3.1c2.1-2.9,5.4-4.3,9.2-4.4c2.9,0,6,0.9,8.8-0.8c0.7-0.4,1.7-0.2,2.1,0.7c0.4,1-0.3,1.7-1.1,1.9
			c-6.6,1.9-3.1,5.4-0.9,7.8c2.5,2.8,1.3,2.6-1,4.9c-3.9,3.9-10.9,2.5-13.1,8.5c-0.1,0.3-1.5,0.6-1.7,0.3c-3.5-3.2-7.3-0.4-11-0.7
			c-1.6-0.1-4.4-1.6-4.5,2c0,3.1,2,4.6,4.9,4.2c6.2-0.9,11.6,1.4,17,3.9c1.6,0.8,3.2,2.2,1.7,3.9c-3.8,4.3,0.2,3.5,2.4,3.9
			c4,0.8,5.4,3.3,2.6,6.2c-4.7,4.8,0.2,9,2.1,9.8c8.9,3.9,9.3,11.9,11.1,19.3c0.7,3.1,1.5,6.1,3.8,8.4c0.6,0.7,1.2,1.7,1.2,2.6
			c0.3,4.4,2.3,7.6,5.4,10.6c2.7,2.6,5,5.6,5.1,9.8c0,2.2,1.9,4,3.9,4.9c6.7,2.9,9,9,10.2,15.3c0.6,3.3,3.5,3.7,5,5.7
			c2.6,3.3,3.1,8.6,9.1,9.4c2.9,0.4-0.9,4.4,0.6,6.6c6.5-0.8,7.5-0.1,9.7,6.8c0.8,2.6,3.1,2.7,5.2,3c1.5,0.2,3.1,0.2,3.8,1.8
			c0.7,1.9-0.4,3-1.6,4.3c-3.1,3.3-2.6,4.6,1.6,6.3c3.1,1.3,6.1,2,9.6,0.8c3.5-1.3,11,3.2,12.6,6.6c0.7,1.4,1,2.4-0.3,3.5
			c-1.2,1-2.6,1.9-1.4,3.7c1.1,1.7,3,2.6,4.8,1.9c2.7-1.1,4.4-0.1,6.7,1.3c4.7,3.1,4.9,2.9,0.5,7.4c3.3,1.7,6.5,0.3,9.7,0.3
			c3.3-0.1,5.9,0.3,7.3,3.7c0.6,1.4,1.5,2.5,3.1,2.9c1,0.3,2.6,1.2,2.7,2c1,6.7,5.9,6.5,10.9,6.7c4.8,0.2,8.1,3.6,11.5,6.5
			c4.8,4.1,10.3,6.3,16.6,6.4c4,0.1,3.5,2.5,2.4,4.7c-1.9,4-0.9,4.7,3.1,3.8c3-0.7,6,0.4,8.8,1.5c4.3,1.7,3.9,10.6,0,14.3
			c-5.5,5.1-12.5,6-19.2,7.4c-3.8,0.8-7.6,1.3-10.9,3.1c-6.1,3.4-11.6,2-16.7-1.7c-3.9-2.8-6.3-3.2-9.5,1.7
			c-4.5,6.7-10.5,5.5-13.8-2.1c-4-9.1-2.3-15.5,5.9-21.4c2.2-1.6,4.4-0.6,6.6-0.1c2.7,0.6,3.8-0.4,2.7-3.2c-0.5-1.2-1.1-2.4-1.6-3.6
			c-2.9-5.8-2.9-5.9-7.8-1.8c-1.4,1.2-3,1.4-4.6,1.9c-4.2,1.2-8,3.3-11.2,6.3c-2.2,2.1-4.2,4.5,0.9,5.7c3.5,0.9,2.9,3.8,2.2,6.1
			c-0.7,2.3-1,4,0.9,5.9c3.1,3.1-1.2,5.9-0.6,9.3c0.7,3.9-2.8,4.9-6.4,4.6c-2.1-0.2-4.8-0.1-5.2,2.7c-0.3,2.5,1.1,4.3,3.8,5.1
			c3.3,0.9,5.2,5,9.3,3.9c5.4-1.4,10.5-3.6,16.5-6.9c-2.7-0.2-4-0.2-5.2-0.5c-1.4-0.3-3.1-0.5-3.3-2.5c-0.1-1,0-2.1,1.1-2.5
			c1.5-0.5,3.1-2.1,4.6-0.5c1.6,1.7,4.3,2.3,5.1,4.6c1,3.2,3.4,2.8,5.1,1.7c5.8-3.8,11.7-1.9,17.4-0.5c8.8,2.1,17.5,1.3,26.2-0.1
			c1.3-0.2,3.4-0.5,2.8-2.6c-0.5-1.7-2.1-2.6-4-1.9c-5.6,2-11.6,0.4-17.2,2c-4.1,1.1-6.6-2.4-10-3.5c-0.6-0.2-1.2-0.9-0.8-1.5
			c0.3-0.5,1-1,1.5-1c5,0.4,9.2-1.4,13.6-3.8c3.1-1.7,6.7,1.1,10.2,1.2c6.3,0.1,11.1-2.4,15.6-6.6c4.8-4.6,10.3-8.4,17.5-7.7
			c2.7,0.2,4.4,1.4,3.5,4.6c-2.4,9.5,2.4,14.1,12.1,11.6c1.5-0.4,2.9-1.8,5-0.5c-1.8,2.4-4.4,4.6-3.6,8c0.2,1.2-0.1,3,1.8,2.9
			c1.3-0.1,2.6-1,2.5-2.6c-0.3-3.5,1.8-5.2,4.7-5.1c2.4,0.1,4.2,1.8,3.4,4.8c-0.3,1.1,0.8,1.4,1.6,1.3c1.8-0.4,4.5,0.8,5.3-1.7
			c1-3.3,3.3-2.2,5.3-1.9c2,0.2,2.8,1.7,2.4,3.6c-0.5,2.9,1.4,3.3,3.5,3.6c2.3,0.3,4.8,1,4.9,3.3c0.1,2.4-2.2,3.4-4.6,3.7
			c-1.8,0.2-3.4,0.8-3.3,3c0.1,2.1,2.1,1.6,3.5,2c4.5,1.2,8.5,0.1,12-2.8c1.3-1.1,2.3-2.5-0.6-3.5c-3.8-1.3-3.8-4.3-2.4-7.4
			c1.5-3.1,7.4-5.2,9.9-3.6c2,1.3,2.2,2.7,0.1,4.2c-4.8,3.5-3.9,2.9-0.3,6.6c6.2,6.4,11.9,4.7,18.3,1.4c1.6-0.8,3-0.4,4.1,0.7
			c1.4,1.5-0.6,2.2-1,3.3c-0.6,1.7-2.9,3.7-0.7,5.3c1.8,1.3,3.6-0.7,5.5-1.5c5.8-2.4,10.9-6.9,17.7-6.4c2.7,0.2,5,0.1,7.4-1.9
			c2.5-2.1,6.5-1.8,9-0.3c3.6,2.1,7.2,3.1,11.2,3.2c4.5,0.1,7.4,1.7,6.9,6.9c3.1-1.2,5.7-2.6,8.6-3.2c2-0.4,5.4-1,3.3,3.3
			c-1,2,0,3.5,1.8,3.8c3.5,0.4,7.3,1,10.6,0.2c2.5-0.6,3.9-1.2,5.1,1.6c1.1,2.6,3.4,1.5,5.2,1.2c2.5-0.5,5-1.1,8.5,0.5
			c-6.2,2.2-3.7,4.7-2.6,8.6c2.4,8.4,6.7,5.5,12.2,4.5c4.5-0.9,8.5-3.9,13.4-3.3c0.7,0.1,1.8-0.5,2.1-1.1c2.7-4.8,6-3.2,10-1.7
			c7.3,2.7,14.6,2.3,21.5-2c1.6-1,3.4-2.6,5.3-0.5c1.9,2.1-0.8,3.1-1.4,4.6c-1.8,4.5-4.7,6.1-9.4,4.6c-1.1-0.4-2.4-0.3-3,1.1
			c-0.2,0.4-0.2,1,0,1.4c0.7,1.2,2,1.1,3.1,0.9c1-0.2,1.9-0.8,2.8-0.9c1.7-0.1,3.4,0.2,4.1,2.1c0.6,1.7,0.1,3-1.6,4.2
			c-4.4,3.2-9.2,5.7-14.6,6.6c-2.3,0.4-5,0.4-4.6,3.9c0.3,3.3,3.1,2.5,5,2.7c2.5,0.2,5.4,0.3,5.3-3.5c-0.1-2.6,0.2-4.4,3.3-4.9
			c3.1-0.6,5.7-0.5,7.5,2.4c2.1,3.3,3.9,6.2,8.8,5.6c2.8-0.4,3.8,3.4,5.5,5.4c3.3,3.8,7.7,4.5,11.8,1.6c0.7-0.5,1.6-1,1.7-1.7
			c0.8-4.9,2.7-9.1,6.7-12.3c1.1-0.8,0.8-2.6-0.5-3.5c-2-1.5-3.4-4.6-6.7-3.2c-1.9,0.8-3.5,1.3-4.9-0.6c-1.4-2-0.5-3.8,0.8-5.5
			c4.8-6.4,4.8-6.4,11-1.1c6.3,5.4,7.5,10,4.4,17.8c-0.4,1.1-1,2.1-0.3,3.6c3.3-3.3,6.3-4.3,8.3,1.1c0.6,1.5,2.1,1.5,3.4,1.4
			c1.8-0.1,2.8-1.2,2.9-2.9c0.2-4,1.8-3.8,4.8-2.1c5.2,2.9,10,1.1,11.9-4.5c0.8-2.5,2.1-2.9,4.3-2.9c2.8,0,2.6,2,2.8,3.8
			c0.1,1.9,0.9,3.6,3,3c1.7-0.4,3.5-1.5,3.4-3.8c-0.1-1.8-0.9-3.1-3-3.4c-1.4-0.2-3.6,1.2-4-1.5c-0.2-1.2,0.1-2.4,1.4-2.9
			c2-0.8,4.2-1.8,6.1,0c1.3,1.3,2.4,2.8,4.5,2.8c1.7,0,3.4,2.3,5.1,0.4c1.6-1.8,1.3-3.9,0.5-6.1c-0.9-2.4-2.3-5.1,1.6-6.4
			c1.8-0.6,3.6-1.2,5.2,0.2c1.7,1.5,2,3.3,1.2,5.4c-1.6,4.1,0.1,5.5,4,4.2c4-1.4,5.1,1.6,6.2,4.1c1.3,2.9,2.9,4.7,6,3
			c2.8-1.5,6.4-3,3-7.3c-1.8-2.3,0.4-5.3-1.2-7.7c-0.3-0.5,0.2-1.7,0.9-1.4c3.5,1.6,6.3-2.8,10-0.8c2.2,1.2,4.9,0.5,7.3-0.5
			c2.5-1,5-2.1,7.5,0.2c0.6,0.6,1.4,0.6,2.3,0.3c4.1-1.4,7.2,0,7.2,4c0,3.3,1.7,3,3.6,3.2c4.5,0.6,8.9-0.4,13.3-1.3
			c2.1-0.5,3.2-0.5,4.3,1.7c3.3,6.8,5.2,7,11.5,3.6c4.2-2.3,8.9-2.5,13.6-1.2c5.5,1.6,7.7,0.1,7.5-5.4c-0.1-4.2,3.7-4.2,5.7-6
			c1.8-1.7,2.9,0.1,4.3,1.6c1.9,2,4.6,1.4,7.1,0.6c1.7-0.5,3.5-1.2,5.2-1.4c2.4-0.3,5.1-1,5.5,3c0.4,4.2-2.6,3.4-4.9,3.6
			c1.4,6.3,4.3,7.9,10.5,7.2c4.1-0.5,7.7,2.2,10.8,4.6c1.5,1.1-1.6,3.8-0.8,6c0.4,1.2-0.5,2.9,1.3,3.4c1.1,0.3,2.3,0.2,3.2-0.9
			c0.9-1.3,0.6-2.7-0.3-3.7c-4.5-4.5-0.9-7.6,1.9-10.5c1.9-2,3.2-3.3,2.6-6.6c-1.4-7.7,2.9-11.4,10.4-9.4c3.7,1,6.4-1.2,9-2.7
			c2.7-1.5,4.4-2.4,6.8,0.2c1.3,1.4,3.2,1,4.5-0.3c1.5-1.5-0.2-2-1.1-3c-2.2-2.4,0.4-2.9,1.8-3.1c8-0.9,15.8-3.7,24-2.8
			c3.1,0.4,6,0,8.7-1.5c4.4-2.4,7.7-1.2,10,3c1.5,2.8,3.1,5.4,6.9,2.9c0.6-0.4,2-0.4,2.4,0c5.3,5.2,12.3,0.1,18.1,2.9
			c1.8,0.9,3.5-1,3.5-3.2c0-2.4-1.8-1.9-3.3-1.5c-3.5,0.8-5.1-1.4-6.9-5.2c-0.4,4-1.8,4.6-4.4,3.2c-2.2-1.1-4.3-2-3.7-5.1
			c0.6-3.2,3-2.2,5.1-2.5c5.6-0.8,10.6,0,15.8,2.5c2.5,1.2,6.4,0,6.5-4.5c0-1.4-0.1-2.9,1.8-3c5.1-0.1,8.6-3.4,12.5-6.1
			c3.2-2.3,5.7-1.7,6.7,2.1c1.1,4.1,2.9,4.7,5.7,1.7c5.3-5.7,12.1-8.8,19-11.7c4.5-1.9,15.3,2.4,17.4,7.5c1.1,2.8,2.1,2.4,3.9,1
			c1.6-1.2,3.4-2.2,4.8-3.6c5-5.1,13-7.3,14.7-15.7c0.5-2.4,3.8-1.4,5.6-2.4c4.2-2.2,8.1-4.5,13.5-3.2c3.2,0.8,7.1-0.5,7.5-5.3
			c0.1-1.7,1.3-2.5,2.8-2c5.3,1.6,9.1-2.1,13.3-3.9c5.3-2.3,10.7-4.3,15.9-6.7c5.8-2.7,12.5-4,16.6-9.9c1.7-2.4,4.9-3.9,8-4.9
			c4.5-1.4,7.6-5.3,12.1-6.6c2.7-0.8,1.4-3.7,1.1-5.7c-0.2-1.6-1-3.5,1.8-3.6c2.3-0.1,2.8,1.5,2.5,3.4c-0.5,3.5,1.7,3.7,3.7,2.5
			c2.8-1.6,5.9-2.1,8.8-3.3c2-0.8,3.9-1.8,4.9-3.9c2.4-5.3,8.6-8.8,14.3-7.5c2.8,0.6,4.8,0.3,6.9-1.5c3.4-2.9,8.1-2.9,11.7-5.3
			c1.3-0.9,3-0.5,3.2,1.7c0.3,3.2,1.6,2.4,3.6,1.2c4.2-2.6,8.9-4.6,11.1-9.5c0,0,0-0.2-0.1-0.2c2.9-0.9,2.3-3.3,2.2-5.4
			c-0.1-2.9,1.2-5.2,4.1-5.2c4-0.1,8.3-3.1,12.1,1.1c0.5,0.5,1.9,0.3,2.9,0.1c1.3-0.3,2.7-1.5,3.7-0.3c1.5,1.9-1.1,1.8-1.6,2.7
			c-0.3,0.5-0.5,1.3-0.3,1.8c0.8,2.6,8.6,4.9,11.1,3.7c4.9-2.5,8.8-6,12.6-9.8c1.1-1.1,1.3-2.4,1-3.6c-0.4-2-2-1.1-3.3-1
			c-2,0.3-3.7,0.8-5.6,1.8c-4,2.3-11.7-0.6-13.3-4.7c-0.4-1,0.2-1.6,1-2c6.3-2.5,10-9.9,17.8-9.6c0.8,0,1.9-0.9,2.4-1.6
			c2.4-3.4,5.7-5.6,9.2-7.8c3.3-2.1,7.8-1.2,10.6-4.4c0.2-0.2,1.3,0.2,1.8,0.5c6.3,3,10,2.3,14.5-2.5c-0.7-2.1-4.4,0.4-3.9-2.3
			c0.3-2,3.1-2.3,5.1-2.3c2.6-0.1,4.5-0.8,5.7-3.2c0.3,0.1,0.6,0,0.8-0.3c1.6,0.4,3.2,1,4.8,1c2.8,0,3.1,0.2,2.1,3.4
			c-1.4,4.4-4.8,5.1-8,6.5c-1.7,0.7-2.5,1.9-2.1,3.4c0.3,1.4,1.4,2.7,2.8,3.4c1.9,0.9,2-1.1,2.9-1.9c2-1.7,2.8-4,3.4-6.4
			c0.8-3.5,4.6-2.7,6.9-4.1c0.6-0.4,1.8-0.3,2.1,0.7c0.7,2-1.7,2.7-2,4.3c0.9,0.8,2.5-0.9,3,0.8c0.4,1.4-0.6,2.1-1.7,2.6
			c-1.1,0.5-2.2,1.2-1.1,2.6c0.7,1,1.8,1.5,3,1.3c2.2-0.3,6-9.9,4.6-11.7c-0.1-0.1-0.3-0.2-0.4-0.3c-1.4-1.3-3.6-2.4-2.4-4.8
			c1.2-2.5,3.6,0.3,5.7-1c-2-2.9-3.9-5.4-7.9-4.9c-3.5,0.4-7.8-0.8-8.2-3.8c-0.4-3.1,4.1-3.5,7-3.7c2.4-0.2,3.7-0.8,3.2-3.7
			c-0.3-1.9-0.8-4.4,0.8-5.7c3.3-2.7,3.2-6.1,3.3-9.8c0.1-3.7-0.4-8.9,6.5-7.2c1.5,0.4,4-0.7,3.7-2.5c-0.7-3.5,0.4-6.4,1.2-9.6
			c1-4.5,1.5-5,5.4-2.5c0.9,0.6,1.5,2.1,2.9,1c1.2-0.9,2.2-2,1.7-3.8c-0.7-2.5,0.1-4.5,2.1-6.1c0.7-0.6,1.6-1.7,1.5-2.5
			c-0.5-5.2,2.5-9,5.2-12.8c0.7-1,0.6-1.8,0.1-2.8c-1.2-2.5-4.7-5,0.1-7.6c0.6-0.3-0.3-1.1-0.7-1.5c-3.4-3.7,3.7-4.8,2.2-8.5
			c-0.3-0.6,2.5,0.4,3.9,0.4c1.9,0.1,4,0.8,5.6-1c1.7-1.9-0.2-3.8-0.1-5.7c0-1.7-2.2-1.7-3.1-2.8c-1-1.1-2.4-1.9-1.9-3.7
			c0.8-3.1,9.5-9.2,12.9-9.1c1,0,2.1,0.6,2.6-0.7c0.5-1.4-0.9-1.6-1.7-1.9c-2-0.7-3.3-2.3-4.6-3.8c-2.8-3.3-1.9-7,2.1-8.4
			c2-0.7,1.6-2,1.2-3.2c-0.8-2.8-1.2-5.5,2.1-6.7c2.7-1,5.4-2,7.9,1.3c1.5,2,4.3,1.4,6.5,0.5c1.1-0.4,0.9-1.7,0.6-2.6
			c-0.8-2.3-2.6-2.9-4.8-2.5c-3.9,0.7-7.3-2.2-11.4-1.2c-1.5,0.4-1.6-1.1-1-2.4c3-6.5,5.2-13,1.8-20.1c-0.5-1.1,0.1-2.2,0.5-3.3
			c1.1-3.4,3.1-6,5.3-8.6c3.5-4.2,2.4-7.5-2.5-8.6c-2-0.5-3.4-2.3-3.2-3.3c1-4.7-0.6-9.3-0.1-14.1c0.4-4,2.8-6.2,5.2-8.7
			c-1.7-1.3-3.3-0.8-4.7-0.9c-2.9-0.2-5.8-0.2-2.7-4.4c1.3-1.8-0.7-2.8-2.1-3.7l0,0c-1.6-2.8-2.2-5.2,2.2-5.4c3.4-0.2,3-1.8,1.6-3.8
			c-1-1.5-2.1-2.9-3.7-3.9c-1.5-1-4.9-1-3.9-3.5c1-2.5,4.1-1.5,6.3-1.3c0.9,0.1,1.8,0.7,2.8,1c4,1.3,5.8-2.4,8.5-4.1
			c2-1.3-0.5-2.9-1-4.3c-0.8-2.3-6-2.3-8.7-0.2c-1,0.8-1.9,2.7-3.2,1.7c-3.8-2.9-8.6-3.6-12.4-6.3c-1-0.7-1.9-1.6-1.2-2.9
			c1.3-2.4-0.5-3.3-1.9-4.4c-5-4-9.1-8.7-12.8-13.9c-1.2-1.6-1.4-3.2,0-5c0.7-0.9,2.6-1.7,1.7-3.2c-1-1.6-2.7-0.5-4.1-0.3
			c-4.2,0.4-9.3,0.7-11.6-2.8c-4.4-6.5-11.4-9.4-17.1-14.1c-3.3-2.7-5.5-7.6-11.1-7.4c-1.7,0-4-2.2-2.3-4.4c2.5-3.2-0.4-3.4-1.9-4.5
			c-8.1-5.9-18.9-0.4-27.1-6.2c-0.1-0.1-0.3,0-0.5,0c-7.5-0.9-15.2-0.1-22.3-3.4c-1.6-0.7-4.1-0.4-3.2-3.8c1.8-6.2,1.6-6.3-4.9-6
			c-1.5,0.1-3,0.4-4.4,0.5c-4.8,0.4-9.8,1.9-14.3,1c-4.1-0.8-8.3-1.2-12.4-1.5c-3.5-0.2-6.5,0.4-5-4.9c0.5-1.7-0.6-3.6-2.9-4.1
			c-2.1-0.5-4.2-1.1-6.3-1.6c-2.9-0.7-4.5,0.1-4.6,3.3c-0.1,4.1-1.9,3.9-4.7,2c-4.6-3.1-9.2-5.2-15.2-4.1
			c-6.3,1.2-13.7-4.9-13.9-10.7c-2.9,0.6-5.9,0.6-6.1,5c-0.1,2.7-2.8,2.8-5.1,2.8c-2.2,0-2.7-1.2-2.8-3.2c-0.1-6.3-2.8-8-8.7-5.6
			c-4.6,1.9-8.5,1.6-11.4-3c-2.7,2.7-1.6,9.2-7.6,7.5c-2.1-0.6-4.6-1-6.6-3c-2.3-2.3-0.9-4.8-1.1-7.2c-2.3,0.3-3.7,0.8-4.6,2.9
			c-2.5,5.9-5.7,6.3-9.5,1c-1.5-2.1-2-5.6-5-5.6c-2.6,0-5.6,0.7-8.1,1.6c-2.4,0.8-3.3,0.8-5.2-0.9c-2.6-2.4,0.3-3.6,0.5-5.2
			c-1.8-0.5-2.9,0-3.5,1.4c-1,2.4-0.6,5.9-4.8,5.9c-2.8,0-5.6,0.6-8.4,0.7c-1.4,0-3.7-0.5-2.3-2.5c2-2.8-0.5-2.6-1.6-3.1
			c-2.4-1-4.4,0.6-5.9,0.9c-1.8,2.5,3.4,3.4,0.6,5.2c-1.8,1.2-4.8,1.3-6.3-1.2c-1.7-2.7-3.6-2.3-6-1.5c-1.1,0.4-2.9,1-3.3,0.6
			c-4.4-5.5-8.5-2.4-13.5-0.6c-5,1.7-10.4,0.1-14.5-4.4c-3-3.3-11.2-4.9-13-2.4c-4.2,5.7-9.6,3.3-14.6,2.8c-1.7-0.2-3.7-1.5-1.9-3.3
			c2-2,2.3-4.8,4-6.8c2.2-2.7,3.1-6.7,8.4-5.9c2.6,0.4,6.6-1.9,7-4.6c0.3-1.7-1.5-4.8-2.4-7.2c-0.2-0.5-2.2,0-1.8-1.6
			c0.4-1.2,1.6-0.9,2.6-0.7c2.1,0.3,4.2,0.1,6.2,1.5c2,1.5,4.2,1.3,6.2-0.5c-1.2-2-3-1.7-4.6-1.9c-1.2-0.2-2.5-0.6-2.8-1.8
			c-0.4-1.7,1.3-1.5,2.2-2c3.9-2.3,7.7-3.9,12.2-1.4c1.5,0.8,2.5-0.2,3.4-1.2c1.1-1.2,0.5-1.6-0.7-2.6c-2.1-1.8-0.9-3.5,1.2-4.4
			c2.1-0.9,4.3-2.1,6.6-2.3c4.4-0.3,8.9-3.5,12.9-1.9c5.8,2.4,9.6-0.2,13.4-3.4c1.7-1.5,2.7-1.9,4.6-0.6c3.7,2.6,7.6,4.2,12.5,2.5
			c2.6-0.9,5.9-1.6,8.1,1.8c0.4,0.6,1.7,1.3,2,1.1c3.8-2.6,7.3,0.6,10.9,0.6c1.6,0,4.1-1.1,4.6,1.5c0.3,2-0.5,3.9-3.1,4.3
			c-1.3,0.2-1.9,1.3-1.8,2.6c0.1,1,1,1.5,1.8,1.3c4.4-0.9,7.5,2.3,11.3,3.4c1.9,0.5,3.9,1.9,5.5,0c1.3-1.6,1.3-3.4,1-5.8
			c-0.4-3.1-1.9-7.5,2.3-9.8c5.4-2.9,9.2-1.7,13.4,2.7c3.1,3.3,5.7,7.3,10.4,9c2.1,0.7,2.3,2.4,0.8,3.9c-2,2-4,4-7.2,3.8
			c-4.3-0.2-8.7,0-13,0c-1.5,0-2.9,0.2-3.3,1.6c-0.6,1.8,1.3,1.8,2.3,2.5c3.1,2,8.3-0.1,10,5.1c0.1,0.3,3.1-1.3,4.1-2.8
			c0.7-1.1,1-2.8,2.5-2.8c5.4-0.3,10.4-4.8,16.3-1.3c1.6,1,4.5,0.4,4.8-2c0.2-1.9-0.3-4.3-3-5c-1.1-0.3-2.2-0.7-3.4-1
			c-2.9-0.7-4-1.7-1.5-4.5c3.1-3.6,2.2-5.5-2.1-7.6c-2.3-1.2-5.5,0.1-6.5-1.2c-2.2-2.8-6.5-4.3-6.3-8.9c0-1.1,0.3-3-1-3
			c-7.8,0.1,0-3.1-1-4.4l0.3,0c1.5,2.2,4.3,2.9,5.9,5.1c1.6,2.3,3.8,3.4,6.9,1.8c2.8-1.5,4.9-0.3,5.2,3c0.2,1.8,1.2,3.1,2.4,4.3
			c2.2,2.2,4.7,0.9,6.9-0.1c2.3-1,1.4-2.6,0.3-4c-1.2-1.5,0.6-0.7,0.7-0.7c5.5-2.2,8.2-0.4,8.6,5.8c0.2,3,1.4,5.6,4.2,6.8
			c1.9,0.8,3.3,1.8,4.4,3.7c2.3,4,7.2,1.5,10.3,4c1.4,1.1,2-1.6,3.1-1.7c4.2-0.3,6.5-6.2,11.5-3.8c0,0,0.3,0,0.3,0
			c0.7,2,1.3,4.1,2.1,6.1c0.5,1.3,2.9,2,1.9,3.7c-3.3,5.5,0.9,4.5,3.7,4.3c2.6-0.1,5,0.5,7.2,1.6c2.3,1.1,4.4,1.8,7,0.7
			c-0.5,2.8-4.7,2-4,4.7c0.5,1.8,3,1.9,4.8,1.9c7.1,0.1,13.2,2.1,17.6,8.1c1.2,1.6,3.6,2.2,4.9,1.6c5.6-2.2,10.8-0.6,16.4,0.2
			c4.6,0.7,8.5,1.5,12.2,4.2c2.4,1.8,4.9,3.3,1.2,6.3c-1,0.8-1.5,2.3-0.6,3.6c0.3,0.4,1.4,0.9,1.7,0.7c2.6-2.1,6.6-0.9,9-3.9
			c-1-1.6-4.2-1.3-3.5-3.7c0.6-2,1.9-3.8,4.3-4.5c1.8-0.5,3.7-0.8,5.4-0.3c2.5,0.7,5.8,0.7,7.4,1.9c3.7,2.6,7.5,4.9,11.6,7
			c1.4,0.8,1.1,2.7,0.6,4.1c-0.7,2.1,0.2,3,2.1,2.7c3.5-0.6,6.5,1.2,9.7,1.4C1654.6,105.8,1655.1,106.2,1655.6,106.7z M1628.1,511.5
			c2.5-1.5,4.5-3.3,4.7-6.5c0.1-1.3,0.5-2.7-1-3.6c-1.4-0.9-2.8-0.2-3.7,0.7c-3.1,2.9-5.4,2.8-7.2-1.3c-0.3-0.8-1.3-1-2.3-0.2
			c1,1.5,2.6,3.2,0,4.8c-1.5,1-0.7,1.9,0.5,2.6c2,1.1,3.7,2.7,6.4,1.3C1627.4,508.4,1629.2,508.6,1628.1,511.5z M1769.8,396.4
			c5.1,2.5,10.8,1.7,15.5,4.6c0.9,0.5,3,0.4,2.3-1.2c-1.5-3.1,1.3-3.5,2.3-5.1c1.1-2,5-4,1.5-6.6c-2.5-1.9-2.4-3.5-1.4-5.8
			c1.3-3,0-5.7-2.8-5.5c-4.9,0.4-10.4-1.1-14.7,2.7c-2.1,1.9-4.3,2.3-6.8,0.8c-1.6-1-3.6-3.6-4.8-1.4c-1.1,2.1,0.2,5.4,2.7,6.8
			c2.4,1.3,5.9,1.4,7.5-0.3c3.4-3.6,6.6-2,10-1.1c1.8,0.5,3.9,1,3.1,3.5c-0.6,2-2.5,3.6-4.6,2.9
			C1774.3,389.1,1771.8,392,1769.8,396.4z M1395.2,70.7c-0.1-1.5,1.2-2.9-0.3-4.2c-3.6-3.1-11.3-3.2-15.4-0.3
			c-2.4,1.7-5.1,3.5-7.5-0.1c-0.9-1.3-1.6-0.7-2.3,0c-2.8,2.4-2.7,5.9,0.2,8.1c5.2,3.8,11.3,6.2,16.2,10.4c0.3,0.2,1.1,0.2,1.3-0.1
			C1390.6,80.3,1395.9,77.2,1395.2,70.7z M798.9,639c-1.1,3.3-2.7,5.2-5.9,5.9c-2.9,0.6-5.7,1.8-7.6,4.4c-1.6,2.2-3.6,3.4-6.4,3
			c-3.1-0.4-3.6,1.9-3.8,4c-0.2,2.2,1.2,3.4,3.4,3.2c3.6-0.3,4.3,1.2,2.6,4c-1.5,2.5,0.7,2.9,1.8,2.5c2.8-1.1,6.4-1.8,7.5-5
			c3.2-9.9,12.4-12.4,19.6-17C801.8,643,801.8,643,798.9,639z M778.8,673c-2.6-0.8-4.7,0.3-6.2-1.3c0.4-1.4,1.3-1.3,2.1-1.4
			c1.4-0.2,3.3,0.3,3.1-2.1c-0.2-2.3-2.1-1.6-3.4-1.7c-1.6,0-3.2,0.1-4.9,0.7c-6.5,2-7.1,3.3-3.2,8.6c1.8,2.4,1,3.5-1.3,4.4
			c-2.4,1-4.3,2.4-4.9,5.1c-0.7,2.7-2,4.8-5.2,5.2c-1.8,0.2-2.2,1.8-2.3,3.4c-0.1,1.3,0.5,2.2,1.8,2.6c3.3,0.9,6.9-0.3,10,1.5
			c1.2-2.5,2.4-5,3.6-7.5c0.2-0.4,0.4-0.9,0.5-1.4C770.1,683,771.7,676.8,778.8,673z M483.6,569.5c4.9-2.1,8.4-2.1,10.9,1.4
			c1.7,2.4,3.7,3.6,6.7,3.7c1.6,0.1,3.3,0.8,4.4,2.2c2.8,3.8,6.1,3.4,9.6,1.4c3.8-2.2,5.8-5.5,5-10c-0.3-1.7-1-4.2-2.8-4.3
			c-3.7-0.1-5.8-1.4-6.6-5c-0.3-1.2-1.6-1.6-2.9-1.4c-0.9,0.1-1.6,0.6-1.8,1.5c-0.3,1.4,1.1,1.4,1.8,2c1.1,1,2.6,1.8,1.7,3.7
			c-0.8,1.7-2.5,2.3-4.2,2.3c-5.7-0.2-11.5,1.3-17.2,0.1C486.9,566.8,485.4,566.1,483.6,569.5z M825,672.7c-2.9-4.1-2.9-9.7-6-14
			c-0.7-1-0.5-3,0.8-4.1c0.9-0.8,2-1.4,1.1-2.8c-0.8-1.1-1.9-1.1-3.1-1c-3.6,0.2-5.7,3.1-5.8,7.1c-0.2,6.3,1.6,13.3-5.2,17.8
			c-0.8,0.5-1.4,1.5-0.8,2.6c0.8,1.4,2.3,1.2,3.6,1C815.1,678.2,820.7,677.5,825,672.7z M769.9,656c2.3-0.5,2.9-2,2.3-3.8
			c-0.6-1.9-1.9-3.6-2.2-5.5c-0.6-3.3-2.2-4.3-4-1.4c-2.6,4.3-4.9,8.2-10.2,10.4c-2.2,0.9-2.4,6.6-7.1,6.6c-0.8,0-1.5,0.9-1.4,1.8
			c0.5,3.6,3.1,5.8,6.1,6.4c3.5,0.7,3.7-2.1,3.6-4.9c-0.1-3-0.7-6.7,4.4-6.3c1.8,0.1,1.8-1.5,2.2-2.8c0.9-3.5,2.3-5.9,5.5-1.5
			C769.3,655.5,769.6,655.8,769.9,656z M1553.8,96.6c4.4,0.8,5.5-2,6-4.5c0.5-3.1-2.3-2.5-4.2-2.6c-2.8-0.1-5.6-0.8-8.3-0.9
			c-4.2-0.2-7.5-4.1-11.9-2.6c-0.9,0.3-2.2,0.7-2.5,1.4c-0.6,1.4,0.9,2.1,1.9,2.4c3.2,1,5,2.9,5.8,6.2c0.5,1.9,2,3,3.8,1.7
			C1547.7,95.4,1550.8,93.3,1553.8,96.6z M1716.7,376.4c0.7,0.1,1.3,0,2,0.2c3.1,0.6,4.2-0.9,4.2-3.8c0-3.4-1.9-2.4-3.9-2.2
			c-2.9,0.3-6,0.3-8.9-0.2c-3.5-0.5-5,2.8-7.9,3.3c-0.6,0.1-0.7,1.4,0,1.6c2.6,0.9,4.9,3.5,7.8,2.1
			C1712.2,376.2,1714.4,376.2,1716.7,376.4z M599.1,567.6c4.8,0,8.9-1.3,11.6-5.4c1.5-2.2,1.7-4.5-1.7-5.3c-3.7-0.8-11,3-12.7,6.3
			C595,566.3,596.1,567.6,599.1,567.6z M1011.5,689.1c-3.6,1.5-7.3,1.4-10.8,2.1c-4.8,0.9-5.5,2.7-2.7,6.9c1.4,2,1.6,4.2,1.7,7
			C1005.9,701.1,1005.5,693,1011.5,689.1z M1812.9,287.5c-1-1.9-2.6-5.2-5.6-5.3c-3.7-0.1-5.4,4.3-5.2,6.8c0.2,2.5,3.5,4.7,5.5,7
			c0.1,0.1,0.4,0,0.5-0.1C1809.6,293.4,1813.2,292.2,1812.9,287.5z M1734.7,341.7c-0.4-2.2-2-3.5-4.3-3.7c-2.2-0.2-4.6,0.5-5,3
			c-0.3,2.5-0.7,4.5-3.1,5.7c-1,0.5-1.4,1.4-1.1,2.5c0.4,1.1,1.4,1.3,2.4,1.5C1726.3,351.3,1734.7,344.7,1734.7,341.7z M1481,85.8
			c-0.3-0.4-0.7-1-1.2-1.3c-2.5-1.6-5.3-3.3-8.2-1.8c-3.6,1.9-5.6,5.4-7,9.2c-0.3,0.7,14.1,20.4,14.9,20.8
			c1.2,0.5-11.1-18.4-10.5-19.5c2-4,6.1-4,9.6-5.2C1479.6,87.6,1480.8,87.5,1481,85.8z M1111.6,667.5c0-1.2-0.4-2.1-1.2-2.3
			c-2.2-0.6-4.7-0.4-5.8,1.7c-2,3.9-5.6,4.3-9.1,5.3c-0.9,0.3-2.7-0.8-2.5,1.3c0.2,1.9,1.8,2.5,3.3,2.1c5.2-1.3,9.8-4,14.3-6.8
			C1111.1,668.5,1111.4,667.8,1111.6,667.5z M945.5,714.6c-1.8-2.5-3.5-5.3-5.7-7.6c-1-1-2.9,0.2-2.9,1.6c0.1,2.3-1.2,3.1-2.9,4
			c-0.9,0.5-2.5,1.3-1.9,2.5c0.9,1.9,2.1,0.3,3.2-0.2c2.2-1,3.2,1,4.7,1.9c1.3,0.8,2.6,1.5,4.1,0.3
			C945,716.6,945.6,715.9,945.5,714.6z M429.5,465.5c-2.1,0.1-2.9,0.1-3.7,0.2c-1.4,0.1-3.3-0.3-3.9,1.4c-0.6,1.9,1.2,3,2.5,3.9
			c2.2,1.5,4.7,2.4,7.4,2.3c1.8,0,3.7,0.4,4.1-2.3c0.5-2.6-0.5-4.3-2.8-5.1C431.5,465.5,429.8,465.5,429.5,465.5z M614,627
			c2.5-0.3,5.5,0.2,5.4-3.1c-0.1-2.7-0.8-5.5-4.3-6.5c-3.3-1-3.4,1.6-4.4,3.3c-0.3,0.5-0.8,1-1.3,1.4c-3.1,2.7-2.2,4,1.5,4.4
			C612,626.6,613.2,626.9,614,627z M832.9,717.4c0.3,0,0.7,0,1,0c3.7,0.4,5-2.5,5.6-5c0.6-2.6-1.5-5.2-3.3-6c-3.1-1.4-2.1,2.9-3.8,4
			c-0.8,0.5-1.2,1.6-1.8,2.4c-0.8,1-2,2-1.3,3.5C830.1,717.6,831.7,717.1,832.9,717.4z M417.5,377.3c3-0.4,5.9-1.9,8.8-3.5
			c1.1-0.6,1.9-2.1,1.3-3.4c-0.7-1.5-2.2-1.3-3.5-0.9c-3,0.9-6.1,1.5-8.6,3.7c-1,0.8-1.4,1.8-0.9,3.1
			C415.1,377.5,416.2,377.2,417.5,377.3z M550.7,536.5c0,0.2,0.1,0.7-0.1,1.2c-2.2,5.5,1,4.6,4.3,3.8c1.3-0.3,2.5-0.7,3.8-1.1
			c0.9-0.3,2.1-0.4,2.1-1.7c0-1.3-1-1.6-2.1-1.6c-2-0.1-3.3-1.3-4.7-2.6c-1.1-1.1-2.1-3.3-3.9-2.2
			C548.6,533.1,550.3,534.8,550.7,536.5z M1432.8,600.7c-1-1.9-0.4-5.8-3.5-5.5c-3.5,0.3-5.9,3.6-7.4,6.5c-0.5,0.9,4.2,2.5,6.6,3
			C1430.5,605,1432.6,603.6,1432.8,600.7z M998.4,678c-3.6,0.8-7,1.8-7.5,5.7c-0.2,1.3,0.4,4.2,2.5,3.3c2.9-1.2,7-1.5,8-5.2
			C1002,680.1,1000.7,677.9,998.4,678z M614.6,649.1c3.5-0.9,7.8-0.7,9.7-5.2c0.3-0.8,0.6-1.6,0-2.3c-0.7-0.8-1.6-0.4-2.3,0.1
			c-2.7,1.7-5.5,3-8.5,3.9c-1,0.3-3.1,0.5-2.7,2.3C611.3,649.3,613,649.1,614.6,649.1z M1725.6,217.7c-0.1,1.8,0.9,3.4,1.6,5
			c0.8,1.7,2,1.7,3,0.4c1.8-2.3,2.2-5.5,4.5-7.6c0.1-0.1-0.1-1.1-0.4-1.2c-2.3-1-4.5-0.1-6.7,0.4
			C1725.9,215.1,1725.4,216,1725.6,217.7z M404.5,408.3c2.1-0.2,4-1.1,4-3.8c0-3.3-3-4.7-5.2-5c-2.1-0.3-3.4,2.4-3.3,4.6
			C399.9,406.7,401.3,408.4,404.5,408.3z M1787.1,406.2c-2.2-0.4-5.2-0.9-4.9,2c0.2,2.6,3.1,4.8,5.8,5.4c3.5,0.8,3.4-2.8,3.8-4.6
			C1792.6,404.6,1788.8,406.9,1787.1,406.2z M1798.3,315.6c-0.2,2.4,0.4,3.8,2.7,3.5c2.3-0.3,4.7-1.2,4.2-3.9
			c-0.5-2.2-0.5-6.1-3.2-5.9C1799.3,309.7,1798.2,313,1798.3,315.6z M374.2,420.8c1.7-0.4,2.5-2.2,3.5-3.6c0.6-0.9,0.7-1.9-0.6-2.4
			c-2.5-1-4.4-2.7-6.3-4.5c-1-0.9-1.9-1.1-3-0.1c-1.1,1-0.8,2,0,3c1.6,2,3.7,3.7,4.2,6.5C372.1,420.5,373,420.9,374.2,420.8z
			 M1719.3,172.2c-3.2-0.9-6.4-3.6-9.1,0.1c-1.1,1.5,0.4,3.2,1.5,3.8C1715.7,178.2,1716.8,173.7,1719.3,172.2z M466,514.7
			c2.1,2.9,4.9,3.6,7.3,4.7c1.9,0.8,3.6-0.2,4.3-2.1c0.4-0.9,0.2-2.4-1-2.3C473.3,515.1,469.9,513.7,466,514.7z M365.5,392.9
			c-2.1,0.4-5.2,0.2-2.2,3.6c1.4,1.6,1.3,2.3-0.8,3c-1.5,0.5-1.9,1.9-0.9,3.3c0.8,1.2,1.4,3,3.1,2.9c1.9-0.2,1.4-2,1.4-3.2
			c0-2,1.5-3.3,2.3-4.8C370.5,393.9,368.4,393.3,365.5,392.9z M879.5,693.6c-2.9-2.2-4.5-5.6-8.2-3.8c-1.2,0.6-2.1,2.2-0.8,3.8
			C873,696.8,875.9,695.5,879.5,693.6z M540.7,533.6c0-1.6-0.5-2.9-1.9-2.7c-2.7,0.3-3.8,2.2-4,4.8c-0.1,1.7,0.9,3.4,2.3,3.2
			C540.2,538.5,539.1,534.9,540.7,533.6z M1752.1,227.7c-0.9,1.4-3.5,1.6-3.5,4c0.1,1.5,1.7,1.9,3,1.7c1.8-0.2,3.9-0.3,3.8-2.8
			C1755.4,229,1754.1,228.1,1752.1,227.7z M1748.5,362c2.9-0.1,3.4-2.8,3.9-5.2c0.3-1.7-0.5-3.7-2.4-3.6c-3,0.2-3.8,2.8-4.2,5.3
			C1745.4,360.2,1745.6,361.9,1748.5,362z M1220.1,689.9c-3.9-5.8-4.2-5.9-8.8-2.4C1214.5,687.9,1216.4,690.8,1220.1,689.9z
			 M1525.9,572.5c2.6-1.8,5.1,0.3,7.6,0.4c1.6,0.1,2.8-0.4,2.9-1.9c0.2-2.1-1.7-1.3-2.8-1.4C1530.8,569.4,1528.6,571.4,1525.9,572.5
			z M1018.6,662.5c-0.2-1.1-0.8-2.6-2.3-2.4c-2,0.3-3.5,2-3.9,3.8c-0.4,1.5,1.2,2.5,2.9,2.4C1017.7,666.3,1018.2,664.6,1018.6,662.5
			z M665,600.3c-0.4-1.1-0.9-2.3-2.3-2.1c-1.5,0.3-2.9,1-2.7,3c0.2,1.4,1.3,1.9,2.5,1.8C664,602.8,664.8,601.7,665,600.3z
			 M1138.7,660.8c-1.8,0.3-2.4,1.5-2.3,3.2c0.1,1,0.1,2.1,1.6,1.8c1.9-0.4,2.8-1.6,2.8-3.5C1140.8,661,1139.8,660.8,1138.7,660.8z
			 M1676.7,479.6c-1.9,0.1-2.9,0.6-2.7,2.1c0.2,1.3,1.2,1.9,2.5,1.8c1.2-0.1,2.3-0.7,2.1-2.1
			C1678.4,479.9,1677.3,479.6,1676.7,479.6z M789.8,674.9c-2.6-0.2-4.6-0.6-6.8,1C785.6,678.2,787.6,678.8,789.8,674.9z
			 M1607.7,503.8c-1.4,0-2.3,0.8-2.1,2.1c0.1,1.2,1.3,1.2,2.3,1.2c1.2-0.1,2.6-0.5,2.5-1.8C1610.3,503.9,1608.9,503.9,1607.7,503.8z
			 M1383.9,616.8c-1.5,0-2.1,1-2.1,2.5c0,0.8,0.1,1.9,1.1,1.7c1.4-0.2,2-1.6,2.5-2.7C1385.9,617.1,1385,616.9,1383.9,616.8z
			 M1184.2,672.1c1.3,0,1.6-1.1,1.8-2.3c0.2-0.9,0-1.8-1.1-1.6c-1.3,0.2-2.5,0.9-2.5,2.4C1182.4,671.6,1183.1,672,1184.2,672.1z
			 M894.5,680.5c-0.5-0.7-0.6-1.8-1.9-1.7c-1.3,0.1-1.4,1.2-1.3,2.2c0.1,0.9,0.1,2.2,1.6,1.9C894,682.7,894.1,681.6,894.5,680.5z
			 M1745.6,347.6c-0.4-1.1-1.4-1.3-2.3-1.3c-0.9,0-1.3,1-1.3,1.7c0.1,1.4,1.2,1.2,2.2,1.1C1745,349,1745.7,348.7,1745.6,347.6z
			 M1605.9,513.7c0.3,0.9,0.9,1.4,1.8,1.4c1.1-0.1,1.8-0.8,1.9-1.8c0.1-1.2-0.7-1.2-1.5-0.7C1607.4,512.9,1606,512.3,1605.9,513.7z
			 M1776.1,259.3c-0.2-1.1-1.1-1.1-1.9-1.1c-1.1,0-2.1,0.3-2.2,1.5c-0.1,1.3,0.9,1.7,2,1.4C1774.9,260.8,1776,260.6,1776.1,259.3z"
			/>
		<path class="st0" d="M1128.1-79c-6.4-0.5-12.2-2.3-16.6-8.6c2.8,7.5-5.2,7.5-7.2,11.8c-0.8,1.7-3.9,2.7-5.2,1.6
			c-1.8-1.3-1.1-3.9,0.4-5.8c-3-1.8-6.4-0.8-9.6-1.5c-1.8-0.4-2.7,0.4-2.9,2.4c-0.2,1.8-1.3,3.3-3.2,3.2c-2.3-0.2-1.5-2.2-1.5-3.6
			c0-2.1-0.6-3.2-2.8-3.1c-1.6,0.1-2.8-0.4-3.8-1.8c-1.1-1.6-3-1.6-4.4-0.5c-1.9,1.5-0.1,3,0.5,4.4c0.1,0.3,0.4,0.5,0.6,0.8
			c4.6,5.2,4.5,5.8-0.9,10.3c-2.1,1.8-4.3,1.2-4.9-0.9c-1-3.4-3.5-6-4.1-9.5c-0.8-4.8-4.2-6.3-8.6-4.2c-1.8,0.9-3.5,1.4-5-0.4
			c-2.2-2.7-4.4-1.5-5.7,0.4c-1.7,2.4,0.3,3.4,2.6,4c1.9,0.5,3,2.1,3.7,3.9c0.5,1.4,1,3-0.1,4.3c-1.1,1.2-2.6,0.5-3.6-0.2
			c-2.4-1.7-6.5,0.1-7.6-4.3c-0.3-1.3-2.3,0.1-3.5,0.6c-1.8,0.7-3.1,1-4.8-0.9c-6.4-7.1-5.1-5,2.7-12.7c-4.3-0.7-7.9-0.1-9.7,4.1
			c-0.7,1.5-1.6,2.4-2.9,3.2c-1.7,1-1.2,2.6-1,4.1c0.3,1.8,1.6,1.8,3,1.8c1.6,0,3.9-0.4,3.6,2.1c-0.2,2.1-2.4,3-4.2,2.5
			c-5-1.3-7.9,2.1-10.2,5.1c-2.1,2.6-4.4,5.2-5.9,8.2c-1.2,2.5-3.2,2.9-4.8,2.1c-3.7-1.9-7.7-3.7-10.2-7.3c-2.8-4-5.7-7.7-11.1-7.8
			c-1.3,0-2-1.1-2.9-1.8c-2.7-2.1-5.3-3.1-7.8,0.4c-1.8,2.5-4.2,1.7-6.2,0.6c-2.1-1.1-0.9-2.4,0.5-3.4c1.3-0.9,0.2-1.3-0.4-1.7
			c-2.4-1.4-4.6-3.2-7.8-2.5c-3.1,0.7-5.9,0.2-8.5-1.8c-2-1.5-4.3-1.5-4.5,1.1c-0.2,2.1-4.4,4.2,0.2,6.9c4.3,2.6,8.3,5.6,12.8,8
			c3.1,1.7,6,2.2,8.5-0.8c1.1-1.3,1.1-4,3.5-3.6c3.2,0.5,6.9,0.1,9.4,2.5c1.6,1.6,4.7,2.7,3.3,6.5c-0.6,1.6,1.4,3.3,3.6,3.1
			c5.6-0.3,8.7,4.5,13.2,6.4c1.1,0.5,2.4,1.8,1.5,3.3c-0.9,1.5-2.1,0.6-3.4,0c-2.9-1.5-5.6-2.2-7.8,1.7c-1.5,2.7-4.1,1.6-6.1,0.1
			c-3.6-2.5-6.9-3.2-10.1,0.7c-1.1,1.4-2.5,1.3-4.1,0.7c-2.9-1.2-5.5,0.5-8.2,1c-1.7,0.3-2.5,1.5-1.1,3.3c0.9,1.1,1.5,2.8-0.1,3.4
			c-3.7,1.5-6.4-1.6-9.5-2.7c-1.9-0.7-2.9-2.6-0.9-4.8c1.2-1.3,0.2-2.1-1.1-2.5c-1.1-0.3-2.3-0.2-3.4,0.3c-8.2,3.6-8.3,3.6-13.5-3.5
			c-2.6-3.5-6.7-6.2-4.8-12c0.7-2.1-4.3-2-5.6-4.5c-1.4,1.1-1,2.4-1.1,3.5c-0.9,6.5-0.8,6.5-7.5,5.3c-1.5-0.3-2.6,0.3-3.8,1
			c-1.1,0.7-2.1,1.7-3.8,1.2c-1.5-1.2,2.3-3.4-0.4-4.3c-1.2-0.4-2.8-0.4-3.5,1.1c-1.2,2.5-3.2,4.9-1.8,7.9c0.3,0.7,1.2,1.2,1.6,1.9
			c1.8,2.9,0.9,4.4-2.4,4.6c-1.3,0.1-2.7-0.1-4,0.1c-3.9,0.6-5.8,4.6-3.1,7.3c2.6,2.8,5.1,6.1,9.3,7c1.8,0.4,4.1,0.8,3.6,3.2
			c-0.5,2.2-2.9,1.7-4.6,2c-2,0.4-3.8-1.6-5.9-0.5c-0.2,1.9,1.3,3.2,2.5,3.1c4.6-0.5,9.7,3.3,13.7-1.9c1.3-1.6,3.4-0.8,5.2-0.6
			c3.7,0.5,7.6,2.9,10.3-2.2c0.7-1.3,3.4-1.4,4.3,0.2c1.1,1.8,0.7,4.3-1.4,5.2c-5.9,2.6-11.9,4.8-18,6.9c-1.4,0.5-3,0.1-3.8,1.7
			c-0.9,1.7-1.6,1.3-3.4,0.9c-2.1-0.5-5.1,0.2-6.9,1.5c-1.9,1.4-2.6,1-4.1-0.3c-3.4-2.9-7-5.1-11.6-2.9c-1.3,0.6-2.6,0.6-3.8-0.3
			c-1.6-1.1-3.6-1.6-5.2-1.2c-5.2,1.2-10.3-0.7-15.8,0.8c-6.8,1.8-14.1,0.2-21.2-2.3c-5.7-2-11.9-2.5-18-3.1c-2-0.2-3.8-0.4-5.7-1.1
			c-2.5-0.9-4.8-0.2-5.9,2.2c-1.2,2.5,0.8,3.7,2.7,4.5c4.4,1.8,6.4,6.8,11.1,8c1.1,0.3,0.9,1.6,1,2.6c0.1,2.1,1.3,3.2,3,3.8
			c1.9-1.9-3.9-4.4,0.7-5.6c4.4-1.2,9.6,0.6,10.5,3.5c0.6,1.8-4.6,7-6.8,6.1c-4.5-2-10.2-0.9-13.8-4.3c-3.5-3.4-7.3-3.3-11.5-3.5
			c-2.7-0.1-4.9,0.9-6.9,2.4c-1.6,1.1-4.1,2.1-3.3,4.4c0.9,2.4,3.3,4.4,5.9,3.8c4.2-1,6.8,2.3,10.3,3c1.2,0.3,2.3,1.6,2.1,3.1
			c-0.2,1.8-1.8,2-3,1.9c-6.2-0.6-11.6,0.4-16,5.3c-0.8,0.9-3,0.9-3.7-1c-1.6-4.6-5.4-4.7-8.5-3.2c-3.1,1.5-5.9,0.9-8.9,0.8
			c-3.8-0.2-7.5-0.9-11.2,1.1c-1.8,1-3.9,0-3.6-2.5c0.4-4-0.9-8.5,3.7-11.9c-3.6-0.6-5.8-1-8,1.9c-3.2,4.1-8.6,2.7-13.1,3.7
			c-5.7,1.2-6.9,3.1-4.6,8.7c0.7,1.6,2.9,3.1,0.4,5.2c-1.3,1.1,0.5,1.6,1.2,1.8c1.1,0.4,1.8,0.5,2.5-1.2c2.3-5.9,10.6-8.3,15.5-4.4
			c2.1,1.7,4.6,1.7,6.9,2.8c1.5,0.7,2.5,1.7,2.7,3.3c0.2,1.8-1.2,2.8-2.6,3.2c-3.6,1.1-6.2,3-6.4,7.2c0,0.6-1,1.6-1.6,1.7
			c-5.2,0.8-6.7,6.1-10.6,8.6c-2.6,1.7-0.6,3.1,1,4.5c1.5,1.3,5,0.1,4.8,2.9c-0.3,3.1-2.9,4.2-6,3.9c-1.1-0.1-1.7,0.5-2.1,1.6
			c-1.4,3.6-4.9,4-8.1,5c-1.7,0.5-5.6-2.7-4.7,2.6c0.1,0.6-1.5,0.7-2.2,0.3c-4-2.6-9-1.7-13.3-4.7c1.9-1.1,5.2,0,6-3.5
			c-3.9-0.2-7.7-1.8-10.7,2.4c-1.2,1.7-3.4,0.8-5.2,0.4c-2.1-0.4-3.8,0.2-4.6,2.1c-0.9,2.2,1.1,3.1,2.5,3.5
			c4.7,1.6,6.9,6.2,10.9,8.6c1.4,0.8,1.2,1.9-0.2,2.6c-2.7,1.4-6.1,1.4-7.1-1.1c-2.6-6.3-6.5-2.9-10-1.9c-1.1,0.3-2.2,1-3.3,0.7
			c-3.7-0.8-6.7,0.9-7.9,3.8c-1.4,3.5-4.9,4-6.9,6.4c-1,1.2-2.1,0.5-3.1-0.2c-1.1-0.8-1.4-2-0.5-3c2.9-3.5,2.6-6.4-1.4-8.8
			c-1.3-0.8-1.2-2.3-1-3.7c0.3-2.8-1.1-3.4-3.6-3.4c-5.2,0.1-5.7,0.7-3.3,5.3c0.8,1.5,1.1,3-0.3,4.1c-2.6,2.1-1,2.9,1,3.6
			c1.3,0.4,2.6,0.7,3.8,1.2c1,0.3,1.9,0.9,2.1,2c0.2,1.5-1.1,1.8-2.1,2.4c-5.3,2.8-5.2,2.8-0.6,6.9c0.6,0.5,1.1,1.3,1.3,2
			c0.7,4.2-6.6,12.4-11,12.2c-3.1-0.1-5.4-0.3-5.2,4.2c0.1,2.9-3.8,4.6-6.4,3c-4.5-2.7-8.1-4.4-12.9,0.7c-1.8,1.9-5.4,6.3-10.2,4.2
			c-1.2-0.5-2.3,0.4-2.5,1.8c-0.3,2-1.6,2.8-3.7,3.4c2.1,1.8,4.6,3,5.7,4.9c1.6,3-2.5,3-4.1,5.6c2.6,0,4.6,0,6.6,0
			c1.5,0,3.3,0.2,3.5,2c0.3,1.8-1.6,2.3-2.7,2.3c-9.6-0.1-15,7.5-22.1,12c-2.3,1.5-3.4,5-2,7.4c2.5,4.2,0,5.4-3,6.6
			c-2,0.8-4.1,1.4-6.3,1.1c-1.6-0.2-2.3-0.5-3.2,1.9c-1.1,2.7-4.8,4.4-7.9,5.7c-1.2,0.5-2.9,0.3-3.4-1.2c-0.5-1.5,1.2-1.7,2.1-2.3
			c1.1-0.8,2.1-1.8,1.6-3.3c-0.4-1.6-1.9-1.8-3.1-2.1c-7.1-1.9-10.6,0.4-12.4,8.1c-0.5,2.1-0.9,4.3-2,6.1c-1,1.7-0.7,2.6,0.4,3.9
			c2.3,2.7,2,4.5-1.8,5.6c-2.2,0.6-4.5,1-6.6,1.1c-0.5,1.4,0.2,1.8,1,2.2c4,1.8,2.2,3.2-0.3,4.5c-1.2,0.6-2.4,1.1-3.6,1.7
			c-0.9,0.5-2.3,0.9-2.5,1.5c-1.1,4.6-2.7,8.8-7.3,11c3.6,5.2-0.1,8-2.9,12c-2.6,3.7-4.2,5.5-8.4,3.2c-1-0.6-2.1-1.2-2.8-2.1
			c-1.6-2.2-3.4-4.1-6-1.7c-2.2,2.1-4.4,4.7-2.3,8.2c0.5,0.8,0.9,1.8,1.5,2.5c0.9,1.1,1.6,2.3,0.6,3.6c-0.9,1.2-2.1,0.3-3.1-0.2
			c-1.8-0.8-3.9-0.5-3.4,1.8c1,4.9-2,6.9-5.4,8.8c-1,0.6-2,1.1-3,1.8c-1.7,1.3-5.2,1.4-4.7,4.4c0.4,2.5,3.4,2.2,5.3,3.1
			c0.8,0.4,2.3,0.3,2.2,1.6c-0.4,2.8-3.2,4.4-3.7,7.4c-0.6,3.8-3.6,3.2-6.6,2.9c-2.6-0.2-6-2-7.5,2.9c-0.7,2.4-3.8,1.2-5-1
			c-0.8-1.5-1.5-2.6-3.3-2.1c-1.2,0.4-2.8,0.7-3.1,2.1c-0.3,1.6,1.3,2.1,2.4,2.9c1.6,1.2,2.6,2.7,2.4,4.7c-0.6,4.8,2.7,4.4,5.4,3.8
			c6.8-1.5,9.6-0.4,13.7,6.4c-4.9-1.6-8.1,0.4-11.3,3.3c-2.1,1.9-5.3,2.1-7.6-0.5c-1.2-1.4-2-3.2-4.3-2.5c-0.7,0.2-0.9,1.2-0.4,1.7
			c1.6,1.4,1.5,4.9,4.7,4.4c2.4-0.4,3.6,0,4.1,2.7c0.9,4.8-0.5,6.6-5.7,6.9c-2.3,0.2-5.2-1.2-6.2,2.5c-0.9,3.2-0.2,5.7,2.6,7.9
			c4.2,3.3-0.1,5.5-1.8,6.2c-4.9,1.9-6.8,3.4-2.3,8.2c2.5,2.7-0.8,3.9-3,4.3c-3.6,0.6-7.2,0.8-10.8,1.2c-2.3,0.2-4.5,0.7-6.7,1.8
			c-3.3,1.7-6.2,2.1-8.9-2c-2.7-4.2-6.9-1.5-9.7,0.4c-3.7,2.5-5.8,3.7-8.2-1.5c-1.5-3.2-5.9-2.5-8.9-4l0.1,0.1
			c-1.3-3.9,1.8-5.7,3.7-8.1c1.2-1.5,3.5-3,2.6-5c-1-2.1-3.7-1.6-5.8-1.8c-3.4-0.3-6.5,1-9.8,1.8c-2.6,0.6-5,1.6-7.8,1.3
			c-2.9-0.3-4.3,1.9-5.3,4.4c-0.6,1.5-1.7,2.6-3.4,2.2c-2.1-0.5-1.5-2.3-1.4-3.7c0.2-6.4,3.8-10.8,10-12.5c0.8-0.2,2-0.6,2.4-0.3
			c4.7,4,8-1.2,11.9-1.7c2.3-0.3,2.4-1.9,2.8-3.5c0.6-2.4-1.5-2-2.6-2.6c-0.9-0.5-1.7-1-2.6-1.3c-1.4-0.5-4,0.4-3.5-2.3
			c0.6-3.3,3.1-1.1,4.8-1.1c0.1,0.1,0.2,0.2,0.3,0.3c-0.1-0.1-0.3-0.2-0.4-0.2c-0.7-3.2-1.5-6.3,1.8-9c2.1-1.7,1.3-3.9-1-5.2
			c-4.3-2.5-2.5-6.9-2.8-10.4c-0.2-1.9,2-1.7,3.4-0.7c3.6,2.8,5.7,1.5,7-2.4c0.3-0.8,0.7-1.5,1.1-2.2c0.8-1.2,3-2.2,1-4
			c-1.6-1.5-3.3-2.3-5.3-0.7c-1.3,1-2.9,1.3-4.1,0c-1.5-1.7,0.1-2.9,0.9-4.3c2-3.5,4.7-5.3,8.9-5.2c2.7,0.1,4.8-0.8,3-4.2
			c-0.5-1-0.4-2.1,0.5-2.7c4.9-3.2,3-5.3-1.1-6.8c0-1.9,1.4-1.9,2.4-2.2c4.8-1.6,9.4-3.4,13.3-6.7c3-2.5,6-2.3,9.3-0.5
			c5.8,3.1,9.5,2.4,13.6-2.5c2.9-3.4,5.9-5.7,10.2-1.9c1.9,1.7,4.1,1.7,5.9,0c1.7-1.6,3.5-2.5,5.7-2.8c0.9-0.1,2.3,0,2.2-1.4
			c-0.1-1.6-1.6-1.7-2.7-1.4c-1.2,0.3-2.3,1.3-3.5,1.6c-2.6,0.8-5-0.3-5.9-2.5c-1.2-3,1.8-2.1,3.3-2.6c5.2-1.9,10.4-8.2,9.9-12.3
			c-0.2-2.1-0.3-4.4-3.1-4.9c-2.6-0.5-3.9,1.5-5.3,3c-0.5,0.6-0.6,1.5-1,2.3c-1.1,2.4-3.6,1.2-5.3,1.9c-1,0.4-1.1-0.5-1.1-1.1
			c-0.1-2.1,1.7-2.4,3-3.4c4.1-2.9,7.7-6.8,13.5-6.3c0.8,0.1,1.3-0.6,1.2-1.3c-0.3-0.9-0.7-2.1-1.4-2.5c-0.9-0.5-2.2-0.3-3.4-0.5
			c-2.2-0.4-4.4-0.8-1.7-3.6c2.1-2.1,1.7-3.3-1.3-3.8c-1.9-0.3-3-2-3-3.6c0-2.4,2.3-1.4,3.5-1.3c4.1,0.1,4.9-4,8.1-5.3
			c-2.3-2.1-5.2-0.9-7.3-2.3c-0.9-0.6-1.7-1-1.5-2.2c0.2-1.3,1.2-1.5,2.2-1.5c1,0,2-0.1,3,0c2.7,0.2,4.1-0.6,3.6-3.6
			c-0.4-2.9,0.3-4.9,3.8-5.7c3.5-0.7,4.3-4.7,6.5-7.1c0.3-0.3,0.1-1.2,0.4-1.4c5.4-2.9,8.6-6.2,2.6-11.8c-1.1-1,0.4-2.2,2.1-2.2
			c3.2,0,6.3-0.2,9.5-0.5c1.8-0.2,3.2-0.1,4,1.9c0.8,2,0.2,3.2-1.8,3.8c-1.7,0.5-1.7,2-1.6,3.3c0.1,1.7,1.5,1.3,2.6,1.7
			c3.8,1.2,7.4,1.9,10.6-1.4c-0.1-0.4,0-0.8-0.2-0.9c-1.4-1-4.4-0.1-4.1-2.7c0.3-2.1,1.9-4.4,4-5.3c1.8-0.8,3-1.5,2.4-3.5
			c-0.6-2-2.3-2.1-4-2.1c-1.2,0-2.4,0.1-3.4-0.3c-1.8-0.8-4.3-1.7-3.9-3.9c0.4-2.3,2.8-0.7,4.3-1c4.1-1,8.1-1.3,12.2,0.8
			c3.1,1.6,5.7-2,8.8-1.6c2.9,0.3,5,4.3,9.2,1.7c-4.4-0.9-5.9-5.3-10-6.3c-1.9-0.5-3.6-1.3-5.7-0.3c-2.9,1.4-5.2-0.4-6.9-2.5
			c-1.5-1.9-1-4.3,0.1-6.1c1.5-2.5,4.3-2.8,6.7-1.7c2.9,1.3,3.8,0.7,4.9-2.3c1.5-4.2,4.4-7.4,9.7-6.7c6.3,0.9,11-2.1,15.1-6.6
			c0.9-1,1.9-2.1,3.4-1.6c1.8,0.6,1.4,2.3,1.7,3.8c0.6,3.6-3,6.4-1.4,10.3c0.7,1.8,1.2,3.1,3.2,3c3.1-0.1,6.3,0.3,9.4-0.7
			c1.5-0.5,3.8-0.7,3.3-3c-0.4-1.9-0.8-4.5-3.6-4.7c-2.3-0.2-4.3-0.7-5.1-3.1c-0.9-2.5-1.3-4.7,2.5-4.7c1.5,0,2.8-0.4,4.2-1.3
			c1.9-1.2,4.1-1.8,5.5,0.8c1,1.8,2.6,1.4,3.9,0.8c1.8-0.9,0.5-2.3,0.1-3.4c-0.4-1.1-0.9-2.1-1.5-3.1c-0.6-0.9-1-1.9-0.5-2.8
			c0.7-1.4,1.9-0.7,3.1-0.5c1.1,0.2,2.4,0.4,3.4,0.1c2-0.5,3.8-1.4,5.4,0.8c1.5,2.1,0.8,4.1-0.3,6.1c-0.6,1-1.3,1.9-1,3.2
			c3.4,0.5,10.7-4.1,11-7c0.5-4.4-3.7-4.8-6.2-6.1c-5.8-3.1-5.5-3.1-2.3-8.3c4.1-6.5,9.7-9,18-9c-4.2-3.4-7-6.5-7.3-11.3
			c-0.3-4.7,2.7-9.6,7.6-9.8c3.4-0.1,4.9-1.6,6.4-4.4c2.3-4.4,5.6-4.8,8.4-0.8c3.2,4.5,6.6,3,10.3,1.7c1.1-0.4,2.4-1.3,2-2.5
			c-1.2-3.3,0.2-4.9,2.8-6.9c2.3-1.8,4.4-2.6,7.2-2.6c1,0,2.6,0.8,2.8-1c0.2-1.4-1.2-1.2-2.1-1.4c-1.3-0.3-3.1-0.5-3.1-1.9
			c0-2.3,2.4-0.9,3.5-1.5c3.2-1.8,6.1-2.3,9.1,0.5c0.8,0.7,2.6,0.3,3.9,0.4c2,0.1,3.4-0.9,3.8-2.6c0.5-1.8-1.3-2.4-2.6-3.2
			c-1.8-1.1-6-0.6-4.8-3.6c1.1-2.9,4.6-0.2,7.1-0.3c0.3,0,0.8,0.1,0.9,0.3c2.6,5.7,9.6,5.4,13.1,9.7c1.9,2.4,3.6,1.6,5.5,0.1
			c1.9-1.5,2.5-2.9,0.5-4.9c-2.4-2.4-3-5.5-2.6-8.8c0.3-1.9,0.8-4.6,3.1-4.5c2.4,0.2,5,1.9,4.7,4.8c-0.3,2.9,1,4.1,3.1,5.5
			c2.3,1.6,1.8,1.4,4.3-0.3c2.3-1.5,5.3-1.9,6-4.7c-2.3-0.1-4.8,0.2-5.7-3.1c-0.3-1.3-1.5-1.8-2.6-2c-4.5-1-1.3-4.4-1.9-6.6
			c-0.8-2.5,1.7-2.3,3.2-2.7c1.4-0.4,3-0.4,4.4-0.8c0.9-0.3,2.4-1.2,2.4-1.5c-2.1-6.4,3.9-4.1,6.1-5.6c1.9-1.3,4.4-1.7,6.5-2.8
			c2.1-1.1,5.8,0.6,8.8,1.2c6,1.3,7.6,0.2,8.8-6.2c0.6-3.6,3.8-4.7,7.7-4.7c7.3,0,13.9,2.8,20.9,3.4c1.7,0.2,3.9,0.6,3.1-2.7
			c-1.2-5.2,1.3-7.6,6.4-7.8c0.7,0.1,1.3,0.2,2,0.2c3.4,2.5,6.4,1.2,8.6-1.6c1.9-2.4,4.2-3.7,6.9-4.5c8.3-2.2,17.4-2.1,23.9-9.1
			c0.5-0.5,1.5-0.7,2.3-0.8c2.3-0.2,2.9-1.4,1.8-3.3c-2-3.3-0.6-5.6,1.9-7.7c0.7,0,1.4,0,2.1,0.1c5.1,1.1,10.3-0.7,15.3,1
			c0.3,1,0.9,1.7,2,1.9c0.8,1.8,1.7,3.4,4,1.7c1.1,0.9,2.3,0.8,3.5,0.3c1,0.6,2.2,1,2.9,1.8c5.7,6.1,12,1.1,18,1
			c1.8,0,2.4-2.1,1.6-4c-0.7-1.7,0-2.9,1.6-3.6c5.6-2.7,10.9-6,17.6-4.7c2.7,0.5,4.9-3.1,3.9-5.3c-2.5-5.3-2.5-5.3,3.3-5.7
			c1.2-0.1,2.4-0.2,3.4-0.6c1.3-0.5,2.7-1.2,0.6-2.7c-3.2-2.3-0.8-3.6,1.1-4.4c2.5-1,5.1-0.7,7.8,0.1c6.1,1.9,11-0.1,14.6-5.4
			c0.7-1,1.8-2.3,2.7-1.5c3.3,2.9,6.5,0.2,9.6,0.5c5.9,0.6,10.9-1.2,15.7-3.6c2.6-1.3,4-0.6,5.7,0.9c5.4,4.7,17.3,3.2,21.6-2.5
			c1.4-1.9,3.1-5.3,4.9-4.9c6.2,1.5,11.7-2.6,17.7-1.2c3.1,2.2,6.1-0.8,9.1-0.3c5-1,10.1-1.5,15.2-0.1c2.5,0.7,3-0.6,2.4-3.1
			c-0.7-2.9-1-6.1,2-8.2c3.1-2.2,17.1-0.7,19.8,1.9c1.2,1.1,0.4,1.9,0,3c-2.2,5.6-0.2,9.5,5.7,10.4c4.2,0.6,9,4,12.4-1.9
			c0.2-0.4,1.6-0.3,2.4-0.3c2.5-0.2,5.4,0.2,5.9-3.2c0.5-3.3-0.2-6.4-3.6-8.1c-1.1-0.6-2.9-0.6-2.7-2.4c0.2-2,1.9-2.5,3.5-3.2
			c2.5-1.1,4.2,0.7,5.8,2c2.2,1.9,5.7,2.8,6.7,1.2c2.8-4.5,5.9-2.2,9.1-1.6c1.8,0.4,3.7,0.4,5.3-0.7c1.1-0.8,2.3-1.5,3.7-0.8
			c3.7,1.8,7.4,1,11.2,0.4c2.1-0.3,3.8-0.3,3.8-3.3c0-2.2,8.2-4.9,9.9-3.3c1.2,1.2,2.1,3.4,0.1,4.2c-3.2,1.4-1.2,3.3-1,5
			c0.2,2.3,2.3,3.6,3.8,3c5.5-2.1,11.9-2.3,16.5-6.2c3.7-3.2,7.2-5.1,12.1-3.8c2.3,1.1,4.6,2.2,6.9,3.3c0.6,1.9,2.2,2,3.6,1.9
			c4.4-0.3,7.8,0.9,9.9,5.1c1.1,2.1,3.4,2.7,5.7,2.3c3.9-0.8,7.9-1.1,11-4.1c1.4-1.4,3.8-2,3.9-4.2c0.2-2.5-3-2-4.3-3.3
			c1.6-0.9,3.7-1.4,4-2.5c1.7-4.8,4.1-4.1,7.8-2.1c2.5,1.3,5.3,0.5,4.1-3.4c-0.6-2-0.4-3.4,1.6-3.9c6.2-1.5,11.6-5.9,18.4-5.4
			c1.2,0.1,2.6-1.5,3.5,0.3c0.7,1.2-0.4,2.2-0.9,3.2c-0.5,1-1.2,2-2,3.4c7.2-4.1,14.3-1.6,20.8-0.1c2.7,0.6,5.3,1,8.1,1.4
			c3.8,0.6,9.1-5.2,11,2.4c1.5-0.5,1.7-1.6,2-2.5c1-3.6,2-6.4,6.1-2.3c1.8,1.8,4.8,1.9,6.8,0c4-3.6,13.5-4.5,16.8-0.8
			c3,3.3,4.9,3.8,7.3-0.4c0.8-1.5,2.6-2,4.4-1.7c2.2,0.3,2.4,2.1,2.5,3.8c0.2,2.2,1.1,4.1,2.3,6c1.8,2.9,1.2,6.4,1.9,9.6
			c0.4,2-2.3,1.9-3.6,2.8c-1.2,0.8-1.1,1.6-0.3,2.9c2,3,6.2,3.1,8.1-0.2c1.2-2,1.7-4.3,2.9-6.3c1.6-2.9,5.3-5.4,7.2-3.1
			c4,5,6.4,0.9,8.9-0.7c1.7-1,2.9-2,4.8-1c4.2,2.1,8.5,3.8,13.4,3c1.3-0.2,3.5,1.2,2.3,2c-3.3,2.3-5.3,6.3-9.2,7.9
			c-1,0.4-1.7-0.5-2.3-1.4c-3.2-4.4-8.5-4.4-11.9-0.2c1.5,1.1,5-0.6,4.7,2.3c-0.2,2.4-3.2,2.5-5.3,2.3c-1.8-0.1-2.3,1-3.4,2.1
			c-3.8,3.9-9.2,3.8-14.1,5.1c-3.4,0.9-3.8-3.5-5.1-3.9c-4.4-1-5.3-3.3-6.9-7.3c-2.2-5.3-5.9-4.9-11.2-1.4c-1.4,0.9-2.9,1.6-4.5,2.2
			c-3.2,1.2-4.8,0.3-5.3-3.4c-0.6-3.6,1.8-7.4-0.5-10.9c-0.5-0.8,0.5-1.4,1.3-1.7c0.9-0.3,2.4-0.3,2-1.6c-0.4-1.4-2-2.2-3.2-1.7
			c-4.6,1.9-10,0.3-14.1,3.8c-0.9,0.8-2.9,0.6-2.7,2.4c0.1,1.4,1.5,1.6,2.6,1.9c1.3,0.3,2.2,0.5,3.1-1.2c1.6-2.7,8.6-2.5,10.4,0.1
			c0.7,1.1,1,2.3-0.5,2.9c-3.3,1.2-4.7,3.9-6.1,6.8c-1.2,2.5-3.5,4.1-6.3,4.5c-6.5,1-12.7,3.9-19.5,2.5c-0.9-0.2-2,0.2-2.8,0.6
			c-5.2,2.4-6.4,2-8.8-3.1c-0.6-1.2-1-3.1-2.5-2c-2,1.6-4.6,1-6.5,2.3c-2.1,1.4-4.5,2.5-6.4,0.7c-2-1.9-4.4-4-3-7.8
			c0.9-2.4,0.4-5.2-0.1-7.9c-0.5-2.7-2.2-3.6-4.2-2.7c-4.8,2-10.7,1.3-14.6,5.6c-1.1,1.2-4.2,0.5-3.8,3.1c0.3,2,2.4,2.5,4.2,3.1
			c6.4,2.4,7.3,7.9,1.9,12.3c-1.4,1.1-2.3,2.3-2.7,3.9c0,0,0.1-0.1,0.1-0.1c-1.8-0.1-3.3-0.1-4.7-2.1c-3.5-5.1-6.7-5.7-12.1-2.2
			c-4.3,2.8-9.6,3.4-13.4,7.2c-1.1,1.1-2.7,0.6-4.3,0.5c-5.4-0.4-10.8-3.6-16.4-0.2c-2.1,1.3-3.6-1.1-4.5-2.8
			c-1-1.9-1.7-3.7-4.3-2.8c-2.1,0.8-5.3,0.1-6.2,2.5c-0.9,2.4,2.4,3.2,3.5,4.9c0.2,0.2,0.1,0.6,0.2,1.1c-0.9,0.4-1.9,0.6-2.7,1.2
			c-3,2.1-5.5,3.3-9.1,0.5c-5.8-4.4-10.7-1.2-15,3c-1.9,1.8-3.4,4.1-5.1,6.1C1129.3-79.7,1128.7-79.4,1128.1-79z M526.5,153.5
			c3.5,5,0,5.6-3.4,6.2c-6.4,1.3-6.9,3.3-3.3,8.7c3.2,4.8,7.6,1.7,11.4,2.6c3.1,0.7,5.2-0.7,6-3.7c0.7-2.9,2.8-5.1,5.1-5.7
			c6.2-1.6,4.3-6.1,3.9-9.8c-0.4-3.3-3-4-5.2-1.4c-1.6,2-3.1,3-5.4,1.5c-1.4-0.9-2.5-0.6-3.5,0.6
			C530.7,154.2,528.9,153.8,526.5,153.5z M612.9,115.6c5.1,0.2,6.7-3.7,9.6-5.1c4.4-2.2,6.7-3.8,1.4-7.6c-1.2-0.9-0.9-3.7-3.7-3
			c-2.3,0.6-3.4,2.2-3.5,4.3c-0.2,3-1.8,3.5-4.4,3.2c-1.8-0.3-3.6-0.4-5.4-0.6c-1.1-0.1-2.1,0-2.3-1.7c-0.7-4.7-3.8-5.8-7.7-2.8
			c-2.2,1.7-3,4.7-2.9,7.1c0.1,2.9,3.1,1.4,4.8,1.8c2.2,0.6,4.5,1.2,6.6,2.1C608.1,114.3,610.9,115.4,612.9,115.6z M569.1,152.3
			c-3.9-0.5-6.8,1.4-10,3.4c-3,1.9-4.2,6.4-9.3,5.8c-0.9-0.1-2.7,5.9-4,9.1c-0.1,0.2,0.6,0.8,0.9,1.1c3,2.3,10.3-0.4,11.6-3.9
			c0.7-1.9-0.1-5.3,3.5-5.1c3.2,0.2,5.7-1.5,8.6-2.1c3-0.7,5.2-3,4.9-5.4C575.1,152.1,572.1,151.6,569.1,152.3z M425.2,285.6
			c-2.1,0.3-5.2-0.7-5.2,1.8c0,2.5-1.9,5.9,1.7,7.8c1.7,0.9,3.5,1.9,5,3.1c2,1.6,4.1,1.3,6,0.3c2-1,3.4-2.9,2.8-5.3
			c-0.4-1.7-0.2-2.8,1-4c1.5-1.5,2.4-3.5,0.7-5.3c-1.7-1.7-3.9-1.8-5.9-0.3C429.4,285.1,427.5,286.4,425.2,285.6z M455.1,280
			c-0.7,0.6-0.6,1.5-0.6,2.3c0.1,1.5,0.5,3.3-1.6,3.5c-2.2,0.2-2.6-1.7-2.8-3.4c-0.1-0.6,0.3-1.3,0.2-2c-0.2-2.9-2.5-3.5-4.6-3.4
			c-2.6,0.1-2.4,2.4-2,4.2c0.4,1.9,1,3.9,2.1,5.6c0.8,1.3,2,3.8,3.5,2.9c6.6-4.1,14.1-2.6,21.2-3.9c2.7-0.5,4.8-1.9,6-4.9
			c-4.4-0.7-8.2-0.1-12.1,1.8C459.5,285.2,457.1,284.3,455.1,280z M711.4,53c2.5,1.2,4-0.4,4.8-2.9c1-3.3,2.4-6.2,5.7-7.8
			c0.9-0.4,1.6-1.3,1-2.5c-0.5-1-1.4-1.3-2.5-1.4c-1.7-0.2-2.7,0.9-4.1,1.6c-5.1,2.4-9.8,7.1-16.3,3.4c-0.9-0.5-2.5-0.3-2.8,1.2
			c-0.2,1.3,1,1.6,1.9,1.7c2.8,0.1,4.1,1.2,3.8,4.4c-0.3,2.7,1.9,3.2,4.1,2.9C708.4,53.3,709.6,52.4,711.4,53z M433.8,250.3
			c2.3,1.2,4.1,2.5,5.7,4.2c1.9,2,4.3,3.1,7.2,2.2c1.4-0.4,3.2-0.6,3-2.6c-0.1-1.8-1.7-1.8-3-2c-2.8-0.3-5.5-0.8-8-2.4
			C437.3,248.6,435.7,248.5,433.8,250.3z M627.2,61.9c2,3,4.6,4.1,7.1,5.5c1.5,0.9,3,1.5,4.6,1c1.3-0.4,0.7-1.5,0.6-2.5
			c-0.3-2.1-1.3-3.9-3.5-4.2C633.3,61.3,630.5,60.8,627.2,61.9z M643.2,72.5c-1.3,0.4-4.3-0.9-3.6,1.4c0.7,2.3,3.5,4,6.3,4.6
			c1.6,0.3,2.7-0.5,2.4-2.2C647.8,73.7,646.6,71.6,643.2,72.5z M667.2,47.3c2.6-0.2,4.2-0.9,4.2-3.5c0-2.2-1.2-2.9-3.1-2.8
			c-2.2,0-3.3,1.2-3.5,3.3C664.6,46.2,665.6,47.3,667.2,47.3z M1044.8-98c-0.9-1.1-1.5-2.8-3.3-2.6c-2,0.3-2.4,2.1-2.7,3.7
			c-0.2,1.7,0.8,1.7,2.1,1.3C1042.5-96,1044.4-95.7,1044.8-98z M696.3,44.6c-2.9-0.9-4-2.5-6.3-2.2C690.8,45.5,692.4,46,696.3,44.6z
			"/>
		<path class="st0" d="M1201.1-129.3c0.7,1.5,2,3.3-0.1,4.2c-2,0.8-4.3,2.2-6.6,0.7c-1.2-0.8-1.3-2.4-0.9-3.6
			c0.8-2.6,3.2-0.7,4.7-1.5C1199.1-129.4,1200.1-129.4,1201.1-129.3z"/>
		<path class="st0" d="M990.5-102.2c1,3.2-0.7,3.8-3.4,3.5c-1.8-0.2-2.9-1.2-2.6-2.9c0.3-1.7,1.8-1.6,3.2-1.3
			c0.8,0.2,1.6,0.4,2.4,0.5C990.1-102.4,990.5-102.2,990.5-102.2z"/>
		<path class="st0" d="M1597.5,577.1c-1.4-2.1-5.2-3.2-3.1-6.9c0,0,0.3-0.2,0.3-0.2c0.9,1.2,1.8,2.5,2.8,3.7
			C1597.5,574.8,1597.5,575.9,1597.5,577.1z"/>
		<path class="st0" d="M1399.4,662.8c-5.7,0.5-9.8-3.2-14.3-5.3c-1.4-0.7-1.9-2.8-1.2-3.4c2.8-2.5,1.7-6,2.8-8.8
			c1.6-4.1,4.5-5.8,7.5-4.4c2.9,1.4,4.6,6.1,3.2,8.8c-0.5,1-1.6,2-0.6,3.2c0.9,1,2.1,0.9,3.2,0.2c1.4-0.9,3.1-1.3,4.3-0.5
			c5.1,3.2,8.6,0.2,12.6-2.4c5.5-3.6,7.4-2.5,8.6,3.7c0.5,2.6-0.6,3.5-2.5,3.9C1415.2,659.4,1407.3,661,1399.4,662.8z"/>
		<path class="st0" d="M1689.3,504.1c-0.2,7-1.7,8.2-7.3,7.4c-1.3-0.2-2.8-0.3-3.9,0.2c-5.9,2.6-11.2-0.6-16.8-1.3
			c-1.9-0.3-2.8-2-2.8-3.6c-0.1-1.7,1.9-1.4,3-1.9c4.4-1.8,9.3-2,13.5-4.6c1.7-1.1,3.5-1.1,5.1,0.2c1.4,1.1,3.2,1.4,4.7,0.8
			C1689.6,499.3,1689.4,502.4,1689.3,504.1z"/>
		<path class="st0" d="M415.1,328.4c0.4,0.7,0.6,1.6,1.2,2.2c1.3,1.4,3.7,2.5,2.5,4.8c-0.9,1.8-3.2,1.5-5,1.5
			c-4.2,0.1-8.3-0.1-12.5,0c-4.4,0.1-6-2.9-6.2-6.3c-0.3-3.6,2.6-4.6,5.7-4.7c1.4,0,2.5-0.5,3.7-1.3c3.1-2,5.7-2,7,1.9
			C412.2,328.5,413.9,328,415.1,328.4C415.2,328.5,415.1,328.4,415.1,328.4z"/>
		<path class="st0" d="M1710.5,153.7c-0.6-0.3-1.5-0.4-1.8-0.9c-1.6-3.2-3.9-6.4-4.2-9.8c-0.2-1.7,3.7-3.5,6.3-3.2
			c4,0.4,7.1-1,10.1-3.2c2.1-1.6,3.5-0.2,4.4,1.4c1.3,2.1,0,4.2-1.9,4.1c-6.1-0.2-8.7,3.2-10.3,8.3
			C1712.8,151.5,1712.1,153.2,1710.5,153.7z"/>
		<path class="st0" d="M1335,671.8c0,2.3-0.7,4.1-3.5,3.1c-4.8-1.6-7-0.5-8.2,4.3c-0.4,1.7,0.3,4.3-2.1,4.5
			c-2.5,0.2-5.4-0.3-7.7-1.4c-1.8-0.9-0.4-2.8,0.7-3.6c1.9-1.5,2.9-3.4,4-5.5c2.4-5,10.9-7.5,14.7-4.8
			C1335,669.8,1335,669.8,1335,671.8z"/>
		<path class="st0" d="M375.6,355.9c-2-0.2-4-0.2-4.5-2.1c-0.6-2.1,1.2-2.8,2.7-3.5c3.6-1.9,7.5-3.2,10.6-6.2
			c2.1-2,10.7,1.2,12.4,3.9c0.9,1.6,0.1,2.6-1.3,3.1c-2.2,0.7-4.4,1.4-6.7,1.4c-3.8,0.1-7.6,0-10.7,2.9
			C377.4,355.9,376.1,355.8,375.6,355.9z"/>
		<path class="st0" d="M1032.6-66c-3.2,3.8-5.9,7.8-9.6,10.8c-1.4,1.1-5-0.3-6.6-2.2c-1.5-1.9-3-4.8,1.3-5.4
			c2.9-0.4,3.4-2.3,3.7-4.5c0.5-3.7,3.3-2.7,5.4-2.4C1029.3-69.5,1031.5-68.4,1032.6-66z"/>
		<path class="st0" d="M584.3,651.2c0,1.1-0.6,1.7-1.3,2.1c-4.2,2.8-1.7,3.9,1.2,4.9c1.4,0.5,3.1,0.4,3.8,1.9c0.3,0.6,0,1.4-0.8,1.5
			c-1.9,0.4-3.9,1.8-5.6-0.1c-3.3-3.6-6.9-6.6-11.4-8.5c-1.3-0.5-1.8-1.5-0.8-2.8c1.9-2.4,4.4-3.3,7.4-3.4c2.8-0.1,5.3,0.4,6.9,3
			C583.9,650.4,584.1,650.9,584.3,651.2z"/>
		<path class="st0" d="M379,463.6c-1.8-0.3-3.3,0.2-3.6-1.4c-0.2-1.3,1-1.3,1.9-1.9c4.2-2.8,6.8-7.2,10-11c0.9-1.1,1.3-3.1,3.3-2.1
			c1.1,0.6,2.5,1.4,2.9,2.5c0.7,1.9-1.3,2.4-2.5,3.2c-2.1,1.4-4.5,2.5-3,5.8c0.3,0.7,0.1,1.6-0.5,1.7
			C384.2,460.7,381.4,462.5,379,463.6z"/>
		<path class="st0" d="M1814.3,343.9c-1.8-0.4-3.2-0.8-4.7-1c-1.8-0.2-3.4-0.4-3.6-2.6c-0.1-2.1,1.2-2.6,2.9-3.3
			c3.2-1.3,6.2-3,9.3-4.5c1.4-0.7,3-0.9,4.1,0.4c1,1.2,0.4,2.7-0.4,3.7C1819.7,339.4,1818.8,343.7,1814.3,343.9z"/>
		<path class="st0" d="M468.2,206.8c0,2.2-0.5,4.6-3.1,3.8c-3.5-1-9,1.9-10-4.4c-0.4-2.5,4.4-5.9,7.8-5.5
			C466.2,201.1,468,203.4,468.2,206.8z"/>
		<path class="st0" d="M764.4,35.4c-2.6-1.2-3.6-0.4-4.5,1.8c-0.9,2.5-3.2,2.4-5.5,1.8c-3.2-0.8-3.6-3.1-1.1-4.4
			c3.9-2.1,7.7-5,12.4-5.3c1.8-0.1,4.6-0.9,4.9,1.9c0.3,3-2.8,3.1-4.7,4.1C765.3,35.6,764.6,35.4,764.4,35.4z"/>
		<path class="st0" d="M1792.6,432.8c1.9,0,2.9,0.5,3.5,1.7c0.7,1.5,0,2.7-0.9,3.6c-2.6,2.3-5.3,4.5-4.3,8.7
			c0.3,1.1-1.2,1.9-2.5,1.7c-2.1-0.3-2.7-2.3-2.7-3.8c0.1-3.7,3.7-6.4,3.6-10.4C1789.2,433.8,1791.8,433.2,1792.6,432.8z"/>
		<path class="st0" d="M1747,486.8c-1.9-0.2-3.9,1-4.8-0.8c-0.9-1.8,1.2-2.4,2.1-3.5c0.3-0.4,0.5-0.9,0.7-1.3c1.3-2.8,3.3-6,6.3-4.5
			c2.4,1.2,2.2,5.5,1.9,8C1752.7,487.8,1748.9,486,1747,486.8z"/>
		<path class="st0" d="M1028.1,723.8c-0.5,0-1.9,0.2-3.1-0.2c-2-0.7-2.6-2.6-2-4.5c0.9-2.4,2.8-2.1,4.4-0.9c1.4,1,2.8,1.8,4.5,1.8
			c1.1,0,2.5-0.1,2.5,1.6c0.1,1.8-1.1,2.2-2.6,2.2C1030.9,723.8,1029.9,723.8,1028.1,723.8z"/>
		<path class="st0" d="M1709.8,133.9c-5.1,4.3-11,3.1-16.5,3.6C1698.3,134.7,1702.8,129.8,1709.8,133.9z"/>
		<path class="st0" d="M1771.6,455.5c-2.6-0.2-4.8-1.8-4-3.5c1.1-2.2,0.3-5.6,3.2-6.5c1.9-0.7,6.7,4.9,6.2,7.5
			C1776.3,455.8,1772.9,453.9,1771.6,455.5z"/>
		<path class="st0" d="M1848.7,237.2c-1.7-0.1-4-0.6-3.8-3.4c0.1-2.4,1.4-4.5,4.3-4.4c2.6,0.1,3.4,1.9,3.6,4.4
			C1853,236.5,1851.6,237.2,1848.7,237.2z"/>
		<path class="st0" d="M581.8,525.8c-0.2-2.2,0-4,1.5-5.4c1.3-1.3,2.8-1.9,4.5-1c1.6,0.9,1.5,2.4,1,3.9c-0.5,1.6-1,3.2-1.5,4.7
			c-0.4,1.4,0.6,3.9-1.8,3.9c-2.2,0-3.3-2-3.6-4.1C581.7,527.2,581.8,526.3,581.8,525.8z"/>
		<path class="st0" d="M470.7,588.3c1.9,0.2,4.5-0.2,4.3,2.7c-0.2,4.3-3.8,4.8-7,5.4c-1.7,0.3-3.3-0.7-2.7-2.4
			C466.1,591.5,466.2,587.7,470.7,588.3z"/>
		<path class="st0" d="M1362.2,600c0.2,3.7,0.8,7.3-1.7,10.4c-0.8,1-1.6,2.2-3.2,1.9c-1.9-0.4-1-2.1-1.2-3.3
			C1355.5,604.4,1357.2,601.3,1362.2,600z"/>
		<path class="st0" d="M583.6,77.9c-0.4,2.1-0.8,5.2-3.3,5.2c-3.7,0-3.7-4-4.5-6.6c-0.5-1.8,1-3.7,3.1-3.6
			C581.9,72.8,583.3,74.9,583.6,77.9z"/>
		<path class="st0" d="M463.1,189.8c2.6,0.3,5.4-0.1,7.2,2.4c1.1,1.4,1.6,2.7-0.7,3.3c-2.1,0.5-4.2,1.1-6.3,1.2
			c-3.5,0.2-3-3.1-3.4-5C459.5,189,461.4,189.2,463.1,189.8z"/>
		<path class="st0" d="M1663.9,542.5c-1.7-1.1-4.5-1.8-5.5-4c-0.8-1.8,1.6-2.5,2.7-2.8c2.6-0.6,5.1,0.5,7.3,2
			C1669.1,538.3,1665.5,542.5,1663.9,542.5z"/>
		<path class="st0" d="M856.8-5.2c-0.3,1.3,0,3.9-2.5,4c-1.7,0.1-3.9-0.9-3.7-3.2c0.2-2.2,1.2-4.8,3.5-5.1
			C856-9.9,856.9-7.8,856.8-5.2z"/>
		<path class="st0" d="M350.4,423.4c-2.5,0.2-2.9-1.6-2.8-2.9c0.3-3.9,3.8-4,6.4-4.9c1.6-0.6,2.3,0.5,2.4,2.1
			C356.6,422.2,352,421.3,350.4,423.4z"/>
		<path class="st0" d="M1817.1,320.5c3.2-0.7,6.1-2.7,9.6-2.2c1.2,0.2,2.5,0.1,2.6,1.7c0.1,1.4-0.9,2.1-2.1,2.4
			c-2.5,0.7-5.1,1.5-7.7,1.9C1816.2,324.8,1816.7,322.5,1817.1,320.5L1817.1,320.5z"/>
		<path class="st0" d="M570.6,641.6c-0.5,1.4,0.8,4.3-2.2,3.9c-4.7-0.6-3.3-5-4.3-7.9c-0.5-1.4,0.2-2.9,1.9-2.6
			C569.7,635.6,570.9,638.1,570.6,641.6z"/>
		<path class="st0" d="M864.6,647.3c-1.7,0.1-2.6-0.4-2.6-1.9c0-3.9,3.4-4,5.8-4.9c1.2-0.5,2.5,0.2,2.4,1.7
			C869.8,645.6,866.1,645.5,864.6,647.3z"/>
		<path class="st0" d="M1823,234.2c-0.3,0.4-0.6,0.9-0.9,1c-2.6,1.1-5.1,2.2-7.7,3.2c-1.2,0.4-2.8,0.7-3.4-1c-0.5-1.5,0.8-2,1.8-2.5
			c2.3-1.2,4.8-2.1,7.5-2.4C1821.4,232.4,1822.5,232.8,1823,234.2z"/>
		<path class="st0" d="M485.3,607.5c0.2,2.8-1.4,3.3-3.4,3.2c-2.7-0.2-3.7-1.9-3.5-4.3c0.2-1.6,0.4-3.5,2.9-2.6
			C483.2,604.5,486.5,603.9,485.3,607.5z"/>
		<path class="st0" d="M1575.8,580.4c1-0.1,2.1,0.1,1.9,1.1c-0.5,2.5-2.4,3.8-4.8,4.2c-1,0.2-2.1-0.1-2-1.5
			C1571.2,581.2,1574.1,581.4,1575.8,580.4z"/>
		<path class="st0" d="M1113.1,718.7c-1.2-0.6-3.6,0.6-3.6-1.5c0.1-2.6,2.3-3.8,4.9-3.9c1.9,0,4.4,0.2,4.2,2.3
			C1118.3,718.3,1115.4,718.4,1113.1,718.7z"/>
		<path class="st0" d="M1733.2,148.1c-2.1-0.2-2.8-1.2-2.8-2.7c0-2.1,0.4-4.1,2.8-4.5c1.6-0.3,2.3,0.9,2.3,2.4
			C1735.7,145.5,1734.2,146.8,1733.2,148.1z"/>
		<path class="st0" d="M400.1,491.9c-3.6,2.1-6,0.6-8.5-0.5c-1.3-0.6-1.6-1.7-1.2-2.8c0.5-1.8,2-0.9,2.8-0.5
			C395.3,489.1,397.4,490.4,400.1,491.9z"/>
		<path class="st0" d="M1814.4,387.5c-2.8-0.1-4.9-1.7-5.4-4.2c-0.3-1.6,1.8-3.3,3.7-3.1c2.8,0.2,4.3,2.8,5,4.8
			C1818.4,386.9,1815.8,387.1,1814.4,387.5z"/>
		<path class="st0" d="M464.4,186.5c-1.4,0.1-2.4-0.4-2-1.3c1-2.3,0.9-5.6,4.3-5.9c2.1-0.2,3.7,1.1,3.4,3.3
			C469.6,185.8,465.8,184.6,464.4,186.5z"/>
		<path class="st0" d="M572.3,192.3c-0.3-0.6-0.6-1.2-1-1.7c-1-1.3-2.6-2.6-1-4.2c0.9-1,2.2,0.1,3,0.9c1.4,1.4,3.2,2.9,2.1,5.1
			C574.6,194,573.3,192.2,572.3,192.3C572.3,192.3,572.3,192.3,572.3,192.3z"/>
		<path class="st0" d="M1763.8,169.1c1.9,0.6,4.5,1.1,5.1,3.5c0.4,1.9-1.8,2.6-3.4,2.7c-2.2,0.1-4.3-0.6-4.6-3.4
			C1760.8,170.2,1761.7,169.1,1763.8,169.1z"/>
		<path class="st0" d="M1681.7,109.7c-0.8,1.7-0.2,4.7-3.5,4.9c-1.7,0.1-2.3-1.2-2.2-2.6c0.2-2.4,1.4-4,3.8-4.5
			C1681.2,107.2,1682,107.9,1681.7,109.7z"/>
		<path class="st0" d="M401.6,500.4c-0.7,1.2,0,3.6-2.3,3.5c-1.9-0.1-1.8-2-1.7-3.4c0.1-1.8,0.9-3.4,2.8-3.3
			C402.1,497.3,401.8,498.9,401.6,500.4z"/>
		<path class="st0" d="M1798,423.5c-1.4,1.4-2.8,2.9-4.4,4.2c-1.2,1-2.9,1.4-3.9-0.1c-1.2-1.7,0.2-2.8,1.6-3.3
			c2-0.7,4.1-1.1,6.2-1.7C1797.8,422.8,1797.9,423.2,1798,423.5z"/>
		<path class="st0" d="M422.4,495.9c0,1.5-0.4,2.6-2.2,2.6c-1.3,0.1-2.4-0.3-2.3-1.8c0.2-1.6,1.2-2.7,2.9-2.8
			C422.2,493.8,422.5,494.8,422.4,495.9z"/>
		<path class="st0" d="M1559.1,580.4c1.4,0.3,3.6-0.4,3.8,1.9c0.1,1.6-1.5,1.9-2.9,1.9c-1.9,0-4-0.5-4.1-2.5
			C1555.8,580,1557.9,580.7,1559.1,580.4z"/>
		<path class="st0" d="M1836.1,331.6c-0.8,2-2.1,3.4-4.2,3.8c-1.5,0.3-2.8-0.4-2.9-2c-0.1-2.1,1.1-3.5,3.3-3.4
			C1833.7,330.2,1835.4,329.6,1836.1,331.6z"/>
		<path class="st0" d="M1617.7,547c0.7-1.1-1.3-3.7,0.9-3.5c2.5,0.3,2.8,3.6,3.5,5.7c0.4,1.3-1.5,1.3-2.6,1.3
			C1616.9,550.5,1617.1,548.8,1617.7,547z"/>
		<path class="st0" d="M1452,651.3c-4.6,2.4-6.3,0-7.9-2.3c-0.6-0.9-0.4-2.2,0.8-2.4C1448.6,645.8,1448.8,649.9,1452,651.3z"/>
		<path class="st0" d="M927.4,649.2c-0.3,1.3-0.5,3-2.5,2.7c-0.8-0.1-2.3-0.2-1.9-1.5c0.4-1.5,1.1-3.1,3.1-3.3
			C927.5,647,927.4,648.1,927.4,649.2z"/>
		<path class="st0" d="M1535.6,603.3c2.4-0.1,2.8,0.9,2.7,2.2c-0.2,2.3-1.8,3-3.8,3c-1,0-2.2-0.1-1.9-1.5
			C1533,605,1534.1,603.4,1535.6,603.3z"/>
		<path class="st0" d="M1845,217.8c0.2,1.4-0.6,2.1-1.7,1.7c-1.9-0.6-3.6-2-4-4c-0.2-1.3,1.1-2,2.4-2
			C1844.5,213.6,1844.2,216.2,1845,217.8z"/>
		<path class="st0" d="M1525.4,616.1c-1.1-0.1-2.2,0-1.8-1.5c0.4-1.7,2-2.1,3.4-2.4c1.3-0.4,1.8,0.5,1.6,1.6
			C1528.3,615.6,1526.8,615.8,1525.4,616.1z"/>
		<path class="st0" d="M1424.3,638.6c0.1-1.4,1-2.1,2.2-2.3c1.9-0.2,3.3,0.7,3.6,2.6c0.2,1.2-0.5,2.4-2,2.2
			C1426.5,641,1424.9,640.5,1424.3,638.6z"/>
		<path class="st0" d="M1586.4,563.1c-1.4,1.9-2.7,4.1-5.4,3.1c-0.9-0.3-1-1.4-0.7-2.1C1581.8,561.3,1584.3,563.1,1586.4,563.1z"/>
		<path class="st0" d="M1828.3,207.8c1.6,0.3,4-0.2,4.1,2.3c0.1,1.7-1.8,2.6-3.2,2.3c-1.9-0.4-4.8-0.9-5-3
			C1824.1,207.4,1826.8,208.2,1828.3,207.8z"/>
		<path class="st0" d="M966.7,657.6c1.1,0.1,2.6,0,2.3,1.8c-0.2,1.7-1.5,2.5-3.1,2.8c-1.2,0.2-1.9-0.4-2-1.6
			C963.9,658.6,965,657.8,966.7,657.6z"/>
		<path class="st0" d="M1436.5,653.2c-1-0.1-2.1-0.5-2-1.6c0.2-2,2.1-2.2,3.6-2.7c0.9-0.3,1.3,0.7,1.2,1.6
			C1439.2,652.1,1438.3,653.2,1436.5,653.2z"/>
		<path class="st0" d="M964,650.1c-0.4,1.4-1.3,2.2-2.8,2.3c-1.1,0.1-2.1-0.3-1.9-1.6c0.3-1.6,1.8-1.7,3-2
			C963.2,648.6,963.9,649,964,650.1z"/>
		<path class="st0" d="M1715.1,156.3c1.3,0.2,1.8,1,1.6,2.1c-0.4,1.8-1.8,2.2-3.3,2.4c-1,0.1-1.5-0.8-1.3-1.6
			C1712.5,157.7,1713.5,156.6,1715.1,156.3z"/>
		<path class="st0" d="M1094.6-77c0.1,0.8-0.4,1.2-1.1,1.2c-0.6,0-1.5-0.3-1.7-0.7c-0.4-1,0.4-1.5,1.2-1.6
			C1093.8-78.2,1094.3-77.7,1094.6-77z"/>
		<path class="st0" d="M1301.6,79.6c0.1-1.4,0-2.6,0.2-3.7c0.5-2.7,2.9-4.6,4.9-3.5c2.7,1.6,4.7,4.2,8.3,2c0.1-0.1,0.9,0.4,1,0.8
			c0.4,0.7-0.2,1.2-0.8,1.6c-3.6,2-6.9,4.5-9.8,7.4c-0.7,0.7-1.9,1-2.8,0.3C1301,83,1301.8,81,1301.6,79.6z"/>
		<path class="st0" d="M1457.7,107.3c1.7,1,4.9-0.4,5.5,2.6c0.4,1.9-1.7,2.4-3.1,2c-2-0.6-5.1,0.3-5.7-2.5
			C1453.9,107.3,1456.1,107.5,1457.7,107.3z"/>
		<path class="st0" d="M1344-130.3c-1.2-0.1-2.7,0.1-2.5-1.6c0.1-1.4,1.4-1.7,2.7-1.6c1.1,0.1,2.8,0,2.8,1.4
			C1346.9-130.4,1345.2-130.5,1344-130.3z"/>
		<path class="st0" d="M1079.8-115.2c-0.3,0.1-0.6,0.3-0.9,0.2c-1.6-0.2-3.8,0.8-4.6-1.4c-0.5-1.3,0.7-2.2,1.8-2.4
			c2.4-0.6,4.2,0.1,4.4,2.9C1080.2-115.6,1080-115.4,1079.8-115.2z"/>
		<path class="st0" d="M1080.4-115.9c0.5,0.2,1.1,0.3,1.6,0.6c0.1,0-0.1,0.9-0.4,1c-0.8,0.3-1.5-0.1-1.8-0.9
			C1080-115.4,1080.2-115.6,1080.4-115.9z"/>
	</g>
</g>
</svg>
