<?xml version="1.0" encoding="utf-8"?>
<!-- Generator: Adobe Illustrator 16.0.0, SVG Export Plug-In . SVG Version: 6.00 Build 0)  -->
<!DOCTYPE svg PUBLIC "-//W3C//DTD SVG 1.1//EN" "http://www.w3.org/Graphics/SVG/1.1/DTD/svg11.dtd">
<svg version="1.1" id="Layer_1" xmlns="http://www.w3.org/2000/svg" xmlns:xlink="http://www.w3.org/1999/xlink" x="0px" y="0px"
	 width="765.35px" height="765.35px" viewBox="0 0 765.35 765.35" enable-background="new 0 0 765.35 765.35" xml:space="preserve">
<g>
	<path fill-rule="evenodd" clip-rule="evenodd" fill="#FFFFFF" d="M505.199,196.813c-12.325,8.924-22.634,15.179-31.483,23.069
		c-14.228,12.688-16.646,31.226-7.448,46.492c9.247,15.335,26.91,22.408,44.458,15.317c9.481-3.832,15.362-2.601,23.938,2.456
		c11.125,6.557,24.279,9.801,36.725,13.961c27.541,9.213,55.563,17.141,82.513,27.81c6.758,2.673,11.048,13.306,14.848,21.073
		c2.367,4.835,1.276,11.245,2.442,16.8c13.921,66.289-26.328,100.895-74.945,124.609c-33.329,16.262-68.039,29.719-102.28,44.079
		c-41.118,17.244-84.288,21.08-128.2,17.607c-18.869-1.492-37.333-5.947-55.186,5.544c-3.71,2.389-12.459,0.271-17.064-2.649
		c-15.326-9.714-28.554-24.68-49.749-14.255c-2.108,1.036-5.993-1.188-8.928-2.241c-51.063-18.389-94.147-46.782-126.86-91.67
		c-14.646-20.096-7.507-36.302-6.687-56.734c0.983-24.409,16.816-35.056,25.614-51.856c29.014-55.391,80.833-81.128,135.369-103.27
		c8.186-3.325,16.309-7.099,23.833-11.689c11.24-6.855,21.967-12.447,35.2-4.417c2.631,1.596,7.376,0.112,11.058-0.5
		c38.691-6.449,77.241-13.917,116.095-19.13C466.257,194.827,484.644,196.813,505.199,196.813z"/>
</g>
<g>
	<path fill-rule="evenodd" clip-rule="evenodd" fill="#13B994" d="M629.815,294.047c0.139,1.811,1.247,2.693,2.847,2.072
		c2.932-1.139,4.144,0.89,5.437,2.668c1.143,1.575,2.396,1.9,4.238,0.752c0.539-0.336,1.054-0.979,1.776-0.556
		c0.244,0.143,0.382,0.626,0.399,0.962c0.034,0.672-0.384,1.137-1.007,1.291c-0.664,0.164-0.745,0.61-0.743,1.22
		c0.575-1.34,1.696-1.558,2.769-1.081c1.333,0.593,0.341,1.703,0.145,2.504c-0.204,0.828-0.795,1.559-1.207,2.336
		c-0.625,1.181-1.327,2.322,0.358,3.32c0.627,0.37,0.461,1.198,0.415,1.862c-0.252,3.72,2.743,6.44,6.281,6.253
		c1.674-0.087,3.235,0.294,4.889,1.387c1.026,0.679,3.712,2.639,5.461-0.046c0.067-0.105,0.289-0.222,0.381-0.185
		c2.366,0.94,4.155-1.028,6.288-1.237c1.546-0.152,2.783,0.072,2.252,2.112c-0.229,0.877,0.124,1.532,0.507,2.283
		c0.559,1.1,1.609,1.859,1.838,3.228c0.157,0.947,1.294,1.189,2.197,1.076c1.466-0.184,2.898,0.445,4.385,0.014
		c1-0.291,1.788,0.473,2.139,1.254c0.952,2.13,2.547,2.834,4.754,2.642c0.622-0.055,1.496-0.144,1.694,0.671
		c0.169,0.694-0.412,1.4-0.96,1.621c-3.118,1.255-6.119,3.504-9.739,1.52c-1.069-0.585-1.309-0.074-1.302,0.882
		c0.019,2.094,1.948,3.379,4.626,2.833c1.896-0.387,3.676-1.066,5.501,0.299c0.637,0.476,0.985-0.146,1.09-0.861
		c0.25-1.703,1.556-1.497,2.497-0.992c1.725,0.925,3.71,1.859,2.785,4.58c3.004-1.13,3.34-0.894,4.235,1.817
		c0.412,1.247,1.14,2.5,2.93,1.636c0.592-0.286,1.255-0.445,1.902-0.586c0.889-0.193,1.475-0.097,1.689,1.085
		c0.412,2.273,0.514,2.255,2.102,3.29c-0.462,0.941-1.188,0.61-1.902,0.418c-3.142-0.847-6.205-1.113-9.138,0.819
		c-0.68,0.448-1.575,0.806-2.526,0.61c-1.72-0.352-3.21,0.206-4.56,1.245c-0.175,0.135-0.337,0.307-0.535,0.389
		c-1.343,0.563-4.295,0.299-1.237,2.923c0.697,0.597-0.154,2.108-0.614,3.08c-0.286,0.602-0.52,1.18-0.706,1.821
		c-0.373,1.283,0.147,1.812,1.261,1.377c1.628-0.635,2.877-0.585,4.622,0.147c1.759,0.738,3.999-0.363,6.009-0.777
		c0.282-0.058,0.563-0.391,0.8-0.348c2.417,0.447,4.425-0.035,5.739-2.316c0.058-0.1,0.532-0.122,0.585-0.037
		c1.027,1.634,3.982,1.296,4.024,3.983c0.011,0.625,0.51,1.212,1.135,1.57c0.317,0.183,0.827,0.389,0.867,0.645
		c0.488,3.131,2.092,2.619,4.042,1.341c0.503-0.329,1.229-0.358,1.591,0.25c0.456,0.77-0.156,1.224-0.729,1.599
		c-0.307,0.201-0.683,0.524-0.979,0.479c-2.351-0.363-4.188,0.76-5.989,1.986c-1.339,0.913-2.656-0.864-4.039,0.054
		c-0.711,0.474-1.808,0.539-1.79,1.664c0.015,0.95-0.121,1.878,1.018,2.636c0.998,0.664,1.282,2.11,2.763,2.6
		c0.879,0.291,0.566,1.433-0.388,1.834c-0.586,0.246-1.267,0.262-2.085,0.415c1.459,0.651,1.429,1.484,0.387,2.295
		c-0.913,0.71-1.918,1.631-3.014,0.254c-0.277-0.35-0.152-1.166-0.974-0.693c-0.239,0.138-0.561,0.333-0.614,0.557
		c-0.127,0.54,0.361,0.738,0.737,0.955c1.732,0.999,0.906,1.637-0.334,2.126c-0.542,0.214-1.396,0.238-1.214,0.962
		c0.21,0.835,1.123,0.62,1.716,0.419c1.274-0.43,2.479-0.218,3.696,0.149c0.489,0.148,1.042,0.267,1.152,0.887
		c0.111,0.618-0.374,0.931-0.767,1.248c-0.672,0.542-1.667,0.66-2.068,1.564l0.029-0.031c-0.439,0.056-1.013-0.051-1.3,0.188
		c-2.716,2.253-6.516,3.149-8.308,6.548c-1.399,2.653-4.424,2.368-6.582,3.651c-0.602,0.358-0.877-0.523-0.906-1.159
		c-0.095-1.982-1.286-2.357-2.901-1.83c-1.593,0.521-3.191,1.113-4.105,2.732c0.672,0.85,2.176-0.305,2.434,1.035
		c0.202,1.051-0.662,1.737-1.29,2.459c-0.774,0.891-0.146,1.325,0.599,1.198c1.242-0.214,2.727-0.012,3.521-1.422
		c0.335-0.598,0.888-0.764,1.523-0.595c0.81,0.217,0.688,0.884,0.589,1.452c-0.266,1.519,0.528,1.79,1.796,1.666
		c1.843-0.18,3.688-0.253,5.467,0.438c1.51,0.586,1.985-0.058,1.504-1.429c-0.448-1.274,0.154-1.42,1.146-1.372
		c0.887,0.042,1.775,0.081,2.664,0.093c1.035,0.015,1.338,0.352,0.798,1.355c-0.199,0.368-0.858,0.897-0.251,1.342
		c0.642,0.47,1.381,0.128,1.735-0.453c0.658-1.08,1.698-1.011,2.699-1.179c0.469-0.079,0.892-0.161,1.104,0.376
		c0.205,0.52-0.086,0.833-0.514,1.061c-1.178,0.628-1.567,1.443-1.301,2.883c0.301,1.629-0.91,2.896-2.387,2.85
		c-2.575-0.082-4.239,1.952-6.554,2.329c-0.182,0.028-0.4,0.424-0.427,0.667c-0.06,0.551,0.328,0.741,0.822,0.82
		c0.616,0.101,1.558-0.231,1.711,0.616c0.17,0.947-0.927,0.978-1.477,1.398c-1.232,0.943-1.379,2.361-0.103,2.813
		c2.346,0.828,2.218,1.825,0.398,3.132c1.752,0.97,2.931,3.565,2.528,5.325c-0.701,3.072-3.019,2.491-5.395,1.988
		c2.168,2.633,1.892,3.492-1.24,4.508c-0.572,0.187-1.112,0.24-1.443,0.848c-0.825,1.515-2.063,1.773-3.576,1.077
		c-0.488-0.226-1.156-0.42-1.416,0.076c-0.469,0.888,0.537,0.795,0.95,1.092c0.059,0.043,0.175,0.049,0.193,0.098
		c0.568,1.592,0.988,3.379,0.559,4.885c-0.446,1.559-2.108,0.819-3.251,0.446c-1.811-0.589-6.764,0.569-8.063,2.139
		c-0.618,0.746-1.244,1.221-2.19,1.301c-0.593,0.05-1.255,0.063-1.337,0.859c-0.074,0.723,0.439,1.035,1.027,1.259
		c0.422,0.161,1.434,0.227,0.899,0.799c-1.843,1.968,0.373,1.75,1.255,2.204c-2.256,2.84-4.281,0.708-6.37,0.082
		c0.059-0.192,0.059-0.348,0.135-0.42c0.647-0.599,2.142-0.642,1.696-1.95c-0.415-1.222-1.702-0.641-2.545-0.595
		c-2.339,0.128-4.526,1.426-7.035,0.956c1.139,1.572,2.867,1.721,4.312,1.301c1.17-0.343,1.698,0.126,2.286,0.697
		c0.794,0.769-0.194,1.122-0.553,1.574c-0.493,0.623-0.444,1.254-0.063,1.851c0.342,0.533,0.862,0.812,1.526,0.539
		c1.261-0.519,1.611,0.368,1.771,1.265c0.189,1.066-0.659,1.018-1.411,1.205c-2.168,0.546-4.278,1.345-6.58,1.113
		c-0.604-0.061-0.875,0.486-1.202,0.869c-0.395,0.467-0.862,1.051-1.434,0.504c-0.574-0.547-0.228-1.215,0.272-1.746
		c0.563-0.598,1.692-1.062,0.722-2.12c-0.577-0.628-1.132-1.578-2.161-1.301c-1.145,0.31-0.503,1.358-0.585,2.076
		c-0.169,1.476-0.167,2.861,0.999,4.127c0.704,0.763,0.717,1.868-0.826,2.003c-0.775,0.068-0.932,0.555-0.983,1.216
		c-0.063,0.813,0.324,1.293,1.04,1.481c0.92,0.244,1.819,0.559,2.822,0.449c0.587-0.063,1.222,0.239,1.238,0.979
		c0.014,0.74-0.604,1.067-1.195,1.057c-1.881-0.036-3.361,0.932-4.963,1.69c-0.939,0.445-2.174,1.256-2.545-0.925
		c-0.212-1.247-1.569-1.83-2.916-1.492c-1.889,0.475-3.372,0.296-4.007-1.866c-0.24-0.818-0.86-1.136-1.701-1.125
		c-1.924,0.024-3.846,0.026-5.77,0.026c-0.772,0-1.448,0.18-1.947,0.824c-0.431,0.556-1.095,0.938-1.708,0.912
		c-2.262-0.095-4.11,0.583-5.77,2.181c-0.703,0.677-2.117,0.846-1.886,2.118c0.264,1.45,1.013,2.91,2.457,3.445
		c2.535,0.939,4.801,2.558,7.567,2.927c1.442,0.191,1.713,0.95,0.624,2.029c-0.104,0.103-0.19,0.229-0.259,0.358
		c-1.484,2.818-1.719,2.837-3.862,0.239c-0.345-0.419-0.738-0.789-1.269-0.825c-2.5-0.17-4.896-1.124-7.444-0.939
		c-1.022,0.074-1.526,0.328-1.704,1.518c-0.343,2.269-2.572,3.355-4.69,2.503c-0.035,2.993-0.053,2.877-2.999,3.305
		c-2.001,0.29-3.823,1.424-5.989,1.17c-0.838-0.098-1.535-0.101-1.61-1.024c-0.095-1.15-1.494-2.204-0.325-3.429
		c0.27-0.281,0.965-0.299,0.449-0.884c-0.314-0.355-0.78-0.346-1.227-0.12c-0.918,0.466-1.85,0.907-2.771,1.365
		c-0.503,0.249-1.066,0.81-0.394,1.106c1.957,0.862,0.827,2.113,0.466,3.13c-0.513,1.438-0.294,2.042,1.341,2.126
		c0.82,0.042,2.204,0.032,2.014,1.398c-0.319,2.304-2.145,3.978-3.553,3.563c-0.688-0.201-0.678-0.748-0.588-1.248
		c0.362-2.008-0.816-2.177-2.224-1.759c-1.227,0.362-1.894,0.206-2.354-1.103c-0.338-0.964-1.283-1.365-2.133-0.56
		c-1.227,1.166-1.991,0.914-2.661-0.514c-0.607-1.294-0.984-0.649-1.353,0.188c-1.005,2.296-0.8,3.057,1.416,4.333
		c1.398,0.807,1.313,1.448,0.395,2.764c-1.558,2.233-3.542,1.968-5.692,1.639c-1.615-0.247-3.231-0.496-4.855-0.665
		c-1.573-0.163-1.497,1.347-2.126,2.147c0.613,0.734,2.003,0.389,1.95,2.015c-0.054,1.623-0.532,2.204-2.007,2.944
		c-1.522,0.766-3.053,1.342-4.646,1.854c-1.085,0.348-1.87,0.149-1.623-1.152c0.268-1.406-0.534-1.28-1.4-1.193
		c-2.643,0.268-4.221,1.861-4.878,5.037c-0.271,1.312-0.191,2.851-2.315,2.185c-0.391-0.122-0.764,0.24-0.838,0.582
		c-0.28,1.29-1.251,1.676-2.331,2.093c-0.554,0.213-1.321,0.75-0.927,1.516c0.342,0.664,1.058,0.177,1.607,0.073
		c0.215-0.041,0.428-0.126,0.623-0.226c2.52-1.273,3.094-1.126,4.712,1.225c0.124,0.18,0.362,0.511,0.333,0.537
		c-1.258,1.16-0.339,3.469-2.337,4.271c-1.816,0.73-4.025,1.285-2.695,4.177c0.36,0.781-0.502,0.922-1.071,1.03
		c-2.662,0.504-5.174,0.987-6.884-2.149c-0.854-1.566-3.081-1.427-4.654-1.586c-2.535-0.26-3.41-2.716-5.484-3.418
		c0.933-2.188-1.834-2.166-2.272-3.743c-0.327-1.172-2.195-1.502-3.548-1.827c-0.206-0.051-0.721,0.298-0.707,0.337
		c0.53,1.639-0.747,2.916-0.847,4.381c-0.064,0.968,0.691,1.661,1.8,1.43c1.681-0.349,2.45,0.112,1.916,1.924
		c-0.147,0.499-0.379,1.069,0.238,1.37c0.665,0.324,0.872-0.311,1.157-0.715c0.87-1.234,2.112-0.789,3.24-0.656
		c0.537,0.063,0.921,0.532,0.79,1.146c-0.151,0.703-0.695,1.156-1.315,1.388c-0.64,0.237-1.303-0.029-1.953-0.196
		c-0.518-0.133-1.682-0.304-1.441,0.196c1.071,2.221-4.219,1.564-1.765,4.173c0.47,0.5,0.561,1.338-0.113,1.476
		c-2.149,0.44-3.217,2.89-5.568,2.867c-0.357-0.002-0.751,0.297-1.064,0.215c-1.074-0.278-2.807-0.188-2.723-1.588
		c0.075-1.265,1.694-1.167,2.761-1.033c0.797,0.101,1.354,0.347,1.49-0.801c0.098-0.816,0.9-1.58-0.336-2.254
		c-1.803-0.982-3.587-1.689-4.354-4.19c-0.519-1.687-3.209-0.812-4.901-0.993c-1.097-0.117-1.928,0.991-2.271,2.13
		c-0.267,0.887-0.316,1.743,0.67,2.326c0.814,0.482,1.509,0.438,2.205-0.206c0.512-0.474,1.044-1.314,1.811-0.52
		c0.476,0.495,0.961,1.205,0.588,1.999c-0.406,0.863-1.213,0.647-1.942,0.607c-0.662-0.035-1.339-0.133-1.985-0.039
		c-0.586,0.086-1.056,0.398-1.088,1.173c-0.029,0.706,1.29,1.52,0.341,1.887c-1.562,0.604-2.833,1.944-4.593,1.964
		c-1.386,0.014-2.073-1.649-1.44-3.449c0.603-1.714,0.592-3.313-0.577-4.799c-0.274-0.349-0.504-0.73-1.015-0.771
		c-2.296-0.19-5.472,2.586-5.418,4.957c0.028,1.293-0.497,1.282-1.443,1.199c-0.951-0.083-1.917-0.053-2.874-0.002
		c-0.91,0.049-1.627,0.534-1.665,1.465c-0.036,0.944,0.796,0.866,1.468,0.896c1.382,0.063,1.585,0.858,1.547,2.107
		c-0.067,2.252-0.533,3.898-3.271,4.007c-0.997,0.04-1.609-0.541-2.847-1.029c0.254,1.034,0.502,1.74,0.586,2.466
		c0.087,0.765-0.146,1.471-0.903,1.866c-1.014,0.529-0.974-0.39-1.31-0.903c-0.62-0.942-1.613-1.313-2.693-1.22
		c-1.296,0.109-0.592,1.295-0.905,1.945c-0.419,0.865-0.693,2.03-1.964,1.585c-1.026-0.361-2.429-0.768-1.695-2.456
		c0.335-0.766-0.005-1.399-0.56-1.728c-0.782-0.462-1.735-0.542-2.499,0.105c-1.298,1.102-2.58,1.09-4.266,0.788
		c-2.461-0.439-4.608,1.271-6.875,2.07c-1.346,0.475-2.598,1.341-3.495,2.581c-0.679,0.938-1.628,1.328-2.801,1.557
		c-1.239,0.241-2.697,0.231-3.531,1.563c-0.388,0.618-1.001,0.488-1.586,0.22c-0.913-0.419-1.915-0.489-2.832-0.246
		c-1.331,0.354-2.436,0.546-3.086-1.049c-0.215-0.526-0.812-0.694-1.328-0.386c-0.364,0.219-0.804,0.567-0.89,0.935
		c-0.164,0.701,0.55,0.784,1.006,0.899c1.224,0.31,2.605,0.874,2.272,2.211c-0.392,1.576-1.256,3.211-3.22,3.586
		c-1.409,0.268-2.825,0.491-4.255,0.737c0.358,1.132,1.942-0.408,1.81,1.063c-0.087,0.96-1.054,0.847-1.79,0.867
		c-1.202,0.033-1.917,0.848-2.389,1.759c-0.804,1.555-2.092,1.715-3.57,1.538c-0.509-0.06-1.088-0.077-1.318-0.651
		c-0.311-0.768,0.382-0.734,0.796-0.995c0.818-0.521,0.428-0.957-0.227-1.254c-1.815-0.821-3.912-0.746-5.67-1.773
		c-0.102-0.06-0.461,0.09-0.515,0.22c-1.442,3.412-4.406,3.073-7.249,2.906c-1.402-0.082-2.664-0.299-3.958,0.738
		c-1.065,0.854-2.795-0.951-2.765-2.968c0.015-0.949,0.517-2.065-0.804-2.385c-1.362-0.327-2.771-0.421-3.892,0.829
		c-1.024,1.143-1.444,2.712-2.8,3.639c-0.795,0.543-1.337,1.049-2.289,0.235c-0.956-0.818-2.068-0.487-3.12-0.011
		c-2.119,0.957-5.011,0.037-6.109-1.937c-0.575-1.034,0.33-1.289,0.934-1.624c0.794-0.442,1.336-0.893,0.234-1.529
		c-0.818-0.472-0.642-1.271-0.809-1.952c-0.262-1.053-0.716-2.289-1.728-2.364c-1.253-0.094-2.404,0.866-2.904,2.05
		c-0.386,0.909-0.649,1.764-1.584,2.271c-0.411,0.224-0.613,0.657-0.272,1.133c0.24,0.332,0.582,0.461,0.972,0.343
		c0.352-0.106,0.678-0.324,1.033-0.393c0.807-0.157,1.759-0.344,2.161,0.574c0.385,0.882-0.462,1.263-1.084,1.657
		c-2.235,1.418-4.463,2.847-6.704,4.255c-0.241,0.151-0.546,0.262-0.827,0.282c-4.749,0.338-9.424,1.51-14.208,1.347
		c-1.306-0.043-2.264,0.338-3.236,1.097c-2.18,1.703-4.884,1.375-6.508-0.835c-0.488-0.664-1.008-0.753-1.701-0.714
		c-0.608,0.035-0.707,0.423-0.702,0.904c0.011,0.862,0.611,1.115,1.313,1.218c1.094,0.159,1.818,0.866,2.558,1.594
		c0.413,0.407,1.117,0.697,0.755,1.396c-0.406,0.782-1.417,0.951-1.939,0.57c-1.529-1.114-3.506-0.428-5.017-1.469
		c-0.64-0.443-1.163,0.073-1.787,0.337c-1.712,0.72-3.321,1.88-5.476,0.763c-0.919-0.476-2.283,0.177-3.41-0.805
		c-1.261-1.098-1.629-2.104-0.53-3.36c0.899-1.029,0.917-1.979,0.093-2.972c-0.597-0.718-0.542-1.551-0.417-2.328
		c0.265-1.654-0.703-2.812-1.476-4.044c-0.403-0.645-1.036-0.921-1.657-0.257c-0.958,1.021-1.788,0.714-2.679-0.088
		c-0.254-0.229-0.654-0.391-0.996-0.409c-0.699-0.035-1.52-0.567-2.073,0.173c-0.349,0.467,0.077,0.995,0.359,1.411
		c0.495,0.724,1.152,1.172,2.079,0.82c0.414-0.156,0.809-0.367,1.197-0.581c0.611-0.334,1.101-0.106,1.175,0.489
		c0.134,1.07-0.407,2.021-0.993,2.847c-0.533,0.75-1.366,0.729-2.21,0.38c-2.725-1.126-4.981,0.624-7.352,1.376
		c-0.847,0.269-1.412,1.388-2.576,1.421c-0.523,0.017-0.944,0.416-0.978,1.038c-0.032,0.621,0.382,0.963,0.852,1.185
		c0.801,0.378,1.647,0.657,2.456,1.019c0.572,0.256,1.43,0.369,1.141,1.314c-0.255,0.834-0.846,1.58-1.784,1.295
		c-2.36-0.717-4.044-1.156-2.034,2.222c0.652,1.097-0.798,2.968-2.165,3.316c-3.356,0.855-6.792,0.768-10.208,0.912
		c-0.222,0.008-0.483-0.102-0.66-0.018c-3.538,1.703-6.905,0.766-10.308-0.515c-0.777-0.292-1.416-0.519-2.013-1.164
		c-1.083-1.17-2.494-1.536-4.034-0.859c-2.382,1.048-2.713,0.834-2.471-1.685c0.069-0.722,0.205-1.437,0.348-2.421
		c-0.72,0.492-1.248,0.835-1.758,1.201c-0.66,0.477-1.412,0.627-2.08,0.206c-0.842-0.53-0.157-1.147,0.065-1.732
		c0.102-0.267,0.246-0.696,0.122-0.841c-1.929-2.262-0.933-5.156-1.704-7.658c-0.249-0.807-0.654-1.503-1.631-1.582
		c-0.882-0.068-1.428,0.437-1.682,1.179c-0.467,1.365-1.42,2.182-2.681,2.769c-1.326,0.617-1.193,1.345-0.029,2.02
		c0.94,0.545,1.792,1.259,3.061,0.949c0.819-0.198,1.342,0.351,1.59,1.187c0.284,0.957-0.368,1.098-0.994,1.38
		c-1.333,0.6-1.709,1.561-0.733,2.743c0.68,0.823,0.805,1.771,0.114,2.382c-0.839,0.745-1.81,1.545-3.105,1.456
		c-0.386-0.026-0.771-0.154-0.807-0.601c-0.227-2.845-2.708-3.128-4.612-4.023c-0.648-0.306-1.754-0.54-2.044,0.153
		c-0.658,1.572-1.449,1.271-2.483,0.558c-0.467-0.321-1.099-0.361-1.494-0.112c-2.457,1.557-5.056,0.929-7.644,0.623
		c-0.564-0.066-1.378,0.177-1.507-0.555c-0.142-0.804,0.512-1.645,1.224-1.587c2.134,0.172,3.373-1.094,4.66-2.421
		c0.615-0.634,1.456-0.738,2.279-0.648c2.201,0.237,4.365-0.38,6.599-0.108c1.731,0.211,2.501-1.588,3.553-2.674
		c0.074-0.077-0.045-0.404-0.145-0.574c-1.009-1.736-5.806-2.324-7.175-0.828c-0.833,0.91-1.764,1.615-2.959,1.849
		c-2.91,0.563-5.646,1.986-8.939,1.765c1.465,2.349,0.144,2.453-1.747,2.598c-1.337,0.101-2.688,0.779-3.909,1.432
		c-0.939,0.501-1.762,0.53-2.44-0.129c-1.602-1.559-3.349-1.537-5.326-0.914c-2.541,0.801-3.587-0.249-3.033-2.895
		c0.556-2.659-0.049-4.458-1.839-5.459c-0.035-0.644,0.539-0.588,0.897-0.771c1.062-0.542,1.376-1.535,1.415-2.587
		c0.043-1.148-1.055-1.178-1.754-1.669c-1.743-1.224-3.408-2.103-5.662-1.382c-0.81,0.259-1.514,0.64-2.115,1.1
		c-1.044,0.802-1.006,1.764,0.456,1.93c1.551,0.176,2.405,1.643,3.992,1.799c0.669,0.065,1.031,1.253,0.868,2.061
		c-0.197,0.97-1.016,1.482-1.971,1.489c-1.473,0.013-2.966,0.008-4.417-0.216c-2.538-0.39-3.599-2.666-4.705-4.493
		c-0.654-1.079-1.312-1.553-2.125-1.158c-1.157,0.558-2.739,0.953-2.763,2.748c-0.006,0.439,0.163,0.678,0.668,0.593
		c0.431-0.074,0.899-0.18,1.308-0.087c1.187,0.27,2.188,1.348,2.167,2.214c-0.025,1.009-1.466,0.613-2.256,0.542
		c-1.682-0.153-3.371-0.246-5.02-0.802c-0.952-0.319-2.075-0.534-2.752,0.957c-0.534,1.179-1.584,1.095-2.479,0.031
		c-1.176-1.396-2.539-1.644-4.029-0.428c-0.738,0.602-1.832,1.028-2.474,0.555c-1.876-1.382-4.258-1.095-6.172-2.171
		c-0.54-0.303-1.043-0.607-1.649-0.462c-1.428,0.345-1.615-0.761-1.852-1.641c-0.298-1.106,0.548-1.591,1.394-1.945
		c0.326-0.139,0.726-0.088,1.089-0.147c0.656-0.109,1.461-0.187,1.4-1.063c-0.05-0.712-0.747-0.82-1.372-0.816
		c-2.08,0.012-3.245-0.983-3.682-3.049c-0.292-1.385-2.936-2.3-4.702-1.578c-1.499,0.612-2.9,1.474-4.304,2.294
		c-0.753,0.44-1.168,1.139-0.883,2.068c0.295,0.961,1.004,1.185,1.918,1.069c0.438-0.057,0.904-0.134,1.325-0.046
		c0.878,0.186,1.226,0.938,1.057,1.674c-0.197,0.857-1.036,0.519-1.459,0.26c-3.042-1.874-6.657-2.451-9.688-4.326
		c-1.397-0.863-1.38-1.747,0.014-2.567c3.302-1.945,3.577-3.832,0.829-6.672c-0.743-0.768-1.445-1.723-2.64-1.941
		c-0.483-0.089-0.699-0.474-0.943-0.86c-0.352-0.559,0.318-2.045-1.136-1.563c-0.995,0.329-1.906,1.388-1.525,2.435
		c0.873,2.401-1.799,4.093-1.021,6.512c0.253,0.786-1.182,1.158-2.056,1.284c-0.801,0.116-1.252-0.419-1.338-1.162
		c-0.177-1.523-1.005-2.458-2.262-3.328c-0.917-0.633-1.503-1.822-1.661-3.031c-0.142-1.089-0.601-1.785-1.745-1.937
		c-1.153-0.153-1.23,0.781-1.58,1.485c-1.254,2.527-1.286,2.542-3.337,0.308c-0.519-0.565-1.097-0.433-1.625-0.322
		c-5.104,1.069-10.093-0.07-15.108-0.729c-0.75-0.099-1.546-0.073-1.447-1.189c0.098-1.113-0.678-1.047-1.449-1.146
		c-1.832-0.238-2.319-1.418-1.097-2.834c0.808-0.935,1.753-1.804,3.084-2.042c1.73-0.309,1.854-1.108,0.778-2.41
		c-0.653-0.79-1.082-1.761-1.675-2.606c-0.708-1.01-1.789-1.308-2.941-1.184c-1.178,0.129-0.911,1.149-1.001,1.914
		c-0.122,1.042-0.811,1.441-1.713,1.27c-1.684-0.321-3.35-0.78-3.311-3.022c0.006-0.329-0.06-0.534-0.351-0.719
		c-1.025-0.653-4.833-0.167-5.492,0.838c-0.501,0.764-1.109,1.021-1.96,1.214c-2.937,0.667-5.51,1.755-5.777,5.396
		c-0.076,1.035-1.068,1.588-2.004,1.88c-1.206,0.378-1.155-0.84-1.6-1.417c-0.925-1.199-2.266-1.81-3.552-2.48
		c-0.584-0.305-1.277-0.394-1.879-0.669c-1.109-0.507-2.253-1.122-1.869-2.61c0.369-1.431,1.606-0.906,2.596-0.941
		c2.306-0.083,4.573,0.068,6.79,0.778c1.449,0.465,1.994-0.468,1.881-1.623c-0.084-0.867-0.37-1.653-0.038-2.562
		c0.29-0.794-0.389-0.783-0.926-0.731c-0.506,0.049-1.149,0.365-1.49,0.161c-2.514-1.51-5.137-1.692-7.906-0.944
		c-0.203,0.055-0.566-0.146-0.721-0.336c-0.213-0.263-0.048-0.638,0.21-0.752c0.923-0.41,1.43-1.868,2.839-1.104
		c0.396,0.216,0.845-0.005,1.261-0.219c2.301-1.186,4.615-2.345,6.926-3.512c1.264-0.638,1.519-1.54,0.273-2.306
		c-1.045-0.642-1.168-2.351-2.764-2.285c1.237,2.244,1,2.997-1.266,4.274c-0.443,0.248-0.87,0.572-1.211,0.948
		c-0.619,0.682-1.543,1.02-2.202,0.707c-1.779-0.844-3.384-1.833-5.542-1.783c-0.875,0.021-1.521-1.566-0.366-2.389
		c1.363-0.969,0.426-1.384-0.211-1.97c-0.05-0.047-0.139-0.05-0.205-0.082c-0.537-0.27-6.13-0.685-6.753-0.553
		c-0.429,0.09-0.896,0.15-1.32,0.076c-1.843-0.324-3.236-0.179-3.973,2.019c-0.498,1.485-1.95,1.453-2.96,0.186
		c-0.18-0.227-0.251-0.538-0.417-0.778c-1.427-2.076-2.638-4.309-4.627-5.966c-0.736-0.612-1.329-1.22-2.276-0.426
		c-0.475,0.398-1.041,0.719-1.587,0.231c-0.296-0.266-0.572-0.761-0.552-1.136c0.044-0.851,0.797-0.688,1.365-0.711
		c0.462-0.019,0.94-0.009,0.875-0.668c-0.058-0.585-0.443-0.985-0.995-1.041c-0.953-0.096-1.917-0.069-2.877-0.107
		c-1.151-0.045-1.778-0.678-1.844-1.801c-0.071-1.212,0.829-1.189,1.666-1.206c0.074,0,0.149-0.009,0.22-0.026
		c0.936-0.237,2.679,0.069,2.523-1.008c-0.148-1.028-1.039-2.623-2.267-2.929c-1.198-0.297-2.238,0.733-2.479,2.033
		c-0.281,1.526-1.563,2.112-2.561,2.914c-0.545,0.438-1.401,0.48-1.806-0.504c-0.393-0.954-0.987-1.843-1.26-2.825
		c-0.311-1.12-0.654-2.431,1.17-2.725c1.521-0.247,2.564-1.079,2.281-2.689c-0.298-1.701-1.794-2.049-3.243-2.017
		c-1.093,0.022-2.174,0.473-3.288,0.102c-1.806-0.603-2.157-1.726-0.927-3.129c1.203-1.372,1.79-3.37,4.468-2.968
		c1.5,0.226,1.641-1.636,1.233-3.124c-0.568-2.074-1.571-3.555-3.132-4.935c-0.668-0.592-0.377-1.761-0.03-2.74
		c0.976-2.744,0.699-3.21-1.986-3.728c-0.605-0.117-0.987-0.368-0.929-0.99c0.063-0.683,0.271-1.396,1.054-1.524
		c1.685-0.273,2.591-1.357,3.551-2.676c0.879-1.209,2.509-1.024,3.892-0.805c1.167,0.185,2.099,0.118,3.003-0.84
		c1.756-1.863,3.903-2.015,6.052-0.58c0.789,0.526,1.547,0.645,2.162-0.129c0.516-0.649,0.479-1.461-0.164-2.007
		c-1.124-0.953-2.313-1.896-3.942-1.613c-0.588,0.103-1.155,0.325-1.716-0.014c-0.675-0.404-1.793-0.412-1.912-1.32
		c-0.14-1.067,1.014-1.08,1.699-1.403c0.542-0.256,1.087-0.483,1.451-0.98c0.317-0.434,0.555-0.943,0.225-1.428
		c-0.308-0.451-0.781-0.164-1.214-0.098c-1.701,0.259-3.528,0.323-2.857,2.923c0.122,0.472-0.279,0.755-0.74,0.956
		c-1.362,0.593-2.867,0.904-3.442,2.684c-0.247,0.76-1.322,0.553-1.944,0.082c-1.007-0.76-0.19-1.494,0.101-2.326
		c-0.695,0.381-1.435,0.7-2.073,1.162c-0.827,0.596-1.754,1.195-0.839,2.479c0.527,0.741,0.247,1.448-0.592,1.795
		c-0.868,0.36-1.511,0.231-1.892-0.826c-0.66-1.833-1.883-1.504-2.782-0.324c-1.074,1.41-2.307,1.473-3.902,1.358
		c-2.48-0.181-4.918-0.837-7.45-0.579c-0.854,0.087-2.213,0.172-2.381-1.054c-0.169-1.231,0.802-2.354,1.807-2.745
		c1.335-0.52,2.761-0.791,4.125-1.374c1.007-0.431,2.346-0.033,3.007,1.211c0.283,0.533,0.627,0.772,1.25,0.529
		c0.684-0.267,0.514-0.804,0.482-1.303c-0.148-2.336-1.451-3.087-3.653-2.262c-1.13,0.424-2.017,1.482-3.643,0.518
		c-2.014-1.194-2.566-2.371-1.356-4.333c0.337-0.548,0.473-1.144,0.18-1.684c-0.51-0.938-1.417-1.839,0.324-2.486
		c0.146-0.054,0.261-0.581,0.175-0.806c-0.686-1.762-0.423-2.748,1.768-2.434c0.608,0.087,1.04-0.304,0.861-0.95
		c-0.163-0.59-0.129-1.514-1.044-1.468c-1.8,0.09-3.527-0.252-5.267-0.61c-1.219-0.25-1.685,0.979-2.201,1.565
		c-0.968,1.103-2.119,1.687-3.335,2.352c-0.758,0.413-1.2,0.514-1.587-0.267c-0.353-0.708-0.162-1.296,0.583-1.646
		c0.268-0.125,0.546-0.229,0.82-0.343c1.416-0.591,2.429-1.351,1.822-3.174c-0.234-0.705,0.047-1.514,0.728-1.969
		c0.766-0.513,0.951,0.417,1.409,0.675c1.307,0.732,3.417,0.185,4.05-1.14c0.257-0.539,0.851-1.2,0.097-1.792
		c-0.561-0.441-1.229-0.512-1.865-0.103c-0.62,0.401-1.266,0.778-1.815,1.263c-0.513,0.454-1.11,0.692-1.596,0.283
		c-1.448-1.22-3.143-0.664-4.707-0.699c-2.43-0.054-3.153,1.316-1.959,3.409c0.261,0.458,0.74,0.958,0.207,1.341
		c-0.854,0.615-1.904,0.775-2.964,0.63c-0.595-0.081-0.992-0.47-0.918-1.055c0.226-1.788,0.081-3.818,2.557-4.305
		c-0.407-0.47-0.984-0.825-0.996-1.199c-0.073-2.412-0.205-4.576-3.578-4.422c-0.846,0.04-0.615-1.201-0.682-1.894
		c-0.259-2.663-0.545-2.873-2.958-1.888c-0.707,0.288-1.542,0.71-2-0.042c-0.5-0.822,0.332-1.419,0.972-1.709
		c2.708-1.229,4.799-3.366,7.328-4.848c0.674-0.396,1.322-0.322,1.797,0.26c1.104,1.353,2.1,0.679,2.617-0.363
		c1.49-3.002,4.006-3.629,7.012-3.511c1.365,0.053,2.812,0.591,4.077-0.438c0.479-0.387,0.94-0.818,0.744-1.481
		c-0.212-0.721-0.864-0.335-1.331-0.382c-0.985-0.101-2.297,0.449-2.78-0.763c-0.455-1.141,0.356-2.303,1.178-2.921
		c2.006-1.505,2.305-4.165,4.174-5.728c0.38-0.317,0.634-1.028,1.167-0.813c2.797,1.127,5.377-1.221,8.164-0.452
		c0.409,0.112,1.026-0.479,1.531-0.773c0.903-0.528,1.997-1.304,2.724-0.145c0.657,1.046-0.873,1.25-1.42,2.057
		c1.271,0.561,2.542,0.124,2.622-0.943c0.163-2.159,1.641-2.024,2.959-2.161c1.142-0.118,2.009-0.273,2.786-1.355
		c0.915-1.277,2.413-1.909,4.072-1.938c1.308-0.021,2.65,0.421,3.909-0.356c0.304-0.188,0.759-0.096,0.934,0.312
		c0.189,0.442-0.137,0.747-0.484,0.846c-2.929,0.829-1.383,2.393-0.41,3.483c1.11,1.243,0.578,1.163-0.435,2.188
		c-1.733,1.754-4.823,1.129-5.811,3.757c-0.051,0.137-0.645,0.259-0.766,0.147c-1.555-1.428-3.263-0.182-4.884-0.291
		c-0.728-0.05-1.972-0.699-1.979,0.88c-0.007,1.398,0.906,2.042,2.188,1.864c2.754-0.381,5.152,0.618,7.541,1.718
		c0.728,0.336,1.401,0.995,0.764,1.729c-1.684,1.933,0.104,1.542,1.063,1.73c1.779,0.35,2.411,1.486,1.156,2.77
		c-2.102,2.149,0.079,3.98,0.933,4.352c3.959,1.722,4.13,5.272,4.913,8.597c0.321,1.367,0.653,2.697,1.695,3.747
		c0.287,0.29,0.515,0.762,0.541,1.166c0.124,1.941,1.027,3.399,2.415,4.729c1.21,1.159,2.245,2.48,2.272,4.376
		c0.015,0.995,0.832,1.776,1.729,2.169c2.989,1.308,4.01,3.996,4.523,6.811c0.268,1.466,1.543,1.65,2.222,2.513
		c1.153,1.468,1.385,3.836,4.062,4.186c1.275,0.166-0.389,1.945,0.251,2.926c2.883-0.354,3.352-0.029,4.306,3.012
		c0.363,1.159,1.37,1.216,2.318,1.334c0.669,0.083,1.388,0.069,1.686,0.818c0.328,0.825-0.175,1.318-0.724,1.899
		c-1.374,1.456-1.171,2.042,0.733,2.823c1.399,0.572,2.72,0.891,4.282,0.333c1.563-0.558,4.875,1.405,5.62,2.932
		c0.299,0.613,0.467,1.061-0.12,1.54c-0.52,0.428-1.137,0.863-0.622,1.644c0.495,0.75,1.329,1.15,2.12,0.843
		c1.2-0.47,1.973-0.061,2.961,0.593c2.109,1.392,2.17,1.301,0.211,3.298c1.456,0.769,2.907,0.139,4.294,0.11
		c1.447-0.03,2.642,0.112,3.239,1.643c0.25,0.639,0.645,1.095,1.392,1.289c0.458,0.119,1.139,0.525,1.192,0.883
		c0.449,2.975,2.614,2.875,4.835,2.958c2.139,0.078,3.594,1.6,5.111,2.885c2.134,1.812,4.581,2.807,7.377,2.845
		c1.758,0.025,1.565,1.109,1.085,2.089c-0.865,1.768-0.395,2.105,1.394,1.711c1.334-0.294,2.673,0.188,3.894,0.666
		c1.924,0.753,1.751,4.699,0.01,6.34c-2.425,2.281-5.552,2.67-8.517,3.268c-1.672,0.338-3.375,0.568-4.834,1.369
		c-2.726,1.495-5.143,0.869-7.434-0.754c-1.751-1.24-2.79-1.402-4.208,0.739c-1.981,2.992-4.653,2.433-6.149-0.932
		c-1.798-4.044-1.019-6.87,2.632-9.527c0.969-0.706,1.941-0.283,2.943-0.048c1.203,0.282,1.71-0.181,1.212-1.414
		c-0.221-0.548-0.469-1.086-0.731-1.614c-1.285-2.595-1.308-2.617-3.467-0.807c-0.614,0.515-1.33,0.629-2.027,0.827
		c-1.888,0.541-3.563,1.473-4.973,2.811c-0.984,0.933-1.862,1.99,0.409,2.535c1.578,0.379,1.292,1.683,0.963,2.704
		c-0.324,1.01-0.454,1.773,0.388,2.604c1.394,1.373-0.527,2.623-0.269,4.13c0.3,1.749-1.223,2.175-2.855,2.029
		c-0.93-0.082-2.128-0.051-2.293,1.2c-0.149,1.128,0.507,1.916,1.69,2.246c1.448,0.405,2.333,2.205,4.145,1.728
		c2.396-0.634,4.652-1.588,7.337-3.063c-1.195-0.099-1.774-0.08-2.316-0.21c-0.621-0.15-1.375-0.24-1.454-1.11
		c-0.042-0.445-0.013-0.94,0.492-1.123c0.655-0.236,1.356-0.931,2.033-0.22c0.713,0.747,1.925,1.014,2.256,2.062
		c0.451,1.43,1.519,1.229,2.274,0.734c2.571-1.681,5.196-0.84,7.73-0.234c3.918,0.937,7.772,0.579,11.647-0.037
		c0.594-0.094,1.518-0.212,1.237-1.164c-0.229-0.776-0.918-1.138-1.776-0.838c-2.487,0.871-5.148,0.185-7.664,0.881
		c-1.801,0.499-2.955-1.082-4.46-1.561c-0.283-0.09-0.526-0.378-0.336-0.688c0.13-0.211,0.446-0.465,0.658-0.449
		c2.237,0.183,4.103-0.633,6.04-1.704c1.365-0.754,2.975,0.476,4.542,0.513c2.814,0.066,4.95-1.067,6.952-2.954
		c2.146-2.024,4.586-3.713,7.789-3.437c1.185,0.101,1.939,0.63,1.577,2.056c-1.071,4.214,1.072,6.254,5.373,5.159
		c0.682-0.175,1.303-0.801,2.225-0.218c-0.781,1.078-1.933,2.023-1.622,3.558c0.109,0.54-0.026,1.344,0.82,1.298
		c0.592-0.031,1.155-0.444,1.099-1.171c-0.119-1.54,0.8-2.314,2.091-2.27c1.056,0.036,1.877,0.778,1.493,2.144
		c-0.144,0.512,0.347,0.637,0.692,0.567c0.812-0.167,1.984,0.358,2.334-0.772c0.448-1.446,1.471-0.961,2.343-0.865
		c0.901,0.099,1.233,0.776,1.082,1.621c-0.233,1.301,0.628,1.488,1.559,1.603c1.008,0.123,2.14,0.428,2.188,1.484
		c0.048,1.057-0.999,1.528-2.047,1.642c-0.803,0.086-1.53,0.371-1.465,1.311c0.063,0.917,0.926,0.728,1.543,0.896
		c2.015,0.554,3.799,0.061,5.352-1.227c0.582-0.481,1.024-1.125-0.249-1.558c-1.692-0.574-1.693-1.93-1.058-3.269
		c0.661-1.392,3.295-2.306,4.403-1.614c0.902,0.563,0.995,1.192,0.045,1.88c-2.137,1.545-1.745,1.304-0.15,2.951
		c2.735,2.825,5.303,2.08,8.138,0.639c0.691-0.353,1.343-0.196,1.828,0.317c0.636,0.673-0.266,0.979-0.444,1.468
		c-0.278,0.766-1.303,1.653-0.307,2.347c0.817,0.566,1.607-0.33,2.446-0.679c2.563-1.064,4.832-3.085,7.866-2.851
		c1.184,0.091,2.206,0.056,3.274-0.837c1.114-0.929,2.879-0.819,4.011-0.146c1.605,0.956,3.221,1.365,4.996,1.402
		c1.995,0.043,3.299,0.767,3.071,3.078c1.38-0.542,2.555-1.167,3.807-1.439c0.883-0.192,2.422-0.447,1.447,1.475
		c-0.45,0.886-0.016,1.572,0.811,1.672c1.566,0.188,3.224,0.432,4.722,0.101c1.104-0.244,1.738-0.518,2.266,0.696
		c0.495,1.138,1.501,0.683,2.323,0.528c1.129-0.212,2.233-0.475,3.778,0.236c-2.759,0.965-1.654,2.084-1.158,3.823
		c1.062,3.724,2.993,2.462,5.409,1.999c2.017-0.386,3.784-1.744,5.954-1.446c0.296,0.039,0.798-0.225,0.946-0.491
		c1.201-2.152,2.652-1.418,4.452-0.753c3.231,1.194,6.503,1.028,9.542-0.879c0.725-0.456,1.523-1.163,2.354-0.211
		c0.834,0.955-0.348,1.357-0.611,2.029c-0.782,2.005-2.101,2.705-4.168,2.037c-0.5-0.161-1.063-0.115-1.323,0.482
		c-0.076,0.176-0.088,0.462,0.006,0.613c0.326,0.522,0.881,0.501,1.392,0.409c0.43-0.075,0.833-0.348,1.261-0.381
		c0.761-0.058,1.532,0.085,1.825,0.918c0.27,0.764,0.055,1.34-0.69,1.876c-1.977,1.422-4.068,2.517-6.491,2.917
		c-1.022,0.169-2.21,0.191-2.058,1.72c0.146,1.447,1.369,1.121,2.242,1.182c1.108,0.077,2.384,0.115,2.335-1.552
		c-0.033-1.142,0.083-1.94,1.486-2.193c1.371-0.247,2.516-0.217,3.313,1.05c0.917,1.454,1.726,2.759,3.928,2.467
		c1.235-0.163,1.668,1.512,2.429,2.38c1.472,1.681,3.408,1.994,5.234,0.73c0.294-0.204,0.722-0.458,0.768-0.742
		c0.353-2.183,1.185-4.046,2.982-5.464c0.473-0.374,0.344-1.137-0.211-1.567c-0.882-0.686-1.498-2.048-2.963-1.411
		c-0.828,0.36-1.564,0.564-2.16-0.286c-0.625-0.894-0.206-1.689,0.353-2.433c2.146-2.856,2.147-2.855,4.902-0.485
		c2.81,2.419,3.319,4.429,1.965,7.894c-0.19,0.488-0.452,0.936-0.114,1.596c1.452-1.466,2.792-1.897,3.709,0.492
		c0.253,0.662,0.915,0.687,1.521,0.64c0.778-0.062,1.258-0.547,1.3-1.279c0.102-1.785,0.812-1.684,2.133-0.955
		c2.309,1.272,4.437,0.483,5.286-2.016c0.375-1.102,0.921-1.305,1.9-1.301c1.239,0.006,1.174,0.877,1.237,1.686
		c0.065,0.83,0.381,1.586,1.313,1.349c0.742-0.191,1.569-0.687,1.53-1.671c-0.031-0.788-0.409-1.385-1.337-1.491
		c-0.64-0.073-1.589,0.512-1.799-0.665c-0.095-0.528,0.038-1.066,0.62-1.285c0.896-0.336,1.864-0.818,2.701,0.003
		c0.588,0.579,1.064,1.255,1.985,1.241c0.764-0.013,1.501,1.012,2.25,0.171c0.707-0.795,0.592-1.738,0.227-2.702
		c-0.412-1.086-1.027-2.279,0.716-2.863c0.791-0.265,1.579-0.512,2.307,0.102c0.772,0.651,0.91,1.453,0.548,2.401
		c-0.691,1.814,0.024,2.452,1.771,1.855c1.792-0.614,2.253,0.72,2.741,1.813c0.569,1.275,1.275,2.109,2.678,1.354
		c1.231-0.663,2.823-1.334,1.345-3.235c-0.787-1.013,0.191-2.344-0.519-3.422c-0.14-0.213,0.098-0.753,0.381-0.623
		c1.539,0.702,2.788-1.255,4.423-0.343c0.96,0.536,2.176,0.217,3.238-0.213c1.113-0.45,2.22-0.915,3.315,0.076
		c0.282,0.254,0.633,0.248,1.032,0.114c1.815-0.614,3.193,0.004,3.193,1.789c0.002,1.453,0.74,1.334,1.604,1.443
		c2.006,0.251,3.964-0.159,5.893-0.582c0.946-0.207,1.437-0.207,1.919,0.77c1.483,3.009,2.317,3.134,5.128,1.617
		c1.855-1.001,3.943-1.12,6.023-0.513c2.424,0.708,3.417,0.058,3.346-2.39c-0.054-1.85,1.647-1.867,2.546-2.681
		c0.813-0.736,1.303,0.063,1.918,0.694c0.848,0.867,2.044,0.624,3.143,0.282c0.771-0.24,1.54-0.534,2.331-0.642
		c1.073-0.146,2.267-0.456,2.443,1.313c0.186,1.848-1.135,1.499-2.161,1.611c0.632,2.816,1.922,3.521,4.672,3.197
		c1.822-0.214,3.425,0.989,4.8,2.03c0.67,0.507-0.691,1.668-0.343,2.664c0.181,0.514-0.212,1.296,0.591,1.497
		c0.484,0.124,1.041,0.104,1.401-0.408c0.414-0.588,0.28-1.211-0.143-1.634c-1.991-1.993-0.403-3.368,0.862-4.656
		c0.858-0.875,1.433-1.446,1.171-2.946c-0.602-3.433,1.297-5.054,4.607-4.179c1.657,0.438,2.864-0.548,4.021-1.199
		c1.211-0.68,1.959-1.072,3.015,0.095c0.578,0.64,1.414,0.445,1.984-0.148c0.658-0.685-0.086-0.893-0.479-1.325
		c-0.972-1.065,0.157-1.288,0.789-1.361c3.551-0.401,7.015-1.657,10.647-1.224c1.381,0.165,2.646,0.013,3.857-0.649
		c1.938-1.059,3.407-0.545,4.45,1.341c0.686,1.238,1.361,2.398,3.061,1.288c0.254-0.167,0.867-0.18,1.052,0.001
		c2.37,2.33,5.462,0.038,8.039,1.289c0.785,0.382,1.554-0.423,1.541-1.403c-0.014-1.075-0.802-0.831-1.452-0.689
		c-1.535,0.339-2.271-0.643-3.082-2.305c-0.16,1.798-0.822,2.024-1.951,1.438c-0.962-0.499-1.9-0.892-1.633-2.26
		c0.275-1.41,1.331-0.961,2.251-1.095c2.481-0.359,4.711-0.014,7.022,1.118c1.118,0.548,2.854-0.005,2.877-2.019
		c0.007-0.61-0.027-1.302,0.8-1.316c2.281-0.042,3.845-1.503,5.536-2.709c1.417-1.012,2.53-0.746,2.959,0.93
		c0.473,1.845,1.295,2.085,2.527,0.744c2.337-2.537,5.362-3.902,8.442-5.215c2.007-0.856,6.806,1.066,7.725,3.349
		c0.506,1.258,0.95,1.045,1.73,0.458c0.709-0.533,1.51-0.971,2.13-1.591c2.242-2.248,5.766-3.259,6.526-6.977
		c0.223-1.085,1.671-0.604,2.502-1.051c1.847-0.997,3.618-2.006,6.015-1.401c1.409,0.355,3.163-0.233,3.332-2.366
		c0.061-0.742,0.578-1.09,1.24-0.893c2.36,0.701,4.056-0.923,5.926-1.741c2.35-1.027,4.769-1.919,7.064-2.999
		c2.557-1.201,5.553-1.775,7.399-4.408c0.752-1.073,2.19-1.74,3.546-2.18c1.983-0.643,3.357-2.34,5.401-2.955
		c1.208-0.364,0.606-1.632,0.48-2.547c-0.101-0.723-0.44-1.567,0.784-1.604c1.026-0.031,1.247,0.667,1.126,1.493
		c-0.23,1.574,0.766,1.628,1.662,1.13c1.257-0.694,2.634-0.935,3.928-1.449c0.882-0.349,1.755-0.791,2.187-1.748
		c1.062-2.346,3.831-3.912,6.354-3.324c1.238,0.288,2.155,0.115,3.061-0.664c1.501-1.291,3.595-1.276,5.211-2.369
		c0.56-0.38,1.347-0.242,1.432,0.744c0.122,1.438,0.728,1.063,1.584,0.527c1.867-1.167,3.966-2.039,4.945-4.235
		c0,0-0.022-0.072-0.024-0.072c1.278-0.402,1.02-1.463,1-2.396c-0.026-1.302,0.553-2.296,1.841-2.313
		c1.778-0.026,3.711-1.377,5.37,0.473c0.201,0.223,0.862,0.146,1.27,0.042c0.559-0.145,1.201-0.664,1.639-0.13
		c0.679,0.831-0.486,0.788-0.727,1.202c-0.13,0.225-0.205,0.569-0.13,0.804c0.37,1.167,3.844,2.185,4.942,1.625
		c2.161-1.102,3.923-2.662,5.601-4.373c0.495-0.505,0.558-1.065,0.447-1.604c-0.181-0.88-0.901-0.503-1.445-0.429
		c-0.871,0.117-1.666,0.339-2.478,0.799c-1.795,1.018-5.195-0.286-5.896-2.098c-0.172-0.443,0.079-0.732,0.434-0.872
		c2.808-1.103,4.424-4.412,7.928-4.268c0.348,0.015,0.824-0.389,1.055-0.726c1.054-1.532,2.554-2.483,4.076-3.473
		c1.46-0.95,3.448-0.537,4.701-1.953c0.086-0.099,0.556,0.082,0.814,0.203c2.797,1.316,4.443,1.023,6.463-1.128
		c-0.293-0.927-1.956,0.189-1.756-1.044c0.146-0.903,1.398-1.008,2.257-1.039c1.143-0.039,2.014-0.366,2.537-1.416
		c0.151,0.049,0.27,0.009,0.356-0.123c0.718,0.163,1.435,0.452,2.152,0.456c1.254,0.007,1.389,0.102,0.943,1.49
		c-0.626,1.946-2.151,2.255-3.565,2.888c-0.743,0.331-1.099,0.847-0.947,1.526c0.141,0.633,0.614,1.202,1.239,1.492
		c0.837,0.388,0.889-0.513,1.284-0.86c0.874-0.769,1.23-1.758,1.502-2.867c0.376-1.544,2.04-1.22,3.068-1.838
		c0.286-0.171,0.778-0.135,0.935,0.303c0.318,0.892-0.737,1.188-0.895,1.895c0.402,0.358,1.116-0.386,1.347,0.357
		c0.197,0.631-0.271,0.915-0.769,1.154c-0.491,0.237-0.966,0.532-0.5,1.174c0.326,0.45,0.778,0.654,1.354,0.567
		c0.994-0.149,2.684-4.391,2.06-5.199c-0.045-0.058-0.114-0.095-0.167-0.146c-0.607-0.599-1.622-1.063-1.08-2.155
		c0.545-1.096,1.596,0.148,2.511-0.432c-0.883-1.302-1.722-2.413-3.514-2.198c-1.576,0.19-3.475-0.346-3.63-1.684
		c-0.158-1.359,1.816-1.56,3.124-1.653c1.082-0.079,1.633-0.362,1.42-1.626c-0.139-0.834-0.34-1.934,0.377-2.532
		c1.451-1.21,1.401-2.693,1.448-4.368c0.047-1.645-0.159-3.965,2.898-3.216c0.647,0.158,1.784-0.331,1.635-1.101
		c-0.301-1.548,0.183-2.846,0.514-4.28c0.464-2.004,0.663-2.237,2.383-1.113c0.396,0.259,0.646,0.955,1.271,0.463
		c0.528-0.413,0.984-0.878,0.754-1.688c-0.318-1.11,0.037-2.002,0.952-2.732c0.321-0.257,0.696-0.745,0.664-1.094
		c-0.206-2.318,1.113-3.981,2.318-5.695c0.302-0.431,0.256-0.781,0.05-1.225c-0.516-1.105-2.106-2.235,0.037-3.358
		c0.249-0.131-0.117-0.47-0.315-0.686c-1.529-1.661,1.66-2.155,0.986-3.771c-0.111-0.268,1.126,0.175,1.75,0.197
		c0.866,0.03,1.791,0.35,2.495-0.462c0.734-0.848-0.077-1.695-0.054-2.551c0.02-0.756-0.965-0.771-1.397-1.251
		c-0.44-0.489-1.06-0.854-0.843-1.66c0.375-1.383,4.21-4.098,5.758-4.063c0.426,0.01,0.951,0.26,1.16-0.29
		c0.241-0.634-0.388-0.711-0.755-0.847c-0.882-0.328-1.479-1.009-2.039-1.674c-1.229-1.463-0.843-3.094,0.914-3.74
		c0.873-0.319,0.691-0.887,0.543-1.406c-0.349-1.229-0.55-2.434,0.927-2.982c1.197-0.444,2.405-0.906,3.498,0.56
		c0.649,0.872,1.91,0.633,2.896,0.243c0.488-0.193,0.424-0.746,0.28-1.176c-0.345-1.035-1.172-1.305-2.128-1.131
		c-1.736,0.317-3.265-0.998-5.055-0.523c-0.666,0.178-0.724-0.493-0.452-1.074c1.345-2.88,2.301-5.792,0.796-8.941
		c-0.227-0.476,0.058-0.977,0.221-1.48c0.484-1.49,1.396-2.653,2.375-3.845c1.537-1.869,1.078-3.32-1.101-3.81
		c-0.899-0.202-1.508-1.017-1.408-1.484c0.446-2.106-0.269-4.154-0.057-6.263c0.177-1.761,1.253-2.738,2.294-3.851
		c-0.773-0.572-1.451-0.356-2.097-0.396c-1.291-0.081-2.579-0.093-1.21-1.956c0.591-0.803-0.305-1.264-0.929-1.648l-0.014-0.012
		c-0.711-1.23-0.975-2.318,0.984-2.415c1.528-0.076,1.328-0.78,0.714-1.695c-0.453-0.674-0.939-1.277-1.661-1.744
		c-0.665-0.43-2.173-0.458-1.744-1.569c0.429-1.113,1.808-0.667,2.81-0.586c0.419,0.034,0.809,0.327,1.227,0.457
		c1.791,0.558,2.597-1.085,3.758-1.817c0.884-0.557-0.219-1.304-0.436-1.897c-0.366-1.006-2.654-1.001-3.878-0.083
		c-0.448,0.336-0.836,1.194-1.424,0.735c-1.671-1.305-3.819-1.609-5.515-2.814c-0.441-0.313-0.831-0.731-0.525-1.303
		c0.563-1.053-0.221-1.455-0.852-1.955c-2.217-1.761-4.055-3.875-5.705-6.16c-0.522-0.724-0.615-1.427,0.014-2.221
		c0.323-0.409,1.173-0.747,0.774-1.405c-0.436-0.718-1.206-0.219-1.84-0.154c-1.889,0.191-4.111,0.328-5.177-1.26
		c-1.95-2.908-5.074-4.199-7.599-6.278c-1.479-1.217-2.431-3.357-4.928-3.292c-0.77,0.02-1.785-0.979-1.033-1.951
		c1.104-1.431-0.157-1.497-0.857-2.007c-3.619-2.641-8.392-0.2-12.029-2.744c-0.049-0.035-0.146,0.002-0.219-0.006
		c-3.325-0.396-6.767-0.049-9.923-1.524c-0.705-0.33-1.831-0.194-1.408-1.682c0.78-2.743,0.695-2.778-2.162-2.668
		c-0.659,0.026-1.314,0.183-1.975,0.244c-2.122,0.194-4.338,0.83-6.339,0.422c-1.844-0.375-3.682-0.534-5.514-0.659
		c-1.537-0.105-2.896,0.164-2.242-2.169c0.212-0.753-0.271-1.582-1.271-1.806c-0.933-0.208-1.853-0.48-2.78-0.715
		c-1.268-0.32-2.017,0.042-2.041,1.482c-0.031,1.821-0.857,1.723-2.095,0.883c-2.033-1.38-4.108-2.324-6.774-1.817
		c-2.801,0.532-6.072-2.179-6.162-4.758c-1.3,0.26-2.618,0.271-2.699,2.218c-0.049,1.196-1.252,1.263-2.255,1.253
		c-0.963-0.01-1.219-0.544-1.23-1.438c-0.038-2.796-1.229-3.564-3.886-2.472c-2.044,0.841-3.786,0.729-5.049-1.329
		c-1.185,1.187-0.697,4.073-3.36,3.316c-0.956-0.272-2.064-0.461-2.939-1.333c-1.021-1.018-0.396-2.131-0.499-3.217
		c-1.008,0.133-1.642,0.364-2.03,1.29c-1.097,2.616-2.554,2.791-4.229,0.465c-0.673-0.937-0.9-2.488-2.208-2.507
		c-1.177-0.018-2.491,0.305-3.604,0.692c-1.059,0.369-1.448,0.367-2.315-0.413c-1.166-1.047,0.124-1.589,0.219-2.325
		c-0.794-0.223-1.287-0.01-1.557,0.637c-0.451,1.08-0.282,2.601-2.124,2.62c-1.248,0.013-2.492,0.275-3.741,0.309
		c-0.635,0.016-1.662-0.23-1.038-1.094c0.906-1.251-0.227-1.159-0.726-1.366c-1.056-0.437-1.951,0.264-2.622,0.399
		c-0.803,1.117,1.518,1.495,0.268,2.327c-0.8,0.531-2.117,0.556-2.78-0.522c-0.735-1.191-1.615-1.035-2.669-0.649
		c-0.477,0.175-1.313,0.459-1.462,0.273c-1.965-2.438-3.768-1.055-5.996-0.278c-2.206,0.77-4.638,0.059-6.442-1.933
		c-1.313-1.449-4.981-2.163-5.788-1.076c-1.87,2.516-4.249,1.45-6.508,1.234c-0.757-0.072-1.63-0.677-0.85-1.484
		c0.875-0.906,1.034-2.127,1.76-3.027c0.962-1.194,1.369-2.999,3.731-2.628c1.142,0.179,2.94-0.835,3.13-2.027
		c0.122-0.769-0.646-2.12-1.049-3.195c-0.092-0.244-0.997-0.021-0.789-0.706c0.16-0.538,0.688-0.385,1.135-0.331
		c0.944,0.115,1.884,0.056,2.743,0.688c0.909,0.669,1.877,0.574,2.754-0.238c-0.542-0.887-1.336-0.759-2.039-0.854
		c-0.546-0.074-1.089-0.257-1.224-0.803c-0.187-0.751,0.56-0.667,0.973-0.908c1.719-1.002,3.438-1.736,5.405-0.625
		c0.666,0.377,1.112-0.088,1.515-0.545c0.47-0.534,0.217-0.725-0.289-1.161c-0.933-0.804-0.411-1.556,0.538-1.962
		c0.947-0.405,1.924-0.939,2.913-1.004c1.966-0.128,3.935-1.574,5.729-0.844c2.582,1.05,4.279-0.089,5.948-1.527
		c0.77-0.663,1.189-0.829,2.048-0.245c1.666,1.135,3.388,1.848,5.556,1.1c1.137-0.393,2.637-0.697,3.579,0.787
		c0.171,0.269,0.77,0.599,0.901,0.508c1.704-1.166,3.239,0.273,4.857,0.276c0.718,0.001,1.842-0.505,2.034,0.67
		c0.145,0.872-0.206,1.751-1.376,1.929c-0.573,0.087-0.86,0.589-0.814,1.156c0.034,0.427,0.446,0.651,0.812,0.581
		c1.94-0.381,3.33,1.044,5.015,1.494c0.849,0.226,1.734,0.854,2.436-0.018c0.567-0.706,0.599-1.513,0.45-2.579
		c-0.191-1.372-0.847-3.345,1.021-4.355c2.398-1.295,4.109-0.737,5.956,1.213c1.387,1.463,2.547,3.266,4.636,3.982
		c0.918,0.314,1.021,1.053,0.353,1.743c-0.874,0.901-1.763,1.762-3.209,1.708c-1.92-0.073-3.847,0.011-5.769-0.016
		c-0.645-0.009-1.283,0.088-1.481,0.705c-0.261,0.818,0.578,0.821,1.043,1.128c1.374,0.909,3.689-0.028,4.444,2.251
		c0.04,0.12,1.391-0.565,1.818-1.236c0.314-0.496,0.447-1.229,1.109-1.263c2.414-0.127,4.645-2.117,7.258-0.582
		c0.729,0.427,1.984,0.197,2.124-0.909c0.108-0.846-0.15-1.92-1.317-2.239c-0.5-0.136-0.988-0.316-1.49-0.443
		c-1.293-0.327-1.769-0.76-0.667-2.02c1.394-1.593,0.963-2.437-0.936-3.393c-1.021-0.515-2.43,0.029-2.872-0.537
		c-0.977-1.248-2.889-1.909-2.799-3.937c0.02-0.468,0.146-1.334-0.442-1.329c-3.465,0.029,0.016-1.384-0.433-1.95l0.15,0.013
		c0.66,0.997,1.919,1.271,2.62,2.273c0.729,1.043,1.679,1.518,3.052,0.783c1.254-0.67,2.17-0.13,2.319,1.337
		c0.084,0.81,0.553,1.394,1.055,1.9c0.989,0.996,2.091,0.385,3.075-0.056c1.004-0.451,0.633-1.149,0.123-1.791
		c-0.53-0.667,0.255-0.296,0.314-0.32c2.468-0.963,3.632-0.185,3.829,2.568c0.097,1.351,0.608,2.496,1.862,3.037
		c0.861,0.372,1.478,0.804,1.954,1.643c1,1.764,3.209,0.65,4.579,1.778c0.603,0.496,0.901-0.731,1.367-0.759
		c1.874-0.113,2.908-2.75,5.134-1.67c0,0,0.144-0.009,0.146-0.01c0.313,0.9,0.599,1.811,0.942,2.698
		c0.224,0.577,1.29,0.892,0.842,1.626c-1.488,2.433,0.412,1.997,1.637,1.93c1.162-0.063,2.238,0.241,3.208,0.693
		c1.02,0.476,1.969,0.809,3.113,0.329c-0.217,1.245-2.094,0.907-1.77,2.108c0.218,0.817,1.334,0.848,2.123,0.862
		c3.151,0.052,5.867,0.95,7.819,3.606c0.525,0.715,1.593,0.962,2.196,0.73c2.5-0.961,4.783-0.268,7.27,0.104
		c2.043,0.305,3.791,0.651,5.422,1.877c1.087,0.818,2.2,1.465,0.526,2.803c-0.438,0.35-0.669,1.025-0.262,1.605
		c0.136,0.193,0.631,0.392,0.735,0.308c1.151-0.93,2.948-0.416,4.003-1.744c-0.436-0.717-1.876-0.574-1.569-1.628
		c0.258-0.887,0.838-1.703,1.901-2c0.805-0.224,1.644-0.369,2.404-0.144c1.118,0.332,2.563,0.326,3.311,0.854
		c1.652,1.169,3.35,2.181,5.136,3.111c0.644,0.336,0.5,1.183,0.28,1.834c-0.31,0.918,0.107,1.351,0.941,1.195
		c1.541-0.287,2.876,0.514,4.329,0.644C629.38,293.654,629.598,293.851,629.815,294.047z M617.6,473.989
		c1.115-0.658,2.007-1.479,2.094-2.882c0.037-0.583,0.206-1.214-0.424-1.604c-0.615-0.383-1.24-0.081-1.64,0.289
		c-1.382,1.293-2.393,1.225-3.179-0.589c-0.153-0.352-0.563-0.449-1.007-0.078c0.433,0.688,1.174,1.409,0.015,2.154
		c-0.689,0.443-0.316,0.866,0.208,1.152c0.881,0.48,1.653,1.185,2.845,0.569C617.253,472.618,618.078,472.732,617.6,473.989z
		 M680.592,422.854c2.287,1.095,4.802,0.767,6.88,2.037c0.4,0.244,1.346,0.174,1-0.532c-0.673-1.38,0.595-1.541,1.004-2.272
		c0.485-0.869,2.208-1.772,0.673-2.931c-1.099-0.828-1.072-1.564-0.616-2.595c0.586-1.323,0-2.518-1.232-2.428
		c-2.192,0.162-4.625-0.485-6.54,1.201c-0.949,0.837-1.924,1.036-3.007,0.344c-0.689-0.441-1.591-1.607-2.123-0.611
		c-0.493,0.924,0.072,2.422,1.206,3.03c1.057,0.565,2.644,0.632,3.356-0.128c1.489-1.587,2.911-0.9,4.433-0.476
		c0.787,0.219,1.736,0.464,1.399,1.568c-0.278,0.91-1.104,1.608-2.048,1.304C682.559,419.586,681.458,420.893,680.592,422.854z
		 M514.044,278.065c-0.041-0.645,0.541-1.281-0.142-1.874c-1.59-1.382-5.017-1.416-6.859-0.134
		c-1.087,0.755-2.282,1.574-3.354-0.044c-0.394-0.592-0.691-0.31-1.036-0.009c-1.224,1.068-1.222,2.635,0.107,3.593
		c2.32,1.673,5.028,2.746,7.214,4.636c0.112,0.097,0.504,0.077,0.584-0.028C512.012,282.323,514.371,280.936,514.044,278.065z
		 M248.992,530.699c-0.486,1.486-1.214,2.317-2.639,2.641c-1.272,0.287-2.554,0.811-3.378,1.957
		c-0.707,0.981-1.589,1.505-2.824,1.336c-1.381-0.188-1.61,0.834-1.688,1.787c-0.078,0.969,0.52,1.527,1.522,1.433
		c1.581-0.148,1.931,0.53,1.174,1.796c-0.677,1.13,0.315,1.297,0.78,1.113c1.244-0.489,2.855-0.8,3.316-2.214
		c1.429-4.382,5.508-5.515,8.73-7.565C250.284,532.468,250.265,532.46,248.992,530.699z M240.027,545.816
		c-1.15-0.365-2.101,0.156-2.75-0.559c0.179-0.614,0.583-0.574,0.931-0.616c0.625-0.075,1.47,0.136,1.399-0.916
		c-0.07-1.044-0.921-0.731-1.524-0.743c-0.73-0.014-1.435,0.063-2.165,0.29c-2.876,0.895-3.158,1.467-1.406,3.811
		c0.803,1.073,0.432,1.561-0.584,1.961c-1.082,0.426-1.891,1.067-2.194,2.277c-0.299,1.194-0.882,2.138-2.302,2.316
		c-0.784,0.098-0.977,0.815-1.039,1.506c-0.053,0.595,0.234,0.986,0.816,1.14c1.46,0.386,3.061-0.129,4.454,0.688
		c0.542-1.117,1.088-2.232,1.623-3.352c0.094-0.196,0.164-0.408,0.214-0.62C236.158,550.225,236.869,547.483,240.027,545.816z
		 M108.797,499.777c2.163-0.938,3.746-0.947,4.844,0.604c0.743,1.05,1.665,1.581,2.957,1.665c0.725,0.047,1.486,0.372,1.934,0.987
		c1.238,1.699,2.732,1.52,4.283,0.623c1.679-0.972,2.587-2.427,2.208-4.424c-0.147-0.777-0.45-1.88-1.259-1.901
		c-1.647-0.043-2.566-0.628-2.935-2.243c-0.121-0.529-0.714-0.703-1.288-0.619c-0.402,0.059-0.732,0.288-0.821,0.653
		c-0.149,0.607,0.482,0.617,0.792,0.878c0.501,0.423,1.151,0.817,0.775,1.628c-0.356,0.766-1.123,1.041-1.851,1.011
		c-2.551-0.104-5.093,0.594-7.65,0.044C110.284,498.575,109.624,498.262,108.797,499.777z M260.581,545.666
		c-1.296-1.806-1.292-4.303-2.657-6.235c-0.305-0.432-0.232-1.33,0.354-1.837c0.398-0.344,0.906-0.604,0.467-1.236
		c-0.345-0.497-0.85-0.483-1.39-0.449c-1.59,0.098-2.518,1.381-2.588,3.173c-0.11,2.796,0.707,5.902-2.292,7.892
		c-0.344,0.229-0.643,0.674-0.357,1.162c0.376,0.642,1.043,0.543,1.597,0.441C256.16,548.13,258.665,547.809,260.581,545.666z
		 M236.059,538.265c1.019-0.215,1.279-0.868,1.028-1.68c-0.26-0.838-0.831-1.599-0.986-2.443c-0.268-1.465-0.998-1.925-1.788-0.615
		c-1.167,1.934-2.184,3.631-4.513,4.632c-0.968,0.416-1.047,2.913-3.143,2.939c-0.338,0.004-0.683,0.403-0.628,0.807
		c0.22,1.59,1.371,2.563,2.726,2.848c1.563,0.328,1.639-0.919,1.59-2.17c-0.053-1.347-0.324-2.986,1.967-2.814
		c0.796,0.058,0.804-0.672,0.958-1.248c0.417-1.566,1.025-2.605,2.433-0.674C235.818,538.006,235.958,538.147,236.059,538.265z
		 M584.572,289.57c1.947,0.348,2.456-0.903,2.649-2.021c0.242-1.399-1.027-1.1-1.848-1.134c-1.252-0.052-2.503-0.343-3.703-0.401
		c-1.872-0.091-3.322-1.805-5.271-1.15c-0.401,0.135-0.973,0.315-1.093,0.621c-0.246,0.625,0.42,0.945,0.85,1.076
		c1.418,0.429,2.23,1.308,2.589,2.741c0.207,0.834,0.868,1.34,1.675,0.767C581.86,289.046,583.224,288.105,584.572,289.57z
		 M656.955,413.946c0.293,0.024,0.592,0.021,0.88,0.076c1.384,0.264,1.854-0.382,1.874-1.695c0.021-1.534-0.831-1.05-1.732-0.971
		c-1.312,0.116-2.667,0.136-3.962-0.067c-1.542-0.241-2.243,1.229-3.522,1.461c-0.26,0.046-0.309,0.604-0.003,0.708
		c1.144,0.386,2.19,1.57,3.479,0.911C654.978,413.852,655.929,413.864,656.955,413.946z M160.168,498.956
		c2.126,0.004,3.968-0.593,5.169-2.409c0.645-0.975,0.767-2.005-0.739-2.337c-1.634-0.361-4.9,1.326-5.626,2.815
		C158.326,498.352,158.817,498.931,160.168,498.956z M343.495,552.947c-1.612,0.683-3.25,0.618-4.818,0.917
		c-2.144,0.406-2.43,1.185-1.183,3.062c0.602,0.907,0.693,1.855,0.749,3.122C340.988,558.292,340.827,554.675,343.495,552.947z
		 M699.722,374.426c-0.455-0.831-1.168-2.319-2.484-2.362c-1.646-0.052-2.411,1.905-2.299,3.029c0.11,1.113,1.559,2.093,2.428,3.125
		c0.023,0.029,0.18,0.005,0.207-0.036C698.28,377.072,699.882,376.545,699.722,374.426z M664.969,398.535
		c-0.16-0.964-0.9-1.571-1.916-1.665c-0.983-0.093-2.064,0.216-2.206,1.346c-0.14,1.094-0.313,2.01-1.374,2.54
		c-0.458,0.229-0.625,0.616-0.467,1.095c0.162,0.49,0.634,0.595,1.058,0.689C661.226,402.798,664.951,399.852,664.969,398.535z
		 M552.188,284.768c-0.156-0.166-0.317-0.425-0.551-0.574c-1.12-0.714-2.364-1.457-3.655-0.787
		c-1.609,0.835-2.485,2.414-3.116,4.074c-0.127,0.333,0.18,0.705,0.547,0.856c0.515,0.213,1.14,0.217,1.39-0.274
		c0.91-1.779,2.726-1.783,4.274-2.32C551.554,285.577,552.105,285.523,552.188,284.768z M387.971,543.357
		c0.004-0.543-0.16-0.912-0.539-1.012c-0.998-0.262-2.098-0.156-2.571,0.768c-0.885,1.725-2.498,1.916-4.046,2.352
		c-0.417,0.116-1.205-0.337-1.129,0.579c0.07,0.864,0.814,1.109,1.478,0.939c2.31-0.593,4.354-1.798,6.373-3.023
		C387.762,543.823,387.871,543.5,387.971,543.357z M314.154,564.302c-0.808-1.104-1.554-2.352-2.54-3.363
		c-0.423-0.435-1.303,0.1-1.289,0.718c0.024,1.025-0.553,1.376-1.267,1.798c-0.41,0.242-1.1,0.592-0.855,1.122
		c0.388,0.847,0.94,0.15,1.426-0.071c0.978-0.442,1.436,0.437,2.09,0.838c0.573,0.351,1.176,0.65,1.832,0.138
		C313.917,565.195,314.178,564.863,314.154,564.302z M84.745,453.541c-0.93,0.044-1.298,0.05-1.663,0.081
		c-0.635,0.057-1.47-0.15-1.716,0.634c-0.27,0.861,0.541,1.35,1.09,1.742c0.959,0.686,2.08,1.064,3.302,1.031
		c0.791-0.022,1.625,0.169,1.839-1.003c0.209-1.146-0.239-1.897-1.252-2.247C85.672,453.546,84.914,453.563,84.745,453.541z
		 M166.797,525.356c1.107-0.121,2.454,0.111,2.388-1.388c-0.053-1.202-0.373-2.447-1.901-2.907
		c-1.479-0.445-1.496,0.729-1.953,1.481c-0.148,0.243-0.376,0.446-0.596,0.636c-1.387,1.2-0.964,1.771,0.661,1.955
		C165.903,525.191,166.406,525.293,166.797,525.356z M264.099,565.518c0.147,0,0.296-0.015,0.441,0.002
		c1.666,0.191,2.211-1.09,2.504-2.239c0.289-1.136-0.674-2.322-1.464-2.682c-1.362-0.621-0.917,1.297-1.668,1.785
		c-0.344,0.223-0.513,0.706-0.788,1.052c-0.364,0.457-0.884,0.899-0.597,1.54C262.826,565.642,263.547,565.399,264.099,565.518z
		 M79.412,414.365c1.335-0.17,2.643-0.833,3.908-1.535c0.481-0.266,0.838-0.922,0.558-1.53c-0.306-0.665-0.977-0.573-1.549-0.402
		c-1.328,0.399-2.711,0.687-3.803,1.637c-0.423,0.368-0.623,0.82-0.399,1.371C78.342,414.438,78.845,414.295,79.412,414.365z
		 M138.621,485.118c-0.007,0.087,0.027,0.322-0.051,0.511c-0.999,2.442,0.459,2.062,1.917,1.677
		c0.567-0.148,1.132-0.308,1.691-0.483c0.405-0.127,0.935-0.172,0.923-0.761c-0.012-0.571-0.456-0.692-0.927-0.721
		c-0.877-0.056-1.487-0.57-2.069-1.159c-0.494-0.499-0.943-1.486-1.733-0.989C137.715,483.607,138.441,484.379,138.621,485.118z
		 M530.779,513.658c-0.436-0.858-0.178-2.562-1.571-2.448c-1.538,0.122-2.632,1.612-3.294,2.874
		c-0.201,0.382,1.866,1.106,2.928,1.313C529.734,515.572,530.672,514.935,530.779,513.658z M337.673,548.013
		c-1.615,0.37-3.102,0.784-3.314,2.551c-0.072,0.593,0.195,1.853,1.101,1.483c1.301-0.53,3.109-0.68,3.565-2.323
		C339.241,548.943,338.699,547.999,337.673,548.013z M167.063,535.194c1.557-0.388,3.469-0.318,4.313-2.323
		c0.151-0.36,0.272-0.701-0.018-1.016c-0.321-0.345-0.693-0.169-1.001,0.024c-1.18,0.745-2.427,1.312-3.766,1.728
		c-0.466,0.145-1.386,0.206-1.182,1.007C165.576,535.272,166.354,535.165,167.063,535.194z M660.92,343.396
		c-0.06,0.807,0.381,1.497,0.73,2.226c0.373,0.775,0.875,0.776,1.329,0.175c0.785-1.04,0.97-2.446,1.98-3.372
		c0.063-0.058-0.055-0.49-0.18-0.547c-1.021-0.467-1.995-0.024-2.989,0.198C661.062,342.24,660.833,342.667,660.92,343.396z
		 M73.634,428.138c0.931-0.099,1.768-0.495,1.769-1.689c0.001-1.482-1.319-2.078-2.313-2.231c-0.94-0.144-1.491,1.06-1.487,2.042
		C71.608,427.423,72.225,428.18,73.634,428.138z M688.245,427.215c-0.962-0.195-2.299-0.416-2.187,0.905
		c0.099,1.161,1.356,2.123,2.561,2.396c1.553,0.354,1.501-1.255,1.677-2.063C690.723,426.491,689.021,427.516,688.245,427.215z
		 M693.263,386.942c-0.086,1.063,0.183,1.675,1.2,1.553c1.021-0.124,2.096-0.527,1.848-1.712c-0.203-0.963-0.213-2.724-1.433-2.61
		C693.686,384.283,693.191,385.786,693.263,386.942z M60.179,433.673c0.74-0.2,1.111-0.956,1.541-1.619
		c0.25-0.385,0.296-0.845-0.271-1.073c-1.098-0.442-1.967-1.201-2.802-2.01c-0.434-0.42-0.864-0.485-1.335-0.028
		c-0.479,0.465-0.372,0.886,0,1.342c0.728,0.896,1.662,1.65,1.855,2.909C59.225,433.577,59.633,433.718,60.179,433.673z
		 M658.123,323.181c-1.416-0.417-2.863-1.584-4.061,0.041c-0.489,0.663,0.19,1.433,0.675,1.686
		C656.511,325.836,656.993,323.841,658.123,323.181z M101.001,475.422c0.92,1.271,2.158,1.603,3.264,2.084
		c0.849,0.37,1.584-0.07,1.916-0.943c0.159-0.416,0.087-1.046-0.459-1.021C104.226,475.61,102.743,474.975,101.001,475.422z
		 M56.29,421.294c-0.939,0.16-2.303,0.077-0.967,1.582c0.643,0.725,0.557,1.021-0.355,1.338c-0.649,0.227-0.833,0.866-0.408,1.456
		c0.371,0.516,0.621,1.343,1.392,1.277c0.841-0.071,0.607-0.9,0.618-1.425c0.019-0.897,0.666-1.469,1.041-2.149
		C58.513,421.733,57.602,421.445,56.29,421.294z M284.803,554.951c-1.276-0.982-1.99-2.469-3.664-1.67
		c-0.541,0.258-0.93,0.978-0.364,1.668C281.933,556.361,283.186,555.797,284.803,554.951z M134.207,483.849
		c-0.015-0.728-0.221-1.281-0.831-1.215c-1.195,0.129-1.702,0.999-1.78,2.116c-0.052,0.734,0.398,1.497,1.026,1.427
		C133.991,486.023,133.479,484.416,134.207,483.849z M672.711,347.857c-0.404,0.614-1.577,0.703-1.534,1.766
		c0.027,0.672,0.745,0.833,1.348,0.765c0.782-0.087,1.723-0.138,1.679-1.25C674.175,348.42,673.607,348.031,672.711,347.857z
		 M671.087,407.567c1.301-0.056,1.528-1.232,1.729-2.299c0.147-0.777-0.206-1.662-1.078-1.617c-1.324,0.069-1.682,1.251-1.868,2.347
		C669.742,406.748,669.822,407.525,671.087,407.567z M436.197,553.309c-1.745-2.593-1.868-2.63-3.932-1.085
		C433.701,552.417,434.572,553.697,436.197,553.309z M572.17,501.141c1.178-0.801,2.252,0.131,3.358,0.196
		c0.696,0.042,1.25-0.198,1.303-0.835c0.078-0.941-0.77-0.592-1.247-0.632C574.311,499.763,573.334,500.635,572.17,501.141z
		 M346.635,541.13c-0.108-0.503-0.354-1.162-1.024-1.053c-0.869,0.143-1.535,0.906-1.717,1.679c-0.162,0.685,0.53,1.097,1.297,1.075
		C346.234,542.802,346.481,542.075,346.635,541.13z M189.428,513.468c-0.18-0.5-0.415-1.039-1.035-0.93
		c-0.666,0.118-1.295,0.449-1.186,1.313c0.081,0.634,0.592,0.863,1.126,0.816C188.994,514.608,189.34,514.127,189.428,513.468z
		 M400.039,540.371c-0.816,0.131-1.058,0.684-1.003,1.423c0.032,0.43,0.035,0.93,0.715,0.786c0.833-0.177,1.265-0.706,1.234-1.549
		C400.966,540.454,400.512,540.375,400.039,540.371z M639.182,459.84c-0.862,0.044-1.3,0.283-1.201,0.923
		c0.088,0.575,0.542,0.84,1.109,0.788c0.55-0.052,1.004-0.3,0.919-0.948C639.929,459.982,639.452,459.832,639.182,459.84z
		 M244.92,546.663c-1.163-0.092-2.052-0.252-3.045,0.455C243.046,548.109,243.932,548.387,244.92,546.663z M608.534,470.577
		c-0.619-0.01-1.001,0.338-0.94,0.912c0.056,0.537,0.588,0.544,1.026,0.522c0.539-0.024,1.135-0.223,1.103-0.789
		C609.688,470.653,609.033,470.622,608.534,470.577z M509.039,520.815c-0.646,0.002-0.926,0.445-0.957,1.102
		c-0.017,0.366,0.033,0.833,0.505,0.75c0.612-0.109,0.902-0.703,1.13-1.213C509.933,520.972,509.511,520.868,509.039,520.815z
		 M420.243,545.383c0.569-0.015,0.714-0.502,0.813-1.001c0.076-0.384-0.019-0.801-0.484-0.715c-0.556,0.104-1.113,0.379-1.119,1.088
		C419.447,545.184,419.761,545.353,420.243,545.383z M291.478,549.137c-0.207-0.297-0.27-0.816-0.847-0.75
		c-0.564,0.064-0.627,0.545-0.593,0.984c0.032,0.415,0.059,0.958,0.695,0.846C291.233,550.129,291.273,549.611,291.478,549.137z
		 M669.827,401.16c-0.181-0.479-0.613-0.58-1.034-0.559c-0.422,0.021-0.598,0.424-0.574,0.771c0.041,0.622,0.548,0.533,0.962,0.473
		C669.548,401.792,669.873,401.644,669.827,401.16z M607.707,474.975c0.139,0.418,0.404,0.625,0.806,0.606
		c0.503-0.024,0.804-0.356,0.847-0.805c0.053-0.544-0.308-0.544-0.674-0.328C608.362,474.638,607.755,474.344,607.707,474.975z
		 M683.368,361.896c-0.101-0.471-0.484-0.487-0.848-0.484c-0.467,0.003-0.95,0.142-0.98,0.67c-0.034,0.573,0.403,0.737,0.903,0.603
		C682.855,362.573,683.32,362.475,683.368,361.896z"/>
	<path fill-rule="evenodd" clip-rule="evenodd" fill="#13B994" d="M395.317,211.507c-2.847-0.242-5.411-1.04-7.359-3.804
		c1.251,3.333-2.312,3.346-3.207,5.227c-0.354,0.743-1.721,1.184-2.329,0.725c-0.782-0.589-0.484-1.717,0.16-2.582
		c-1.327-0.814-2.853-0.34-4.252-0.659c-0.782-0.179-1.213,0.174-1.306,1.051c-0.083,0.784-0.566,1.484-1.431,1.415
		c-1.013-0.081-0.67-0.992-0.656-1.587c0.022-0.915-0.271-1.431-1.255-1.361c-0.713,0.049-1.233-0.163-1.682-0.802
		c-0.498-0.708-1.342-0.729-1.975-0.232c-0.839,0.66-0.036,1.321,0.21,1.96c0.05,0.132,0.174,0.238,0.271,0.35
		c2.029,2.326,1.987,2.562-0.406,4.566c-0.95,0.795-1.898,0.52-2.161-0.381c-0.438-1.505-1.568-2.646-1.843-4.221
		c-0.372-2.132-1.861-2.802-3.832-1.854c-0.788,0.379-1.577,0.627-2.208-0.157c-0.978-1.215-1.975-0.661-2.555,0.181
		c-0.734,1.066,0.139,1.503,1.134,1.776c0.831,0.228,1.33,0.933,1.625,1.714c0.235,0.62,0.454,1.335-0.059,1.89
		c-0.5,0.541-1.154,0.231-1.618-0.097c-1.052-0.743-2.885,0.033-3.393-1.904c-0.151-0.575-1.035,0.049-1.562,0.244
		c-0.787,0.292-1.396,0.438-2.136-0.378c-2.853-3.145-2.285-2.209,1.194-5.643c-1.926-0.295-3.49-0.04-4.299,1.833
		c-0.291,0.667-0.691,1.086-1.285,1.434c-0.737,0.43-0.524,1.155-0.43,1.801c0.116,0.792,0.722,0.786,1.348,0.795
		c0.7,0.012,1.721-0.177,1.606,0.936c-0.099,0.95-1.064,1.32-1.876,1.109c-2.233-0.579-3.498,0.94-4.544,2.287
		c-0.912,1.176-1.973,2.324-2.633,3.658c-0.543,1.098-1.43,1.285-2.155,0.912c-1.649-0.848-3.428-1.65-4.529-3.237
		c-1.244-1.793-2.543-3.402-4.953-3.489c-0.589-0.021-0.87-0.489-1.272-0.803c-1.185-0.927-2.377-1.369-3.469,0.161
		c-0.806,1.127-1.855,0.737-2.74,0.252c-0.929-0.509-0.398-1.08,0.209-1.508c0.581-0.41,0.1-0.573-0.182-0.735
		c-1.074-0.614-2.064-1.438-3.467-1.11c-1.356,0.317-2.629,0.075-3.77-0.786c-0.874-0.659-1.896-0.688-2.003,0.504
		c-0.084,0.94-1.936,1.856,0.11,3.084c1.904,1.143,3.702,2.498,5.681,3.564c1.385,0.747,2.68,0.984,3.772-0.363
		c0.48-0.592,0.476-1.77,1.545-1.6c1.421,0.225,3.073,0.033,4.156,1.091c0.711,0.695,2.083,1.209,1.462,2.87
		c-0.261,0.697,0.635,1.457,1.591,1.4c2.498-0.149,3.87,1.99,5.867,2.856c0.471,0.204,1.055,0.819,0.662,1.455
		c-0.401,0.652-0.954,0.285-1.524-0.011c-1.309-0.678-2.501-1-3.45,0.761c-0.649,1.206-1.813,0.692-2.704,0.059
		c-1.593-1.131-3.079-1.412-4.476,0.293c-0.499,0.608-1.118,0.577-1.808,0.29c-1.281-0.534-2.451,0.241-3.662,0.433
		c-0.752,0.12-1.126,0.651-0.489,1.446c0.381,0.476,0.677,1.235-0.025,1.526c-1.639,0.678-2.857-0.713-4.241-1.196
		c-0.867-0.302-1.304-1.164-0.386-2.122c0.537-0.56,0.081-0.943-0.493-1.098c-0.504-0.136-1.004-0.095-1.512,0.13
		c-3.656,1.611-3.683,1.621-6.007-1.549c-1.146-1.564-2.968-2.738-2.119-5.335c0.309-0.944-1.921-0.909-2.476-1.979
		c-0.637,0.497-0.448,1.073-0.512,1.56c-0.377,2.879-0.367,2.892-3.337,2.356c-0.646-0.117-1.173,0.112-1.669,0.433
		c-0.499,0.322-0.94,0.746-1.707,0.527c-0.661-0.533,1.002-1.504-0.198-1.927c-0.541-0.19-1.249-0.162-1.568,0.482
		c-0.545,1.101-1.43,2.162-0.789,3.518c0.151,0.32,0.519,0.531,0.712,0.84c0.79,1.268,0.381,1.939-1.074,2.023
		c-0.59,0.034-1.193-0.039-1.774,0.05c-1.723,0.263-2.573,2.028-1.389,3.265c1.178,1.229,2.278,2.71,4.144,3.114
		c0.781,0.17,1.824,0.373,1.598,1.442c-0.207,0.977-1.273,0.748-2.053,0.904c-0.9,0.179-1.671-0.707-2.608-0.23
		c-0.073,0.833,0.596,1.43,1.118,1.378c2.033-0.203,4.314,1.462,6.11-0.822c0.557-0.709,1.5-0.366,2.311-0.251
		c1.625,0.231,3.384,1.268,4.579-0.995c0.314-0.596,1.503-0.636,1.927,0.086c0.469,0.8,0.308,1.932-0.608,2.329
		c-2.623,1.136-5.306,2.142-8.008,3.075c-0.608,0.21-1.347,0.062-1.701,0.77c-0.382,0.766-0.708,0.592-1.494,0.39
		c-0.932-0.24-2.269,0.08-3.078,0.654c-0.852,0.603-1.177,0.429-1.817-0.12c-1.489-1.278-3.096-2.287-5.168-1.279
		c-0.589,0.286-1.153,0.254-1.678-0.118c-0.708-0.502-1.585-0.715-2.328-0.55c-2.306,0.513-4.569-0.293-7.003,0.356
		c-3.021,0.805-6.278,0.071-9.406-1.007c-2.527-0.873-5.303-1.09-7.992-1.39c-0.881-0.098-1.708-0.157-2.554-0.477
		c-1.096-0.415-2.12-0.097-2.632,0.993c-0.527,1.12,0.362,1.641,1.203,1.98c1.946,0.785,2.839,3.001,4.951,3.566
		c0.494,0.132,0.417,0.727,0.434,1.163c0.036,0.935,0.562,1.412,1.328,1.704c0.846-0.862-1.713-1.938,0.328-2.502
		c1.954-0.542,4.282,0.267,4.686,1.536c0.259,0.816-2.029,3.133-3.043,2.695c-2.02-0.873-4.55-0.398-6.146-1.932
		c-1.557-1.496-3.243-1.477-5.09-1.539c-1.195-0.04-2.163,0.396-3.077,1.048c-0.693,0.496-1.835,0.917-1.466,1.936
		c0.381,1.048,1.466,1.954,2.604,1.68c1.876-0.453,3.014,1.012,4.559,1.356c0.52,0.116,1.007,0.7,0.939,1.374
		c-0.081,0.789-0.797,0.89-1.348,0.833c-2.739-0.283-5.162,0.173-7.105,2.368c-0.347,0.392-1.35,0.422-1.649-0.449
		c-0.698-2.034-2.414-2.073-3.781-1.417c-1.4,0.671-2.634,0.42-3.97,0.355c-1.677-0.082-3.34-0.416-4.978,0.51
		c-0.795,0.449-1.718-0.005-1.608-1.115c0.175-1.779-0.378-3.762,1.623-5.298c-1.58-0.259-2.559-0.424-3.57,0.843
		c-1.441,1.806-3.838,1.22-5.812,1.626c-2.528,0.521-3.069,1.369-2.037,3.869c0.299,0.724,1.281,1.359,0.188,2.313
		c-0.576,0.502,0.227,0.692,0.543,0.821c0.487,0.199,0.819,0.235,1.115-0.52c1.028-2.62,4.714-3.682,6.873-1.97
		c0.941,0.746,2.061,0.757,3.049,1.232c0.661,0.317,1.129,0.737,1.205,1.456c0.086,0.816-0.524,1.229-1.159,1.428
		c-1.622,0.508-2.768,1.346-2.856,3.22c-0.013,0.27-0.433,0.707-0.71,0.747c-2.332,0.337-2.996,2.706-4.711,3.813
		c-1.147,0.741-0.284,1.374,0.466,2.023c0.678,0.586,2.241,0.049,2.13,1.283c-0.123,1.359-1.284,1.859-2.656,1.723
		c-0.493-0.049-0.754,0.242-0.946,0.732c-0.633,1.615-2.191,1.792-3.593,2.236c-0.751,0.238-2.466-1.19-2.104,1.172
		c0.04,0.26-0.654,0.327-0.968,0.123c-1.765-1.143-4.021-0.769-5.896-2.071c0.856-0.481,2.314-0.002,2.655-1.578
		c-1.723-0.086-3.411-0.819-4.743,1.064c-0.521,0.737-1.516,0.348-2.305,0.198c-0.918-0.173-1.674,0.09-2.025,0.948
		c-0.408,0.996,0.497,1.357,1.131,1.567c2.091,0.696,3.068,2.749,4.842,3.817c0.625,0.376,0.512,0.852-0.104,1.172
		c-1.191,0.619-2.71,0.616-3.178-0.507c-1.17-2.81-2.876-1.308-4.451-0.841c-0.494,0.146-0.962,0.431-1.476,0.316
		c-1.638-0.367-2.96,0.4-3.502,1.7c-0.642,1.54-2.197,1.77-3.085,2.858c-0.446,0.546-0.945,0.215-1.367-0.104
		c-0.483-0.366-0.625-0.879-0.234-1.353c1.306-1.578,1.141-2.843-0.641-3.932c-0.558-0.34-0.527-1.026-0.454-1.628
		c0.148-1.227-0.484-1.511-1.583-1.49c-2.32,0.045-2.516,0.3-1.47,2.334c0.336,0.655,0.468,1.327-0.128,1.822
		c-1.14,0.945-0.46,1.282,0.449,1.584c0.56,0.186,1.136,0.325,1.693,0.52c0.425,0.15,0.847,0.388,0.913,0.874
		c0.09,0.662-0.468,0.805-0.93,1.053c-2.337,1.253-2.325,1.256-0.255,3.083c0.256,0.226,0.503,0.572,0.556,0.895
		c0.308,1.851-2.923,5.513-4.876,5.437c-1.398-0.054-2.386-0.117-2.314,1.849c0.048,1.304-1.701,2.031-2.845,1.334
		c-2-1.219-3.604-1.945-5.722,0.317c-0.794,0.849-2.389,2.808-4.545,1.847c-0.53-0.236-1.042,0.192-1.122,0.78
		c-0.121,0.885-0.696,1.238-1.664,1.492c0.939,0.786,2.047,1.321,2.52,2.199c0.728,1.348-1.13,1.346-1.819,2.492
		c1.139,0,2.039-0.018,2.938,0.005c0.681,0.017,1.453,0.094,1.575,0.907c0.12,0.795-0.727,1.008-1.208,1.004
		c-4.265-0.028-6.679,3.336-9.804,5.347c-1.029,0.663-1.523,2.23-0.879,3.312c1.105,1.86,0.014,2.388-1.316,2.928
		c-0.893,0.362-1.832,0.624-2.817,0.482c-0.733-0.104-1.016-0.235-1.434,0.841c-0.468,1.202-2.134,1.959-3.514,2.513
		c-0.521,0.209-1.299,0.153-1.518-0.537c-0.205-0.648,0.521-0.737,0.917-1.012c0.502-0.349,0.917-0.781,0.732-1.478
		c-0.187-0.703-0.832-0.802-1.383-0.948c-3.162-0.842-4.691,0.188-5.509,3.618c-0.22,0.923-0.407,1.899-0.867,2.704
		c-0.425,0.744-0.303,1.173,0.185,1.751c1.029,1.22,0.886,2.013-0.805,2.497c-0.995,0.284-1.996,0.43-2.947,0.489
		c-0.214,0.609,0.095,0.811,0.439,0.969c1.758,0.811,0.967,1.434-0.15,2.019c-0.524,0.275-1.074,0.501-1.601,0.773
		c-0.393,0.204-1.033,0.379-1.106,0.679c-0.501,2.045-1.215,3.901-3.258,4.905c1.593,2.298-0.053,3.56-1.282,5.329
		c-1.152,1.661-1.87,2.447-3.715,1.418c-0.449-0.25-0.942-0.532-1.233-0.931c-0.721-0.991-1.526-1.816-2.652-0.741
		c-0.994,0.95-1.959,2.087-1.038,3.66c0.221,0.377,0.411,0.782,0.687,1.115c0.41,0.494,0.703,1.043,0.288,1.585
		c-0.41,0.536-0.924,0.118-1.398-0.077c-0.817-0.338-1.723-0.231-1.503,0.802c0.465,2.189-0.875,3.058-2.395,3.922
		c-0.448,0.255-0.911,0.501-1.314,0.817c-0.764,0.598-2.294,0.609-2.086,1.958c0.17,1.106,1.523,0.967,2.354,1.372
		c0.376,0.184,1.036,0.152,0.964,0.714c-0.161,1.255-1.425,1.955-1.624,3.312c-0.251,1.708-1.596,1.412-2.943,1.299
		c-1.167-0.098-2.688-0.907-3.354,1.299c-0.329,1.084-1.71,0.542-2.218-0.445c-0.351-0.681-0.651-1.178-1.462-0.928
		c-0.548,0.169-1.252,0.3-1.385,0.956c-0.148,0.731,0.597,0.942,1.051,1.271c0.722,0.523,1.154,1.219,1.048,2.081
		c-0.264,2.13,1.188,1.945,2.398,1.682c3.005-0.654,4.271-0.183,6.079,2.833c-2.196-0.733-3.604,0.158-5.039,1.477
		c-0.922,0.847-2.373,0.923-3.368-0.229c-0.538-0.624-0.881-1.44-1.9-1.112c-0.306,0.098-0.407,0.547-0.181,0.741
		c0.732,0.627,0.686,2.168,2.095,1.957c1.061-0.16,1.623-0.004,1.841,1.206c0.381,2.113-0.228,2.914-2.536,3.076
		c-1.01,0.071-2.314-0.536-2.75,1.09c-0.387,1.439-0.091,2.554,1.142,3.517c1.865,1.456-0.063,2.458-0.817,2.754
		c-2.197,0.867-3.041,1.525-1.02,3.646c1.128,1.184-0.366,1.727-1.347,1.892c-1.59,0.268-3.208,0.369-4.817,0.511
		c-1.041,0.093-2.011,0.307-2.969,0.798c-1.485,0.763-2.745,0.927-3.938-0.883c-1.22-1.85-3.08-0.662-4.318,0.162
		c-1.646,1.092-2.6,1.623-3.651-0.677c-0.649-1.421-2.631-1.123-3.935-1.781l0.036,0.034c-0.591-1.718,0.819-2.529,1.642-3.598
		c0.528-0.687,1.568-1.325,1.164-2.21c-0.434-0.95-1.646-0.721-2.593-0.798c-1.527-0.124-2.907,0.445-4.339,0.797
		c-1.136,0.279-2.221,0.709-3.471,0.573c-1.287-0.138-1.913,0.862-2.35,1.942c-0.277,0.682-0.766,1.159-1.533,0.99
		c-0.943-0.209-0.645-1.007-0.624-1.639c0.092-2.825,1.691-4.823,4.441-5.537c0.356-0.093,0.887-0.288,1.075-0.128
		c2.085,1.775,3.54-0.532,5.301-0.751c1-0.124,1.06-0.856,1.243-1.566c0.269-1.048-0.675-0.876-1.159-1.157
		c-0.378-0.22-0.764-0.45-1.175-0.585c-0.625-0.206-1.78,0.177-1.551-1.003c0.281-1.449,1.384-0.5,2.154-0.488
		c0.049,0.043,0.099,0.087,0.148,0.13c-0.06-0.034-0.119-0.067-0.179-0.102c-0.299-1.441-0.665-2.807,0.807-3.996
		c0.955-0.771,0.591-1.716-0.445-2.319c-1.91-1.111-1.096-3.049-1.259-4.611c-0.088-0.849,0.905-0.768,1.509-0.3
		c1.604,1.245,2.537,0.647,3.128-1.062c0.119-0.343,0.297-0.673,0.5-0.975c0.371-0.553,1.354-0.958,0.463-1.795
		c-0.691-0.649-1.447-1-2.369-0.296c-0.563,0.43-1.303,0.584-1.819,0.01c-0.667-0.742,0.052-1.279,0.416-1.92
		c0.891-1.574,2.111-2.351,3.959-2.294c1.19,0.036,2.133-0.363,1.346-1.885c-0.221-0.428-0.199-0.943,0.208-1.209
		c2.156-1.41,1.341-2.347-0.487-3.035c0.009-0.858,0.632-0.84,1.077-0.989c2.113-0.706,4.168-1.521,5.902-2.972
		c1.319-1.104,2.684-1.011,4.122-0.241c2.558,1.37,4.226,1.056,6.035-1.105c1.281-1.531,2.624-2.55,4.523-0.83
		c0.833,0.754,1.836,0.735,2.612-0.021c0.736-0.716,1.539-1.104,2.523-1.236c0.409-0.054,1.018,0.006,0.967-0.619
		c-0.056-0.691-0.691-0.767-1.193-0.632c-0.55,0.147-1.026,0.561-1.573,0.732c-1.164,0.363-2.216-0.137-2.61-1.128
		c-0.535-1.343,0.818-0.943,1.458-1.169c2.324-0.823,4.621-3.641,4.418-5.452c-0.104-0.942-0.145-1.949-1.383-2.196
		c-1.175-0.235-1.715,0.659-2.338,1.348c-0.231,0.256-0.265,0.683-0.423,1.016c-0.507,1.064-1.59,0.519-2.373,0.824
		c-0.427,0.167-0.499-0.222-0.511-0.494c-0.044-0.944,0.754-1.064,1.355-1.489c1.839-1.302,3.444-3.016,5.993-2.782
		c0.345,0.031,0.598-0.267,0.514-0.561c-0.116-0.406-0.301-0.933-0.621-1.104c-0.417-0.224-0.998-0.125-1.501-0.21
		c-0.979-0.166-1.954-0.356-0.763-1.585c0.918-0.948,0.757-1.479-0.592-1.7c-0.826-0.136-1.333-0.906-1.321-1.602
		c0.017-1.055,1.026-0.603,1.57-0.588c1.804,0.05,2.193-1.784,3.597-2.337c-1.022-0.937-2.292-0.418-3.252-1.029
		c-0.415-0.264-0.741-0.464-0.669-0.989c0.078-0.57,0.517-0.655,0.977-0.67c0.443-0.015,0.89-0.035,1.33,0.003
		c1.193,0.105,1.813-0.261,1.613-1.611c-0.19-1.293,0.113-2.191,1.699-2.531c1.543-0.331,1.924-2.088,2.887-3.154
		c0.129-0.143,0.036-0.552,0.164-0.621c2.405-1.311,3.837-2.74,1.176-5.264c-0.483-0.458,0.18-0.961,0.935-0.967
		c1.402-0.012,2.808-0.074,4.203-0.209c0.819-0.08,1.443-0.034,1.792,0.851c0.349,0.886,0.088,1.43-0.787,1.703
		c-0.755,0.236-0.745,0.872-0.725,1.449c0.025,0.736,0.688,0.582,1.157,0.736c1.683,0.555,3.308,0.845,4.722-0.606
		c-0.035-0.16-0.017-0.358-0.099-0.416c-0.608-0.427-1.978-0.063-1.805-1.19c0.144-0.933,0.845-1.934,1.783-2.348
		c0.796-0.351,1.343-0.646,1.07-1.569c-0.263-0.893-1.027-0.932-1.799-0.939c-0.512-0.005-1.078,0.049-1.523-0.145
		c-0.79-0.343-1.892-0.75-1.729-1.743c0.166-1.012,1.241-0.292,1.891-0.449c1.836-0.445,3.601-0.588,5.407,0.341
		c1.379,0.708,2.555-0.885,3.934-0.733c1.301,0.145,2.218,1.908,4.093,0.761c-1.944-0.416-2.627-2.343-4.429-2.787
		c-0.859-0.212-1.583-0.58-2.525-0.122c-1.294,0.628-2.321-0.176-3.083-1.103c-0.681-0.828-0.447-1.897,0.062-2.718
		c0.686-1.105,1.892-1.238,2.959-0.751c1.289,0.587,1.702,0.33,2.19-1.026c0.673-1.869,1.958-3.295,4.332-2.959
		c2.819,0.399,4.911-0.951,6.704-2.937c0.407-0.451,0.853-0.925,1.508-0.695c0.781,0.273,0.633,1.018,0.746,1.674
		c0.272,1.588-1.321,2.854-0.605,4.576c0.326,0.785,0.526,1.378,1.409,1.336c1.397-0.067,2.822,0.125,4.183-0.333
		c0.67-0.225,1.682-0.318,1.449-1.316c-0.199-0.854-0.337-1.994-1.62-2.086c-1.012-0.072-1.895-0.294-2.285-1.394
		c-0.4-1.125-0.578-2.083,1.122-2.07c0.67,0.005,1.25-0.19,1.849-0.59c0.826-0.551,1.807-0.795,2.449,0.369
		c0.451,0.819,1.158,0.617,1.729,0.341c0.812-0.393,0.234-1.019,0.052-1.526c-0.172-0.479-0.391-0.95-0.654-1.386
		c-0.245-0.405-0.428-0.827-0.209-1.248c0.325-0.625,0.865-0.308,1.365-0.229c0.502,0.08,1.053,0.177,1.528,0.055
		c0.872-0.225,1.702-0.636,2.385,0.343c0.657,0.943,0.356,1.819-0.141,2.699c-0.249,0.441-0.572,0.866-0.461,1.425
		c1.497,0.215,4.75-1.805,4.9-3.13c0.224-1.968-1.656-2.129-2.744-2.716c-2.558-1.379-2.465-1.395-1.017-3.703
		c1.808-2.879,4.309-4.002,7.991-3.983c-1.867-1.513-3.133-2.87-3.257-5.041c-0.121-2.101,1.2-4.259,3.366-4.349
		c1.53-0.063,2.18-0.712,2.835-1.949c1.029-1.941,2.475-2.151,3.752-0.376c1.426,1.982,2.941,1.322,4.586,0.734
		c0.501-0.179,1.074-0.581,0.887-1.116c-0.518-1.479,0.104-2.174,1.266-3.068c1.029-0.792,1.975-1.158,3.188-1.149
		c0.463,0.003,1.152,0.336,1.241-0.456c0.069-0.614-0.547-0.535-0.956-0.627c-0.57-0.129-1.395-0.222-1.384-0.865
		c0.017-1.043,1.062-0.386,1.569-0.677c1.405-0.802,2.701-1.013,4.043,0.229c0.339,0.314,1.136,0.138,1.723,0.18
		c0.868,0.064,1.494-0.396,1.687-1.152c0.207-0.814-0.588-1.087-1.151-1.418c-0.808-0.474-2.661-0.248-2.136-1.604
		c0.5-1.297,2.049-0.103,3.134-0.128c0.138-0.003,0.363,0.054,0.405,0.148c1.135,2.533,4.257,2.386,5.814,4.318
		c0.844,1.048,1.584,0.724,2.428,0.035c0.83-0.677,1.1-1.278,0.215-2.175c-1.048-1.061-1.325-2.456-1.134-3.897
		c0.115-0.866,0.333-2.061,1.369-1.979c1.046,0.083,2.204,0.851,2.089,2.125c-0.113,1.269,0.453,1.806,1.361,2.442
		c1.042,0.729,0.822,0.609,1.917-0.124c1.004-0.671,2.341-0.837,2.669-2.107c-1.024-0.063-2.148,0.074-2.525-1.373
		c-0.154-0.593-0.686-0.782-1.175-0.896c-2.003-0.466-0.557-1.961-0.859-2.928c-0.346-1.105,0.778-1.031,1.415-1.222
		c0.629-0.189,1.318-0.184,1.948-0.372c0.398-0.12,1.085-0.555,1.054-0.65c-0.953-2.836,1.755-1.805,2.725-2.492
		c0.828-0.586,1.937-0.75,2.899-1.263c0.937-0.499,2.578,0.265,3.895,0.551c2.682,0.582,3.398,0.097,3.892-2.739
		c0.279-1.603,1.692-2.07,3.405-2.07c3.223-0.001,6.177,1.248,9.31,1.531c0.76,0.069,1.738,0.267,1.388-1.206
		c-0.545-2.293,0.56-3.392,2.824-3.48c0.292,0.036,0.584,0.072,0.876,0.107c1.525,1.106,2.844,0.548,3.842-0.705
		c0.837-1.05,1.85-1.654,3.08-1.983c3.681-0.986,7.748-0.942,10.635-4.045c0.22-0.237,0.672-0.316,1.029-0.355
		c1.011-0.109,1.295-0.607,0.782-1.458c-0.879-1.454-0.262-2.481,0.862-3.403c0.309,0.008,0.617,0.016,0.927,0.023
		c2.252,0.471,4.586-0.322,6.819,0.438c0.129,0.464,0.402,0.776,0.902,0.843c0.364,0.784,0.75,1.517,1.779,0.774
		c0.488,0.406,1.019,0.365,1.567,0.149c0.437,0.269,0.96,0.458,1.295,0.82c2.515,2.72,5.333,0.498,7.995,0.462
		c0.783-0.011,1.059-0.928,0.717-1.772c-0.311-0.768,0-1.279,0.7-1.615c2.478-1.189,4.829-2.657,7.84-2.106
		c1.211,0.222,2.183-1.359,1.716-2.365c-1.091-2.356-1.091-2.349,1.47-2.547c0.512-0.04,1.048-0.073,1.522-0.249
		c0.583-0.217,1.193-0.542,0.279-1.194c-1.438-1.024-0.373-1.612,0.481-1.966c1.115-0.461,2.283-0.303,3.467,0.065
		c2.691,0.837,4.911-0.032,6.48-2.391c0.299-0.451,0.804-1.038,1.217-0.67c1.449,1.29,2.889,0.087,4.26,0.223
		c2.601,0.256,4.834-0.521,6.988-1.604c1.135-0.572,1.757-0.279,2.535,0.399c2.405,2.1,7.708,1.435,9.595-1.125
		c0.627-0.851,1.395-2.376,2.193-2.18c2.748,0.674,5.221-1.156,7.88-0.532c1.39,0.969,2.699-0.359,4.063-0.145
		c2.244-0.426,4.47-0.653,6.738-0.023c1.115,0.309,1.342-0.247,1.085-1.369c-0.294-1.286-0.434-2.728,0.889-3.645
		c1.397-0.968,7.616-0.299,8.802,0.844c0.518,0.499,0.179,0.854-0.015,1.352c-0.972,2.511-0.072,4.234,2.546,4.627
		c1.865,0.28,4.003,1.769,5.501-0.83c0.108-0.189,0.692-0.118,1.056-0.145c1.093-0.081,2.39,0.076,2.617-1.42
		c0.221-1.464-0.084-2.823-1.58-3.582c-0.499-0.253-1.274-0.245-1.187-1.065c0.092-0.875,0.849-1.125,1.54-1.415
		c1.126-0.473,1.862,0.3,2.557,0.9c0.96,0.827,2.535,1.259,2.989,0.532c1.247-1.991,2.621-0.999,4.051-0.723
		c0.808,0.157,1.633,0.195,2.351-0.326c0.503-0.363,1.009-0.646,1.634-0.34c1.639,0.799,3.295,0.438,4.977,0.16
		c0.936-0.154,1.695-0.153,1.711-1.472c0.01-0.963,3.664-2.174,4.396-1.482c0.552,0.522,0.93,1.49,0.059,1.87
		c-1.436,0.625-0.532,1.456-0.455,2.231c0.104,1.035,1.007,1.602,1.696,1.344c2.453-0.918,5.294-1.014,7.332-2.758
		c1.641-1.403,3.212-2.277,5.37-1.702c1.015,0.489,2.029,0.978,3.045,1.466c0.249,0.833,0.964,0.892,1.616,0.84
		c1.949-0.153,3.447,0.396,4.412,2.246c0.49,0.941,1.529,1.217,2.523,1.011c1.714-0.354,3.519-0.47,4.904-1.816
		c0.617-0.601,1.673-0.892,1.732-1.868c0.067-1.114-1.313-0.893-1.919-1.461c0.718-0.419,1.625-0.629,1.793-1.103
		c0.759-2.125,1.835-1.807,3.47-0.949c1.12,0.589,2.361,0.242,1.811-1.522c-0.28-0.901-0.16-1.512,0.729-1.727
		c2.762-0.667,5.146-2.611,8.172-2.387c0.525,0.038,1.139-0.65,1.563,0.138c0.294,0.55-0.176,0.974-0.408,1.416
		c-0.241,0.458-0.529,0.891-0.895,1.496c3.188-1.83,6.366-0.705,9.229-0.064c1.216,0.272,2.376,0.444,3.614,0.639
		c1.672,0.262,4.061-2.331,4.91,1.068c0.66-0.233,0.754-0.706,0.872-1.117c0.453-1.591,0.889-2.831,2.725-1.008
		c0.809,0.803,2.121,0.846,3.043,0.021c1.764-1.581,6.004-2,7.482-0.371c1.337,1.47,2.197,1.671,3.256-0.168
		c0.373-0.65,1.166-0.899,1.966-0.77c0.958,0.155,1.065,0.956,1.129,1.681c0.089,0.999,0.494,1.831,1.013,2.661
		c0.811,1.3,0.516,2.857,0.835,4.28c0.198,0.881-1.027,0.846-1.604,1.236c-0.534,0.363-0.507,0.731-0.141,1.29
		c0.888,1.355,2.746,1.382,3.614-0.09c0.522-0.883,0.777-1.92,1.277-2.818c0.71-1.272,2.378-2.393,3.18-1.396
		c1.773,2.203,2.844,0.38,3.964-0.302c0.764-0.466,1.282-0.868,2.148-0.437c1.87,0.932,3.777,1.677,5.955,1.351
		c0.574-0.086,1.544,0.54,1.036,0.896c-1.486,1.044-2.335,2.813-4.072,3.489c-0.457,0.178-0.738-0.236-1.025-0.629
		c-1.409-1.936-3.776-1.96-5.295-0.099c0.665,0.488,2.206-0.247,2.109,1.009c-0.085,1.087-1.402,1.091-2.364,1.014
		c-0.789-0.063-1.031,0.424-1.513,0.927c-1.669,1.75-4.106,1.691-6.269,2.254c-1.513,0.394-1.674-1.576-2.265-1.712
		c-1.975-0.453-2.335-1.448-3.085-3.251c-0.987-2.375-2.603-2.177-4.974-0.64c-0.615,0.398-1.309,0.696-1.997,0.956
		c-1.444,0.545-2.12,0.124-2.373-1.525c-0.249-1.621,0.789-3.268-0.238-4.847c-0.236-0.365,0.209-0.629,0.582-0.75
		c0.396-0.13,1.059-0.125,0.892-0.715c-0.172-0.608-0.907-0.957-1.429-0.744c-2.027,0.824-4.458,0.13-6.27,1.709
		c-0.413,0.359-1.271,0.284-1.206,1.088c0.051,0.628,0.649,0.728,1.154,0.856c0.582,0.148,0.966,0.241,1.396-0.518
		c0.689-1.218,3.832-1.107,4.602,0.033c0.314,0.467,0.463,1.017-0.221,1.279c-1.449,0.554-2.086,1.731-2.713,3.043
		c-0.521,1.094-1.574,1.812-2.787,2c-2.878,0.448-5.65,1.722-8.675,1.126c-0.388-0.076-0.872,0.11-1.26,0.288
		c-2.288,1.057-2.837,0.903-3.911-1.357c-0.263-0.553-0.451-1.397-1.108-0.882c-0.903,0.708-2.043,0.44-2.875,1.003
		c-0.947,0.64-2.017,1.094-2.834,0.313c-0.884-0.843-1.935-1.784-1.345-3.445c0.381-1.076,0.197-2.313-0.032-3.502
		c-0.228-1.19-0.961-1.607-1.884-1.221c-2.138,0.895-4.74,0.56-6.493,2.495c-0.489,0.539-1.853,0.238-1.686,1.391
		c0.126,0.882,1.077,1.104,1.851,1.398c2.841,1.081,3.244,3.534,0.856,5.465c-0.604,0.489-1.011,1.003-1.202,1.725
		c0,0,0.033-0.032,0.034-0.03c-0.791-0.066-1.487-0.051-2.071-0.914c-1.546-2.281-2.967-2.518-5.387-0.959
		c-1.898,1.223-4.289,1.493-5.935,3.205c-0.472,0.49-1.212,0.283-1.896,0.237c-2.415-0.16-4.782-1.606-7.291-0.084
		c-0.951,0.577-1.614-0.494-2.021-1.262c-0.435-0.823-0.764-1.658-1.92-1.241c-0.945,0.34-2.362,0.056-2.747,1.094
		c-0.4,1.071,1.063,1.404,1.576,2.163c0.074,0.109,0.063,0.274,0.104,0.474c-0.395,0.169-0.845,0.275-1.192,0.525
		c-1.318,0.947-2.463,1.449-4.064,0.224c-2.561-1.96-4.75-0.545-6.663,1.33c-0.837,0.821-1.513,1.806-2.262,2.716
		C395.854,211.205,395.586,211.356,395.317,211.507z M127.878,314.888c1.561,2.218-0.003,2.472-1.492,2.778
		c-2.825,0.582-3.059,1.477-1.463,3.853c1.426,2.124,3.392,0.741,5.065,1.141c1.392,0.333,2.325-0.292,2.657-1.632
		c0.318-1.288,1.241-2.285,2.26-2.55c2.77-0.722,1.896-2.719,1.716-4.354c-0.162-1.469-1.347-1.763-2.292-0.607
		c-0.725,0.887-1.371,1.329-2.41,0.648c-0.611-0.4-1.132-0.286-1.554,0.254C129.769,315.181,128.96,314.997,127.878,314.888z
		 M166.272,298.033c2.273,0.104,2.967-1.632,4.263-2.287c1.966-0.993,2.984-1.692,0.601-3.375c-0.546-0.386-0.403-1.645-1.625-1.335
		c-1.015,0.257-1.497,0.987-1.562,1.917c-0.092,1.34-0.815,1.576-1.948,1.402c-0.799-0.122-1.61-0.168-2.417-0.246
		c-0.501-0.048-0.924,0.016-1.041-0.776c-0.306-2.075-1.676-2.583-3.407-1.252c-0.981,0.753-1.321,2.077-1.292,3.161
		c0.035,1.273,1.373,0.617,2.151,0.811c0.996,0.247,1.988,0.54,2.941,0.916C164.173,297.459,165.4,297.938,166.272,298.033z
		 M146.84,314.341c-1.744-0.241-3.023,0.62-4.448,1.508c-1.325,0.826-1.874,2.864-4.139,2.57c-0.412-0.053-1.188,2.624-1.756,4.056
		c-0.037,0.092,0.245,0.346,0.415,0.478c1.336,1.039,4.591-0.17,5.173-1.749c0.304-0.825-0.023-2.351,1.554-2.252
		c1.409,0.088,2.549-0.649,3.824-0.954c1.336-0.319,2.328-1.32,2.2-2.411C149.506,314.26,148.134,314,146.84,314.341z
		 M82.835,373.599c-0.919,0.113-2.314-0.31-2.296,0.79c0.018,1.1-0.849,2.616,0.747,3.461c0.771,0.408,1.554,0.827,2.231,1.367
		c0.901,0.717,1.829,0.575,2.686,0.139c0.903-0.459,1.495-1.299,1.232-2.368c-0.183-0.746-0.068-1.26,0.462-1.791
		c0.684-0.685,1.079-1.557,0.298-2.346c-0.751-0.76-1.75-0.785-2.634-0.128C84.711,373.355,83.881,373.941,82.835,373.599z
		 M96.124,371.106c-0.322,0.283-0.27,0.658-0.249,1.022c0.039,0.657,0.236,1.481-0.707,1.575c-0.981,0.099-1.146-0.756-1.254-1.5
		c-0.041-0.279,0.126-0.583,0.11-0.871c-0.07-1.301-1.108-1.573-2.042-1.531c-1.152,0.052-1.071,1.084-0.89,1.875
		c0.195,0.856,0.464,1.741,0.923,2.476c0.349,0.559,0.911,1.669,1.558,1.269c2.948-1.823,6.274-1.156,9.403-1.714
		c1.188-0.211,2.148-0.867,2.661-2.167c-1.946-0.322-3.664-0.062-5.388,0.788C98.083,373.397,97.021,372.999,96.124,371.106z
		 M210.09,270.186c1.112,0.524,1.779-0.178,2.134-1.304c0.457-1.453,1.078-2.735,2.528-3.465c0.395-0.199,0.693-0.597,0.457-1.106
		c-0.21-0.453-0.641-0.563-1.1-0.621c-0.736-0.094-1.21,0.415-1.802,0.692c-2.278,1.063-4.36,3.134-7.237,1.507
		c-0.38-0.215-1.123-0.148-1.254,0.521c-0.11,0.565,0.435,0.732,0.865,0.754c1.266,0.064,1.834,0.517,1.672,1.938
		c-0.135,1.181,0.857,1.435,1.827,1.301C208.75,270.322,209.273,269.935,210.09,270.186z M86.665,357.903
		c1.022,0.541,1.827,1.119,2.548,1.857c0.85,0.869,1.928,1.374,3.207,0.96c0.604-0.196,1.414-0.245,1.348-1.163
		c-0.056-0.783-0.746-0.816-1.325-0.88c-1.251-0.139-2.457-0.363-3.545-1.083C88.245,357.163,87.513,357.113,86.665,357.903z
		 M172.665,274.145c0.875,1.322,2.042,1.824,3.148,2.461c0.685,0.395,1.314,0.668,2.051,0.432c0.595-0.19,0.326-0.677,0.257-1.101
		c-0.155-0.947-0.563-1.744-1.561-1.879C175.352,273.894,174.113,273.651,172.665,274.145z M179.762,278.849
		c-0.571,0.167-1.912-0.393-1.59,0.627c0.317,1.005,1.572,1.774,2.796,2.036c0.692,0.148,1.218-0.238,1.069-0.97
		C181.8,279.382,181.255,278.463,179.762,278.849z M190.427,267.668c1.166-0.087,1.881-0.393,1.865-1.566
		c-0.013-0.958-0.52-1.269-1.375-1.262c-0.973,0.006-1.478,0.536-1.557,1.459C189.284,267.183,189.713,267.666,190.427,267.668z
		 M358.284,203.066c-0.413-0.469-0.651-1.248-1.452-1.134c-0.871,0.124-1.084,0.918-1.18,1.631
		c-0.102,0.756,0.348,0.742,0.955,0.571C357.283,203.943,358.111,204.083,358.284,203.066z M203.373,266.445
		c-1.287-0.378-1.779-1.112-2.798-0.982C200.904,266.872,201.631,267.087,203.373,266.445z"/>
	<path fill-rule="evenodd" clip-rule="evenodd" fill="#13B994" d="M427.746,189.156c0.305,0.649,0.868,1.486-0.066,1.875
		c-0.877,0.364-1.91,0.971-2.913,0.302c-0.538-0.359-0.563-1.052-0.391-1.606c0.349-1.135,1.422-0.305,2.075-0.671
		C426.883,189.089,427.315,189.122,427.746,189.156z"/>
	<path fill-rule="evenodd" clip-rule="evenodd" fill="#13B994" d="M334.137,201.208c0.423,1.403-0.3,1.692-1.496,1.562
		c-0.797-0.087-1.29-0.525-1.152-1.299c0.135-0.751,0.809-0.728,1.425-0.599c0.357,0.075,0.712,0.159,1.067,0.239
		C333.981,201.112,334.137,201.208,334.137,201.208z"/>
	<path fill-rule="evenodd" clip-rule="evenodd" fill="#13B994" d="M603.987,503.151c-0.634-0.948-2.326-1.42-1.381-3.075
		c0,0.003,0.14-0.087,0.142-0.088c0.411,0.553,0.821,1.106,1.23,1.662C603.982,502.15,603.984,502.65,603.987,503.151z"/>
	<path fill-rule="evenodd" clip-rule="evenodd" fill="#13B994" d="M515.933,541.247c-2.542,0.227-4.34-1.432-6.376-2.373
		c-0.642-0.297-0.854-1.229-0.536-1.506c1.261-1.1,0.758-2.65,1.242-3.924c0.695-1.828,1.988-2.59,3.318-1.947
		c1.284,0.622,2.033,2.718,1.426,3.926c-0.22,0.438-0.699,0.909-0.248,1.407c0.388,0.428,0.953,0.384,1.429,0.082
		c0.612-0.392,1.377-0.566,1.905-0.234c2.253,1.409,3.833,0.083,5.579-1.081c2.425-1.619,3.307-1.124,3.84,1.624
		c0.227,1.166-0.281,1.534-1.112,1.726C522.918,539.747,519.423,540.486,515.933,541.247z"/>
	<path fill-rule="evenodd" clip-rule="evenodd" fill="#13B994" d="M644.809,470.706c-0.107,3.107-0.756,3.632-3.234,3.307
		c-0.575-0.076-1.25-0.124-1.754,0.1c-2.609,1.16-4.985-0.259-7.451-0.596c-0.821-0.113-1.234-0.908-1.266-1.622
		c-0.033-0.772,0.832-0.635,1.346-0.844c1.956-0.79,4.146-0.88,5.983-2.033c0.753-0.475,1.533-0.482,2.273,0.088
		c0.638,0.49,1.431,0.641,2.104,0.359C644.938,468.58,644.812,469.963,644.809,470.706z"/>
	<path fill-rule="evenodd" clip-rule="evenodd" fill="#13B994" d="M78.359,392.623c0.167,0.324,0.279,0.698,0.514,0.962
		c0.563,0.635,1.631,1.103,1.105,2.146c-0.412,0.82-1.416,0.676-2.213,0.688c-1.847,0.028-3.696-0.049-5.541,0.011
		c-1.973,0.063-2.649-1.27-2.776-2.792c-0.134-1.608,1.145-2.065,2.53-2.11c0.622-0.019,1.131-0.24,1.638-0.58
		c1.357-0.909,2.516-0.875,3.132,0.859c0.304,0.855,1.07,0.625,1.646,0.85L78.359,392.623z"/>
	<path fill-rule="evenodd" clip-rule="evenodd" fill="#13B994" d="M654.192,314.942c-0.275-0.125-0.688-0.175-0.789-0.379
		c-0.706-1.432-1.713-2.86-1.854-4.362c-0.07-0.738,1.642-1.556,2.812-1.435c1.769,0.182,3.173-0.449,4.511-1.439
		c0.951-0.706,1.539-0.103,1.97,0.63c0.558,0.944,0.007,1.857-0.84,1.828c-2.711-0.096-3.849,1.405-4.588,3.698
		C655.256,313.97,654.92,314.725,654.192,314.942z"/>
	<path fill-rule="evenodd" clip-rule="evenodd" fill="#13B994" d="M487.301,545.263c-0.013,1.028-0.31,1.807-1.564,1.389
		c-2.135-0.712-3.103-0.238-3.638,1.907c-0.188,0.746,0.111,1.923-0.928,1.993c-1.126,0.076-2.384-0.137-3.401-0.615
		c-0.819-0.385-0.171-1.239,0.301-1.612c0.846-0.666,1.308-1.5,1.775-2.447c1.087-2.202,4.832-3.348,6.553-2.146
		C487.298,544.36,487.298,544.36,487.301,545.263z"/>
	<path fill-rule="evenodd" clip-rule="evenodd" fill="#13B994" d="M60.78,404.856c-0.912-0.093-1.771-0.072-2.02-0.928
		c-0.267-0.918,0.514-1.23,1.18-1.577c1.614-0.843,3.325-1.438,4.716-2.776c0.923-0.89,4.761,0.519,5.492,1.742
		c0.414,0.692,0.052,1.175-0.569,1.363c-0.966,0.295-1.971,0.619-2.964,0.637c-1.711,0.028-3.365-0.009-4.744,1.269
		C61.592,404.842,61.038,404.798,60.78,404.856z"/>
	<path fill-rule="evenodd" clip-rule="evenodd" fill="#13B994" d="M352.866,217.277c-1.419,1.674-2.635,3.488-4.248,4.82
		c-0.619,0.511-2.231-0.117-2.942-0.998c-0.688-0.852-1.322-2.119,0.583-2.392c1.281-0.184,1.5-1.01,1.632-1.99
		c0.223-1.634,1.446-1.183,2.386-1.088C351.401,215.743,352.379,216.237,352.866,217.277z"/>
	<path fill-rule="evenodd" clip-rule="evenodd" fill="#13B994" d="M153.557,536.093c0.009,0.51-0.282,0.739-0.589,0.944
		c-1.871,1.252-0.775,1.748,0.554,2.182c0.616,0.2,1.364,0.173,1.71,0.854c0.138,0.271-0.001,0.617-0.338,0.687
		c-0.831,0.169-1.742,0.791-2.492-0.023c-1.46-1.585-3.051-2.952-5.08-3.762c-0.56-0.226-0.805-0.687-0.372-1.228
		c0.838-1.045,1.957-1.453,3.292-1.495c1.265-0.041,2.342,0.182,3.046,1.338C153.399,535.772,153.489,535.966,153.557,536.093z"/>
	<path fill-rule="evenodd" clip-rule="evenodd" fill="#13B994" d="M62.326,452.726c-0.803-0.123-1.458,0.07-1.585-0.63
		c-0.103-0.563,0.466-0.6,0.825-0.837c1.889-1.25,3.017-3.214,4.451-4.891c0.408-0.477,0.584-1.356,1.469-0.915
		c0.503,0.252,1.109,0.645,1.29,1.118c0.314,0.828-0.567,1.065-1.093,1.411c-0.929,0.613-2.021,1.108-1.339,2.562
		c0.141,0.299,0.052,0.723-0.229,0.745C64.624,451.411,63.379,452.223,62.326,452.726z"/>
	<path fill-rule="evenodd" clip-rule="evenodd" fill="#13B994" d="M700.35,399.487c-0.793-0.168-1.436-0.356-2.091-0.43
		c-0.779-0.087-1.521-0.18-1.591-1.163c-0.063-0.917,0.535-1.172,1.311-1.477c1.422-0.557,2.752-1.343,4.126-2.019
		c0.64-0.313,1.352-0.411,1.838,0.164c0.432,0.512,0.179,1.202-0.174,1.654C702.772,397.495,702.346,399.434,700.35,399.487z"/>
	<path fill-rule="evenodd" clip-rule="evenodd" fill="#13B994" d="M101.979,338.54c0.02,0.993-0.232,2.027-1.395,1.689
		c-1.542-0.447-3.984,0.832-4.426-1.956c-0.177-1.113,1.936-2.645,3.454-2.435C101.066,336.037,101.881,337.04,101.979,338.54z"/>
	<path fill-rule="evenodd" clip-rule="evenodd" fill="#13B994" d="M233.647,262.351c-1.177-0.521-1.62-0.17-1.986,0.805
		c-0.415,1.106-1.417,1.062-2.435,0.797c-1.422-0.37-1.582-1.361-0.505-1.944c1.739-0.943,3.405-2.234,5.49-2.354
		c0.798-0.046,2.035-0.395,2.166,0.855c0.138,1.313-1.243,1.392-2.1,1.825C234.051,262.448,233.717,262.351,233.647,262.351z"/>
	<path fill-rule="evenodd" clip-rule="evenodd" fill="#13B994" d="M690.697,439.042c0.859,0.013,1.305,0.213,1.566,0.734
		c0.328,0.652,0.018,1.215-0.411,1.596c-1.168,1.04-2.339,1.983-1.916,3.858c0.115,0.506-0.529,0.855-1.12,0.764
		c-0.938-0.147-1.199-1.026-1.182-1.67c0.042-1.656,1.623-2.851,1.58-4.637C689.21,439.452,690.345,439.188,690.697,439.042z"/>
	<path fill-rule="evenodd" clip-rule="evenodd" fill="#13B994" d="M670.443,463.009c-0.827-0.084-1.719,0.446-2.146-0.356
		c-0.416-0.78,0.514-1.066,0.914-1.536c0.137-0.161,0.209-0.38,0.298-0.575c0.565-1.247,1.479-2.654,2.823-2.017
		c1.084,0.515,0.966,2.452,0.823,3.568C672.98,463.453,671.29,462.669,670.443,463.009z"/>
	<path fill-rule="evenodd" clip-rule="evenodd" fill="#13B994" d="M350.867,568.39c-0.22-0.011-0.862,0.098-1.387-0.1
		c-0.884-0.333-1.176-1.17-0.877-2.005c0.385-1.073,1.225-0.923,1.979-0.394c0.62,0.435,1.228,0.799,2.013,0.802
		c0.506,0.002,1.107-0.059,1.131,0.707c0.025,0.786-0.485,0.994-1.16,0.99C352.124,568.388,351.68,568.39,350.867,568.39z"/>
	<path fill-rule="evenodd" clip-rule="evenodd" fill="#13B994" d="M653.883,306.153c-2.278,1.93-4.891,1.387-7.354,1.586
		C648.771,306.488,650.8,304.313,653.883,306.153z"/>
	<path fill-rule="evenodd" clip-rule="evenodd" fill="#13B994" d="M681.366,449.095c-1.163-0.069-2.15-0.814-1.79-1.559
		c0.47-0.97,0.142-2.477,1.403-2.911c0.856-0.293,2.964,2.189,2.736,3.313C683.451,449.248,681.948,448.409,681.366,449.095z"/>
	<path fill-rule="evenodd" clip-rule="evenodd" fill="#13B994" d="M715.651,352.059c-0.764-0.045-1.762-0.282-1.704-1.527
		c0.05-1.082,0.644-2.015,1.896-1.968c1.151,0.042,1.501,0.859,1.599,1.954C717.553,351.761,716.95,352.074,715.651,352.059z"/>
	<path fill-rule="evenodd" clip-rule="evenodd" fill="#13B994" d="M152.485,480.379c-0.08-0.984,0.002-1.768,0.648-2.401
		c0.583-0.571,1.249-0.84,1.992-0.424c0.708,0.397,0.669,1.054,0.428,1.745c-0.241,0.692-0.43,1.402-0.646,2.104
		c-0.196,0.634,0.276,1.753-0.808,1.752c-0.959,0-1.446-0.891-1.604-1.822C152.435,480.974,152.485,480.598,152.485,480.379z"/>
	<path fill-rule="evenodd" clip-rule="evenodd" fill="#13B994" d="M103.061,508.157c0.834,0.09,1.982-0.073,1.931,1.207
		c-0.076,1.897-1.688,2.138-3.1,2.42c-0.752,0.15-1.466-0.328-1.218-1.086C101.046,509.556,101.092,507.895,103.061,508.157z"/>
	<path fill-rule="evenodd" clip-rule="evenodd" fill="#13B994" d="M499.402,513.37c0.088,1.649,0.358,3.224-0.763,4.614
		c-0.374,0.464-0.722,0.999-1.404,0.836c-0.834-0.198-0.457-0.917-0.532-1.45C496.408,515.294,497.158,513.924,499.402,513.37z"/>
	<path fill-rule="evenodd" clip-rule="evenodd" fill="#13B994" d="M153.271,281.249c-0.167,0.917-0.364,2.299-1.445,2.292
		c-1.627-0.011-1.667-1.783-1.981-2.938c-0.218-0.799,0.446-1.634,1.385-1.616C152.522,279.014,153.118,279.914,153.271,281.249z"/>
	<path fill-rule="evenodd" clip-rule="evenodd" fill="#13B994" d="M99.72,331.013c1.146,0.118,2.38-0.059,3.221,1.047
		c0.484,0.636,0.72,1.199-0.297,1.46c-0.921,0.237-1.861,0.493-2.803,0.537c-1.569,0.074-1.349-1.359-1.524-2.238
		C98.084,330.653,98.923,330.73,99.72,331.013z"/>
	<path fill-rule="evenodd" clip-rule="evenodd" fill="#13B994" d="M633.477,487.811c-0.761-0.509-1.99-0.787-2.462-1.777
		c-0.374-0.781,0.701-1.131,1.22-1.242c1.173-0.252,2.288,0.241,3.245,0.91C635.788,485.918,634.212,487.788,633.477,487.811z"/>
	<path fill-rule="evenodd" clip-rule="evenodd" fill="#13B994" d="M274.718,244.304c-0.145,0.594,0.004,1.724-1.129,1.776
		c-0.737,0.034-1.714-0.408-1.627-1.4c0.085-0.967,0.539-2.118,1.534-2.288C274.338,242.249,274.772,243.177,274.718,244.304z"/>
	<path fill-rule="evenodd" clip-rule="evenodd" fill="#13B994" d="M49.587,434.835c-1.108,0.076-1.289-0.698-1.248-1.29
		c0.119-1.719,1.687-1.772,2.859-2.185c0.725-0.253,1.036,0.219,1.067,0.95C52.354,434.329,50.316,433.93,49.587,434.835z"/>
	<path fill-rule="evenodd" clip-rule="evenodd" fill="#13B994" d="M701.604,389.102c1.424-0.294,2.701-1.203,4.248-0.994
		c0.516,0.069,1.106,0.056,1.162,0.736c0.049,0.602-0.411,0.941-0.925,1.087c-1.125,0.32-2.254,0.671-3.407,0.842
		c-1.494,0.223-1.252-0.789-1.049-1.702L701.604,389.102z"/>
	<path fill-rule="evenodd" clip-rule="evenodd" fill="#13B994" d="M147.488,531.854c-0.234,0.622,0.375,1.917-0.973,1.747
		c-2.076-0.261-1.477-2.243-1.917-3.524c-0.211-0.616,0.068-1.282,0.865-1.16C147.094,529.163,147.597,530.299,147.488,531.854z"/>
	<path fill-rule="evenodd" clip-rule="evenodd" fill="#13B994" d="M278.166,534.387c-0.761,0.044-1.161-0.193-1.159-0.847
		c0.005-1.73,1.5-1.758,2.599-2.174c0.546-0.206,1.123,0.093,1.053,0.734C280.492,533.626,278.838,533.555,278.166,534.387z"/>
	<path fill-rule="evenodd" clip-rule="evenodd" fill="#13B994" d="M704.225,350.732c-0.143,0.163-0.249,0.387-0.421,0.461
		c-1.137,0.496-2.272,0.997-3.438,1.417c-0.547,0.197-1.228,0.29-1.493-0.445c-0.236-0.659,0.37-0.872,0.806-1.104
		c1.042-0.554,2.146-0.947,3.324-1.069C703.531,349.938,704.004,350.11,704.225,350.732z"/>
	<path fill-rule="evenodd" clip-rule="evenodd" fill="#13B994" d="M109.55,516.667c0.085,1.256-0.606,1.478-1.526,1.413
		c-1.207-0.085-1.653-0.847-1.547-1.931c0.068-0.699,0.156-1.576,1.302-1.14C108.645,515.338,110.098,515.072,109.55,516.667z"/>
	<path fill-rule="evenodd" clip-rule="evenodd" fill="#13B994" d="M594.344,504.616c0.465-0.062,0.917,0.026,0.824,0.476
		c-0.23,1.118-1.07,1.685-2.138,1.882c-0.444,0.084-0.95-0.06-0.886-0.659C592.288,504.974,593.586,505.089,594.344,504.616z"/>
	<path fill-rule="evenodd" clip-rule="evenodd" fill="#13B994" d="M388.646,566.133c-0.539-0.264-1.621,0.247-1.591-0.678
		c0.037-1.176,1.008-1.704,2.171-1.718c0.822-0.009,1.956,0.09,1.865,1.015C390.97,565.955,389.669,565.99,388.646,566.133z"/>
	<path fill-rule="evenodd" clip-rule="evenodd" fill="#13B994" d="M664.324,312.482c-0.918-0.103-1.232-0.544-1.232-1.203
		c0.001-0.922,0.195-1.813,1.263-2.009c0.729-0.134,1.023,0.409,1.039,1.081C665.416,311.32,664.752,311.881,664.324,312.482z"/>
	<path fill-rule="evenodd" clip-rule="evenodd" fill="#13B994" d="M71.672,465.304c-1.579,0.956-2.66,0.269-3.767-0.23
		c-0.573-0.259-0.712-0.742-0.555-1.261c0.241-0.79,0.868-0.393,1.248-0.212C69.566,464.061,70.48,464.632,71.672,465.304z"/>
	<path fill-rule="evenodd" clip-rule="evenodd" fill="#13B994" d="M700.391,418.865c-1.262-0.054-2.198-0.771-2.379-1.852
		c-0.12-0.719,0.806-1.449,1.641-1.396c1.235,0.079,1.896,1.232,2.226,2.153C702.184,418.62,701.043,418.693,700.391,418.865z"/>
	<path fill-rule="evenodd" clip-rule="evenodd" fill="#13B994" d="M100.297,329.514c-0.6,0.025-1.049-0.185-0.878-0.569
		c0.446-1.004,0.404-2.48,1.916-2.635c0.922-0.094,1.658,0.5,1.505,1.454C102.604,329.229,100.879,328.694,100.297,329.514z"/>
	<path fill-rule="evenodd" clip-rule="evenodd" fill="#13B994" d="M148.241,332.125c-0.148-0.247-0.271-0.516-0.45-0.738
		c-0.458-0.57-1.146-1.173-0.462-1.888c0.409-0.428,0.962,0.058,1.331,0.413c0.639,0.614,1.403,1.279,0.925,2.261
		c-0.339,0.696-0.89-0.12-1.357-0.061C148.229,332.111,148.241,332.125,148.241,332.125z"/>
	<path fill-rule="evenodd" clip-rule="evenodd" fill="#13B994" d="M677.926,321.806c0.834,0.265,2.003,0.48,2.247,1.544
		c0.196,0.859-0.8,1.158-1.506,1.191c-0.996,0.046-1.911-0.283-2.023-1.492C676.57,322.275,676.972,321.819,677.926,321.806z"/>
	<path fill-rule="evenodd" clip-rule="evenodd" fill="#13B994" d="M641.403,295.378c-0.339,0.778-0.106,2.092-1.564,2.169
		c-0.755,0.04-1.028-0.517-0.983-1.164c0.074-1.057,0.643-1.794,1.706-1.992C641.166,294.279,641.552,294.574,641.403,295.378z"/>
	<path fill-rule="evenodd" clip-rule="evenodd" fill="#13B994" d="M72.367,469.079c-0.292,0.515-0.022,1.592-1.041,1.548
		c-0.863-0.036-0.801-0.896-0.77-1.53c0.037-0.783,0.385-1.52,1.248-1.463C72.571,467.684,72.464,468.424,72.367,469.079z"/>
	<path fill-rule="evenodd" clip-rule="evenodd" fill="#13B994" d="M693.128,434.878c-0.642,0.626-1.24,1.305-1.938,1.859
		c-0.533,0.424-1.267,0.617-1.733-0.064c-0.532-0.775,0.092-1.234,0.724-1.46c0.898-0.322,1.844-0.512,2.771-0.758
		C693.009,434.597,693.069,434.737,693.128,434.878z"/>
	<path fill-rule="evenodd" clip-rule="evenodd" fill="#13B994" d="M81.609,467.093c0.015,0.673-0.185,1.144-0.971,1.174
		c-0.599,0.024-1.08-0.119-1.001-0.811c0.081-0.724,0.549-1.217,1.294-1.265C81.511,466.152,81.634,466.602,81.609,467.093z"/>
	<path fill-rule="evenodd" clip-rule="evenodd" fill="#13B994" d="M586.898,504.632c0.634,0.141,1.608-0.165,1.677,0.858
		c0.048,0.701-0.683,0.853-1.279,0.851c-0.833-0.002-1.779-0.201-1.826-1.131C585.432,504.441,586.361,504.766,586.898,504.632z"/>
	<path fill-rule="evenodd" clip-rule="evenodd" fill="#13B994" d="M710.042,394.048c-0.343,0.883-0.954,1.501-1.881,1.707
		c-0.675,0.15-1.253-0.186-1.284-0.868c-0.043-0.929,0.475-1.563,1.486-1.514C708.967,393.404,709.745,393.139,710.042,394.048z"/>
	<path fill-rule="evenodd" clip-rule="evenodd" fill="#13B994" d="M612.947,489.784c0.321-0.47-0.569-1.656,0.412-1.542
		c1.129,0.13,1.244,1.598,1.564,2.533c0.194,0.568-0.674,0.563-1.165,0.562C612.593,491.329,612.711,490.602,612.947,489.784z"/>
	<path fill-rule="evenodd" clip-rule="evenodd" fill="#13B994" d="M539.29,536.164c-2.065,1.082-2.794-0.011-3.499-1.042
		c-0.28-0.409-0.171-0.966,0.338-1.067C537.808,533.722,537.859,535.533,539.29,536.164z"/>
	<path fill-rule="evenodd" clip-rule="evenodd" fill="#13B994" d="M306.099,535.209c-0.155,0.581-0.217,1.326-1.131,1.219
		c-0.377-0.043-1.016-0.085-0.859-0.679c0.179-0.677,0.495-1.393,1.374-1.464C306.146,534.232,306.101,534.727,306.099,535.209z"/>
	<path fill-rule="evenodd" clip-rule="evenodd" fill="#13B994" d="M576.475,514.83c1.082-0.024,1.257,0.41,1.195,0.994
		c-0.107,1.005-0.793,1.336-1.688,1.338c-0.426,0.002-0.996-0.035-0.865-0.664C575.308,515.586,575.791,514.874,576.475,514.83z"/>
	<path fill-rule="evenodd" clip-rule="evenodd" fill="#13B994" d="M714.008,343.45c0.09,0.622-0.26,0.912-0.763,0.75
		c-0.864-0.279-1.594-0.877-1.759-1.785c-0.104-0.564,0.466-0.894,1.05-0.878C713.797,341.573,713.633,342.732,714.008,343.45z"/>
	<path fill-rule="evenodd" clip-rule="evenodd" fill="#13B994" d="M571.932,520.488c-0.468-0.023-0.982-0.018-0.813-0.683
		c0.189-0.742,0.878-0.913,1.499-1.083c0.587-0.16,0.779,0.212,0.719,0.728C573.238,520.297,572.563,520.381,571.932,520.488z"/>
	<path fill-rule="evenodd" clip-rule="evenodd" fill="#13B994" d="M526.997,530.531c0.052-0.638,0.423-0.954,0.997-1
		c0.846-0.067,1.465,0.324,1.589,1.167c0.08,0.539-0.214,1.051-0.89,0.97C527.953,531.581,527.247,531.36,526.997,530.531z"/>
	<path fill-rule="evenodd" clip-rule="evenodd" fill="#13B994" d="M599.041,496.94c-0.631,0.862-1.187,1.816-2.397,1.379
		c-0.382-0.139-0.461-0.622-0.303-0.929C596.99,496.125,598.091,496.957,599.041,496.94z"/>
	<path fill-rule="evenodd" clip-rule="evenodd" fill="#13B994" d="M706.594,339.015c0.73,0.146,1.789-0.108,1.838,1.032
		c0.034,0.772-0.82,1.162-1.412,1.034c-0.857-0.187-2.147-0.39-2.221-1.351C704.729,338.813,705.919,339.172,706.594,339.015z"/>
	<path fill-rule="evenodd" clip-rule="evenodd" fill="#13B994" d="M323.575,538.951c0.506,0.05,1.14,0.015,1.041,0.778
		c-0.097,0.745-0.651,1.127-1.366,1.233c-0.524,0.079-0.842-0.164-0.87-0.717C322.337,539.411,322.826,539.062,323.575,538.951z"/>
	<path fill-rule="evenodd" clip-rule="evenodd" fill="#13B994" d="M532.418,537.009c-0.443-0.058-0.93-0.242-0.89-0.726
		c0.073-0.892,0.95-0.991,1.584-1.203c0.401-0.134,0.59,0.314,0.551,0.706C533.589,536.517,533.227,536.988,532.418,537.009z"/>
	<path fill-rule="evenodd" clip-rule="evenodd" fill="#13B994" d="M322.354,535.613c-0.165,0.637-0.588,0.99-1.232,1.033
		c-0.468,0.031-0.94-0.111-0.841-0.69c0.119-0.698,0.79-0.775,1.344-0.899C322.032,534.965,322.32,535.151,322.354,535.613z"/>
	<path fill-rule="evenodd" clip-rule="evenodd" fill="#13B994" d="M656.243,316.102c0.568,0.089,0.791,0.442,0.69,0.939
		c-0.16,0.778-0.815,0.994-1.479,1.069c-0.458,0.052-0.674-0.337-0.556-0.726C655.1,316.723,655.556,316.257,656.243,316.102z"/>
	<path fill-rule="evenodd" clip-rule="evenodd" fill="#13B994" d="M380.414,212.403c0.048,0.342-0.156,0.554-0.482,0.535
		c-0.262-0.016-0.663-0.116-0.741-0.293c-0.198-0.446,0.167-0.666,0.554-0.727C380.071,211.865,380.294,212.071,380.414,212.403z"/>
	<path fill-rule="evenodd" clip-rule="evenodd" fill="#13B994" d="M472.455,282c0.031-0.631-0.007-1.159,0.095-1.659
		c0.241-1.202,1.306-2.058,2.188-1.556c1.22,0.693,2.107,1.852,3.679,0.888c0.063-0.039,0.381,0.19,0.458,0.353
		c0.157,0.327-0.08,0.553-0.344,0.701c-1.608,0.902-3.066,1.993-4.377,3.296c-0.318,0.316-0.832,0.431-1.224,0.124
		C472.163,283.546,472.55,282.654,472.455,282z"/>
	<path fill-rule="evenodd" clip-rule="evenodd" fill="#13B994" d="M541.831,294.315c0.772,0.422,2.191-0.181,2.461,1.162
		c0.167,0.846-0.763,1.067-1.379,0.874c-0.89-0.28-2.257,0.124-2.549-1.119C540.156,294.346,541.121,294.396,541.831,294.315z"/>
	<path fill-rule="evenodd" clip-rule="evenodd" fill="#13B994" d="M491.281,188.694c-0.532-0.036-1.192,0.025-1.132-0.71
		c0.051-0.617,0.639-0.745,1.186-0.719c0.509,0.023,1.224,0.014,1.242,0.626C492.6,188.659,491.825,188.616,491.281,188.694z"/>
	<path fill-rule="evenodd" clip-rule="evenodd" fill="#13B994" d="M373.83,195.437c-0.14,0.034-0.284,0.113-0.417,0.096
		c-0.73-0.093-1.69,0.34-2.061-0.644c-0.21-0.559,0.33-0.973,0.807-1.085c1.054-0.245,1.846,0.058,1.945,1.309
		C374.021,195.228,373.929,195.336,373.83,195.437z"/>
	<path fill-rule="evenodd" clip-rule="evenodd" fill="#13B994" d="M374.104,195.113c0.239,0.083,0.487,0.149,0.706,0.268
		c0.026,0.014-0.061,0.42-0.166,0.459c-0.376,0.142-0.648-0.054-0.813-0.405C373.929,195.336,374.021,195.228,374.104,195.113z"/>
</g>
<rect x="257.928" y="387.668" transform="matrix(-0.7071 -0.7071 0.7071 -0.7071 351.3766 944.5189)" fill="#5F5F5F" width="226.754" height="23.638"/>
<rect x="257.927" y="387.667" transform="matrix(0.7071 -0.7071 0.7071 0.7071 -173.7272 379.5599)" fill="#5F5F5F" width="226.754" height="23.639"/>
</svg>
